<svg width="118" height="140" viewBox="0 0 118 140" fill="none" xmlns="http://www.w3.org/2000/svg">
<g clip-path="url(#clip0_794_1162)">
<path fill-rule="evenodd" clip-rule="evenodd" d="M115.235 96.4703C105.919 122.292 82.3019 136.802 44.384 139.995C113.448 111.849 112.489 46.6181 45.4286 29.0835C45.4286 29.0835 42.3757 53.9868 33.4017 103.793V0C85.0936 2.56084 129.721 42.0832 115.235 96.4703ZM79.5372 106.55C86.2869 97.5256 90.461 86.4089 88.9075 74.9966C88.7229 73.6366 88.4662 72.3129 88.1465 71.0257C79.9605 100.25 61.2379 114.947 28.0163 114.16V21.1508H0L16.9665 138.422C41.6237 135.292 63.917 127.432 79.5372 106.55Z" fill="#454545"/>
</g>
<defs>
<clipPath id="clip0_794_1162">
<rect width="118" height="140" fill="white"/>
</clipPath>
</defs>
</svg>
