<svg width="73" height="65" viewBox="0 0 73 65" fill="none" xmlns="http://www.w3.org/2000/svg">
<g clip-path="url(#clip0_796_1516)">
<path d="M72.2438 51.7152C72.2332 50.4263 71.8297 50.0065 70.5098 49.9806C68.9821 49.9507 67.4535 49.972 65.9253 49.9701C64.8312 49.9685 64.2833 49.4197 64.2816 48.3235C64.2807 35.6361 64.2813 22.9485 64.281 10.2611C64.281 7.1336 64.2275 7.07946 61.159 7.07946C52.6295 7.07946 44.1003 7.07946 35.5708 7.07946C29.4224 7.07946 23.274 7.06379 17.126 7.0957C16.2087 7.10055 15.8485 6.84009 15.8929 5.8866C15.9591 4.46806 15.9263 3.0441 15.9018 1.62271C15.881 0.423869 15.4775 0.0263464 14.2869 0.0118133C12.7945 -0.00642432 11.3016 -0.000155142 9.80899 0.00810878C8.39272 0.0158028 8.00318 0.400502 7.97839 1.86265C7.95502 3.24842 7.9459 4.63505 7.97896 6.02054C7.9972 6.79393 7.70682 7.1051 6.9189 7.08886C5.21368 7.05353 3.50732 7.06778 1.80154 7.0843C0.413482 7.09741 0.0176692 7.49493 0.00769548 8.85706C-0.00284814 10.3141 -0.00227822 11.7714 0.00769548 13.2284C0.0165293 14.5822 0.415762 14.9974 1.79356 15.0205C3.35686 15.0464 4.92074 15.0262 6.48461 15.0299C7.96385 15.0336 7.96955 15.0359 7.97012 16.5137C7.9724 23.053 7.97126 29.5921 7.97126 36.1314C7.97126 42.5639 7.96927 48.9966 7.97269 55.4291C7.97383 57.6478 8.25509 57.9188 10.5046 57.9199C11.855 57.9208 13.2055 57.9199 14.5562 57.9199C28.0255 57.9199 41.4948 57.9308 54.9642 57.8997C56.0191 57.8971 56.4366 58.1616 56.3662 59.2695C56.2784 60.6499 56.3266 62.0405 56.3551 63.426C56.3784 64.5607 56.7914 64.9699 57.9121 64.9856C59.4401 65.0072 60.9683 65.0001 62.4966 64.9902C63.8108 64.9816 64.2337 64.5963 64.2676 63.2941C64.3047 61.8735 64.3107 60.4504 64.2713 59.0299C64.2486 58.2046 64.5526 57.8875 65.3893 57.9083C67.0942 57.9507 68.8008 57.9336 70.5066 57.914C71.8283 57.8989 72.2329 57.4911 72.244 56.1928C72.2571 54.7001 72.2563 53.2075 72.244 51.7149L72.2438 51.7152ZM5.96085 12.5909C5.67703 12.5909 5.39321 12.5909 5.10938 12.5909C4.71898 12.5904 4.32887 12.5909 3.93847 12.5904C2.93711 12.5886 2.43662 12.0749 2.437 11.049C2.43738 10.0366 2.94566 9.52957 3.96184 9.52786C4.99084 9.52672 6.02012 9.54581 7.04855 9.52358C7.66236 9.51019 7.93165 9.73645 7.97782 10.3796C8.13312 12.5465 8.11147 12.5909 5.96114 12.5912L5.96085 12.5909ZM56.2003 55.2387C56.0892 55.5659 55.6393 55.4678 55.3269 55.4687C53.5502 55.4747 51.7732 55.4724 49.9964 55.4724C37.3096 55.4724 24.6228 55.4724 11.9362 55.4724C10.9079 55.4724 10.3934 54.9426 10.3926 53.8832C10.3923 45.5674 10.3926 37.2519 10.3926 28.9361C10.3926 20.5494 10.3895 12.1626 10.4017 3.77589C10.4023 3.34702 10.1698 2.70215 10.7371 2.55425C11.549 2.34281 12.444 2.26273 13.2362 2.62549C13.6158 2.79932 13.4525 3.33761 13.4534 3.71633C13.4614 7.76736 13.4585 11.8187 13.4585 15.8697C13.4585 27.3127 13.4579 38.7556 13.4591 50.1986C13.4591 52.1811 13.6856 52.4085 15.6553 52.4085C28.7328 52.4093 41.8106 52.4065 54.8884 52.4196C55.3509 52.4202 56.0439 52.1509 56.2274 52.7291C56.4813 53.5295 56.4782 54.4223 56.2006 55.239L56.2003 55.2387ZM56.2294 49.6147C56.124 50.1695 55.4469 49.9612 55.0152 49.9621C48.9757 49.9743 42.9362 49.9706 36.8964 49.9706H36.0438C29.7911 49.9706 23.5382 49.9484 17.2858 49.992C16.2221 49.9994 15.7983 49.7082 15.8924 48.6108C15.9767 47.6234 16.0109 46.6101 15.8884 45.6306C15.6533 43.7513 16.3261 42.3214 17.5697 40.9382C19.4675 38.8272 21.1952 36.5631 22.9914 34.3609C23.8377 33.3234 23.8451 33.3097 24.7185 34.2532C28.6995 38.5547 32.6733 42.8628 36.6505 47.1674C36.8189 47.3498 36.9842 47.5385 37.1722 47.6989C37.6952 48.1443 38.2699 48.2486 38.8071 47.7667C39.3833 47.2501 39.3571 46.6041 38.8934 46.0527C38.1169 45.1291 37.307 44.2281 36.447 43.3826C35.9139 42.8585 35.8426 42.4904 36.3541 41.8805C38.5458 39.2683 40.6992 36.6235 42.8359 33.966C43.2759 33.4188 43.5597 33.4667 43.9974 33.944C47.9592 38.2632 51.9384 42.5664 55.9054 46.8808C56.6583 47.6995 56.4021 48.7062 56.2291 49.6153L56.2294 49.6147ZM15.8929 16.2279C15.8887 15.2821 16.209 15.0125 17.1268 15.014C29.8142 15.037 42.5016 15.0362 55.189 15.016C56.0658 15.0145 56.3616 15.2981 56.3591 16.1832C56.3346 25.0677 56.3445 33.9526 56.3423 42.8372C56.3423 43.0409 56.3115 43.2444 56.2761 43.6809C52.5146 39.6148 48.9218 35.7316 45.3299 31.8476C45.2093 31.7171 45.0976 31.5786 44.9782 31.4469C43.5452 29.8679 43.0613 29.8853 41.7259 31.523C39.4129 34.3592 37.0731 37.1741 34.7845 40.0303C34.2708 40.6717 33.9582 40.7051 33.3968 40.0881C30.6942 37.1185 27.9611 34.1771 25.2229 31.2403C23.985 29.9127 23.4855 29.9486 22.3414 31.3469C20.297 33.8451 18.2502 36.3411 16.1884 38.8574C15.7653 38.6069 15.9192 38.2521 15.9189 37.9774C15.9083 30.7274 15.9251 23.4774 15.8932 16.2276L15.8929 16.2279ZM61.5044 62.4509C60.6908 62.6469 59.796 62.7464 59.0078 62.3656C58.6339 62.185 58.7995 61.6498 58.7989 61.2711C58.7915 55.7631 58.7938 50.255 58.7938 44.747C58.7938 34.7613 58.7944 24.7754 58.7932 14.7897C58.7932 12.8223 58.5604 12.5915 56.5853 12.5912C43.5078 12.5904 30.4303 12.5932 17.3528 12.5798C16.8923 12.5792 16.197 12.8505 16.0215 12.2601C15.7827 11.4576 15.7567 10.5608 16.0653 9.75412C16.2024 9.39592 16.7017 9.5327 17.0459 9.53185C19.7468 9.52444 22.4474 9.52729 25.1482 9.52729C36.9109 9.52729 48.6733 9.527 60.436 9.52786C61.3825 9.52786 61.8569 9.99083 61.8591 10.9168C61.8603 19.3035 61.8597 27.69 61.8597 36.0767C61.8597 44.4634 61.8628 52.8499 61.8506 61.2366C61.85 61.6644 62.0817 62.3115 61.5044 62.4509ZM67.8191 55.4721C67.5709 55.4721 67.3224 55.4721 67.074 55.4721C66.6129 55.4721 66.1515 55.4735 65.6905 55.4718C64.7544 55.4684 64.2847 54.9918 64.2813 54.0419C64.2773 52.9541 64.8208 52.4097 65.9119 52.4088C66.8699 52.4082 67.8288 52.4367 68.7854 52.4002C69.489 52.3734 69.8039 52.5966 69.8287 53.3571C69.8974 55.4727 69.9261 55.4718 67.8194 55.4721H67.8191Z" fill="#454545"/>
<path d="M33.4421 29.3725C36.0022 29.3611 38.0691 27.2915 38.056 24.7524C38.0431 22.2989 35.7953 20.0964 33.3629 20.1534C30.782 20.2138 28.7969 22.251 28.8069 24.8288C28.8169 27.4072 30.8336 29.3842 33.4421 29.3725ZM33.4011 22.5634C34.5902 22.5736 35.6443 23.6619 35.6135 24.8476C35.5833 26.0094 34.5746 26.939 33.3558 26.9281C32.0857 26.917 31.2371 26.0413 31.253 24.7587C31.2679 23.5565 32.2493 22.5534 33.4011 22.5634Z" fill="#454545"/>
</g>
<defs>
<clipPath id="clip0_796_1516">
<rect width="72.2529" height="65" fill="white"/>
</clipPath>
</defs>
</svg>
