<svg width="64" height="65" viewBox="0 0 64 65" fill="none" xmlns="http://www.w3.org/2000/svg">
<g clip-path="url(#clip0_796_1513)">
<path d="M63.011 45.4945C61.2413 43.6931 59.454 41.9091 57.6531 40.1389C57.1027 39.5981 56.4981 39.6678 55.9495 40.1866C55.5317 40.5818 55.0975 40.9668 54.7284 41.4054C54.2798 41.9383 53.9612 41.9673 53.4355 41.4341C50.0467 37.9966 46.6291 34.5872 43.1985 31.1912C42.7248 30.7224 42.695 30.3768 43.0254 29.7937C44.6246 26.9713 44.1968 23.7337 41.992 21.4968C39.7545 19.227 36.5963 18.7503 33.7183 20.3341C33.0178 20.7196 32.6279 20.6327 32.0881 20.0839C29.0169 16.9616 25.9066 13.8781 22.8095 10.7812C21.8541 9.82577 21.8412 8.87985 22.7708 7.94342C22.9284 7.7845 23.0866 7.62609 23.2381 7.46153C23.7892 6.86276 23.7853 6.25117 23.2191 5.68008C21.4638 3.90915 19.7041 2.14231 17.9265 0.394184C17.3854 -0.137943 16.7726 -0.128459 16.2261 0.413409C14.4551 2.16871 12.6901 3.92991 10.9338 5.69982C10.3599 6.27809 10.3755 6.89967 10.944 7.47332C12.6768 9.2217 14.4216 10.958 16.1602 12.7003C16.7815 13.3229 17.4011 13.2665 18.0093 12.6905C18.4038 12.3171 18.8132 11.9528 19.1623 11.5391C19.6313 10.9832 19.9897 10.9137 20.5274 11.5127C21.4228 12.5106 22.4101 13.4262 23.3611 14.3741C24.5981 15.6065 25.8374 16.8363 27.1595 18.1502C26.6249 18.2266 26.3211 18.0231 25.9974 17.9257C20.2652 16.2009 14.7053 16.4146 9.41377 19.4375C8.83987 19.7653 8.44923 19.6407 7.93325 19.3493C4.47007 17.3923 0.181521 19.6479 0.0074775 23.5276C-0.0932576 25.773 0.839759 27.535 2.86497 28.5521C4.86942 29.5589 6.85797 29.3654 8.61123 27.9361C10.3709 26.5017 10.884 24.6057 10.3317 22.4241C10.2107 21.9458 10.0128 21.5496 10.6218 21.2164C13.4327 19.6789 16.4406 18.8651 19.6303 18.9733C23.5 19.1042 27.0791 20.352 30.4807 22.1578C31.0395 22.4544 31.1795 22.7158 30.886 23.3408C29.5969 26.0847 30.137 29.1455 32.206 31.2112C34.2482 33.25 37.3251 33.8246 39.9955 32.5499C40.7534 32.188 40.9751 32.4305 41.2584 33.0503C44.5201 40.183 44.3401 47.2142 40.7091 54.1698C40.3697 54.8198 40.0003 54.8906 39.3321 54.7047C36.8363 54.0104 34.3138 55.1523 33.1978 57.4102C32.103 59.6259 32.6895 62.3132 34.5957 63.816C36.6435 65.4303 39.4328 65.3901 41.396 63.7181C43.2554 62.1343 43.7649 59.379 42.5159 57.1831C42.1324 56.509 42.1316 56.0248 42.509 55.3499C45.0919 50.7286 46.158 45.7837 45.6064 40.4939C45.4439 38.935 45.0599 37.4216 44.7015 35.7043C46.7931 37.8012 48.7371 39.7437 50.6729 41.6943C51.256 42.2818 52.1793 42.8326 52.2895 43.5078C52.4107 44.2508 51.316 44.7189 50.78 45.3318C50.0997 46.1097 50.061 46.5862 50.7818 47.3178C52.4643 49.0256 54.1604 50.7207 55.8696 52.4019C56.5593 53.0804 57.094 53.0884 57.7807 52.415C59.5152 50.714 61.2236 48.9862 62.9428 47.2693C63.5149 46.698 63.5792 46.073 63.0107 45.4943L63.011 45.4945ZM20.5931 7.01322C19.5247 8.06876 18.4679 9.13609 17.4036 10.1957C17.316 10.2831 17.2052 10.3472 17.1394 10.3964C16.8625 10.421 16.748 10.2488 16.6162 10.1176C15.5971 9.10303 14.5943 8.07158 13.558 7.075C13.1494 6.68205 13.2225 6.4124 13.5929 6.0538C14.603 5.07593 15.5978 4.0814 16.5749 3.07071C16.9207 2.71314 17.1729 2.70494 17.521 3.06354C18.5227 4.09524 19.5457 5.10618 20.5677 6.11814C20.8722 6.41958 20.9199 6.69025 20.5931 7.01322ZM5.26006 26.9252C3.53039 26.9195 2.20648 25.6279 2.19622 23.9365C2.1852 22.1137 3.50655 20.8006 5.33003 20.8219C7.0151 20.8416 8.36644 22.1955 8.369 23.867C8.37156 25.6051 7.02356 26.9311 5.26006 26.9252ZM37.0267 30.9561C34.385 30.9382 32.3332 28.8927 32.3419 26.2859C32.3506 23.7247 34.496 21.607 37.0741 21.6149C39.6674 21.6229 41.7982 23.7276 41.8064 26.2892C41.8148 28.9342 39.7255 30.9743 37.0267 30.9561ZM37.9131 62.7771C36.1342 62.7707 34.8108 61.4494 34.8272 59.6959C34.8433 57.9662 36.2052 56.6651 37.9828 56.6807C39.6699 56.6956 41.0264 58.0449 41.0377 59.7194C41.0495 61.4489 39.6858 62.7835 37.9131 62.7771ZM60.3493 46.8336C59.3156 47.8319 58.3003 48.8498 57.2998 49.8818C56.9446 50.248 56.689 50.2093 56.3514 49.8628C55.3487 48.8331 54.3255 47.8237 53.3038 46.8125C53.0513 46.5626 52.8806 46.3358 53.2071 46.0131C54.2973 44.9355 55.3782 43.8484 56.4676 42.7698C56.5542 42.6839 56.678 42.6357 56.7511 42.5906C57.0517 42.5827 57.2037 42.7585 57.3601 42.9141C58.3561 43.9056 59.3391 44.9104 60.347 45.8895C60.7002 46.2327 60.7125 46.4827 60.3491 46.8336H60.3493Z" fill="#454545"/>
<path d="M26.1499 35.6591C26.0302 35.7037 25.9095 35.7458 25.7898 35.7904C18.6063 38.4661 11.4231 41.1434 4.23862 43.8164C3.62268 44.0455 2.97854 44.2701 2.99443 45.0703C3.01032 45.8769 3.66805 46.0661 4.29655 46.2566C7.13892 47.1175 9.9654 48.036 12.8285 48.8206C13.8728 49.1066 14.3134 49.6641 14.5938 50.6566C15.4092 53.5449 16.3296 56.4034 17.2032 59.2752C17.3806 59.8586 17.6238 60.3572 18.3374 60.3807C19.1648 60.3859 19.3796 59.7553 19.6047 59.1506C21.4992 54.0621 23.3893 48.9718 25.2807 43.882C26.104 41.6666 26.9248 39.4499 27.7509 37.2355C27.9403 36.728 28.0195 36.2318 27.584 35.8127C27.1552 35.3997 26.6541 35.4718 26.1502 35.6594L26.1499 35.6591ZM18.602 55.5772C18.1629 55.3307 18.1583 54.9577 18.0634 54.6481C17.4834 52.7538 16.8736 50.8676 16.3548 48.9564C16.0741 47.9229 15.5315 47.3388 14.4726 47.0519C12.231 46.4444 10.021 45.7208 7.76743 44.8278C13.4201 42.7231 19.0726 40.6182 24.9929 38.4138C22.8033 44.2941 20.7143 49.904 18.602 55.5772Z" fill="#454545"/>
</g>
<defs>
<clipPath id="clip0_796_1513">
<rect width="63.4062" height="65" fill="white"/>
</clipPath>
</defs>
</svg>
