<svg width="69" height="65" viewBox="0 0 69 65" fill="none" xmlns="http://www.w3.org/2000/svg">
<g clip-path="url(#clip0_796_1519)">
<path d="M66.0252 44.2499C59.2002 44.2481 52.3756 44.2507 45.5507 44.244C45.2106 44.2438 44.8418 44.3363 44.4196 44.0713C44.8664 43.7387 45.2342 43.4584 45.6086 43.1872C50.7842 39.4413 55.9608 35.6968 61.1369 31.9512C62.3241 31.092 62.4083 30.6653 61.5518 29.4843C58.2327 24.9077 54.9072 20.3362 51.5757 15.7687C50.6804 14.541 50.2778 14.4893 49.0273 15.3975C47.5657 16.4592 46.1137 17.534 44.6545 18.5986C44.0762 19.0205 43.4891 19.4304 42.8359 19.8955C42.8174 19.4164 43.0416 19.1935 43.1833 18.9411C44.6733 16.2872 46.173 13.6387 47.6625 10.9845C48.3116 9.82791 48.1847 9.3703 47.0217 8.71421C42.0985 5.93746 37.1727 3.16447 32.2442 0.397117C31.0798 -0.256834 30.6286 -0.140421 29.9629 1.01808C28.8964 2.87398 27.8589 4.74651 26.8079 6.61126C25.3353 9.22519 23.8619 11.8383 22.3888 14.452C22.3236 14.4235 22.2587 14.3954 22.1935 14.3669C22.1935 10.7557 22.1978 7.14424 22.1914 3.53302C22.1887 2.04541 21.8357 1.69 20.361 1.68893C14.1718 1.68463 7.98257 1.68437 1.79364 1.68893C0.272225 1.69053 0.0010422 1.97325 0.0010422 3.52525C-0.000298962 23.364 -0.000298962 43.2028 0.000773969 63.0415C0.000773969 64.6603 0.316216 64.9964 1.92051 64.9967C23.2978 65.0009 44.6752 65.0009 66.0525 64.9967C67.6702 64.9964 67.9996 64.656 68.0004 63.0654C68.0026 57.4448 68.0023 51.8246 68.0007 46.204C68.0002 44.4785 67.7713 44.2502 66.0249 44.2497L66.0252 44.2499ZM18.648 62.7309C13.6313 62.6898 8.61426 62.7127 3.59724 62.711C2.29524 62.7105 2.29041 62.707 2.29041 61.3522C2.28907 51.9871 2.2896 42.622 2.2896 33.257C2.2896 24.0257 2.28933 14.7945 2.2896 5.56301C2.2896 4.5178 2.82678 3.99483 3.90114 3.99412C8.81785 3.99358 13.7346 4.01584 18.651 3.97507C19.604 3.96702 19.9101 4.23633 19.9087 5.21484C19.8827 23.9783 19.8824 42.7417 19.9095 61.5053C19.9109 62.494 19.5925 62.7387 18.648 62.7312V62.7309ZM44.0054 21.8713C45.8256 20.5645 47.6416 19.2504 49.4336 17.9052C49.9122 17.546 50.1426 17.6573 50.4626 18.1007C53.282 22.0057 56.1207 25.8969 58.9596 29.7879C59.2171 30.1409 59.417 30.4064 58.913 30.7619C57.0273 32.0923 55.169 33.4611 53.2989 34.8135C53.1913 34.8913 53.0725 34.9533 52.9882 35.005C52.6513 35.0606 52.5478 34.8151 52.4156 34.6367C49.5471 30.7675 46.6869 26.8918 43.8115 23.0276C43.4451 22.5352 43.5253 22.216 44.0054 21.8713ZM28.0013 9.11253C29.0997 7.24 30.1501 5.33903 31.193 3.43458C31.4966 2.88015 31.8201 2.74737 32.3917 3.07193C36.5169 5.41334 40.6528 7.73596 44.7822 10.0696C44.9732 10.1774 45.2387 10.2429 45.213 10.616C45.1492 10.7418 45.0649 10.9226 44.9678 11.0961C43.8911 13.0199 42.7965 14.934 41.7434 16.8706C41.3939 17.513 41.0414 17.6203 40.3961 17.2429C36.3873 14.9002 32.3652 12.58 28.3342 10.2756C27.7835 9.96068 27.6572 9.69808 28.0008 9.11199L28.0013 9.11253ZM22.3936 19.1611C23.6044 16.8913 24.8965 14.6647 26.1599 12.4228C26.2717 12.2243 26.3627 11.9877 26.71 11.9944C26.905 12.0939 27.1478 12.2047 27.3779 12.3378C31.343 14.6274 35.2988 16.9326 39.2773 19.1983C39.9393 19.5755 40.0844 19.8606 39.6638 20.5717C38.2695 22.9297 36.9383 25.3261 35.6317 27.7346C35.2766 28.3893 34.9831 28.4886 34.3292 28.101C30.5635 25.8682 26.7913 23.6448 22.977 21.4968C22.0589 20.9799 21.9873 19.9228 22.3936 19.1611ZM22.1863 39.1964C22.1828 38.4446 22.4465 38.4178 23.0074 38.7447C24.3917 39.5518 25.7844 40.3447 27.1821 41.1288C27.5858 41.3552 27.8181 41.5904 27.5437 42.0759C25.8235 45.1171 24.1125 48.1632 22.3982 51.2076C22.3303 51.176 22.2627 51.1446 22.1949 51.1129C22.1949 47.1407 22.2045 43.1687 22.1863 39.1964ZM22.9559 36.141C22.3754 35.8253 22.1748 35.4066 22.1855 34.7676C22.2142 33.0628 22.1951 31.3573 22.1951 29.6519C22.1943 27.98 22.2096 26.3081 22.1868 24.6365C22.1777 23.9581 22.285 23.677 23.0098 24.1054C26.4343 26.1295 29.8685 28.1375 33.3153 30.1235C33.8973 30.4587 33.926 30.7616 33.6079 31.3147C32.1906 33.7771 30.7958 36.2528 29.4315 38.7453C29.0989 39.3528 28.8119 39.4708 28.1928 39.1028C26.4692 38.0782 24.7176 37.0997 22.9559 36.141ZM30.3478 62.0643C30.3478 62.5289 30.0992 62.7105 29.6528 62.7094C27.3846 62.7038 25.1167 62.7065 22.8486 62.7049C22.6447 62.7049 22.4462 62.6751 22.3091 62.5005C22.0114 62.1217 22.2002 60.1593 22.6066 59.8621C25.1068 58.032 27.6199 56.2193 30.3481 54.2419C30.3481 57.0122 30.3478 59.5384 30.3478 62.0643ZM30.1815 51.5638C27.7366 53.3081 25.3128 55.0817 22.8762 56.8376C22.7228 56.9481 22.5055 57.0892 22.3537 57.0554C22.1115 57.0014 22.2281 56.7241 22.2075 56.5782C22.1957 56.1852 22.3746 55.9006 22.5388 55.6093C24.0618 52.9058 25.5998 50.2103 27.0955 47.4918C27.4817 46.7901 27.7234 46.7855 28.1655 47.4389C28.8377 48.4333 29.5632 49.3938 30.3044 50.3388C30.6847 50.824 30.7421 51.1639 30.1818 51.5636L30.1815 51.5638ZM32.1962 49.1065C31.2306 47.7429 30.2333 46.4006 29.2228 45.0696C28.9208 44.6719 28.8674 44.3382 29.1217 43.8913C30.7086 41.1028 32.2777 38.304 33.845 35.5045C34.1111 35.0292 34.3386 34.9329 34.7026 35.4345C36.5874 38.0315 38.4908 40.6154 40.384 43.2062C40.4999 43.3648 40.5841 43.5461 40.6538 43.666C40.6436 44.0134 40.4234 44.1225 40.2365 44.2582C37.9377 45.9277 35.6333 47.5897 33.3448 49.2731C32.8692 49.6229 32.5572 49.6162 32.1967 49.1068L32.1962 49.1065ZM42.7981 54.6493C42.7978 56.9912 42.775 59.3335 42.8104 61.6746C42.822 62.4455 42.5846 62.7381 41.7801 62.7263C39.071 62.6866 36.3605 62.6931 33.6511 62.7234C32.9306 62.7314 32.6358 62.526 32.6452 61.7602C32.6796 58.9504 32.668 56.1399 32.6514 53.3299C32.6484 52.8095 32.8241 52.4536 33.2469 52.1502C35.6652 50.4142 38.0721 48.6621 40.4792 46.9103C40.8183 46.6635 41.189 46.5884 41.6004 46.5455C42.5103 46.4502 42.8402 46.7837 42.8169 47.7246C42.7595 50.0317 42.7981 52.3409 42.7981 54.6493ZM42.8823 42.3095C42.5315 42.3275 42.4132 42.107 42.278 41.9225C40.1233 38.9835 37.9763 36.0391 35.8122 33.107C35.5201 32.7114 35.5928 32.3962 35.8125 32.011C37.0209 29.8912 38.2105 27.7606 39.4098 25.6354C39.5246 25.4321 39.6445 25.2274 39.7915 25.0474C40.9406 23.6413 41.4593 23.6625 42.5154 25.093C45.0571 28.5358 47.6137 31.9676 50.1611 35.4063C50.9607 36.4857 50.9612 36.4975 49.9154 37.2595C47.754 38.8346 45.5861 40.4013 43.4188 41.9683C43.2318 42.1035 43.0293 42.2165 42.8823 42.3093V42.3095ZM55.2494 61.6593C55.2529 62.4047 55.074 62.7424 54.2393 62.7282C51.5299 62.6826 48.8188 62.6837 46.1097 62.7277C45.2908 62.7411 45.0781 62.4369 45.0896 61.6722C45.1253 59.2972 45.1027 56.9212 45.1027 54.5458C45.1027 52.2371 45.1239 49.9284 45.0907 47.6203C45.0799 46.873 45.2704 46.5283 46.0963 46.5398C48.806 46.5782 51.5165 46.5766 54.2261 46.5404C55.0338 46.5296 55.2543 46.844 55.2503 47.6069C55.2261 52.2907 55.2277 56.9752 55.2497 61.659L55.2494 61.6593ZM65.7183 61.7644C65.7204 62.4302 65.5131 62.7325 64.7961 62.7218C62.6913 62.6901 60.5851 62.6834 58.4806 62.725C57.6925 62.7405 57.527 62.3961 57.5348 61.7009C57.5616 59.3286 57.5453 56.9556 57.5453 54.5831C57.545 52.2773 57.5691 49.9711 57.5316 47.6659C57.5187 46.8735 57.7279 46.5178 58.5938 46.5385C60.631 46.5873 62.6706 46.5739 64.7087 46.5444C65.4324 46.5339 65.7234 46.7834 65.7204 47.5288C65.7006 52.2741 65.7035 57.0194 65.718 61.7647L65.7183 61.7644Z" fill="#454545"/>
<path d="M11.0766 47.6548C8.46346 47.6494 6.4265 49.677 6.43509 52.2746C6.44367 54.8359 8.5391 56.9134 11.1106 56.9099C13.5693 56.9064 15.71 54.771 15.7401 52.2917C15.7707 49.7612 13.6572 47.6602 11.0766 47.6548ZM11.1136 54.6299C9.82447 54.6511 8.74859 53.5961 8.74081 52.3033C8.73223 50.906 9.65763 49.9527 11.028 49.9471C12.3882 49.9415 13.4225 50.9149 13.4451 52.2223C13.4668 53.4805 12.3738 54.609 11.1136 54.6299Z" fill="#454545"/>
</g>
<defs>
<clipPath id="clip0_796_1519">
<rect width="68.0021" height="65" fill="white"/>
</clipPath>
</defs>
</svg>
