<?xml version="1.0" encoding="utf-8"?>
<!-- Generator: Adobe Illustrator 27.4.1, SVG Export Plug-In . SVG Version: 6.00 Build 0)  -->
<svg version="1.1" id="Layer_1" xmlns="http://www.w3.org/2000/svg" xmlns:xlink="http://www.w3.org/1999/xlink" x="0px" y="0px"
	 width="261px" height="65.5px" viewBox="0 0 261 65.5" enable-background="new 0 0 261 65.5" xml:space="preserve">
<path fill-rule="evenodd" clip-rule="evenodd" fill="#2B2A29" d="M15.8,0c0,32.4,0,48.6,0,48.6c4.2-23.3,5.7-35,5.7-35
	c31.7,8.2,32.1,38.7-0.5,51.9c17.9-1.5,29-8.3,33.5-20.3C61.3,19.7,40.2,1.2,15.8,0L15.8,0z"/>
<linearGradient id="SVGID_1_" gradientUnits="userSpaceOnUse" x1="21.0901" y1="64.7695" x2="21.0901" y2="9.9004">
	<stop  offset="0" style="stop-color:#8C231D"/>
	<stop  offset="1" style="stop-color:#E21E24"/>
</linearGradient>
<path fill="url(#SVGID_1_)" d="M8,64.8L0,9.9h13.2v43.5c15.7,0.4,24.6-6.5,28.4-20.2c0.1,0.6,0.3,1.2,0.4,1.9
	c0.7,5.3-1.3,10.5-4.4,14.8C30.2,59.6,19.7,63.3,8,64.8L8,64.8z"/>
<linearGradient id="SVGID_00000172408757659997703590000008196700298385326506_" gradientUnits="userSpaceOnUse" x1="166.4206" y1="31.4056" x2="166.4206" y2="15.6665">
	<stop  offset="0" style="stop-color:#8C231D"/>
	<stop  offset="1" style="stop-color:#E21E24"/>
</linearGradient>
<path fill="url(#SVGID_00000172408757659997703590000008196700298385326506_)" d="M78.6,19.1c1.3,0,2.3,0.3,2.9,1
	c0.7,0.7,1,1.6,1,2.9v4.2c0,1.3-0.3,2.3-1,2.9c-0.7,0.7-1.6,1-2.9,1h-6.7V19.1H78.6z M79.4,23.1c0-1-0.5-1.6-1.5-1.6H75v7.3h2.9
	c1,0,1.5-0.5,1.5-1.5V23.1z M92,22.4c0-0.7-0.4-1-1.1-1h-2.9c-0.7,0-1,0.3-1,1V28c0,0.7,0.3,1,1,1H91c0.7,0,1.1-0.3,1.1-1V22.4z
	 M95.2,28c0,1.2-0.3,2.1-0.8,2.6c-0.5,0.5-1.4,0.8-2.6,0.8h-4.3c-1.2,0-2.1-0.3-2.6-0.8c-0.5-0.5-0.8-1.4-0.8-2.6v-5.5
	c0-1.2,0.3-2.1,0.8-2.6c0.5-0.5,1.4-0.8,2.6-0.8h4.3c1.2,0,2.1,0.3,2.6,0.8c0.5,0.5,0.8,1.4,0.8,2.6V28z M90,15.7H93v2.4H90V15.7z
	 M86.1,15.7H89v2.4h-2.9V15.7z M105.6,19.1l2.1,7.8l1.8-7.8h3.4l-3.3,12.1h-3.3l-2.1-7.5l-2.1,7.5h-3.3l-3.3-12.1H99l1.8,7.8
	l2.1-7.8H105.6z M113.8,19.1h7.3c1.2,0,2.1,0.3,2.6,0.8c0.5,0.6,0.8,1.5,0.8,2.6v1.6c0,0.9-0.2,1.7-0.5,2.2
	c-0.3,0.5-0.8,0.9-1.5,1.1l2.2,3.8h-3.4l-2-3.6h-2.4v3.6h-3.1V19.1z M121.3,22.6c0-0.7-0.3-1.1-1-1.1h-3.5v3.6h3.5c0.7,0,1-0.3,1-1
	V22.6z M128.3,31.2H125l4.6-12.1h3.4l4.6,12.1h-3.4l-0.8-2.1h-4.3L128.3,31.2z M129.9,26.8h2.8l-1.4-4.1L129.9,26.8z M149,31.2h-3.3
	l-4.1-7.3v7.3h-3.1V19.1h3.3l4.1,7.3v-7.3h3.1V31.2z M154.2,28.8h6.3v2.4H151V19.1h3.1V28.8z M158.2,19.1h3.3l2.8,5.9l2.9-5.9h3.3
	l-4.6,8.9v3.2h-3.1V28L158.2,19.1z M180.1,19.1h3.3l2.9,5.9l2.8-5.9h3.3l-4.6,8.9v3.2h-3.1V28L180.1,19.1z M184.9,18.8l1-2.9h3.1
	l-1.9,2.9H184.9z M200.5,22.4c0-0.7-0.3-1-1-1h-2.9c-0.7,0-1.1,0.3-1.1,1V28c0,0.7,0.4,1,1.1,1h2.9c0.7,0,1-0.3,1-1V22.4z M203.6,28
	c0,1.2-0.3,2.1-0.8,2.6c-0.6,0.5-1.5,0.8-2.6,0.8h-4.3c-1.2,0-2.1-0.3-2.6-0.8c-0.5-0.5-0.8-1.4-0.8-2.6v-5.5c0-1.2,0.3-2.1,0.8-2.6
	c0.5-0.5,1.5-0.8,2.6-0.8h4.3c1.2,0,2.1,0.3,2.6,0.8c0.5,0.5,0.8,1.4,0.8,2.6V28z M198.5,15.7h2.9v2.4h-2.9V15.7z M194.5,15.7h2.9
	v2.4h-2.9V15.7z M205.3,19.1h7.3c1.2,0,2.1,0.3,2.6,0.8c0.5,0.6,0.8,1.5,0.8,2.6v1.6c0,0.9-0.2,1.7-0.5,2.2
	c-0.3,0.5-0.8,0.9-1.5,1.1l2.2,3.8h-3.4l-2-3.6h-2.4v3.6h-3.1V19.1z M212.9,22.6c0-0.7-0.3-1.1-1-1.1h-3.5v3.6h3.5c0.7,0,1-0.3,1-1
	V22.6z M227.3,31.2h-9.6V19.1h9.6v2.4h-6.5v2.4h5.1v2.4h-5.1v2.5h6.5V31.2z M231.8,28.8h6.3v2.4h-9.4V19.1h3.1V28.8z M249.7,31
	c-2.7,0.3-5.1,0.4-7.4,0.4c-1.1,0-2-0.3-2.5-0.8c-0.5-0.5-0.8-1.4-0.8-2.5v-5.5c0-1.2,0.3-2.1,0.8-2.6c0.5-0.5,1.4-0.8,2.6-0.8h6.2
	v2.4h-5.5c-0.7,0-1,0.4-1,1.1v5.5c0,0.3,0.1,0.5,0.2,0.7c0.1,0.1,0.4,0.2,0.6,0.2c1.3,0,2.5,0,3.6-0.1v-2.5h-2.2v-2.1h5.4V31z
	 M261,31.2h-9.6V19.1h9.6v2.4h-6.5v2.4h5.1v2.4h-5.1v2.5h6.5V31.2z"/>
<path fill="#2B2A29" d="M77.5,47.9h-0.9v-3.4h-3.8v3.4h-0.9v-7.4h0.9v3.2h3.8v-3.2h0.9V47.9z M89.9,44.2c0,1.2-0.3,2.1-0.9,2.8
	c-0.6,0.7-1.5,1-2.5,1c-1.1,0-1.9-0.3-2.5-1c-0.6-0.7-0.9-1.6-0.9-2.8c0-1.2,0.3-2.1,0.9-2.8c0.6-0.7,1.5-1,2.5-1
	c1.1,0,1.9,0.4,2.5,1C89.6,42.1,89.9,43,89.9,44.2L89.9,44.2z M84.1,44.2c0,1,0.2,1.7,0.6,2.2c0.4,0.5,1,0.8,1.8,0.8
	c0.8,0,1.4-0.3,1.8-0.8c0.4-0.5,0.6-1.3,0.6-2.2c0-1-0.2-1.7-0.6-2.2c-0.4-0.5-1-0.8-1.8-0.8c-0.8,0-1.4,0.3-1.8,0.8
	C84.3,42.5,84.1,43.2,84.1,44.2L84.1,44.2z M94.5,49.8c-0.3,0-0.5,0-0.8-0.1v-0.8C94,49,94.2,49,94.5,49c0.3,0,0.6-0.1,0.8-0.3
	c0.1-0.2,0.3-0.5,0.3-0.9v-7.4h0.9v7.3c0,0.7-0.1,1.2-0.5,1.5C95.6,49.6,95.1,49.8,94.5,49.8L94.5,49.8z M106.9,47.9l-0.9-2.3h-2.9
	l-0.9,2.3h-0.9l2.9-7.4h0.9l2.9,7.4H106.9z M105.8,44.8l-0.8-2.2l-0.3-1.1c-0.1,0.4-0.2,0.8-0.3,1.1l-0.8,2.2H105.8z M112.9,47.9
	v-7.4h0.9V47h3.2v0.8H112.9z M124.1,44.1l1.9-3.7h1l-2.5,4.5v2.9h-0.9V45l-2.5-4.6h1L124.1,44.1z M137.4,47.9h-1.1l-2.6-3.5
	l-0.8,0.7v2.9H132v-7.4h0.9v3.7l0.7-0.7l2.6-2.9h1.1l-2.9,3.2L137.4,47.9z M149,49.8c-0.3,0-0.6,0-0.8-0.1v-0.8
	c0.2,0.1,0.5,0.1,0.7,0.1c0.3,0,0.6-0.1,0.8-0.3c0.2-0.2,0.3-0.5,0.3-0.9v-7.4h0.9v7.3c0,0.7-0.2,1.2-0.5,1.5
	C150.1,49.6,149.6,49.8,149,49.8L149,49.8z M161,47.9h-4.1v-7.4h4.1v0.8h-3.2v2.3h3v0.8h-3V47h3.2V47.9z M169.8,47.9l-2.4-6.5h0
	c0,0.5,0.1,1.2,0.1,2v4.5h-0.9v-7.4h1.4l2.3,6.1h0l2.3-6.1h1.3v7.4H173v-4.5c0-0.5,0-1.2,0.1-1.9h0l-2.5,6.5H169.8z M183.1,44h2.5
	v3.6c-0.4,0.1-0.8,0.2-1.2,0.3c-0.4,0.1-0.9,0.1-1.4,0.1c-1.1,0-2-0.3-2.6-1c-0.6-0.7-0.9-1.6-0.9-2.8c0-0.8,0.1-1.5,0.5-2
	c0.3-0.6,0.8-1,1.3-1.3c0.6-0.3,1.3-0.4,2.1-0.4c0.8,0,1.5,0.1,2.2,0.4l-0.3,0.8c-0.7-0.3-1.3-0.4-1.9-0.4c-0.9,0-1.6,0.3-2.1,0.8
	c-0.5,0.5-0.7,1.3-0.7,2.2c0,1,0.3,1.7,0.7,2.2c0.5,0.5,1.2,0.8,2.1,0.8c0.5,0,1-0.1,1.5-0.2v-2.2h-1.6V44z M193.4,44.1l1.9-3.7h1
	l-2.4,4.5v2.9h-0.9V45l-2.5-4.6h1L193.4,44.1z M203.2,44.1l1.9-3.7h1l-2.4,4.5v2.9h-0.9V45l-2.5-4.6h1L203.2,44.1z M202.5,39.8
	c0.1-0.2,0.3-0.4,0.5-0.7c0.2-0.3,0.4-0.6,0.5-0.8h1.1v0.1c-0.1,0.2-0.4,0.5-0.7,0.8c-0.3,0.3-0.6,0.6-0.8,0.7h-0.6V39.8z
	 M215.2,47.9h-4.1v-7.4h4.1v0.8H212v2.3h3v0.8h-3V47h3.2V47.9z M223.1,47.9h-0.9v-6.6h-2.3v-0.8h5.5v0.8h-2.3V47.9z M232.6,47.9H230
	v-0.5l0.9-0.2v-5.9L230,41v-0.5h2.6V41l-0.8,0.2v5.9l0.8,0.2V47.9z"/>
</svg>
