<svg width="81" height="81" viewBox="0 0 81 81" fill="none" xmlns="http://www.w3.org/2000/svg">
<path fill-rule="evenodd" clip-rule="evenodd" d="M40.9218 15.7488L15.1995 40.0198H30.3982V65.0172H51.0851V39.8345H66.6755L40.9218 15.7488ZM22.2159 37.2321L40.9303 19.5736L59.6135 37.0468H48.2974V62.2295H33.1859V37.2321H22.2159Z" fill="#E21E24"/>
<path fill-rule="evenodd" clip-rule="evenodd" d="M40.9539 0.954102C18.8625 0.954102 0.953857 18.8627 0.953857 40.9541C0.953857 63.0455 18.8625 80.9541 40.9539 80.9541C63.0452 80.9541 80.9539 63.0455 80.9539 40.9541C80.9539 18.8627 63.0452 0.954102 40.9539 0.954102ZM3.74156 40.9541C3.74156 20.4023 20.4021 3.74181 40.9539 3.74181C61.5056 3.74181 78.1662 20.4023 78.1662 40.9541C78.1662 61.5059 61.5056 78.1664 40.9539 78.1664C20.4021 78.1664 3.74156 61.5059 3.74156 40.9541Z" fill="#E21E24"/>
</svg>
