<svg width="80" height="80" viewBox="0 0 80 80" fill="none" xmlns="http://www.w3.org/2000/svg">
<g clip-path="url(#clip0_795_1222)">
<path d="M40 78.6477C61.3445 78.6477 78.6476 61.3446 78.6476 40.0001C78.6476 18.6556 61.3445 1.35254 40 1.35254C18.6555 1.35254 1.35242 18.6556 1.35242 40.0001C1.35242 61.3446 18.6555 78.6477 40 78.6477Z" stroke="#E21E24" stroke-width="3" stroke-miterlimit="10"/>
<path d="M31.3397 57.5051C25.1955 51.4153 22.2868 44.0784 22.1234 35.7279C22.0784 33.4352 22.1551 31.1392 22.0834 28.8465C28.2243 25.1856 34.3568 21.5096 40.481 17.8218C46.6019 21.5062 52.7311 25.1789 58.8653 28.8415C58.8237 30.9274 58.847 33.0133 58.842 35.101C58.8353 37.8542 58.5468 40.6091 57.8513 43.2699C56.4037 48.7999 53.7035 53.5786 49.5773 57.495C48.3231 58.685 40.476 63.9528 40.476 63.9528C40.476 63.9528 32.5022 58.6564 31.3397 57.5051Z" stroke="#E21E24" stroke-width="3" stroke-miterlimit="10"/>
</g>
<defs>
<clipPath id="clip0_795_1222">
<rect width="80" height="80" fill="white"/>
</clipPath>
</defs>
</svg>
