<svg width="178" height="59" viewBox="0 0 178 59" fill="none" xmlns="http://www.w3.org/2000/svg">
<g clip-path="url(#clip0_795_1253)">
<path fill-rule="evenodd" clip-rule="evenodd" d="M20.9488 34.4021L10.8876 36.6481L8.52885 48.668L7.94722 51.7314C7.92602 51.8441 7.89306 52.0157 7.86245 52.2134L7.8962 52.541L7.81378 52.5717L7.79808 52.7213C7.70625 52.7213 7.59714 52.715 7.49902 52.6859L0.025711 55.4438L0.0367 55.0414C0.880499 54.005 1.58458 52.8741 2.10185 51.6275C2.56025 50.5226 2.99981 49.2673 3.3491 47.8655C3.75099 46.2527 4.094 44.6304 4.46763 43.0215C5.77846 37.1876 7.07438 31.4269 8.33105 25.756C9.57045 20.1591 10.8232 14.6378 11.9731 9.18504C12.291 7.67773 12.3899 6.60277 12.3876 5.97197C12.3852 4.47175 11.988 3.5157 11.1882 3.08887V2.93058C13.3413 2.9101 15.4896 2.88884 17.6442 2.86679C19.2494 9.31734 20.857 15.6506 22.5807 21.8326C24.2745 27.902 26.0092 33.8643 27.8915 39.6494C28.5932 41.8079 29.2745 43.2459 29.7274 44.0224C29.8522 44.2359 29.9998 44.4382 30.1694 44.632C29.532 43.4247 29.0226 42.0135 28.6199 40.7527C26.7227 34.8266 25.0147 28.8415 23.3711 22.8437C21.7047 16.7633 20.1788 10.6459 18.6819 4.52294L19.0139 4.52057L19.1301 4.99623C20.6858 11.3696 22.269 17.7383 24.0029 24.0675C25.6458 30.0661 27.3538 36.0496 29.2518 41.9765C29.5351 42.8656 29.8726 43.8287 30.2698 44.7422C30.7094 45.2084 31.284 45.6132 31.9912 45.9637C31.9935 46.0479 31.9975 46.133 32.0037 46.2109L23.3648 48.3278C23.3577 48.2435 23.3577 48.1538 23.3546 48.064C24.3907 47.1064 24.8962 46.196 24.8734 45.3085C24.8554 44.5713 24.5705 43.6956 24.2526 42.6144L20.886 31.1536L9.6042 33.6508L7.21802 45.9818L6.64816 49.0271C6.40483 50.3273 6.29887 51.4897 7.14581 51.8393C7.15365 51.3463 7.26433 50.7675 7.313 50.51L7.89541 47.445L10.2533 35.4267L20.5767 33.1224L20.9472 34.4037L20.9488 34.4021ZM157.292 40.5046C157.331 35.6212 157.373 30.7362 157.412 25.8639C157.451 20.9852 157.493 16.1018 157.532 11.2223C157.552 8.65661 157.457 6.71302 157.255 5.37975C157.053 4.05279 156.542 3.08887 155.741 2.50295C155.744 2.45492 155.744 2.40845 155.744 2.35569C157.056 2.41318 158.374 2.47224 159.69 2.525C161.005 2.57619 162.323 2.63526 163.64 2.68802V2.83607C162.891 3.30465 162.408 4.11579 162.198 5.28053C162.067 6.00741 161.964 6.7335 161.894 7.4462C161.822 8.15103 161.784 9.00076 161.785 10.0017C161.785 10.5388 161.785 11.0806 161.785 11.613L161.465 44.9005C161.757 45.0013 162.114 45.1643 162.493 45.3494L162.927 12.5532C162.929 12.0091 162.932 11.4673 162.933 10.9262C162.935 10.0907 162.961 9.24568 163.048 8.41327C163.122 7.69899 163.225 6.98708 163.355 6.2791C163.499 5.49709 163.809 4.67965 164.528 4.2284L164.632 4.16383L164.848 4.1717L165.454 4.19454L165.452 4.78675C165.452 4.83479 165.452 4.88598 165.452 4.93402V5.27029L165.16 5.45299C164.443 5.90345 164.132 6.7209 163.987 7.5029C163.858 8.21088 163.755 8.92358 163.681 9.63707C163.594 10.4687 163.568 11.3137 163.566 12.15C163.565 12.6911 163.562 13.2337 163.56 13.7786L163.138 45.6707C163.737 45.9723 164.336 46.2732 164.784 46.4275C167.006 47.2308 169.176 48.1593 171.615 47.845C173.689 47.5781 174.795 46.5905 176.167 45.0942C176.204 45.1572 176.242 45.2218 176.28 45.2785C175.603 48.5294 174.651 51.1731 173.954 54.3554C170.822 53.438 167.685 52.5071 164.556 51.5842C161.427 50.6628 158.297 49.7453 155.169 48.8231C155.172 48.7334 155.172 48.6444 155.174 48.5546C156.545 48.2065 157.244 46.0259 157.279 42.0001C157.283 41.5047 157.289 41.0039 157.293 40.5046H157.292ZM145.151 37.3593L145.642 9.94657C145.69 7.28948 145.587 5.4144 145.409 4.31031C145.24 3.27078 144.713 2.50925 143.917 2.01627V1.89499H151.543V2.01627C151.189 2.22732 150.87 2.5439 150.62 2.98255C150.376 3.40939 150.216 3.9071 150.118 4.46151C150.022 5.01435 149.954 5.43882 149.932 5.72941C149.908 6.02237 149.905 6.31454 149.898 6.61616L149.817 9.94735L149.143 38.8075C149.076 41.6945 149.252 43.6602 149.457 44.6769C149.665 45.703 150.14 46.5086 150.87 47.1016V47.3324L143.428 45.8849V45.6534C144.183 45.2392 144.665 44.4052 144.859 43.1577C145.053 41.9095 145.153 39.9762 145.153 37.3593H145.151ZM120.505 35.6653C120.431 30.9166 120.356 26.1694 120.282 21.4168C120.207 16.6696 120.133 11.9209 120.058 7.17293C120.006 3.90473 119.334 1.71544 118.041 0.5948C121.537 0.707415 125.033 0.822392 128.528 0.94052C133.668 1.11141 137.18 5.08443 137.39 9.91507C137.548 13.6424 136.587 16.6286 133.478 19.107C136.438 20.5347 138.754 23.6202 139.713 27.0231C140.432 29.5778 140.348 32.3814 139.751 34.9526C139.229 37.2002 138.274 38.9918 136.844 40.3298C135.781 41.3236 134.556 42.0371 133.178 42.4624C131.802 42.8884 130.263 43.0341 128.57 42.9049C126.922 42.7797 125.274 42.6537 123.629 42.5285C121.984 42.4033 120.337 42.2773 118.689 42.1521C119.432 41.3559 119.923 40.5967 120.176 39.91C120.428 39.2257 120.541 37.8018 120.507 35.6653H120.505ZM124.47 37.6656C124.782 37.7908 125.107 37.9145 125.442 38.0334L125.53 23.4391C126.575 23.4037 127.622 23.3446 128.665 23.3981C131.552 23.5509 133.61 25.5717 134.665 28.0335C133.51 26.156 131.688 24.748 129.297 24.6227C128.256 24.5692 127.208 24.6275 126.163 24.6629L126.081 38.2491C127.31 38.6453 128.625 38.9524 129.837 39.0516C131.545 39.191 132.955 38.6209 134.039 37.3758C135.297 35.9307 135.759 33.1224 135.72 30.6772C135.654 26.5884 132.946 21.9869 128.302 21.7381C127.047 21.6727 125.766 21.7656 124.509 21.7908L124.47 37.6656ZM124.375 17.6642C124.716 17.6642 125.068 17.6713 125.426 17.68L125.54 6.32399L128.151 6.27989C130.402 6.3421 131.703 7.63127 132.345 9.34097C131.603 8.27309 130.455 7.55015 128.784 7.50369L126.173 7.54779L126.07 17.691C128.393 17.7257 130.866 17.5965 132.176 15.4741C132.935 14.2464 133.063 12.7391 133.042 11.346C132.991 8.04235 131.503 4.84267 127.688 4.7332L124.457 4.7836L124.375 17.6642ZM73.0006 45.3549C73.437 45.3368 73.875 45.3132 74.2785 45.3108L74.8805 43.416C76.8358 43.09 78.758 42.5135 80.6011 41.8056L80.8781 41.7L83.2533 34.7754H84.3067L81.51 42.9239L81.2337 43.0302C79.3899 43.7389 77.4684 44.3146 75.5132 44.6406L75.2682 45.41C79.2039 47.7742 77.5563 53.0285 72.791 53.0285C71.1646 53.0285 69.6937 52.3481 68.7518 51.2983C69.1835 50.647 69.6073 50.0178 69.999 49.3429C70.3538 50.1391 71.3358 50.7195 72.4653 50.7195C73.1474 50.7195 73.7557 50.5069 74.1945 50.1635C73.8467 50.0005 73.4496 49.9146 73.1097 49.9146L72.8122 49.9162L71.1576 47.9718L71.2682 47.6198L72.1796 48.6916H72.4778C73.2455 48.6916 74.3012 49.1208 74.4378 49.9414C74.7447 49.6138 74.9158 49.2019 74.897 48.7578C74.8483 47.6734 73.6811 46.7937 72.291 46.7937L71.039 45.336L72.138 41.8237C67.9558 42.0025 63.9566 40.7212 60.8907 36.8261C55.5689 30.0668 55.3774 18.8494 58.2965 11.0215C61.9449 0.86098 71.0414 -2.2001 80.6505 1.53195L80.5642 7.59504C71.656 0.922407 64.4794 5.96409 62.1246 14.307C60.4221 20.341 60.7714 31.0961 66.3405 35.0156C71.718 38.798 77.8303 36.5843 82.3978 32.9909H82.5328L80.1387 40.0045C78.1921 40.7495 76.1788 41.3291 74.1796 41.6237L72.9998 45.3541L73.0006 45.3549ZM88.51 31.9025C89.8428 27.5476 91.1615 23.1832 92.4268 18.8172C93.6905 14.4535 94.9441 10.0804 96.1042 5.69004C96.4276 4.46623 96.521 3.58658 96.521 3.05973C96.5186 1.82963 96.1144 1.03266 95.3051 0.664101V0.538099C97.4794 0.557786 99.6513 0.577474 101.826 0.599525C103.453 6.18775 105.112 11.7957 106.848 17.387C108.589 22.9942 110.362 28.6296 112.275 34.2289C113.008 36.3717 113.691 37.8294 114.148 38.6524C114.613 39.4918 115.386 40.2872 116.457 41.0645C116.46 41.1456 116.463 41.2228 116.466 41.2961C114.907 41.2559 113.352 41.2181 111.797 41.1826C110.241 41.1456 108.685 41.1047 107.13 41.0685C107.126 40.9936 107.124 40.9165 107.124 40.8354C108.175 40.2825 108.685 39.621 108.659 38.828C108.639 38.1743 108.373 37.3459 108.024 36.2993C107.446 34.5699 106.968 32.8027 106.452 31.0536C105.936 29.3061 105.424 27.5523 104.919 25.8079C103.072 25.7678 101.224 25.73 99.3813 25.6977C97.5375 25.6654 95.6945 25.6292 93.8507 25.5961C92.9637 28.8816 92.0532 32.1632 91.1489 35.4377C91.0351 35.8527 90.9504 36.2607 90.8648 36.656C90.7777 37.049 90.6796 37.4356 90.6882 37.7877C90.7141 38.9209 91.1262 39.7313 91.8562 40.2266C91.6709 39.8612 91.5916 39.4344 91.583 38.9721C91.5775 38.6602 91.6819 38.2814 91.7494 37.9751C91.8397 37.5742 91.9229 37.1742 92.0328 36.7781C92.9095 33.6311 93.7894 30.4842 94.6497 27.3326C96.331 27.3609 98.0124 27.3924 99.6937 27.4208C101.386 27.4491 103.078 27.4806 104.771 27.5153L105.118 28.7344C103.52 28.7013 101.924 28.6714 100.326 28.6438C98.645 28.617 96.9637 28.5847 95.2816 28.5572C94.4205 31.708 93.5406 34.8542 92.6639 38.0027C92.5547 38.3964 92.4708 38.7973 92.3821 39.1981C92.3138 39.5037 92.2094 39.884 92.2149 40.1959C92.2164 40.2786 92.2204 40.3581 92.2267 40.4392L92.3248 40.4833C92.3248 40.5605 92.3208 40.6393 92.3248 40.7125L92.2588 40.7101L92.269 40.7716L92.2039 40.7101L88.1631 40.6133C86.7777 40.5818 85.3931 40.5448 84.0077 40.5117C84.0053 40.4392 84.0077 40.3597 84.0108 40.2825C84.8687 39.6864 85.5791 38.9752 86.1066 38.1302C86.5775 37.3758 87.0186 36.4906 87.3734 35.4747C87.7855 34.2958 88.134 33.0972 88.51 31.9033V31.9025ZM94.9417 21.0844L96.2337 21.1065C96.8546 18.9384 97.4676 16.7688 98.0665 14.5937C98.5673 12.7761 99.0618 10.9577 99.5524 9.13857L100.034 10.9231C99.5924 12.5556 99.1489 14.1866 98.6992 15.8183C98.2109 17.5886 97.7133 19.3566 97.211 21.123L99.2251 21.1584C100.649 21.1829 102.083 21.2065 103.512 21.2309C102.761 18.6455 102.017 16.0593 101.291 13.4731C100.567 10.8924 99.8593 8.30774 99.1552 5.72626C98.4739 8.29042 97.7871 10.8538 97.0893 13.4109C96.3891 15.9726 95.6678 18.5297 94.9409 21.0828L94.9417 21.0844ZM35.6175 34.7439V10.0056C35.6175 8.59834 35.5956 7.43911 35.554 6.53032C35.5124 5.62152 35.4347 4.84424 35.3318 4.20872C35.1427 3.04634 34.6215 2.25882 33.7361 1.83908L33.8201 1.58313L43.9464 1.48391C49.2086 1.43114 52.831 4.39142 52.8632 9.44098C52.8931 14.8142 51.1301 20.0055 46.0736 22.9122C48.3099 26.8467 50.5281 30.7914 52.7824 34.7163C54.0241 36.8773 55.5461 39.3052 58.3923 41.6197L54.5791 42.034C52.6803 42.2403 51.2486 41.0322 49.9347 38.6602L45.054 29.8621L41.3491 22.2121C44.7243 20.6852 47.5398 18.4077 48.5438 15.167C48.8844 14.0676 48.9386 12.9754 48.9386 11.8421C48.9386 10.6931 48.7918 9.69614 48.5069 8.87554C47.9488 7.2698 46.6026 5.82706 44.8946 5.37188C43.0877 4.88992 40.9959 5.26871 39.791 5.88062L39.9299 34.4573V35.9394C39.9299 37.1246 39.9119 38.4263 39.9284 39.5021C39.9543 41.3173 40.127 42.2308 41.0163 43.1152C40.7541 42.5143 40.7204 41.8079 40.7094 40.7629C40.6968 39.5722 40.7196 38.3775 40.7243 37.1852L40.7298 35.6937L40.6976 7.31153C41.9778 6.77917 43.7149 6.65317 45.0092 6.99889C46.5014 7.39659 47.6725 8.67945 48.1678 10.0749C47.5602 9.20394 46.678 8.49911 45.6419 8.22427C44.3475 7.87697 42.6113 8.00219 41.3303 8.53455L41.3467 22.7839L41.2989 22.8059L40.7227 23.0674L41.3491 24.3755L41.3632 36.9167L41.3585 38.4106C41.3538 39.6029 41.331 40.796 41.3428 41.9875C41.3491 42.5789 41.3632 43.0609 41.4205 43.4767C41.6128 43.635 41.8303 43.7956 42.0759 43.9642V44.254L34.1803 45.4817V45.2344C34.981 44.6296 35.4794 43.494 35.6772 42.1655C35.875 40.8361 35.6199 37.4931 35.6199 34.7431L35.6175 34.7439ZM10.751 28.2343L11.835 28.0201L15.0869 12.8533L15.6003 14.6315L12.7698 27.835L19.8601 26.4309L14.7894 9.1622L10.751 28.2343ZM8.56496 53.9444L9.07516 53.9333L9.23607 55.5706L-0.000976562 59.001L0.0461192 57.5244L8.6042 54.3468L8.56496 53.9444ZM32.769 47.8317C32.853 47.8781 32.9378 47.9222 33.0218 47.9632L33.3515 48.127L33.3632 48.4884C33.3656 48.5617 33.3679 48.6365 33.3742 48.709L33.4166 49.2279L23.4998 51.6771L23.4456 50.9486C23.4386 50.8502 23.4386 50.7557 23.4362 50.6581L23.4268 50.3816L23.5234 50.2934L32.7847 48.0057L32.769 47.8317ZM177.341 46.4228L177.767 47.1623C177.796 47.2127 177.826 47.2654 177.857 47.3119L177.999 47.5237L177.946 47.7718C177.296 50.8589 176.262 53.8428 175.58 56.9196L175.435 57.5756L174.775 57.3819C171.636 56.4621 168.503 55.5296 165.367 54.6027C162.234 53.679 159.102 52.7584 155.97 51.8346L155.511 51.6999L155.523 51.2314C155.526 51.1416 155.527 51.0487 155.53 50.9589L155.539 50.6707C158.603 51.5747 161.67 52.4756 164.734 53.3797C167.871 54.3058 171.005 55.239 174.143 56.1589L174.802 56.3526L174.948 55.6966C175.63 52.6205 176.663 49.6366 177.315 46.5488L177.34 46.4236L177.341 46.4228ZM151.07 46.9575C151.097 47.0938 151.13 47.2284 151.168 47.3584C150.789 46.8937 150.558 46.3417 150.438 45.7345C150.09 43.9846 150.108 41.7331 150.155 39.9588L150.938 10.9018L151.03 7.54779C151.038 7.26192 151.042 6.97369 151.067 6.68782C151.1 6.28697 151.18 5.86408 151.252 5.46638C151.331 5.02143 151.462 4.5694 151.688 4.1717C151.861 3.87166 152.091 3.60548 152.394 3.42514L152.457 3.38655H153.332L153.328 4.46781L153.026 4.64894C152.724 4.82928 152.492 5.09546 152.321 5.39472C152.094 5.7932 151.963 6.24602 151.883 6.69097C151.812 7.08709 151.731 7.50999 151.698 7.91241C151.674 8.1967 151.671 8.48493 151.662 8.7708L151.57 12.1248L150.787 41.1819C150.74 42.9561 150.722 45.2069 151.069 46.9567L151.07 46.9575ZM151.854 48.6459C151.975 48.7885 152.111 48.9208 152.264 49.0468L152.489 49.2311L152.484 50.5029L143.764 48.8066L143.769 47.7096L143.773 47.708L151.852 49.2775L151.854 48.6459ZM139.935 25.7638C140.56 26.8467 141.041 27.9988 141.36 29.1525C142.099 31.8246 142.006 34.7447 141.374 37.4333C140.868 39.5919 139.923 41.6032 138.263 43.1593C137.137 44.2154 135.822 44.9927 134.333 45.4573C132.766 45.9456 131.101 46.0574 129.47 45.9337C127.821 45.8085 126.17 45.6857 124.521 45.5597C122.87 45.436 121.222 45.3116 119.57 45.1856L118.287 45.0887L119.154 44.1595L119.308 43.9901L123.888 44.3359C125.537 44.4587 127.187 44.5839 128.837 44.7084C130.468 44.8312 132.133 44.7194 133.701 44.2319C135.189 43.7681 136.504 42.9908 137.63 41.9347C139.289 40.3786 140.235 38.3673 140.742 36.2087C141.373 33.5201 141.466 30.5992 140.727 27.9279C140.526 27.1995 140.26 26.4734 139.935 25.7623L139.935 25.7638ZM119.213 3.75668C119.062 3.54799 118.893 3.3582 118.705 3.19361L117.409 2.06431L118.2 2.08872C118.645 2.52422 118.973 3.10698 119.213 3.75668ZM137.628 7.02881C138.519 8.49675 139.045 10.2222 139.118 12.0681C139.253 15.534 138.441 18.3888 136.096 20.7797C135.742 20.5009 135.373 20.2449 134.989 20.0142C137.699 17.5327 138.629 14.5346 138.486 10.8443C138.432 9.48902 138.136 8.19907 137.628 7.02803V7.02881ZM71.1081 44.8934C67.1348 44.6272 63.7612 42.9089 61.2188 39.6517C60.3813 38.5799 59.6694 37.401 59.0744 36.1441C59.5241 36.9474 60.0273 37.7105 60.5861 38.4287C63.3412 41.9584 67.0704 43.6799 71.4825 43.7059L71.1081 44.8934ZM81.6482 3.055C81.7306 3.08572 81.8122 3.11722 81.8946 3.14793L82.2981 3.30622L82.1599 11.0688L81.1591 10.3143C73.2533 4.35756 66.1701 7.93052 63.6552 16.7688C62.4496 21.008 62.2259 28.0429 64.4292 32.9232C61.561 28.0689 61.7117 20.1536 63.0234 15.545C65.5383 6.70672 72.6215 3.13297 80.5273 9.09054L81.5281 9.84498L81.6489 3.05579L81.6482 3.055ZM78.0814 48.8554C80.2494 51.8441 78.1152 56.1856 73.5877 56.1919C71.8766 56.1943 70.1937 55.506 69.0697 54.2428L68.7596 53.8947L68.9857 53.5538C70.0728 54.4736 71.5045 54.9705 72.9558 54.9689C76.8938 54.9642 79.021 51.6787 78.0814 48.8554ZM93.2243 42.2316C93.3028 42.2773 93.386 42.3214 93.4739 42.3592L93.8467 42.5238L93.8452 42.9207C93.8452 42.9884 93.8412 43.0585 93.8444 43.1247L93.8703 43.783L93.1937 43.7673C91.8036 43.7374 90.4135 43.7059 89.0226 43.6744C87.6348 43.6421 86.2463 43.6066 84.8577 43.5759L84.2651 43.5625L84.2431 42.9861C84.2392 42.8931 84.2431 42.7994 84.2471 42.7065L84.2604 42.4057L84.3326 42.3553C85.6851 42.386 87.0375 42.4198 88.3891 42.4498C89.7792 42.4821 91.1701 42.5128 92.5602 42.5443L93.2376 42.5592L93.2243 42.2316ZM103.081 2.14148L103.362 2.14385L103.49 2.58801C105.104 8.2282 106.744 13.8621 108.458 19.4739C110.189 25.1362 111.939 30.7921 113.829 36.4056C114.195 37.4916 114.618 38.6413 115.12 39.7155C115.083 39.6557 115.048 39.5966 115.015 39.5352C114.275 38.1885 113.684 36.63 113.197 35.1826C111.308 29.5683 109.557 23.9108 107.827 18.2501C106.191 12.8966 104.624 7.52259 103.081 2.14148H103.081ZM117.413 42.7104C117.533 42.8034 117.654 42.8955 117.774 42.9829L118.014 43.157L118.025 43.4491L118.026 43.4649L117.655 43.8626L118.045 43.8933L118.063 44.343L117.382 44.3256C115.823 44.2878 114.264 44.2508 112.704 44.2177C111.145 44.1823 109.588 44.1429 108.028 44.1075L107.435 44.0933L107.413 43.5168C107.41 43.431 107.406 43.3428 107.406 43.257L107.408 42.8892L107.421 42.8829C108.972 42.9175 110.522 42.9577 112.072 42.9924C113.632 43.027 115.191 43.0617 116.75 43.1018L117.432 43.1192L117.413 42.7096L117.413 42.7104ZM59.3515 43.4168L59.6136 43.635L60.7408 44.5564L55.4488 45.1407C52.8672 45.4266 51.2706 43.4192 50.1796 41.4299L45.3122 32.5633L45.043 32.0002L49.5469 40.2061C50.638 42.1962 52.2337 44.2028 54.8153 43.9169L59.3507 43.4176L59.3515 43.4168ZM42.8413 45.7164C42.9551 45.8046 43.0783 45.892 43.2102 45.9826L43.477 46.1668L43.4731 47.3024L34.2879 48.746L34.2934 47.4741L34.3789 47.4088L42.8413 46.0794V45.7164ZM34.9119 5.02065C34.7604 4.87102 34.5791 4.74265 34.364 4.63949L33.8734 4.40638L34.1207 3.65745C34.5516 3.99687 34.7847 4.4812 34.9119 5.02065ZM53.127 6.95715C53.9496 8.24868 54.4127 9.84419 54.4174 11.7122C54.4276 17.1831 52.6403 22.3901 47.8138 25.4733L47.1419 24.2747C51.9982 21.1955 53.7957 15.9726 53.7855 10.4868C53.7816 9.17086 53.5508 7.99116 53.127 6.95715Z" fill="#454545"/>
</g>
<defs>
<clipPath id="clip0_795_1253">
<rect width="178" height="59" fill="white"/>
</clipPath>
</defs>
</svg>
