<svg width="82" height="82" viewBox="0 0 82 82" fill="none" xmlns="http://www.w3.org/2000/svg">
<g clip-path="url(#clip0_795_1249)">
<path fill-rule="evenodd" clip-rule="evenodd" d="M41 0C18.3562 0 0 18.3562 0 41C0 63.6439 18.3562 82 41 82C63.6439 82 82 63.6439 82 41C82 18.3562 63.6435 0 41 0ZM41 78.6832C20.1881 78.6832 3.31683 61.8119 3.31683 41C3.31683 20.1881 20.1878 3.31646 40.9996 3.31646C61.8115 3.31646 78.6828 20.1878 78.6828 40.9996C78.6828 61.8115 61.8115 78.6828 40.9996 78.6828L41 78.6832Z" fill="#454545"/>
<path fill-rule="evenodd" clip-rule="evenodd" d="M40.9997 5.20605C60.7679 5.20605 76.7931 21.2305 76.7931 40.9994C76.7931 60.7684 60.7679 76.7928 40.9997 76.7928C21.2315 76.7928 5.2063 60.7687 5.2063 40.9994C5.2063 21.2301 21.2315 5.20605 40.9997 5.20605ZM40.9997 6.88806C59.8391 6.88806 75.1114 22.1597 75.1114 40.9998C75.1114 59.8399 59.8391 75.1115 40.9997 75.1115C22.1603 75.1115 6.88831 59.8396 6.88831 40.9994C6.88831 22.1593 22.1607 6.88806 40.9997 6.88806Z" fill="#454545"/>
<path fill-rule="evenodd" clip-rule="evenodd" d="M56.2856 51.2113C38.0666 60.9683 24.3116 61.0795 15.0229 51.5453C21.7883 65.527 35.5425 65.4162 56.2856 51.2113ZM24.8432 45.8251H17.5997L15.3898 49.7846H11.4961L21.804 31.8408H26.0503L29.0006 49.7846H25.4383L24.8432 45.8251ZM24.3921 42.8177L23.3089 35.6002L19.2788 42.8177H24.3921ZM32.4561 42.7424C32.4561 41.6815 32.6174 40.5621 32.9404 39.3846C33.3655 37.8057 34.0119 36.4398 34.8789 35.2787C35.7459 34.1172 36.8422 33.203 38.1606 32.5267C39.4819 31.8536 40.9825 31.5159 42.6703 31.5159C44.9318 31.5159 46.755 32.2047 48.1447 33.5875C49.5348 34.9699 50.2321 36.7994 50.2321 39.0802C50.2321 40.9762 49.7814 42.8097 48.876 44.5813C47.9706 46.3562 46.7382 47.7222 45.1868 48.6784C43.635 49.6346 41.8791 50.1109 39.9158 50.1109C38.2151 50.1109 36.787 49.7312 35.6314 48.9707C34.4791 48.2102 33.6589 47.2704 33.1782 46.147C32.6983 45.0236 32.4561 43.8874 32.4561 42.7424ZM36.1794 42.6718C36.1794 43.9075 36.5627 44.9435 37.3236 45.7749C38.0882 46.6097 39.0916 47.0279 40.3368 47.0279C41.3487 47.0279 42.3217 46.6979 43.2527 46.0424C44.1874 45.3821 44.9567 44.3841 45.569 43.0474C46.1767 41.7067 46.4836 40.4077 46.4836 39.138C46.4836 37.7219 46.0966 36.611 45.3272 35.8047C44.5536 34.9981 43.5717 34.5972 42.3777 34.5972C40.5453 34.5972 39.0528 35.4411 37.9012 37.1242C36.7537 38.8121 36.1794 40.6583 36.1794 42.6718ZM40.2092 27.2802H43.2695L42.6319 30.2875H39.5715L40.2092 27.2802ZM45.4381 27.2802H48.4981L47.8605 30.2875H44.8001L45.4381 27.2802ZM51.0958 49.7846L54.9207 31.8408H58.6696L57.0461 39.4676L65.4795 31.8408H70.504L62.3299 38.8783L68.3358 49.7843H64.077L59.5881 41.2381L56.0134 44.3121L54.8486 49.7843H51.0958V49.7846ZM27.0695 30.7879C45.2892 21.031 59.0438 20.9198 68.3325 30.454C61.5672 16.4722 47.813 16.583 27.0695 30.7879Z" fill="#454545"/>
</g>
<defs>
<clipPath id="clip0_795_1249">
<rect width="82" height="82" fill="white"/>
</clipPath>
</defs>
</svg>
