<svg width="134" height="64" viewBox="0 0 134 64" fill="none" xmlns="http://www.w3.org/2000/svg">
<g clip-path="url(#clip0_795_1256)">
<path fill-rule="evenodd" clip-rule="evenodd" d="M127.602 0.729252C125.39 1.0119 123.261 1.25158 121.191 1.51727C116.825 2.07578 112.725 2.59697 108.377 3.15209C104.208 3.68346 99.6141 4.13117 95.5805 4.71908C84.61 6.31659 69.4689 6.90449 60.6266 13.0096C55.2658 16.7112 50.3983 23.0944 52.522 30.0554C52.8909 31.264 54.3833 33.368 55.457 34.112C62.3057 38.8559 77.931 33.8576 77.1639 40.8389C76.9342 42.935 74.91 44.2521 73.076 45.0006C68.6509 46.8039 64.6421 47.2493 59.9885 48.0068C57.7007 48.2793 54.9524 48.8287 52.7415 48.9079L51.5965 31.3002C51.4856 28.3709 50.8316 14.0317 50.4854 11.0526C49.535 10.8909 46.7313 11.4732 45.2128 11.5919C43.2735 11.7434 41.6069 12.0102 39.6359 12.2748C37.7226 12.5303 36.0243 12.7428 34.1699 12.9757C31.4046 13.3217 31.9398 13.7366 29.5377 17.4268C28.92 18.3878 23.5648 26.9588 21.5667 29.9198C19.5459 32.9124 17.7027 35.9785 15.803 39.0537C14.6625 40.5178 13.5605 42.5133 12.5207 44.0012L8.86951 49.8813C7.08295 52.987 4.95922 56.225 2.93392 59.1815C2.45079 59.8881 0.0328777 63.7242 -0.00219727 63.9107C1.02855 64.3019 8.94419 63.3126 10.0824 63.0503C11.2535 62.7801 11.7343 61.6993 12.3431 60.8491C12.8907 60.0859 13.6126 58.9836 14.1093 58.2488C15.9739 55.0662 18.7595 52.5608 22.1595 51.2143C25.8582 49.749 30.5911 49.5467 34.8205 48.883L36.3015 43.6948C36.8673 44.4059 37.0449 53.2923 37.1241 54.8287C37.2327 56.4952 37.106 57.7954 37.5065 59.472C44.6516 59.2041 66.0225 56.6863 78.3757 52.8333C80.737 52.0961 83.4717 50.7948 86.0051 49.0809C91.2821 45.5105 95.6925 40.1504 94.0666 34.3742C91.2674 24.4274 74.6441 28.355 69.4994 24.9214C67.1958 23.3839 68.8025 18.9848 72.1595 16.9712C76.7611 14.2114 95.3916 11.099 98.8187 13.1962C102.343 15.3522 99.0303 25.1894 98.1942 28.8197C97.5492 31.6213 96.9779 34.4647 96.2956 37.2482L94.3223 45.5218C93.9524 47.4822 92.9522 50.138 92.7259 52.4387C99.0937 51.4788 108.185 51.5987 109.845 48.9373C112.185 42.112 113.926 31.896 115.651 24.5359C116.767 20.32 117.273 15.5331 119.844 12.3335C122.471 9.06616 125.889 6.97911 129.739 9.91862L130.7 10.6422C131.779 11.6055 133.743 1.03903 133.997 0.00341797L127.598 0.732643L127.602 0.729252ZM100.645 12.7406C99.7714 11.723 98.434 11.1668 96.5581 11.0424C91.9848 10.7372 78.0034 12.7586 73.877 14.3211C71.2996 15.2968 67.9822 17.5704 67.1166 20.7643C66.6142 22.6139 66.6923 24.0204 67.352 25.0616C68.3827 26.6863 70.7418 27.2278 73.0703 27.6416C74.7652 27.9446 76.6219 28.1278 78.4175 28.3064C84.2932 28.8887 90.3691 29.4913 92.0549 34.294C94.7998 42.1187 85.5604 47.316 82.0823 49.2719C75.1759 53.1577 64.5822 54.4692 55.2341 55.6258C53.4804 55.8417 51.825 56.0475 50.2229 56.2646C49.5961 56.3505 48.9444 56.441 48.2768 56.5348C45.2151 56.9622 41.7506 57.4472 38.8484 57.6235C38.6414 54.1934 38.4751 50.7439 38.3133 47.4053C38.1933 44.9248 38.0689 42.3596 37.9297 39.827C37.9014 39.3115 37.8607 38.1278 37.8098 36.6298C37.5688 29.5127 37.2961 22.5144 36.8695 21.9164C36.5923 21.5274 36.2755 21.3386 35.9157 21.3601C34.8431 21.42 33.7694 23.3533 32.9061 24.9068C32.7013 25.2753 32.5078 25.6235 32.3471 25.8824C31.3526 27.4811 30.4112 29.0379 29.4133 30.6874L28.7208 31.8304C28.3373 32.4636 27.9661 33.0797 27.5984 33.6857C26.7634 35.0696 25.9578 36.4048 25.1058 37.7852C24.9927 37.9672 24.832 38.2137 24.6431 38.5031C23.0726 40.9045 21.4626 43.541 22.2501 44.4274C22.6777 44.9079 25.8605 44.5099 30.668 43.8451C32.3754 43.61 33.8667 43.4042 34.7367 43.3375L33.5951 47.5274C33.1493 47.5851 32.6922 47.6428 32.2272 47.6993C27.9978 48.2284 23.205 48.8265 19.6387 50.6524C18.4246 51.2753 16.8146 52.4183 16.1945 53.0978C14.2439 55.2358 13.1475 56.8649 11.628 59.1204L11.2648 59.6597C11.129 59.861 11.0113 60.0419 10.905 60.2069C10.1718 61.3409 9.97494 61.645 7.97001 61.8463C7.43144 61.9005 6.87702 61.965 6.31809 62.0317C5.18664 62.164 4.02011 62.3019 2.91808 62.3528L26.1185 25.7366C26.4228 25.2651 27.0451 24.2702 27.8338 23.0085C29.6758 20.0611 32.742 15.1577 33.138 14.7813L48.9693 12.7733L51.2186 50.5495L51.2254 50.6671L51.3419 50.6818C53.4951 50.9554 68.2085 48.303 70.6603 47.6337C72.0158 47.264 76.5699 45.8191 78.2467 42.7948C78.9086 41.6021 79.0364 40.3109 78.6303 38.9554C77.5565 35.3861 72.577 35.1736 67.3067 34.9497C62.3939 34.7406 57.3126 34.5257 54.992 31.6077C53.7361 30.0294 53.3978 27.8123 53.9567 24.8276C54.3595 22.675 55.5373 19.7547 57.2583 18.0837C57.4529 17.8949 57.6441 17.6891 57.8376 17.4822C58.168 17.1272 58.5097 16.7586 58.8695 16.4817C58.9984 16.3822 59.1512 16.2702 59.3311 16.138C59.5189 16 59.7362 15.8406 59.9896 15.6495C67.4413 10.0181 77.3042 8.75978 86.8423 7.54214C88.3042 7.35559 89.8158 7.1634 91.2652 6.95876C94.4547 6.50992 97.6986 6.11761 100.835 5.73773C104.391 5.30811 108.068 4.86266 111.648 4.33807L131.834 1.84966L130.235 8.39008C129.963 8.26232 129.695 8.11648 129.414 7.96498C128.102 7.25497 126.612 6.44661 124.022 7.19053C119.97 8.35616 117.235 12.606 116.125 15.8915C115.082 18.9712 109.046 44.9802 108.174 48.796L94.7432 50.6332L99.6107 29.8225C99.7816 29.1148 99.9638 28.4003 100.146 27.6801C100.855 24.874 101.59 21.9729 101.843 19.0424C102.108 15.9571 101.739 14.0136 100.645 12.7394V12.7406ZM35.8727 41.5772C33.0192 41.9955 26.4557 43.0255 23.8612 42.961C23.9993 42.3652 30.8423 31.454 31.9025 29.4766L32.8212 27.9887C33.6143 26.7914 34.7605 24.6953 35.5865 23.6484C36.3129 29.1057 36.0764 34.7677 36.3819 40.7315C36.4124 41.3285 36.5109 41.4833 35.8716 41.5761L35.8727 41.5772Z" fill="#454545"/>
</g>
<defs>
<clipPath id="clip0_795_1256">
<rect width="134" height="64" fill="white"/>
</clipPath>
</defs>
</svg>
