<svg width="157" height="113" viewBox="0 0 157 113" fill="none" xmlns="http://www.w3.org/2000/svg">
<g clip-path="url(#clip0_795_1385)">
<path fill-rule="evenodd" clip-rule="evenodd" d="M72.3069 26.9902C56.5914 26.9902 43.8518 40.2027 43.8518 56.5002C43.8518 72.7976 56.5914 86.0101 72.3069 86.0101C88.0225 86.0101 100.762 72.7976 100.762 56.5002C100.762 40.2027 88.0225 26.9902 72.3069 26.9902ZM75.1981 33.9374C81.9059 32.2918 80.5958 52.1956 74.1957 42.3476C71.36 37.6311 71.6943 34.8279 75.1981 33.9374ZM73.0842 73.6193C70.0255 74.7302 70.5156 73.359 74.5537 69.5063C76.52 65.7136 76.0853 65.0612 73.248 67.5493C69.8166 71.1313 66.8568 73.6985 64.368 75.2487C63.0697 76.0586 61.4436 77.1421 59.8663 76.4617C58.1488 75.722 59.8434 73.6422 64.9474 70.2252C76.9946 59.1044 74.2297 56.6939 61.1491 49.3126C52.4654 44.4163 53.4323 41.4556 62.9619 46.0213C75.2328 51.9049 80.7213 52.9116 84.814 37.7443C86.0695 35.4936 86.6866 35.9233 86.6666 39.0349C84.4331 50.3932 83.357 66.4724 73.0849 73.6201L73.0842 73.6193Z" fill="#454545"/>
<path fill-rule="evenodd" clip-rule="evenodd" d="M91.1978 94.372C91.7262 93.2175 92.2798 91.9483 92.7064 90.6895L90.7261 92.662C90.5859 93.2537 90.4796 93.7552 90.4146 94.0665C90.343 94.3624 90.236 94.8624 90.1807 95.3845L91.1978 94.372Z" fill="#454545"/>
<path fill-rule="evenodd" clip-rule="evenodd" d="M51.5775 90.0712L17.5844 56.3321L72.4908 2.17225L127.03 56.5L97.0702 86.3435C97.2289 87.0328 97.2481 87.731 97.1647 88.4285L129.217 56.5L72.4982 0L15.3967 56.3262L50.3523 91.0201C50.7442 90.6791 51.1539 90.3589 51.5783 90.0719L51.5775 90.0712Z" fill="#454545"/>
<path fill-rule="evenodd" clip-rule="evenodd" d="M53.5978 94.2413C53.7794 93.6866 53.9359 93.1126 54.0709 92.5461L53.7462 92.2236C53.5321 92.6082 53.3099 93.16 53.1025 93.7495L53.5978 94.2413Z" fill="#454545"/>
<path fill-rule="evenodd" clip-rule="evenodd" d="M84.9034 98.4634L72.4908 110.828L63.0077 101.417C62.5759 101.784 62.1065 102.082 61.6245 102.209L72.4974 113.001L85.5145 100.034C85.1898 99.5691 84.9942 99.0388 84.9026 98.4641L84.9034 98.4634Z" fill="#454545"/>
<path fill-rule="evenodd" clip-rule="evenodd" d="M59.1023 97.54L58.5783 97.02C58.5931 97.2545 58.5325 97.4978 58.4388 97.7153C58.4174 97.7656 58.3923 97.8055 58.3561 97.8477C58.1819 98.0518 58.0055 98.2485 57.8262 98.4386L59.0861 99.6886C58.9628 99.0044 58.9798 98.2811 59.1031 97.5407L59.1023 97.54Z" fill="#454545"/>
<path fill-rule="evenodd" clip-rule="evenodd" d="M57.8315 96.2789L57.1856 95.6377C56.8328 95.9986 56.4438 96.3396 56.0327 96.6584L56.1065 96.7316C56.1966 96.6924 56.2874 96.6487 56.3774 96.6118C56.7553 96.4564 57.3443 96.2286 57.8315 96.2789Z" fill="#454545"/>
<path fill-rule="evenodd" clip-rule="evenodd" d="M2.93677 88.1674C1.5056 88.3893 1.57867 87.7496 3.15525 86.2474C5.73859 83.996 9.53167 83.266 14.5352 84.0559C18.769 85.4301 18.769 87.9285 14.5352 91.5534C13.6613 92.3655 13.8466 92.861 15.0925 93.0378C18.6531 94.4187 18.6132 96.7063 14.9729 99.9014C11.1976 103.226 7.45024 104.617 3.52134 104.045C1.84808 104.151 1.31296 103.355 1.91524 101.657C0.14012 101.779 -0.400905 100.699 0.292168 98.4156C3.54718 91.0505 4.4292 87.6342 2.93751 88.166L2.93677 88.1674ZM12.2191 97.6412C11.2603 101.058 8.70722 101.831 4.55985 99.9591C5.42195 98.5043 6.6745 96.3069 8.31972 93.3669C11.1171 93.7589 12.4169 95.1842 12.2191 97.6412ZM12.0604 89.0557C11.6109 91.1355 10.2447 92.0896 7.96174 91.918C8.44667 90.4943 8.87772 88.7798 9.25489 86.7747C11.6877 86.0137 12.6228 86.7747 12.0604 89.0557Z" fill="#454545"/>
<path fill-rule="evenodd" clip-rule="evenodd" d="M27.125 91.6356C27.0637 93.0742 26.6194 94.3204 25.792 95.3751C24.6088 97.3314 24.7284 97.8987 26.15 97.0777C29.0175 95.8122 30.2907 93.6267 29.9696 90.5218C28.7451 88.513 26.5375 88.5706 23.3452 90.6941C19.2834 94.1067 18.2088 97.2523 20.1227 100.13C21.7236 101.657 24.4095 101.367 28.1797 99.261C31.0126 96.7227 31.0524 96.0644 28.2986 97.287C24.6265 98.8972 23.1407 98.2456 23.8419 95.3307C25.355 91.1001 26.4489 89.8679 27.125 91.6356Z" fill="#454545"/>
<path fill-rule="evenodd" clip-rule="evenodd" d="M45.207 93.0501C45.5377 90.5377 44.7412 89.3121 42.82 89.3735C38.6446 89.1095 35.1622 91.46 32.3752 96.4243C31.161 100.641 32.0238 102.196 34.9615 101.091C36.5816 100.188 37.9419 99.3006 39.0402 98.4286C40.2684 96.9886 40.8256 97.4479 40.7112 99.8043C39.9953 103.261 38.9612 104.559 37.6075 103.698C37.7935 102.435 38.305 101.42 39.1398 100.656C38.773 100.058 37.9899 100.383 36.7919 101.633C33.9296 102.882 33.2594 104.596 34.7828 106.777C37.4289 108.019 39.7901 107.03 41.8656 103.806C44.136 100.951 45.2498 97.3658 45.2077 93.0487L45.207 93.0501ZM40.9651 91.1974C42.276 91.295 41.2545 93.4022 37.902 97.5174C35.7564 97.2578 36.7772 95.1514 40.9651 91.1974Z" fill="#454545"/>
<path fill-rule="evenodd" clip-rule="evenodd" d="M53.2243 98.8646C51.1288 98.9497 50.9568 98.7019 52.7076 98.1221C57.6691 95.5364 59.3335 92.91 57.7008 90.2444C55.5006 88.5662 52.9217 89.1823 49.9619 92.092C46.7622 95.5933 46.1791 98.4061 48.2104 100.531C51.8256 101.893 55.0754 100.885 57.9584 97.5067C58.5186 96.2116 56.9413 96.6643 53.2243 98.8646ZM54.8112 91.6504C53.8369 96.1399 52.8154 97.7323 51.7473 96.4254C52.9209 91.879 53.9424 90.2881 54.8112 91.6504Z" fill="#454545"/>
<path fill-rule="evenodd" clip-rule="evenodd" d="M65.419 91.8039C65.9276 89.2182 65.4102 88.4016 63.8675 89.3535C59.4928 95.2549 58.4189 99.3502 60.645 101.639C61.5389 102.061 62.7324 101.276 64.2255 99.2836C65.0876 98.3265 65.6722 97.5351 65.9763 96.9109C67.0502 96.0285 67.6075 96.2697 67.6473 97.6357C67.8607 100.314 68.9553 101.557 70.9304 101.366C72.1645 101.112 72.6686 100.17 72.4428 98.541C72.9543 92.9281 72.5358 90.3379 71.1887 90.7713C69.5007 90.8815 68.1943 91.9377 67.2694 93.9413C65.439 94.8866 64.8219 94.1743 65.419 91.8039Z" fill="#454545"/>
<path fill-rule="evenodd" clip-rule="evenodd" d="M80.4593 98.505C77.4752 96.4992 77.7136 94.5311 81.1752 92.6014C80.4246 94.5089 80.7361 95.0103 82.1104 94.105C84.6598 91.6014 84.8916 89.9654 82.8064 89.1977C80.308 88.2288 77.5497 90.6377 74.5309 96.4252C73.6341 98.4814 74.091 100.16 75.903 101.458C76.5739 101.748 76.1953 102.002 74.7693 102.218C74.012 102.717 74.1781 102.953 75.2668 102.924C76.4367 102.625 76.5164 103 75.5052 104.047C73.4496 105.376 73.6024 105.859 75.9628 105.496C78.6775 103.501 79.2082 102.324 77.5541 101.965C78.5528 101.656 79.0813 101.293 79.1418 100.878C80.7996 101.388 82.3533 100.196 83.8007 97.3017C83.887 96.173 82.7732 96.5739 80.4586 98.5058L80.4593 98.505Z" fill="#454545"/>
<path fill-rule="evenodd" clip-rule="evenodd" d="M89.9063 93.9438C90.8518 89.3848 91.9132 86.8428 93.0912 86.3184C94.5423 86.6379 94.0241 89.4935 91.5397 94.8846C91.1293 96.1523 91.7065 96.1523 93.2705 94.8846C97.1072 90.3071 97.7235 86.6312 95.1202 83.8554C93.5289 82.8681 90.9094 85.4212 87.2624 91.5164C84.3477 97.2277 84.7654 100.446 88.515 101.171C92.6336 101.171 95.0006 99.3659 95.6177 95.7566C95.766 94.6191 94.8375 95.247 92.8321 97.6397C90.0524 98.6108 89.0774 97.3786 89.907 93.9453L89.9063 93.9438Z" fill="#454545"/>
<path fill-rule="evenodd" clip-rule="evenodd" d="M101.186 101.17C103.793 94.2758 104.343 90.5637 102.837 90.0319C101.225 89.5097 99.8262 92.1302 98.6393 97.8925C98.6113 101.431 99.4601 102.523 101.186 101.17Z" fill="#454545"/>
<path fill-rule="evenodd" clip-rule="evenodd" d="M101.152 88.3131C104.25 87.3058 104.891 85.845 103.075 83.9302C101.226 85.2105 100.585 86.6712 101.152 88.3131Z" fill="#454545"/>
<path fill-rule="evenodd" clip-rule="evenodd" d="M127.802 92.6656C128.133 90.1531 127.337 88.9276 125.415 88.9897C121.24 88.7257 117.758 91.0755 114.971 96.0405C113.756 100.256 114.619 101.812 117.557 100.707C119.177 99.8044 120.537 98.9169 121.636 98.0448C122.864 96.6056 123.421 97.0641 123.307 99.4205C122.591 102.877 121.557 104.175 120.203 103.315C120.389 102.051 120.9 101.037 121.735 100.272C121.368 99.6742 120.585 99.9997 119.387 101.25C116.525 102.498 115.855 104.213 117.378 106.393C120.024 107.635 122.386 106.646 124.461 103.423C126.731 100.568 127.845 96.982 127.803 92.6649L127.802 92.6656ZM122.244 91.1975C123.555 91.2951 122.533 93.4023 119.181 97.5175C117.035 97.2579 118.056 95.1515 122.244 91.1975Z" fill="#454545"/>
<path fill-rule="evenodd" clip-rule="evenodd" d="M128.664 99.7829C129.244 92.9585 131.035 89.3543 134.035 88.9697C136.355 89.3987 136.408 91.3735 134.194 94.8941C133.396 96.9531 133.937 97.4635 135.816 96.4258C139.086 92.4274 141.118 91 141.912 92.1419C143.031 98.6498 142.58 101.873 140.559 101.812C138.291 101.451 137.336 100.162 137.695 97.942C137.394 97.1085 136.558 97.5042 135.189 99.1313C131.293 101.862 129.118 102.079 128.664 99.7829H128.664Z" fill="#454545"/>
<path fill-rule="evenodd" clip-rule="evenodd" d="M149.969 92.4298C150.398 91.31 150.497 90.5378 150.267 90.1125C148.386 89.0889 146.927 90.3929 145.891 94.0236C143.576 99.8836 143.749 102.479 146.408 101.812C148.268 100.412 149.555 98.8903 150.267 97.2476C152.346 95.937 153.049 96.4858 152.376 98.8955C152.81 101.408 154.268 102.205 156.753 101.286C157.301 94.0185 156.936 90.6199 155.658 91.0896C154.916 90.9979 153.564 92 151.599 94.0961C149.89 94.7965 149.347 94.2411 149.969 92.4298Z" fill="#454545"/>
<path fill-rule="evenodd" clip-rule="evenodd" d="M135.185 87.5951C138.032 86.8281 138.895 85.7113 137.772 84.2446C135.634 84.2727 134.772 85.3896 135.185 87.5951Z" fill="#454545"/>
<path fill-rule="evenodd" clip-rule="evenodd" d="M140.13 87.5951C142.977 86.8281 143.84 85.7113 142.717 84.2446C140.579 84.2727 139.717 85.3896 140.13 87.5951Z" fill="#454545"/>
</g>
<defs>
<clipPath id="clip0_795_1385">
<rect width="157" height="113" fill="white"/>
</clipPath>
</defs>
</svg>
