<svg width="128" height="92" viewBox="0 0 128 92" fill="none" xmlns="http://www.w3.org/2000/svg">
<g clip-path="url(#clip0_795_1324)">
<path fill-rule="evenodd" clip-rule="evenodd" d="M54.9679 0C70.6786 0 84.5528 7.82844 92.8861 19.7844C92.4697 19.9082 92.0499 20.0384 91.6288 20.1697C83.4986 8.72229 70.1092 1.24932 54.9679 1.24932C40.8008 1.24932 28.1683 7.7929 19.9414 18.0116C19.7672 18.2283 18.078 20.4311 17.9071 20.6507C17.5649 20.4111 17.2204 20.1748 16.8736 19.9409C17.0669 19.6909 18.7796 17.4583 18.9775 17.2124C27.4356 6.71902 40.4138 0 54.9679 0ZM100.163 55.3243C95.8401 76.2594 77.2479 92.0006 54.9679 92.0006C38.1069 92.0006 23.3601 82.9842 15.3092 69.5255C15.6227 69.2371 15.9367 68.9481 16.2519 68.6597C24.0537 81.8782 38.4704 90.7513 54.9679 90.7513C76.698 90.7513 94.8215 75.3593 98.9671 54.9155C99.368 55.0543 99.7666 55.1907 100.163 55.3243Z" fill="#454545"/>
<path fill-rule="evenodd" clip-rule="evenodd" d="M54.9679 13.8794C58.0317 13.8794 60.996 14.306 63.8033 15.1023C63.8177 15.6493 63.8441 16.2232 63.8815 16.8212C61.061 15.9658 58.0685 15.5043 54.9679 15.5043C44.9632 15.5043 36.0818 20.2934 30.5006 27.6947C30.4085 27.8168 29.0639 29.5466 28.9736 29.6704C28.5963 29.2668 28.2149 28.8683 27.8296 28.4756C27.9067 28.3718 29.2381 26.6615 29.3163 26.5589C35.2018 18.8537 44.5025 13.8794 54.9679 13.8794ZM86.8109 50.9369C84.428 66.333 71.0795 78.1209 54.9679 78.1209C44.8695 78.1209 35.8581 73.4889 29.9502 66.2418C30.4557 66.052 30.9751 65.8284 31.5082 65.5704C37.1199 72.2482 45.5458 76.4961 54.9685 76.4961C70.0379 76.4961 82.5611 65.6346 85.0923 51.3366C85.6594 51.133 86.2328 51.0006 86.8114 50.9375L86.8109 50.9369Z" fill="#454545"/>
<path fill-rule="evenodd" clip-rule="evenodd" d="M31.2563 54.1666C30.9325 54.334 28.4841 58.7189 27.73 59.583C26.2163 61.3162 28.0935 62.9703 29.222 63.6222C29.754 63.9295 30.2061 63.4794 30.5684 63.1538C38.1482 56.3453 55.0058 49.9112 61.773 48.6768C63.1211 48.4309 63.8498 48.4102 65.2543 48.6201C68.3975 49.0914 68.1508 49.5804 70.4646 50.7116C76.7814 53.7985 78.8324 45.5452 85.8923 45.2247C92.0038 44.9472 101.405 51.3882 101.598 51.2792C98.0578 47.6058 88.0503 43.6423 84.8777 43.8602C81.7052 44.078 78.1169 46.6197 74.463 48.7038C73.3627 49.331 71.788 49.8608 70.6078 49.5965C68.8611 49.2049 67.2932 47.4499 64.0344 46.5016C63.6134 46.4391 63.0843 46.4219 62.7231 46.3777C62.2618 46.3215 39.2853 50.5878 35.5572 56.1762C35.4577 55.6269 38.33 51.25 38.889 50.6445C36.3233 51.7058 33.7754 52.8622 31.2551 54.1666H31.2563Z" fill="#454545"/>
<path d="M6.20294 65.4376C5.87856 65.683 5.49896 65.9519 5.02906 66.2523C4.5724 66.5448 4.10538 66.7586 3.62916 66.8905C3.15409 67.0223 2.70317 67.0298 2.26664 66.9128C1.83067 66.7959 1.47983 66.4559 1.20491 65.8671C0.969105 65.3614 0.801162 64.6791 0.673479 63.8076C0.547522 62.9459 0.465276 62.0102 0.413513 60.9999C0.36175 59.9868 0.326091 58.9841 0.334143 57.9876C0.342195 56.9974 0.358874 56.1047 0.378429 55.3147C0.385906 55.0194 0.391658 54.7751 0.396834 54.5693C0.40201 54.364 0.419265 54.0688 0.440545 53.6904C0.458374 53.3699 0.488857 53.1749 0.519915 53.1405C0.545222 53.113 0.576855 53.2644 0.59756 53.5551C0.658525 54.4179 0.797136 55.153 1.00419 55.7642C1.20606 56.3593 1.44245 56.8701 1.72485 57.2784C2.00494 57.6837 2.32472 57.9538 2.68132 58.1338C3.02985 58.3098 3.38875 58.4067 3.75051 58.4405C4.1117 58.4744 4.4729 58.4405 4.82949 58.323C5.17055 58.2112 5.50701 58.0621 5.80781 57.8609C6.27713 57.5467 6.70159 57.2004 7.08579 56.8254C7.46711 56.4533 7.77999 56.0887 8.04686 55.732C9.75619 53.4478 11.0307 50.1683 11.8716 45.8619C12.0372 45.0139 12.1839 44.1459 12.2978 43.2945C12.4134 42.4259 12.4996 41.579 12.5807 40.7339C12.6618 39.8877 12.7274 39.0678 12.7723 38.311C13.0748 33.2816 12.9281 27.5613 9.66647 24.7204C8.7146 23.8919 6.7614 23.7721 5.93204 24.6533C5.66288 24.9394 5.42361 25.5197 5.23037 26.3802C5.12799 26.8378 4.99225 27.3412 4.99513 27.8881L5.13604 54.8371C5.13719 55.0813 5.18493 55.3341 5.05667 55.3806C3.11958 56.0755 1.87669 53.9036 1.74153 52.1297C1.72715 51.9422 1.69321 51.71 1.69436 51.3821L1.81802 17.701C1.81917 17.3151 1.87381 17.0869 1.91119 17.0554C1.95261 17.0198 2.013 17.1282 2.11192 17.3787C2.53638 18.4532 5.5513 20.3389 7.13698 19.9015C7.4464 19.816 7.76734 19.7489 8.06469 19.6945C8.71575 19.5752 9.33979 19.6555 9.97015 19.9255C10.6005 20.195 11.1912 20.6801 11.7473 21.3537C12.3006 22.024 12.8286 22.8897 13.2974 23.9688C13.7638 25.0426 14.1791 26.3149 14.5098 27.805C16.0627 34.7958 15.8982 37.983 15.0102 45.108C14.6794 47.758 14.1963 50.1712 13.612 52.3499C13.1438 54.0963 12.6371 55.6587 12.0907 57.0083C11.5374 58.3729 10.9467 59.5889 10.3198 60.6599C9.68545 61.7436 9.02518 62.673 8.33961 63.4412C7.64656 64.2187 6.94258 64.878 6.20351 65.4388L6.20294 65.4376ZM26.4636 42.0956C26.493 42.8547 26.543 43.4522 26.6396 43.8707C26.7316 44.2697 26.8645 44.6224 27.0324 44.8769C27.1831 45.1051 27.3752 45.249 27.6139 45.3442C27.8423 45.4348 28.15 45.4428 28.5134 45.3929C28.8769 45.3436 29.3192 45.2324 29.8507 45.061C30.3821 44.8895 31.0033 44.6522 31.7245 44.3391C31.9246 44.252 32.1478 44.1402 32.425 44.0008C32.704 43.8604 32.991 43.6907 33.2935 43.5215C33.5926 43.3547 33.9066 43.1603 34.2085 42.9476C34.5105 42.7343 34.79 42.5331 35.0368 42.325C35.429 41.9936 35.7298 41.641 35.9524 41.2752C36.1761 40.9071 36.3107 40.5436 36.3423 40.1721C36.3573 39.9926 36.3343 39.8613 36.2756 39.7581C36.2187 39.6572 36.1474 39.5924 36.0387 39.5683C35.9294 39.5448 35.8086 39.5311 35.6435 39.5655C35.4998 39.5953 35.3335 39.6354 35.1685 39.675C35.0132 39.7122 34.8608 39.769 34.7043 39.7787C30.0692 40.0631 32.3071 30.3403 38.1886 29.47C38.2564 29.4597 38.3208 29.4413 38.4094 29.4276C38.4865 29.4161 38.5745 29.4058 38.6734 29.4064C38.7499 29.4064 38.8385 29.4035 38.9259 29.4104C39.0139 29.4173 39.08 29.4362 39.1445 29.4574C39.233 29.4866 39.2854 29.5342 39.2946 29.5984C39.3038 29.6632 39.2652 29.8083 39.1623 30.0497C38.7637 30.9899 38.3709 31.948 37.9712 32.9078C37.9154 33.0419 37.8647 33.1314 37.8107 33.1841C37.7635 33.2306 37.6882 33.261 37.5674 33.2518C37.1176 33.2157 36.6989 33.3653 36.3475 33.73C36.1267 33.9593 35.9058 34.2517 35.7103 34.6238C35.5256 34.9758 35.4158 35.4156 35.3818 35.9161C35.3646 36.1724 35.3749 36.3754 35.4112 36.509C35.4457 36.6357 35.5291 36.7113 35.6355 36.7624C35.735 36.81 35.8862 36.8266 36.0737 36.8123C36.2716 36.7973 36.5028 36.7618 36.7904 36.7125C37.0216 36.6729 37.2315 36.6569 37.4512 36.6425C37.6496 36.6294 37.8354 36.6775 38.008 36.787C38.1702 36.8902 38.3105 37.0748 38.4008 37.3237C38.4951 37.5834 38.5463 37.9532 38.5382 38.4222C38.5204 39.4565 38.3444 40.492 38.0223 41.52C37.7003 42.5486 37.3178 43.4745 36.8559 44.2634C36.6414 44.6304 36.3918 45.0231 36.1019 45.4485C35.8109 45.8745 35.4652 46.3103 35.0707 46.738C34.6646 47.1783 34.2166 47.6009 33.688 48.02C33.1744 48.4271 32.574 48.7688 31.9143 49.1191C31.5157 49.3307 31.177 49.5279 30.9124 49.6707C30.6208 49.8272 30.3769 49.955 30.1555 50.0645C29.9208 50.1809 29.7103 50.2778 29.5223 50.3604C29.3221 50.4481 29.1248 50.5525 28.8999 50.6568C28.4249 50.8775 28.0027 50.9773 27.6622 50.9544C27.3114 50.9303 27.0301 50.8168 26.803 50.6115C26.5683 50.3994 26.3866 50.1316 26.2629 49.7859C26.1398 49.4402 26.061 49.0767 26.0374 48.6902C25.7211 49.9441 25.3151 50.9836 24.8273 51.8757C24.3488 52.7512 23.7461 53.4209 22.9886 53.8469C22.4324 54.1594 21.8843 54.4598 21.3396 54.7837C20.9025 55.044 20.4694 55.2791 20.049 55.4586C19.6154 55.6437 19.2064 55.7653 18.8217 55.8014C18.4363 55.8375 18.0786 55.7607 17.7502 55.5979C17.4166 55.4322 17.1278 55.1426 16.8938 54.7017C16.5406 54.0384 16.2795 53.1285 16.1271 51.9508C15.9753 50.7824 15.9287 49.525 15.9678 48.1633C16.0023 46.969 16.0989 45.765 16.2651 44.5748C16.4325 43.3736 16.643 42.2567 16.9087 41.2058C17.3125 39.609 17.8019 38.3075 18.4116 37.2858C19.0051 36.2917 19.6033 35.6833 20.2474 35.4437C20.6012 35.3124 20.9549 35.2952 21.2919 35.4018C21.6301 35.509 21.9326 35.7544 22.1851 36.1386C22.4405 36.5267 22.6464 37.0703 22.7821 37.7634C22.919 38.4629 22.9742 39.3338 22.9483 40.3807C22.9288 41.1708 22.8534 41.9844 22.7125 42.8014C22.5716 43.619 22.3818 44.3924 22.1172 45.1114C21.9108 45.6716 21.6761 46.144 21.4121 46.523C21.1412 46.9129 20.8577 47.1823 20.5574 47.3371C19.9564 47.6473 19.4445 47.5412 19.05 46.9874C18.6485 46.4227 18.3644 45.4485 18.2327 44.061C18.2074 43.7962 18.1482 43.8254 18.0768 44.1385C17.9509 44.6917 17.8704 45.171 17.833 45.5689C17.7967 45.9531 17.7841 46.3195 17.7732 46.6468C17.7375 47.7448 17.8295 48.5303 18.055 49.0371C18.277 49.5382 18.5738 49.8409 18.9332 49.947C19.3042 50.0565 19.7126 50.0221 20.1767 49.849C20.6328 49.6792 21.0872 49.4614 21.5438 49.2097C21.9781 48.97 22.4255 48.7235 22.869 48.4787C23.2497 48.2682 23.6247 47.9753 23.9991 47.637C24.3879 47.2861 24.7922 46.6726 25.1977 45.8011C25.4416 45.2777 25.6256 44.7359 25.7884 44.1213C25.9523 43.502 26.0938 42.8542 26.1985 42.1765C26.2502 41.8439 26.3101 41.6633 26.3653 41.6622C26.4205 41.6616 26.4533 41.813 26.4642 42.0968L26.4636 42.0956ZM19.104 40.7643C19.0845 40.8297 19.073 40.8985 19.0661 40.9684C19.0586 41.0395 19.0672 41.1215 19.0816 41.2264C19.1322 41.5934 19.188 41.9408 19.2639 42.3009C19.3358 42.6414 19.4411 42.9356 19.5607 43.1936C19.6809 43.4533 19.8126 43.6305 19.976 43.7308C20.1479 43.8369 20.3481 43.8403 20.5799 43.7291C20.8813 43.5852 21.1038 43.2658 21.2844 42.7928C21.4685 42.3095 21.5651 41.6662 21.5847 40.8629C21.6048 40.0534 21.507 39.4542 21.2781 39.0569C21.044 38.651 20.7536 38.53 20.3981 38.6745C20.221 38.7461 20.0082 38.9365 19.7689 39.2409C19.5429 39.5288 19.3238 40.0476 19.1052 40.7637L19.104 40.7643ZM30.3413 35.4941C30.3838 35.5784 30.3982 35.6449 30.4022 35.7023C30.4063 35.7613 30.3884 35.8376 30.3413 35.9505C29.9341 36.9183 29.5343 37.8913 29.149 38.8602C29.1012 38.9801 29.0679 39.0305 29.046 39.0299C29.0132 39.0288 28.9799 38.9961 28.9391 38.9164C28.5819 38.2152 28.242 37.4963 27.9044 36.7658C27.8664 36.6838 27.8365 36.6294 27.8325 36.5697C27.8284 36.5124 27.8589 36.4235 27.9049 36.3089C28.292 35.3416 28.6894 34.3732 29.0972 33.3991C29.1444 33.2856 29.1789 33.2185 29.2117 33.2237C29.2341 33.2271 29.2709 33.2787 29.3071 33.3561C29.6465 34.0785 29.9864 34.7975 30.3413 35.4941ZM44.1551 18.2835C44.2581 18.108 44.3248 18.0845 44.3444 18.1946C44.3633 18.3047 44.3662 18.4262 44.3582 18.5357C44.2868 19.4325 44.2356 20.3894 44.1661 21.4088C44.097 22.4282 44.0269 23.3834 43.9745 24.2749C43.9136 25.3138 43.8538 26.347 43.7997 27.367C43.7934 27.4885 43.8273 27.5522 43.894 27.5441C44.3455 27.4897 44.6963 27.4971 44.9477 27.5608C45.2094 27.6267 45.4458 27.7534 45.6637 27.9369C45.9835 28.2064 46.2027 28.7499 46.2929 29.5824C46.3367 29.9831 46.3487 30.4395 46.3361 30.9406C46.3246 31.4033 46.2964 31.8528 46.2366 32.2932C46.1756 32.7415 46.0916 33.1285 46.0094 33.48C45.9812 33.5998 45.9617 33.6583 45.9392 33.6571C45.9168 33.6566 45.9042 33.5855 45.9001 33.4565C45.8978 33.3859 45.888 33.2707 45.876 33.1084C45.8633 32.9353 45.8346 32.7438 45.7684 32.5575C45.7006 32.3654 45.5872 32.1756 45.4527 31.9979C45.3106 31.8104 45.1225 31.6659 44.881 31.5696C44.7631 31.5226 44.6078 31.5105 44.399 31.5054C44.2126 31.5008 43.9705 31.5306 43.6829 31.592C43.6174 31.6063 43.5852 31.678 43.5788 31.8064C43.5173 33.0832 43.4592 34.2064 43.4287 35.2017C43.3988 36.1907 43.3816 37.1098 43.3712 37.9641C43.3614 38.7995 43.3528 39.6033 43.3557 40.3744C43.3586 41.1335 43.3557 41.9242 43.3626 42.7475C43.3643 42.9218 43.3643 43.1208 43.3476 43.3386C43.3315 43.5513 43.297 43.7623 43.2562 43.9395C43.2113 44.1316 43.1532 44.2933 43.079 44.4274C43.0037 44.5639 42.8979 44.6522 42.7869 44.6923C42.6431 44.7445 42.4924 44.6952 42.3296 44.5386C42.1709 44.3867 42.0087 44.1786 41.8511 43.8959C41.6935 43.6133 41.5273 43.2956 41.3588 42.9247C41.1943 42.5623 41.0419 42.181 40.8814 41.7935C40.668 41.278 40.469 40.7345 40.2631 40.148C40.0584 39.5672 39.9065 38.9273 39.7495 38.2628C39.5885 37.5834 39.443 36.8897 39.3619 36.1575C39.2813 35.4236 39.252 34.6353 39.2773 33.8074C39.3095 32.7541 39.4171 31.8815 39.6166 31.1786C39.8139 30.4831 40.0394 29.9189 40.2844 29.4952C40.5329 29.0646 40.7761 28.7711 40.9993 28.579C41.2248 28.3847 41.3875 28.2499 41.4698 28.2058C41.5445 28.1662 41.5905 28.0756 41.5975 27.9283C41.6803 26.2209 41.7568 24.5197 41.8557 22.8077C41.8712 22.5371 41.9052 22.3485 41.9362 22.2195C41.9667 22.0939 42.0438 21.9363 42.168 21.7207C42.8357 20.566 43.4885 19.4141 44.1534 18.2835H44.1551ZM41.3755 32.5426C41.3795 32.4594 41.3754 32.3975 41.3582 32.3551C41.3438 32.3184 41.3277 32.3201 41.2708 32.3448C41.1391 32.4021 41.0177 32.4955 40.8912 32.6062C40.771 32.7105 40.6542 32.8413 40.5518 33.0041C40.4489 33.1669 40.3546 33.3687 40.2844 33.5975C40.2113 33.8383 40.1728 34.1009 40.1659 34.3968C40.159 34.6857 40.178 35.0097 40.2194 35.3571C40.2597 35.6942 40.3074 36.044 40.3804 36.3989C40.4546 36.7572 40.5507 37.1064 40.6628 37.4263C40.7767 37.7514 40.8975 38.0461 41.0252 38.3156C41.0752 38.4205 41.1017 38.4549 41.1212 38.4222C41.1379 38.3953 41.1569 38.3144 41.1603 38.1797C41.1845 37.197 41.2242 36.2469 41.2639 35.3032C41.3036 34.379 41.334 33.4542 41.376 32.5431L41.3755 32.5426ZM53.5519 31.4371C53.5375 32.022 53.4696 32.6045 53.3327 33.203C53.1987 33.7896 53.0095 34.3354 52.7541 34.8319C52.5592 35.2109 52.3285 35.5188 52.0611 35.7619C51.8006 35.9987 51.5233 36.1569 51.2151 36.2229C50.6186 36.3513 50.1079 36.2074 49.6995 35.7573C49.2849 35.2998 49.0122 34.5636 48.8644 33.5505C48.8339 33.3412 48.7787 33.3579 48.7097 33.5826C48.5872 33.9805 48.505 34.3142 48.4756 34.5957C48.4469 34.8709 48.4244 35.1209 48.4129 35.3646C48.379 36.0635 48.4791 36.6219 48.7011 37.0479C48.9202 37.4693 49.2302 37.764 49.6357 37.9022C49.8514 37.9756 50.0947 37.9876 50.3587 37.9761C50.6336 37.9641 50.9309 37.92 51.2519 37.8448C51.7045 37.7388 52.1824 37.5914 52.6805 37.3684C53.1711 37.1494 53.6353 36.8879 54.073 36.6013C54.3387 36.4275 54.6107 36.2263 54.8787 35.9843C55.1496 35.7401 55.409 35.4735 55.6563 35.1799C55.8956 34.8956 56.1389 34.5619 56.373 34.1863C56.5961 33.828 56.794 33.4427 56.9728 33.0144C57.0505 32.8292 57.1097 32.7513 57.1534 32.816C57.1949 32.8768 57.196 32.9571 57.1799 33.0677C57.1028 33.6032 57.02 34.1731 56.8745 34.7786C56.7267 35.3898 56.5582 35.9872 56.3574 36.5778C56.155 37.1735 55.9278 37.7462 55.6667 38.3052C55.4177 38.8379 55.1289 39.3097 54.8189 39.718C54.5043 40.1336 54.2081 40.4799 53.8814 40.754C53.5576 41.0258 53.235 41.2568 52.9089 41.4351C52.5776 41.6163 52.2543 41.7476 51.9208 41.852C51.601 41.9523 51.2668 42.0446 50.947 42.1277C50.5588 42.2281 50.197 42.2676 49.8566 42.2384C49.5063 42.208 49.1917 42.13 48.907 42.0073C48.616 41.8818 48.3497 41.7482 48.1271 41.5647C47.908 41.3835 47.755 41.1737 47.6359 40.9919C47.2787 40.4473 47.001 39.7535 46.8416 38.909C46.6806 38.0558 46.6104 37.1505 46.6346 36.1678C46.6559 35.3135 46.7531 34.4518 46.9066 33.6004C47.0579 32.7667 47.2546 31.9944 47.514 31.2583C47.9045 30.1494 48.3853 29.2791 48.9858 28.6043C49.5719 27.9449 50.1861 27.559 50.8268 27.4564C51.1788 27.3997 51.5308 27.4369 51.8678 27.5562C52.206 27.676 52.5103 27.8933 52.7633 28.2161C53.0107 28.5314 53.2143 28.9626 53.3581 29.4809C53.5064 30.0158 53.5703 30.666 53.5513 31.4366L53.5519 31.4371ZM49.7231 31.2319C49.7047 31.2795 49.6944 31.3322 49.6863 31.3844C49.6806 31.4222 49.6892 31.4893 49.7036 31.565C49.7571 31.8391 49.8266 32.1074 49.9037 32.3706C49.9791 32.6286 50.082 32.8504 50.2051 33.058C50.3242 33.2587 50.4507 33.4158 50.6221 33.5121C50.7969 33.6101 50.9821 33.6468 51.2133 33.6004C51.5118 33.5402 51.7402 33.3332 51.9087 33.011C52.0858 32.6721 52.1807 32.2249 52.1951 31.6275C52.2101 31.0364 52.1048 30.5771 51.8776 30.2515C51.6481 29.9224 51.3519 29.8054 50.9867 29.8559C50.8119 29.8799 50.6111 29.9843 50.3748 30.185C50.1407 30.3833 49.9158 30.7291 49.7225 31.2325L49.7231 31.2319ZM60.3334 26.3602C60.3685 26.3114 60.4145 26.2558 60.4697 26.1859C60.5278 26.1125 60.5934 26.0712 60.6268 26.0701C60.671 26.0683 60.686 26.1171 60.6889 26.214C60.6917 26.3166 60.6969 26.4783 60.6889 26.6767C60.671 27.0878 60.6848 27.5074 60.7452 27.9392C60.8056 28.3738 60.9322 28.7562 61.0788 29.1099C61.2226 29.4562 61.4193 29.7326 61.6729 29.9505C61.9139 30.1574 62.2147 30.2796 62.5771 30.2566C62.7749 30.244 62.9831 30.1964 63.1954 30.1207C63.4041 30.0462 63.6187 29.9562 63.828 29.857C64.0299 29.7613 64.2254 29.6334 64.4078 29.5142C64.5941 29.3915 64.7529 29.2802 64.8995 29.1736C65.0209 29.0853 65.11 29.0606 65.1549 29.0681C65.2095 29.0773 65.1802 29.2481 65.1094 29.5807C65.0433 29.892 64.9559 30.2394 64.8311 30.6178C64.7068 30.9951 64.5527 31.3683 64.3641 31.737C64.1725 32.112 63.954 32.4376 63.7021 32.7329C63.4444 33.0345 63.1419 33.2426 62.7962 33.3779C61.8328 33.7558 61.0541 33.4547 60.4116 32.5299C60.3329 32.4164 60.2845 32.4606 60.2771 32.6337C60.2299 33.7827 60.1764 34.938 60.1252 36.0996C60.074 37.2612 60.0395 38.4239 60.0499 39.5947C60.051 39.7432 60.0424 39.851 60.009 39.9209C59.9734 39.996 59.9072 40.0396 59.8077 40.0545C59.5322 40.0952 59.2711 40.0367 59.0324 39.8751C58.8064 39.7225 58.6063 39.4812 58.4349 39.1825C58.2589 38.8763 58.1335 38.5139 58.0443 38.0862C57.9563 37.6648 57.9132 37.2004 57.9356 36.693C57.9857 35.5761 58.0294 34.4592 58.0737 33.3229C58.118 32.1934 58.1669 31.0375 58.2249 29.8633C58.2324 29.7097 58.2422 29.5938 58.2554 29.5107C58.2681 29.4339 58.2779 29.3622 58.2934 29.3129C58.3135 29.2481 58.3388 29.2109 58.3624 29.1742C58.3837 29.1415 58.4188 29.0922 58.4648 29.0239C59.0796 28.1221 59.7077 27.2357 60.3323 26.3596L60.3334 26.3602ZM67.7505 31.5902C67.7459 31.7634 67.7563 31.8717 67.7971 31.9262C67.8305 31.9709 67.8805 31.9136 67.9558 31.7336C68.0208 31.5788 68.1307 31.3357 68.2704 31.0066C68.4102 30.678 68.5787 30.2945 68.7927 29.8834C69.0176 29.4505 69.2729 28.9798 69.5639 28.4678C69.8584 27.9489 70.1966 27.4295 70.5808 26.8882C70.8799 26.4662 71.1151 26.2123 71.2813 26.0936C71.4395 25.9812 71.6155 25.925 71.78 25.9204C71.9014 25.917 72.0434 25.9606 72.216 26.0597C72.3793 26.1538 72.5191 26.2954 72.6237 26.4559C72.752 26.652 72.8158 26.9215 72.8463 27.2363C72.8774 27.5602 72.8808 27.9512 72.8498 28.4259C72.8285 28.7527 72.8009 29.0675 72.7825 29.3685C72.7646 29.6632 72.7457 29.9717 72.7267 30.2859C72.7083 30.5938 72.6835 30.9269 72.6582 31.2801C72.6329 31.6321 72.6226 32.0179 72.5967 32.448C72.5679 32.9164 72.5645 33.3212 72.5996 33.6566C72.6352 33.9925 72.7382 34.2551 72.9107 34.4214C73.0925 34.5968 73.3427 34.7281 73.659 34.8182C73.9753 34.9082 74.3147 34.9701 74.6649 34.9999C75.0267 35.0309 75.3672 35.0372 75.6967 35.0286C76.0263 35.0194 76.3012 34.9879 76.5112 34.9649C77.2485 34.8847 77.9018 34.8078 78.4517 34.6829C79.0073 34.5567 79.4875 34.34 79.8723 34.0843C80.2807 33.8125 80.593 33.5201 80.838 33.242C81.079 32.968 81.2676 32.6859 81.3959 32.4348C81.5443 32.1441 81.6731 31.8219 81.7599 31.4784C81.8433 31.147 81.9152 30.7629 81.9854 30.3495C82.0303 30.0863 82.0734 29.9356 82.1182 29.8725C82.1528 29.8232 82.1953 29.9207 82.231 30.1855C82.2787 30.5341 82.3288 30.9148 82.3673 31.3483C82.4064 31.7926 82.4225 32.2186 82.4116 32.6618C82.4001 33.1371 82.3437 33.5849 82.258 33.9931C82.1942 34.2987 82.1142 34.6192 82.0147 34.954C81.9106 35.3049 81.7645 35.6564 81.5816 36.0296C81.4062 36.3874 81.1687 36.7928 80.8725 37.1712C80.5792 37.5467 80.2416 37.9618 79.7711 38.1751C78.5811 38.714 77.3606 38.8448 76.1707 38.9692C75.852 39.0024 75.5207 39.034 75.2015 39.0586C74.8714 39.0844 74.5522 39.0999 74.2341 39.097C73.9264 39.0942 73.6193 39.0913 73.334 39.0672C73.0384 39.0426 72.7779 38.9852 72.5248 38.9187C72.2539 38.8482 71.9899 38.7387 71.7426 38.5592C71.4936 38.3781 71.2888 38.0685 71.1065 37.6396C70.988 37.3615 70.9012 37.0433 70.8442 36.7033C70.7861 36.3564 70.7344 36.0165 70.716 35.6759C70.697 35.3273 70.6723 34.9925 70.6746 34.6777C70.6769 34.3629 70.6895 34.0866 70.6953 33.8429C70.7022 33.5729 70.7131 33.3235 70.7361 33.0987C70.7574 32.882 70.7689 32.6567 70.7746 32.425C70.7804 32.2003 70.7919 31.9428 70.8155 31.6613C70.8385 31.3855 70.8575 31.0266 70.8741 30.6219C70.8845 30.3713 70.8713 30.2383 70.808 30.1947C70.7419 30.1494 70.6516 30.2125 70.5394 30.396C69.9194 31.4108 69.2821 32.6182 68.6489 33.9977C68.0162 35.3766 67.41 36.9567 66.8078 38.7203C66.7233 38.9669 66.6244 39.2169 66.5145 39.4737C66.4029 39.7352 66.2523 39.8653 66.0538 39.8733C65.8451 39.8814 65.6898 39.7518 65.6023 39.4823C65.5166 39.218 65.4655 38.8734 65.462 38.4996C65.4534 37.6063 65.4568 36.7056 65.4747 35.7802C65.4919 34.8554 65.5281 33.8469 65.5609 32.7421C65.5931 31.6504 65.6455 30.4309 65.6949 29.0824C65.7444 27.7339 65.8094 26.1933 65.8865 24.4607C65.9831 22.2785 66.1211 20.2845 66.2643 18.4899C66.407 16.7016 66.5571 15.1456 66.6876 13.8068C66.7193 13.4806 66.7549 13.2564 66.7808 13.1291C66.805 13.0139 66.8677 12.886 66.9666 12.7507C67.6757 11.7743 68.3751 10.7922 69.0935 9.81403C69.159 9.72459 69.2039 9.71026 69.2263 9.77447C69.2447 9.82779 69.2465 9.91494 69.2309 10.0319C69.1792 10.4206 69.1234 11.0427 69.0417 11.9085C68.96 12.7725 68.868 13.8234 68.7547 15.0733C68.6408 16.3284 68.5293 17.7514 68.4079 19.3356C68.2866 20.9117 68.1842 22.6254 68.0617 24.459C68.0272 24.9721 67.9955 25.569 67.9627 26.2426C67.93 26.91 67.8857 27.5831 67.8581 28.2574C67.8305 28.9316 67.8098 29.5543 67.789 30.1511C67.7683 30.748 67.7626 31.2302 67.7534 31.5902H67.7505Z" fill="#454545"/>
<path d="M87.183 31.5231C87.2221 31.4801 87.2261 31.4147 87.187 31.3562C86.8442 30.8397 86.5055 30.4744 86.2047 30.217C85.9136 29.9682 85.6318 29.8277 85.3793 29.8174C85.2476 29.8122 85.1148 29.8369 84.971 29.8908C84.8375 29.9412 84.7127 30.0249 84.6023 30.1396C84.4982 30.248 84.4073 30.3879 84.3395 30.5536C84.267 30.7296 84.2313 30.9285 84.2262 31.1407C84.2198 31.3912 84.2756 31.5667 84.3769 31.706C84.4775 31.8447 84.6144 31.9456 84.7754 32.0116C84.9296 32.0741 85.0912 32.1303 85.266 32.1601C85.4409 32.1893 85.5835 32.2048 85.7152 32.2042C85.9786 32.2019 86.2311 32.1423 86.4773 32.0357C86.72 31.9307 86.961 31.7662 87.1818 31.5237L87.183 31.5231ZM106.848 26.9575C106.89 27.0298 106.905 27.0802 106.91 27.1209C106.915 27.1588 106.896 27.2029 106.851 27.2603C106.465 27.7579 106.073 28.243 105.695 28.7378C105.653 28.7928 105.615 28.8209 105.594 28.8106C105.572 28.7997 105.541 28.7624 105.498 28.6913C105.14 28.091 104.793 27.4971 104.444 26.9065C104.403 26.8389 104.375 26.7895 104.371 26.7494C104.366 26.711 104.384 26.6605 104.429 26.6038C104.816 26.1124 105.199 25.6176 105.587 25.1137C105.631 25.0563 105.666 25.0242 105.687 25.034C105.71 25.0449 105.748 25.0913 105.783 25.1532C106.127 25.7564 106.49 26.3521 106.848 26.9581L106.848 26.9575ZM96.241 22.7951C96.2818 22.7515 96.3192 22.7383 96.3853 22.724C96.4405 22.7114 96.4549 22.7647 96.4469 22.9C96.341 24.702 96.2582 26.4994 96.1708 28.2963C96.1691 28.3347 96.1685 28.3794 96.1674 28.431C96.1662 28.4826 96.1869 28.517 96.2306 28.5302C96.2847 28.5469 96.3399 28.4884 96.4106 28.3513C96.6976 27.7958 96.9904 27.2654 97.2958 26.7603C97.5972 26.2615 97.9331 25.7541 98.3104 25.2645C98.4329 25.1056 98.568 24.9434 98.7066 24.7788C98.851 24.6074 99.0109 24.4492 99.1685 24.3087C99.3358 24.1596 99.5026 24.0461 99.6821 23.9693C99.8581 23.8936 100.047 23.8603 100.234 23.8752C100.354 23.885 100.474 23.9366 100.614 24.0192C100.744 24.0954 100.86 24.2244 100.968 24.3741C101.104 24.5621 101.183 24.7955 101.215 25.0655C101.247 25.3441 101.245 25.6778 101.223 26.0752C101.207 26.3572 101.193 26.6204 101.181 26.8773C101.169 27.141 101.146 27.4093 101.128 27.6788C101.11 27.9483 101.098 28.2367 101.074 28.5319C101.05 28.8198 101.036 29.1477 101.006 29.5129C100.973 29.9103 100.988 30.2514 101.024 30.5421C101.061 30.8328 101.164 31.077 101.336 31.2553C101.506 31.4313 101.767 31.6005 102.082 31.7352C102.397 31.87 102.735 32.003 103.083 32.1033C103.433 32.2042 103.76 32.2925 104.088 32.3625C104.427 32.4347 104.689 32.4909 104.896 32.5304C105.639 32.6709 106.285 32.789 106.832 32.8785C107.379 32.9679 107.85 33.0287 108.234 33.0505C108.618 33.0723 108.937 33.0642 109.169 33.0241C109.412 32.9811 109.6 32.8945 109.724 32.7764C109.87 32.6359 109.989 32.4422 110.079 32.1801C110.167 31.9221 110.227 31.5919 110.289 31.237C110.329 31.0111 110.383 30.8821 110.419 30.8632C110.461 30.8402 110.489 30.995 110.529 31.3109C110.581 31.7255 110.623 32.1899 110.659 32.6858C110.697 33.1961 110.723 33.6783 110.711 34.141C110.699 34.6358 110.643 35.0509 110.559 35.3823C110.497 35.6294 110.409 35.8667 110.311 36.0989C110.211 36.3352 110.078 36.5353 109.901 36.6866C109.719 36.842 109.487 36.9383 109.212 36.9807C108.925 37.0249 108.563 36.9997 108.138 36.8861C106.949 36.5685 105.76 36.2572 104.569 35.9774C104.406 35.939 104.198 35.8988 103.946 35.8495C103.706 35.8025 103.432 35.7549 103.148 35.6953C102.863 35.6357 102.57 35.5577 102.263 35.4797C101.969 35.4052 101.674 35.3221 101.402 35.2263C101.118 35.1265 100.867 35.0239 100.641 34.9064C100.411 34.7871 100.227 34.649 100.091 34.4987C99.8213 34.2023 99.62 33.8709 99.479 33.4902C99.3422 33.1204 99.245 32.7414 99.1886 32.3596C99.1322 31.9783 99.1081 31.6171 99.1058 31.276C99.1029 30.9354 99.1052 30.6459 99.1161 30.4211C99.1276 30.1901 99.1328 29.9842 99.1426 29.7985C99.1529 29.6121 99.1627 29.4264 99.1788 29.2211C99.1943 29.0227 99.211 28.8043 99.2277 28.5675C99.2444 28.3301 99.2565 28.0343 99.2824 27.6891C99.2887 27.6048 99.2916 27.5229 99.2887 27.4386C99.2852 27.3491 99.2473 27.3033 99.1938 27.2866C99.1483 27.2729 99.096 27.2786 99.05 27.3199C99.0063 27.3583 98.9591 27.4053 98.9148 27.4621C98.4944 28.0033 98.1183 28.5348 97.7778 29.0302C97.4344 29.5296 97.1169 30.0461 96.8276 30.5799C96.5412 31.1097 96.2542 31.6716 95.973 32.2684C95.6865 32.8762 95.3949 33.5458 95.0878 34.3095C95.0205 34.4758 94.9273 34.5796 94.8273 34.6272C94.7163 34.6805 94.6168 34.7006 94.5178 34.692C94.3424 34.677 94.1894 34.5968 94.0738 34.4362C93.9559 34.2723 93.8967 34.0435 93.9042 33.7477C93.9226 32.996 93.9525 32.2449 93.9818 31.4938C93.9709 31.4938 93.9599 31.4927 93.949 31.4921C93.8139 32.0781 93.6465 32.5792 93.4624 32.9645C93.2761 33.3549 93.0581 33.6645 92.824 33.8967C92.5848 34.1341 92.3317 34.3061 92.0539 34.399C91.7669 34.4953 91.4466 34.5366 91.0951 34.528C90.6344 34.5165 90.1674 34.3801 89.6878 34.137C89.2018 33.891 88.7664 33.5567 88.3954 33.0883C88.3609 33.0453 88.3316 33.0482 88.2965 33.0906C87.9577 33.5023 87.5856 33.8463 87.1508 34.1117C86.716 34.3772 86.2294 34.5142 85.6905 34.5291C85.3719 34.5377 85.0342 34.4867 84.6713 34.4362C84.3113 34.3869 83.9858 34.2568 83.6827 33.985C83.4911 33.813 83.333 33.5957 83.2156 33.3234C83.0937 33.0401 83.0454 32.6543 83.0575 32.1727C83.0707 31.6395 83.1334 31.0936 83.2628 30.5283C83.3916 29.9659 83.5722 29.4321 83.8069 28.9556C84.0346 28.493 84.3188 28.0956 84.6483 27.8061C84.9704 27.5234 85.3506 27.3853 85.7681 27.3755C86.1529 27.3663 86.5245 27.4867 86.8908 27.7356C87.2589 27.9855 87.6575 28.4242 88.0779 29.0308C88.1343 29.1122 88.1855 29.0898 88.2119 28.9459C88.2493 28.7441 88.2597 28.5692 88.2694 28.4018C88.2786 28.2481 88.2775 28.0807 88.2597 27.9064C88.2505 27.8164 88.2372 27.6949 88.2142 27.5252C88.1912 27.3583 88.1469 27.168 88.0745 26.9598C88.0037 26.7574 87.9071 26.5499 87.7714 26.3366C87.6425 26.1342 87.4729 25.9462 87.2796 25.7833C87.1611 25.683 87.0093 25.6102 86.8022 25.5391C86.6067 25.472 86.3766 25.4388 86.1345 25.4416C85.6399 25.4474 85.2045 25.5907 84.8381 25.8911C84.4643 26.1973 84.0962 26.6491 83.7287 27.2224C83.6614 27.3273 83.6338 27.3216 83.6418 27.1869C83.6527 27.0005 83.6734 26.7959 83.6901 26.5585C83.7074 26.3148 83.7574 26.0534 83.8075 25.8045C83.8575 25.5557 83.9185 25.3075 84.0013 25.0667C84.0841 24.8258 84.183 24.6114 84.313 24.4492C84.6817 23.9882 85.0975 23.6814 85.5657 23.5352C86.0275 23.3908 86.4825 23.334 86.9219 23.3329C87.5149 23.3311 88.075 23.4968 88.5898 23.8374C89.0908 24.1682 89.502 24.7226 89.8126 25.468C89.927 25.7426 90.0173 26.0683 90.0852 26.4438C90.1531 26.8194 90.1761 27.2253 90.1651 27.6622C90.153 28.1438 90.1088 28.6179 90.0305 29.0967C89.9535 29.5697 89.8298 30.0525 89.6763 30.5484C89.6509 30.6304 89.6624 30.6814 89.705 30.7101C89.9753 30.893 90.2249 31.0352 90.4642 31.1074C90.6937 31.1762 90.9335 31.2272 91.1532 31.2318C91.5156 31.2387 91.8589 31.1602 92.1701 30.9836C92.483 30.8058 92.7602 30.5409 92.9914 30.1998C93.2272 29.8524 93.4216 29.4476 93.5602 28.9562C93.6982 28.4689 93.7724 27.9231 93.7874 27.3256C93.792 27.1456 93.8024 26.9593 93.7903 26.766C93.7788 26.5723 93.7713 26.3796 93.7713 26.1864C93.7713 25.9163 93.8081 25.675 93.899 25.4714C93.9945 25.2581 94.1463 25.0397 94.3769 24.796C95.0033 24.135 95.6141 23.4573 96.2387 22.7939L96.241 22.7951Z" fill="#454545"/>
<path fill-rule="evenodd" clip-rule="evenodd" d="M127.971 56.0008C128.554 54.5175 120.029 45.2557 119.055 49.4021C119.425 53.1747 126.321 55.6338 127.971 56.0008Z" fill="#454545"/>
<path fill-rule="evenodd" clip-rule="evenodd" d="M90.6137 40.8017C89.3691 43.7624 98.1297 47.7179 98.369 46.2473C96.8328 43.9878 93.1139 39.784 90.6137 40.8017Z" fill="#454545"/>
<path fill-rule="evenodd" clip-rule="evenodd" d="M96.3561 40.8646C97.5989 41.0836 103.331 38.7851 102.971 37.8459C100.914 37.303 95.7337 36.9188 94.1492 38.8711C92.938 40.3629 95.5681 40.7258 96.3561 40.8646Z" fill="#454545"/>
<path fill-rule="evenodd" clip-rule="evenodd" d="M106.529 49.0348C105.703 47.9248 104.375 46.2862 103.301 44.9015C102.905 44.3907 100.092 40.8073 99.1208 41.5865C97.7554 42.6821 98.8913 44.7989 100.929 46.3108C103.182 47.9821 106.442 49.0038 106.528 49.0348H106.529Z" fill="#454545"/>
<path fill-rule="evenodd" clip-rule="evenodd" d="M86.8764 38.2209C86.5423 41.0698 93.2623 37.8293 94.3338 36.0232C94.2262 35.5554 87.1709 35.7096 86.8764 38.2209Z" fill="#454545"/>
<path fill-rule="evenodd" clip-rule="evenodd" d="M113.641 52.7922C113.612 51.8439 108.368 42.4725 106.517 44.2969C104.893 45.896 112.585 52.9579 113.641 52.7922Z" fill="#454545"/>
<path fill-rule="evenodd" clip-rule="evenodd" d="M111.557 40.48C109.456 39.714 106.694 39.3436 104.457 39.6016C103.129 39.7553 101.88 41.2116 103.037 41.9259C105.076 43.1844 111.408 42.0332 111.557 40.4794L111.557 40.48Z" fill="#454545"/>
<path fill-rule="evenodd" clip-rule="evenodd" d="M111.537 44.3349C112.155 46.4941 120.362 46.4443 120.724 45.93C120.498 45.2924 110.583 41.0026 111.537 44.3349Z" fill="#454545"/>
<path fill-rule="evenodd" clip-rule="evenodd" d="M115.737 48.3226C113.992 47.4821 113.816 49.1133 114.586 50.53C115.236 51.5832 116.67 53.3411 121.31 56.1046C121.044 54.9373 116.906 48.8862 115.737 48.3226Z" fill="#454545"/>
<path fill-rule="evenodd" clip-rule="evenodd" d="M0.108085 76.3367C24.8555 52.7665 54.678 40.912 89.5756 40.7732C55.1864 38.7803 25.3869 49.7512 0.175952 73.6867C-0.0334013 74.5748 -0.0564071 75.4577 0.108085 76.3367Z" fill="#454545"/>
<path d="M41.6164 58.0991C41.6923 58.0114 41.7309 57.9902 41.7383 58.0349C41.7452 58.0831 41.7412 58.1347 41.7274 58.1846C41.6279 58.5825 41.5284 59.0056 41.4278 59.454C41.3265 59.9023 41.2328 60.3243 41.1442 60.7159C41.0464 61.174 40.9492 61.6292 40.8572 62.0719C40.8417 62.1292 40.8578 62.1538 40.9026 62.1424C41.1684 62.0873 41.376 62.0621 41.5255 62.0701C41.6774 62.077 41.812 62.1137 41.9258 62.1808C42.1082 62.2731 42.1985 62.5036 42.2059 62.8631C42.2077 63.0379 42.1904 63.2392 42.1513 63.4645C42.1151 63.6703 42.0644 63.8733 42.0017 64.0757C41.9362 64.2787 41.8672 64.4575 41.797 64.6152C41.7717 64.672 41.7521 64.6983 41.7424 64.6978C41.7297 64.6978 41.7245 64.6702 41.7297 64.6112C41.7349 64.5814 41.7389 64.5304 41.7412 64.4581C41.7447 64.3824 41.7332 64.3027 41.7073 64.2202C41.6791 64.1382 41.6302 64.0579 41.56 63.9868C41.4899 63.9117 41.3829 63.8647 41.2391 63.8372C41.1724 63.8297 41.0798 63.8286 40.9625 63.8372C40.848 63.8452 40.7025 63.8727 40.534 63.9163C40.492 63.9272 40.4655 63.9627 40.4558 64.0189C40.3459 64.5734 40.2499 65.067 40.1716 65.4993C40.094 65.931 40.0261 66.3312 39.9669 66.701C39.9082 67.0668 39.8536 67.4212 39.8076 67.7548C39.7627 68.0851 39.7144 68.4302 39.6678 68.7863C39.6598 68.8637 39.6419 68.9503 39.6201 69.0454C39.5965 69.1372 39.5654 69.2278 39.5286 69.3086C39.4912 69.3935 39.4464 69.4623 39.3958 69.5219C39.3428 69.5821 39.2807 69.6199 39.21 69.6383C39.1231 69.6606 39.0392 69.64 38.9552 69.5723C38.8735 69.5076 38.7947 69.4135 38.7177 69.2943C38.6406 69.175 38.5641 69.0374 38.4882 68.8815C38.4123 68.7255 38.3421 68.569 38.2777 68.4027C38.1874 68.1866 38.1017 67.9584 38.0183 67.7147C37.9349 67.4716 37.8705 67.2096 37.821 66.9327C37.7715 66.6557 37.7393 66.3633 37.7296 66.0618C37.7204 65.7562 37.7445 65.4317 37.8043 65.0865C37.8808 64.6479 37.9987 64.2775 38.1575 63.9713C38.3162 63.6686 38.4801 63.4186 38.6475 63.2248C38.8172 63.0305 38.9759 62.8854 39.1231 62.7897C39.2687 62.6911 39.3699 62.6286 39.4251 62.5999C39.4711 62.581 39.501 62.5374 39.5125 62.4732L39.9692 60.275C39.9951 60.1575 40.0198 60.0726 40.0451 60.0158C40.0698 59.9591 40.1233 59.8845 40.2113 59.7831L41.6164 58.0974V58.0991ZM39.1145 64.4495C39.1214 64.4122 39.1203 64.387 39.1157 64.3704C39.1111 64.3538 39.0932 64.3549 39.0604 64.3704C38.9822 64.4014 38.9011 64.4478 38.8218 64.5005C38.743 64.5498 38.6659 64.6164 38.598 64.6874C38.5267 64.7631 38.4663 64.8503 38.4111 64.9506C38.3553 65.0544 38.3179 65.1679 38.2961 65.2918C38.2748 65.4156 38.2662 65.5498 38.2713 65.6919C38.2742 65.8341 38.2892 65.9769 38.311 66.1254C38.3352 66.2727 38.3685 66.4144 38.4151 66.5491C38.4594 66.6844 38.5106 66.8071 38.5716 66.9166C38.5917 66.9613 38.6095 66.9745 38.6216 66.9608C38.6331 66.9504 38.6452 66.9115 38.655 66.8553C38.7338 66.4344 38.8097 66.0279 38.8845 65.6289C38.9586 65.2338 39.0351 64.8382 39.1128 64.4495H39.1145ZM48.2375 64.0608C48.2593 63.9943 48.2806 63.9564 48.3013 63.9547C48.3215 63.953 48.3312 63.9862 48.3278 64.0482C48.3324 64.2506 48.3215 64.4862 48.2944 64.7545C48.2651 65.0234 48.2271 65.2981 48.1788 65.575C48.1529 65.7212 48.1242 65.8576 48.0925 65.9803C48.0638 66.1019 48.0207 66.2349 47.966 66.3742C47.8723 66.6242 47.7613 66.8283 47.6267 66.9917C47.4921 67.1591 47.3477 67.2933 47.1936 67.4017C47.0395 67.506 46.8819 67.5903 46.7203 67.6534C46.5558 67.7176 46.401 67.7686 46.2509 67.8076C45.9375 67.889 45.6545 67.8982 45.3991 67.8357C45.1461 67.7726 44.9206 67.6276 44.7228 67.4068C44.7067 67.3862 44.6877 67.3908 44.6624 67.4229C44.422 67.7319 44.1568 68.0014 43.8698 68.2336C43.5805 68.4664 43.274 68.6246 42.9502 68.7089C42.7552 68.7593 42.5539 68.776 42.3463 68.7548C42.1381 68.7376 41.9649 68.6212 41.8235 68.4113C41.7343 68.2737 41.6705 68.1074 41.6319 67.9102C41.594 67.713 41.598 67.4716 41.648 67.1867C41.7038 66.8679 41.7918 66.552 41.9143 66.2372C42.0345 65.9236 42.1835 65.6306 42.356 65.3634C42.5297 65.1003 42.7287 64.8698 42.9479 64.68C43.167 64.4902 43.4057 64.3606 43.6633 64.2936C43.8951 64.2334 44.1074 64.2534 44.3064 64.3515C44.5054 64.4501 44.7055 64.6559 44.908 64.9649C44.9327 65.0085 44.9626 64.9827 44.9937 64.8927C45.0316 64.7608 45.0587 64.6508 45.0788 64.5487C45.0983 64.4507 45.1144 64.3463 45.1225 64.2402C45.1265 64.1886 45.1294 64.1135 45.1323 64.0126C45.1351 63.9117 45.1236 63.8034 45.1012 63.6875C45.0759 63.5729 45.0351 63.4616 44.9764 63.3516C44.9143 63.2461 44.8297 63.1572 44.721 63.0884C44.6578 63.0477 44.5692 63.0242 44.453 63.0116C44.3368 63.0024 44.2063 63.015 44.0562 63.054C43.7536 63.1325 43.4793 63.2793 43.236 63.4926C42.9927 63.7059 42.7397 63.9759 42.4768 64.3022C42.4308 64.3647 42.4153 64.3538 42.4285 64.2752C42.4532 64.1617 42.4831 64.0356 42.5159 63.8911C42.5487 63.7466 42.5901 63.5964 42.6413 63.4467C42.6925 63.2971 42.7506 63.1538 42.8208 63.0098C42.8886 62.8671 42.9714 62.7381 43.0629 62.6326C43.32 62.3402 43.5943 62.1223 43.89 61.9664C44.1827 61.815 44.464 61.7026 44.7325 61.6327C45.0932 61.5386 45.4118 61.5564 45.6965 61.6791C45.9783 61.8064 46.1779 62.073 46.2981 62.4784C46.3424 62.628 46.3648 62.8155 46.3711 63.0356C46.3757 63.2564 46.3545 63.5046 46.3073 63.7747C46.2555 64.0711 46.1819 64.3761 46.091 64.6829C45.9979 64.9862 45.8817 65.3061 45.7419 65.6323C45.7172 65.6891 45.7189 65.7206 45.7454 65.7281C45.8909 65.8015 46.0588 65.8468 46.2492 65.8617C46.4396 65.8806 46.6202 65.8657 46.7887 65.8215C46.8704 65.8003 46.9607 65.7734 47.0544 65.7384C47.1487 65.7034 47.2425 65.6535 47.3328 65.5979C47.4231 65.5389 47.5117 65.4655 47.595 65.376C47.6807 65.2895 47.7567 65.1834 47.8291 65.0573C47.9125 64.9105 47.989 64.7476 48.0586 64.5648C48.1259 64.383 48.188 64.2127 48.2369 64.0602L48.2375 64.0608ZM44.1315 66.638C44.1551 66.6036 44.1608 66.5697 44.1493 66.5365C43.9837 66.2756 43.8198 66.0927 43.6639 65.9792C43.5075 65.8697 43.351 65.8278 43.2015 65.8525C43.1187 65.8668 43.0353 65.8955 42.9502 65.9391C42.8645 65.9826 42.7839 66.0394 42.7086 66.1128C42.6356 66.1856 42.5706 66.2705 42.5119 66.3748C42.4561 66.4786 42.4153 66.5967 42.3928 66.728C42.3664 66.8782 42.379 66.9929 42.4262 67.0806C42.4745 67.1649 42.5441 67.2256 42.631 67.26C42.7184 67.291 42.8133 67.3094 42.9139 67.3082C43.0146 67.3071 43.102 67.295 43.1808 67.275C43.3384 67.2337 43.4966 67.1643 43.6553 67.0622C43.814 66.9602 43.9716 66.8186 44.1315 66.638ZM50.2747 66.1615C50.0429 66.2217 49.8416 66.224 49.6696 66.1718C49.4982 66.1202 49.3504 66.0291 49.2267 65.9041C49.1048 65.782 49.0082 65.6317 48.9369 65.4643C48.8667 65.2929 48.8184 65.1232 48.7937 64.9466C48.7442 64.6123 48.7597 64.2219 48.8374 63.7758C48.8822 63.5213 48.9461 63.2575 49.0295 62.9926C49.1134 62.7278 49.2152 62.4755 49.3354 62.233C49.6805 61.553 50.0653 61.006 50.4944 60.5898C50.9211 60.1747 51.4255 59.8931 52.007 59.7418C52.2595 59.6764 52.489 59.6558 52.6977 59.6839C52.9071 59.7085 53.0808 59.7779 53.2171 59.8891C53.5582 60.1798 53.779 60.541 53.8733 60.9779C53.9004 61.1104 53.9182 61.2525 53.928 61.3999C53.9401 61.5472 53.9418 61.6969 53.9343 61.8528C53.9194 61.9962 53.9004 62.0764 53.8825 62.0919C53.8624 62.108 53.8308 62.0873 53.7859 62.0277C53.6289 61.8322 53.4765 61.6711 53.3241 61.5501C53.174 61.4314 53.0164 61.3403 52.8479 61.2841C52.6828 61.2233 52.5033 61.1981 52.3135 61.2084C52.1243 61.2147 51.9092 61.2491 51.6757 61.3099C51.406 61.3867 51.1799 61.5134 50.9953 61.694C50.813 61.874 50.6675 62.0438 50.5617 62.2043C50.3385 62.5489 50.1947 62.9118 50.1268 63.2977C50.0929 63.4926 50.0877 63.6657 50.1102 63.8102C50.1349 63.9576 50.178 64.082 50.2493 64.1783C50.3178 64.2752 50.4069 64.3377 50.5191 64.3733C50.6289 64.4054 50.7543 64.4054 50.8941 64.3687C51.0361 64.332 51.1949 64.2443 51.3686 64.1095C51.5406 63.9754 51.6993 63.7873 51.8442 63.5459C51.9604 63.3544 52.0444 63.1755 52.0973 63.0041C52.1496 62.8333 52.191 62.6395 52.2227 62.4313C52.2451 62.3035 52.2825 62.2616 52.3371 62.2943L53.3126 62.9244C53.35 62.9537 53.3678 62.9961 53.3689 63.046C53.3684 63.0924 53.3597 63.1698 53.3425 63.2713C53.293 63.5562 53.2372 63.875 53.1734 64.2242C53.1096 64.5734 53.0423 64.9311 52.9767 65.2918C52.9083 65.657 52.8392 66.0222 52.7679 66.3874C52.6966 66.7532 52.627 67.0932 52.5591 67.4114C52.3601 68.3465 52.103 69.1721 51.7867 69.8911C51.4675 70.6112 51.0885 71.2391 50.6514 71.7717C50.3253 72.1713 49.9957 72.5039 49.6604 72.7699C49.3274 73.0353 48.9921 73.2584 48.6493 73.4367C48.4779 73.5244 48.3059 73.6047 48.1374 73.6769C47.9672 73.7463 47.7969 73.8122 47.6267 73.8667C47.4536 73.9223 47.2758 73.9756 47.0883 74.0284C46.9037 74.08 46.7087 74.1304 46.5034 74.1843C46.3269 74.2302 46.1457 74.2738 45.9576 74.3151C45.7667 74.3575 45.5843 74.3798 45.4089 74.3793C45.2329 74.3787 45.0696 74.3494 44.9264 74.2795C44.7797 74.2136 44.6624 74.0943 44.5767 73.9229C44.3288 73.4006 44.3984 72.4557 44.7826 71.0923C44.9453 70.535 45.1259 70.0476 45.3249 69.6417C45.5222 69.2329 45.716 68.8711 45.9041 68.5569C45.9588 68.475 46.0059 68.4486 46.0514 68.4755L46.9865 69.0626C47.0118 69.0775 47.0308 69.0982 47.04 69.1314C47.0492 69.1647 47.0274 69.2169 46.9756 69.284C46.8278 69.4835 46.6817 69.6859 46.5333 69.8888C46.3855 70.0884 46.24 70.3016 46.0985 70.5247C45.9565 70.7477 45.8265 70.9747 45.7063 71.2029C45.5878 71.434 45.4912 71.6742 45.4118 71.9236C45.3773 72.0326 45.3905 72.1008 45.4474 72.1363C45.6125 72.2114 45.8432 72.2304 46.1451 72.1839C46.4494 72.1409 46.7933 72.0693 47.1855 71.9672C47.2465 71.9512 47.3259 71.9271 47.4214 71.899C47.5168 71.8703 47.6146 71.8416 47.713 71.8124C47.8113 71.7837 47.9039 71.7556 47.989 71.7304C48.0736 71.7046 48.1403 71.684 48.1892 71.6639C48.5642 71.5166 48.8937 71.3698 49.179 71.2167C49.4672 71.063 49.7202 70.883 49.9376 70.6726C50.155 70.4622 50.3471 70.2116 50.511 69.9221C50.6744 69.6325 50.821 69.2834 50.9562 68.8688C51.0891 68.4549 51.2116 67.9687 51.3249 67.4062C51.4359 66.8444 51.5544 66.1804 51.6717 65.423C51.6849 65.3193 51.6815 65.2665 51.6631 65.2574C51.647 65.247 51.613 65.2705 51.5636 65.3227C51.3697 65.5412 51.1518 65.7229 50.9125 65.8708C50.6738 66.0153 50.4627 66.1128 50.2764 66.1615H50.2747ZM57.9655 62.538C58.2347 62.6647 58.5119 62.6893 58.8012 62.6142C59.0226 62.5569 59.2354 62.444 59.4454 62.2788C59.6524 62.1137 59.8445 61.9067 60.0228 61.6493C60.2005 61.3959 60.3541 61.1052 60.4835 60.7818C60.6135 60.4544 60.7118 60.107 60.7768 59.736C60.7958 59.6277 60.8131 59.5119 60.8269 59.3938C60.8395 59.2762 60.8522 59.1616 60.8677 59.0434C60.8913 58.88 60.9407 58.7275 61.0126 58.5871C61.0874 58.446 61.2053 58.2757 61.3641 58.0842L62.6852 56.5064C62.7105 56.4783 62.7392 56.4571 62.7749 56.4364C62.8111 56.4164 62.8186 56.4468 62.799 56.5305L62.2872 59.0715C62.2693 59.173 62.2728 59.2258 62.2981 59.2263C62.3378 59.2304 62.3844 59.1793 62.443 59.0744C62.6242 58.77 62.8238 58.4495 63.0412 58.11C63.2615 57.77 63.4863 57.4467 63.7239 57.1348C63.9315 56.8659 64.1029 56.6927 64.2335 56.6193C64.3623 56.5425 64.4606 56.4995 64.5274 56.4892C64.6021 56.4766 64.6665 56.4852 64.7166 56.5116C64.7695 56.5408 64.8213 56.5884 64.8736 56.6497C64.9846 56.8034 64.9846 57.1216 64.8776 57.6044L64.7039 58.383C64.6976 58.4202 64.6924 58.4506 64.689 58.4798C64.6867 58.5091 64.6942 58.5217 64.7103 58.5171C64.7287 58.5125 64.7459 58.5005 64.7563 58.4839C64.7666 58.4667 64.7821 58.438 64.8034 58.4002C64.8517 58.309 64.9202 58.1909 65.0082 58.0464C65.0939 57.9025 65.1859 57.75 65.2808 57.5929C65.3792 57.4352 65.4787 57.2804 65.5845 57.1204C65.6926 56.9634 65.7915 56.8269 65.8841 56.7134C65.9543 56.6268 66.0279 56.5362 66.1038 56.4491C66.1798 56.3579 66.2603 56.2725 66.3437 56.1968C66.4253 56.1182 66.5076 56.0506 66.5893 55.9973C66.675 55.9394 66.7566 55.9038 66.8366 55.8901C66.9062 55.8792 66.9815 55.8809 67.0574 55.8941C67.1322 55.9101 67.1978 55.9543 67.2484 56.0231C67.3122 56.1028 67.3467 56.2232 67.3473 56.3768C67.3502 56.5333 67.3255 56.7334 67.2725 56.976C67.238 57.1462 67.2047 57.3085 67.1725 57.4633C67.1397 57.6221 67.1063 57.785 67.0718 57.9512C67.0384 58.1135 67.0028 58.2872 66.9654 58.4724C66.9286 58.6541 66.8883 58.8577 66.8452 59.0767C66.7929 59.3192 66.7676 59.5228 66.7635 59.6879C66.7635 59.849 66.8055 59.9671 66.8918 60.0342C66.9884 60.0984 67.1282 60.1334 67.3076 60.1403C67.4882 60.1437 67.6809 60.1328 67.8833 60.1087C68.0858 60.0846 68.2854 60.0508 68.4815 60.0067C68.6805 59.9625 68.8427 59.9235 68.9692 59.8908C69.4219 59.7733 69.8181 59.6632 70.1546 59.5612C70.4916 59.4591 70.7804 59.3594 71.0236 59.2602C71.2669 59.161 71.4648 59.067 71.6189 58.9769C71.7708 58.8835 71.8938 58.7837 71.9887 58.6731C72.0917 58.5567 72.1826 58.4116 72.2573 58.2419C72.335 58.0711 72.4063 57.8773 72.4753 57.6554C72.5219 57.5178 72.561 57.4398 72.5846 57.4192C72.611 57.3979 72.6214 57.4667 72.6185 57.6284C72.6156 57.8474 72.6059 58.09 72.5869 58.356C72.5708 58.6209 72.5403 58.8835 72.4949 59.1421C72.4466 59.4196 72.3804 59.6655 72.3005 59.8794C72.2383 60.0353 72.1653 60.1936 72.0836 60.3581C72.0002 60.5192 71.8984 60.6706 71.7736 60.8105C71.6454 60.9544 71.493 61.0805 71.3066 61.1969C71.1231 61.3127 70.8983 61.4033 70.6383 61.471L68.4625 62.0048C68.3124 62.0438 68.1117 62.0994 67.8638 62.1676C67.613 62.2364 67.3571 62.292 67.0925 62.3396C66.8308 62.386 66.5852 62.4107 66.3563 62.413C66.128 62.4113 65.9635 62.3614 65.8571 62.2633C65.7461 62.1527 65.669 62.0151 65.6276 61.8505C65.5856 61.686 65.5638 61.5088 65.5632 61.3127C65.5649 61.1155 65.5805 60.9114 65.6144 60.6912C65.6477 60.4711 65.6857 60.2538 65.7294 60.0313C65.768 59.8387 65.8163 59.5898 65.8784 59.2808C65.9376 58.9718 66.0187 58.5928 66.1188 58.1485C66.1355 58.0831 66.1412 58.0212 66.1355 57.965C66.1297 57.9128 66.0952 57.8933 66.0268 57.9111C65.9767 57.9237 65.9129 57.9724 65.841 58.0521C65.7662 58.1358 65.7145 58.1995 65.6805 58.2511C65.4735 58.5303 65.2848 58.8336 65.1111 59.165C64.9374 59.4964 64.7787 59.8456 64.6303 60.2062C64.4837 60.5697 64.3485 60.9412 64.2266 61.3236C64.1018 61.7066 63.9861 62.0805 63.8786 62.452C63.8136 62.6802 63.7331 62.8837 63.6359 63.0626C63.5364 63.2426 63.4122 63.3498 63.2569 63.39C63.1067 63.429 63.0009 63.4026 62.9382 63.3154C62.8755 63.2277 62.8583 63.0821 62.8888 62.8774C62.9359 62.5793 62.9871 62.2863 63.0423 62.0002C63.0981 61.7101 63.1585 61.4085 63.2241 61.0909C63.2896 60.7732 63.3615 60.4327 63.4444 60.0606C63.5266 59.6885 63.6198 59.2705 63.7268 58.8026C63.7411 58.7487 63.7463 58.6903 63.7423 58.6272C63.7388 58.5601 63.7135 58.5343 63.6606 58.5481C63.6175 58.5521 63.572 58.5819 63.5237 58.641C63.4754 58.7 63.4467 58.7361 63.4334 58.7539C63.1855 59.1117 62.9566 59.4826 62.7484 59.8691C62.5374 60.2566 62.343 60.6511 62.1618 61.0559C61.9812 61.4572 61.8115 61.87 61.6516 62.2943C61.4929 62.7151 61.3422 63.144 61.1961 63.5792C61.1363 63.7626 61.0529 63.8957 60.9482 63.9765C60.8435 64.0573 60.744 64.1084 60.652 64.1325C60.5048 64.1709 60.3932 64.1462 60.3242 64.0533C60.2546 63.9604 60.2379 63.7965 60.2747 63.562C60.3069 63.3498 60.3449 63.132 60.3857 62.9101C60.4266 62.6922 60.4645 62.4743 60.5019 62.2611L60.4864 62.2651C60.3443 62.6595 60.1977 62.9984 60.0458 63.2782C59.8946 63.5534 59.7352 63.7919 59.5684 63.9817C59.4022 64.1714 59.2274 64.3245 59.0451 64.4329C58.8599 64.5458 58.6643 64.6284 58.4509 64.684C58.1691 64.7574 57.8953 64.7568 57.6314 64.6857C57.3651 64.6158 57.1333 64.4713 56.936 64.2511C56.9205 64.2265 56.9015 64.2311 56.8756 64.2666C56.6335 64.5728 56.3706 64.8417 56.0819 65.0704C55.7961 65.2986 55.4901 65.4534 55.1634 65.5383C54.9684 65.5887 54.7671 65.6054 54.5601 65.5842C54.3519 65.567 54.1788 65.4506 54.0373 65.2407C53.9481 65.1026 53.8843 64.9369 53.8457 64.7396C53.8072 64.5424 53.8118 64.301 53.8613 64.0161C53.9171 63.6973 54.0051 63.3814 54.1276 63.0666C54.2478 62.753 54.3967 62.46 54.5687 62.1934C54.743 61.9302 54.942 61.6997 55.1605 61.51C55.3797 61.3202 55.6183 61.1906 55.876 61.1235C56.1078 61.0633 56.3229 61.0823 56.5219 61.1809C56.7209 61.2795 56.921 61.4853 57.1206 61.7944C57.1482 61.8374 57.1776 61.8116 57.2086 61.7215C57.2466 61.5902 57.2736 61.4796 57.2937 61.3775C57.3133 61.2795 57.3288 61.1751 57.3375 61.0691C57.3415 61.018 57.3444 60.9424 57.3472 60.8415C57.3501 60.7405 57.3386 60.6322 57.3162 60.5164C57.2909 60.4017 57.25 60.2905 57.1891 60.181C57.1298 60.0743 57.0447 59.9854 56.9337 59.9178C56.8733 59.8765 56.7842 59.853 56.6686 59.8404C56.5524 59.8312 56.4195 59.8444 56.2694 59.8834C55.9669 59.9619 55.6925 60.1087 55.4492 60.322C55.206 60.5353 54.9529 60.8053 54.6895 61.1316C54.6435 61.1935 54.6279 61.1832 54.6412 61.1046C54.6665 60.9911 54.6958 60.865 54.7286 60.7205C54.7614 60.576 54.8028 60.4258 54.854 60.2767C54.9052 60.1271 54.9632 59.9837 55.0334 59.8398C55.1036 59.6959 55.1841 59.5681 55.2756 59.462C55.5326 59.1696 55.8093 58.9511 56.1032 58.7963C56.3982 58.6444 56.6795 58.532 56.9481 58.4621C57.3058 58.3692 57.6273 58.3858 57.912 58.5085C58.1944 58.6318 58.394 58.8984 58.5171 59.3032C58.5585 59.4534 58.5821 59.6369 58.5878 59.861C58.5947 60.0812 58.5717 60.3266 58.5246 60.5966C58.4728 60.8925 58.4026 61.1935 58.3089 61.5008C58.2151 61.8081 58.0995 62.1246 57.9598 62.4503C57.935 62.507 57.9368 62.5386 57.9638 62.542L57.9655 62.538ZM56.3465 63.4634C56.3701 63.4284 56.3758 63.3951 56.3643 63.3619C56.1992 63.1004 56.0347 62.9175 55.8789 62.8046C55.7219 62.6951 55.566 62.6532 55.4165 62.6779C55.3336 62.6922 55.2502 62.7209 55.1651 62.765C55.0794 62.8086 54.9995 62.8654 54.9236 62.9387C54.8505 63.0116 54.7855 63.0958 54.7269 63.2013C54.6711 63.3051 54.6302 63.4232 54.6072 63.5539C54.5808 63.7042 54.5934 63.8188 54.6412 63.9066C54.6895 63.9908 54.7591 64.051 54.8459 64.086C54.9333 64.117 55.0282 64.1353 55.1289 64.1342C55.2295 64.133 55.317 64.121 55.3958 64.1003C55.5539 64.0596 55.7115 63.9897 55.8703 63.8876C56.029 63.7856 56.1866 63.6445 56.3465 63.4634ZM70.6262 56.1945C70.6435 56.226 70.6538 56.2518 70.6527 56.2736C70.6515 56.2954 70.6337 56.3252 70.6009 56.3694L69.7554 57.5126C69.7221 57.5568 69.6991 57.5774 69.6835 57.578C69.6686 57.578 69.6531 57.5642 69.6335 57.5333L69.1291 56.7518C69.1096 56.7208 69.1009 56.6979 69.1021 56.6767C69.1032 56.6549 69.1193 56.6222 69.1521 56.5775L69.9993 55.4377C70.0321 55.3935 70.0539 55.37 70.0689 55.3695C70.0839 55.3695 70.1011 55.3861 70.1218 55.413L70.6262 56.1945ZM76.8896 61.1006C76.6917 62.0323 76.434 62.8579 76.1177 63.5769C75.802 64.2924 75.4258 64.9197 74.9887 65.4523C74.6609 65.849 74.3284 66.1822 73.9931 66.4482C73.6613 66.7096 73.3254 66.9332 72.9826 67.1115C72.8112 67.1993 72.6392 67.2795 72.4707 67.3518C72.3005 67.4212 72.1308 67.4871 71.9606 67.5416C71.7874 67.5972 71.6097 67.6505 71.4222 67.7032C71.2376 67.7548 71.0426 67.8053 70.8373 67.8592C70.6607 67.9051 70.4801 67.9486 70.2921 67.9905C70.104 68.0318 69.9188 68.0553 69.7434 68.0541C69.5674 68.0536 69.4046 68.0243 69.2608 67.9538C69.1142 67.8879 68.9991 67.7675 68.9111 67.5972C68.6632 67.0749 68.7328 66.13 69.117 64.7671C69.2798 64.2093 69.4604 63.7225 69.6594 63.3166C69.8567 62.9072 70.0505 62.546 70.2386 62.2318C70.2932 62.1498 70.3404 62.1235 70.3858 62.1504L71.321 62.7375C71.3457 62.7524 71.3653 62.7731 71.3739 62.8063C71.3831 62.8396 71.3613 62.8917 71.3095 62.9588C71.1646 63.1578 71.0156 63.3607 70.8672 63.5637C70.7194 63.7632 70.5739 63.9765 70.4318 64.1995C70.2898 64.4226 70.1598 64.6496 70.0396 64.8778C69.9211 65.1089 69.8245 65.3491 69.7451 65.5985C69.7112 65.7074 69.7244 65.7757 69.7808 65.8112C69.9458 65.8863 70.1764 65.9052 70.4813 65.8582C70.7827 65.8152 71.1295 65.7435 71.5188 65.6421C71.5792 65.626 71.6586 65.6019 71.7541 65.5738C71.8496 65.5452 71.9473 65.5165 72.0457 65.4873C72.144 65.4586 72.2366 65.4305 72.3217 65.4053C72.4069 65.3801 72.473 65.3588 72.5219 65.3388C72.8969 65.1914 73.2265 65.0446 73.5117 64.8916C73.7993 64.7419 74.0518 64.5613 74.2698 64.3509C74.4872 64.1405 74.6793 63.8899 74.8426 63.6044C75.0065 63.3149 75.1526 62.9657 75.2872 62.5552C75.4195 62.1412 75.5426 61.655 75.6547 61.096C75.7674 60.537 75.883 59.8771 75.9998 59.1203C76.0222 58.9924 76.0326 58.9041 76.0332 58.8434C76.0337 58.7826 76.028 58.7447 76.0188 58.7258C76.0067 58.7075 75.9889 58.708 75.9659 58.7252C75.9429 58.7419 75.9187 58.7659 75.8871 58.8026C75.6254 59.0922 75.3694 59.3341 75.1233 59.5199C74.8748 59.7062 74.6137 59.8347 74.3348 59.9069C74.1346 59.9585 73.9747 59.9539 73.8499 59.8937C73.728 59.8289 73.6279 59.7401 73.5554 59.6231C73.483 59.5061 73.4306 59.3725 73.3955 59.2281C73.3633 59.0824 73.3375 58.9569 73.3237 58.8497C73.1695 57.9346 73.0746 57.1967 73.0407 56.644C73.009 56.0907 73.0372 55.7003 73.1246 55.4738C73.2092 55.2479 73.3202 55.0438 73.4617 54.8529C73.6032 54.6625 73.7585 54.4934 73.9293 54.3489C74.0984 54.201 74.2726 54.0806 74.4486 53.9814C74.6264 53.8851 74.792 53.8134 74.945 53.7738C74.987 53.7629 75.0232 53.7572 75.0566 53.752C75.0876 53.7475 75.1158 53.744 75.1411 53.744C75.2199 53.7377 75.2573 53.7572 75.2464 53.8025C75.2366 53.8444 75.2021 53.8816 75.1497 53.9097C75.1325 53.9212 75.0951 53.9487 75.0341 53.9974C74.976 54.0445 74.9065 54.1236 74.83 54.2296C74.7512 54.3357 74.6764 54.4768 74.6005 54.6505C74.5274 54.8236 74.467 55.0392 74.4228 55.2943C74.4026 55.4102 74.3854 55.5512 74.375 55.7112C74.3647 55.8711 74.3629 56.0254 74.3716 56.1773C74.375 56.402 74.3911 56.6268 74.4141 56.8533C74.4394 57.0832 74.463 57.2913 74.4923 57.4839C74.5194 57.6737 74.5458 57.8388 74.5706 57.9719C74.5976 58.1043 74.6154 58.1886 74.6206 58.2304C74.6448 58.321 74.6862 58.3887 74.7443 58.4271C74.8047 58.4684 74.8737 58.4793 74.9553 58.4581C75.0525 58.4328 75.1796 58.3531 75.3315 58.2173C75.4856 58.0842 75.661 57.8704 75.8589 57.5722C76.1885 57.0964 76.4507 56.3699 76.6509 55.3981C76.6871 55.2204 76.7199 55.0621 76.7492 54.9217C76.7791 54.7783 76.8096 54.6344 76.8378 54.4871C76.866 54.3403 76.8982 54.1706 76.935 53.9757C76.9718 53.7796 77.0161 53.5393 77.0713 53.2532C77.084 53.1821 77.0983 53.1283 77.1156 53.1025C77.1334 53.0726 77.1622 53.0795 77.2042 53.126L78.1221 54.115C78.1583 54.1522 78.1681 54.2245 78.1503 54.326L77.6758 56.9966C77.6263 57.2816 77.5711 57.5969 77.5078 57.942C77.4451 58.2878 77.379 58.6375 77.3106 58.9987C77.2427 59.3599 77.1743 59.7211 77.1041 60.0789C77.0333 60.4413 76.9609 60.7818 76.8907 61.1006H76.8896Z" fill="#454545"/>
<path d="M71.9968 18.0149C72.0474 17.9312 72.0779 17.8934 72.1199 17.9232C75.9946 20.7091 80.2237 23.8258 81.9198 29.3459C81.9451 29.4273 78.0939 22.62 71.3676 19.8118C71.2284 19.7539 71.2733 19.5756 71.3319 19.4764C71.7092 18.8348 71.6126 18.6531 71.9974 18.0155L71.9968 18.0149Z" fill="#454545"/>
<path fill-rule="evenodd" clip-rule="evenodd" d="M22.2841 18.729L25.1563 20.1945L27.4334 17.916L26.922 21.0918L29.8001 22.5463L26.6126 23.044L26.1134 26.2215L24.6542 23.353L21.4685 23.8622L23.7541 21.5917L22.2841 18.729Z" fill="#454545"/>
<path fill-rule="evenodd" clip-rule="evenodd" d="M48.4123 3.77686L49.753 6.70206L52.9571 6.32251L50.5806 8.49777L51.9328 11.4184L49.1226 9.83711L46.7542 12.0215L47.3949 8.86873L44.579 7.29891L47.7843 6.9314L48.4123 3.77686Z" fill="#454545"/>
<path fill-rule="evenodd" clip-rule="evenodd" d="M64.2375 4.41895L64.5907 7.61591L67.7523 8.25749L64.811 9.58019L65.1762 12.776L63.0056 10.3961L60.0695 11.7297L61.6689 8.9369L59.4891 6.56497L62.6484 7.21859L64.2375 4.41895Z" fill="#454545"/>
<path fill-rule="evenodd" clip-rule="evenodd" d="M76.0551 12.0449L78.6012 14.0207L81.2659 12.2072L80.1679 15.2316L82.7216 17.1976L79.4968 17.0909L78.4103 20.1193L77.5154 17.0296L74.2905 16.935L76.9621 15.1318L76.0551 12.0449Z" fill="#454545"/>
<path fill-rule="evenodd" clip-rule="evenodd" d="M33.5862 8.78613L35.9667 10.9574L38.7677 9.36062L37.4316 12.2887L39.8202 14.4508L36.6144 14.0884L35.2898 17.0217L34.6439 13.87L31.4369 13.5208L34.2442 11.9349L33.5862 8.78613Z" fill="#454545"/>
</g>
<defs>
<clipPath id="clip0_795_1324">
<rect width="128" height="92" fill="white"/>
</clipPath>
</defs>
</svg>
