<svg width="151" height="72" viewBox="0 0 151 72" fill="none" xmlns="http://www.w3.org/2000/svg">
<g clip-path="url(#clip0_795_1278)">
<path d="M31.727 43.2944C29.6366 43.2821 27.5578 43.2602 25.4804 43.2383V44.2363C27.5578 44.5795 27.6715 44.8105 27.6715 46.775V50.2899C27.6715 51.1942 27.5497 51.7199 27.3081 51.9488C27.0733 52.1724 26.7311 52.2298 26.3446 52.1703C24.9034 51.9495 23.8105 50.6487 23.0763 48.8585C22.3591 47.1093 21.9747 44.8474 21.9747 42.5582C21.9747 39.9012 22.4707 37.7706 23.2396 36.2401C24.0228 34.6809 25.1034 33.7158 26.282 33.549C27.9205 33.3166 29.2494 34.4718 29.951 37.9558C30.2014 37.8622 30.4647 37.7685 30.7267 37.6687C30.5389 35.3358 30.4259 33.67 30.3885 32.5038C29.6128 32.3445 28.2199 32.0096 26.6453 32.2605C24.5264 32.5981 22.5612 33.8306 21.0867 35.7035C19.657 37.5197 18.6956 39.973 18.6956 43.1139C18.6956 45.7579 19.4019 48.0587 20.6607 49.838C21.9563 51.6679 23.7997 53.0042 26.1697 53.4062C27.8429 53.6898 29.4747 53.2968 30.7015 53.007C30.6144 52.0521 30.5886 51.0076 30.5886 49.8004V46.8441C30.5886 44.7982 30.7015 44.7011 31.7276 44.386L31.727 43.2944ZM46.3125 55.6633V54.3529C45.0605 53.9974 44.7965 53.5402 44.0841 50.0492C43.3948 46.6704 42.7231 43.3463 42.0808 40.0475C41.4466 36.7911 40.7913 33.5702 40.1156 30.3677C39.7523 30.5605 39.4018 30.7566 39.0514 30.9508C38.3254 34.2161 37.6177 37.4295 36.8978 40.5998C36.1901 43.7168 35.4797 46.786 34.757 49.8066C34.1283 52.4314 33.7806 52.7691 32.5034 52.8101V53.9455C34.0684 54.182 35.6457 54.3878 37.223 54.5874V53.3864C35.6954 52.8908 35.6056 52.4847 35.9458 50.5824C36.1935 49.201 36.4466 48.0287 36.6344 47.1332C37.9368 47.1961 39.2385 47.2576 40.5532 47.3205C40.8281 48.583 41.0819 50.1142 41.3044 51.2714C41.6698 53.1731 41.5548 53.6201 40.315 53.7445V54.9859C42.306 55.2354 44.3093 55.4507 46.3119 55.6626L46.3125 55.6633ZM40.1653 45.3874C39.1018 45.356 38.0368 45.3245 36.9726 45.2965C37.2482 43.993 37.5 42.6929 37.749 41.377C38.0001 40.0489 38.2621 38.7071 38.5628 37.3256C38.588 37.3256 38.6132 37.3229 38.6377 37.3229C38.8881 38.651 39.1385 39.9832 39.3882 41.3237C39.6393 42.6676 39.9026 44.0278 40.1653 45.3874ZM60.6103 56.0625C60.1973 55.7385 59.7645 55.0549 59.2705 53.9544C58.8506 53.0186 58.3852 51.711 57.668 49.4074C57.0345 47.3731 56.2159 44.5015 55.9403 43.2199C57.4176 42.0216 58.5567 39.9074 58.5567 36.2428C58.5567 33.6139 58.0096 31.7779 57.0794 30.6951C56.2445 29.7231 55.2258 29.3513 53.5614 29.4914C51.5208 29.663 49.4794 29.8441 47.4516 30.0526V31.3753C48.9411 31.5215 49.1174 31.7492 49.1174 34.9995V50.6802C49.1174 54.0111 48.9418 54.4007 47.3645 54.4568V55.7761C49.4678 56.0003 51.5711 56.1876 53.6737 56.3653V54.9838C52.1338 54.6591 51.9712 54.2353 51.9712 50.836V44.6642C52.0964 44.6642 52.2223 44.6581 52.3591 44.6676C53.0232 44.7114 53.3315 45.3081 53.6615 46.6076C54.2201 48.81 54.838 51.1081 55.3885 52.8327C56.2771 55.6113 57.0481 56.8082 59.6706 57.2211C59.9421 57.2635 60.2462 57.299 60.4715 57.3175C60.5089 56.8998 60.5593 56.4849 60.6089 56.0631L60.6103 56.0625ZM51.9719 43.0483V33.1033C51.9719 32.1955 52.012 31.8524 52.1345 31.6002C52.2625 31.337 52.5231 31.1606 52.9987 31.1258C54.163 31.0396 55.4647 32.5476 55.4647 37.0385C55.4647 39.284 55.1319 40.9771 54.476 41.997C53.9935 42.7482 53.4492 43.0476 52.585 43.0476C52.372 43.0476 52.172 43.0517 51.9719 43.0483ZM61.4493 28.9083V30.3493C62.864 30.6268 63.0266 30.92 63.0266 34.5278V51.497C63.0266 55.1021 62.864 55.4917 61.3363 55.6694V56.9326C63.49 57.0693 65.6436 57.204 67.7966 57.2881V55.9907C66.0315 55.6599 65.8933 55.2518 65.8933 51.6023V45.3273C66.3316 45.5706 66.7698 45.8105 67.2202 46.0505C67.4462 46.0539 67.6829 46.047 68.0218 45.9664C69.2099 45.6834 70.3408 44.8413 71.1519 43.3436C71.9685 41.8357 72.4917 39.6579 72.4917 36.7097C72.4917 33.7157 71.8793 31.4252 70.8512 30.1052C69.9638 28.9657 68.8227 28.5132 67.0828 28.5891C65.2047 28.6718 63.3274 28.7949 61.4493 28.907V28.9083ZM65.894 32.1115C65.894 31.3541 65.9396 30.9016 66.1322 30.6363C66.2656 30.4532 66.4704 30.2665 66.8582 30.2522C68.0225 30.2105 69.3623 31.7334 69.3623 36.9449C69.3623 43.0141 67.6095 44.0436 66.946 44.0436C66.5201 44.0436 66.1948 43.8597 65.894 43.6382V32.1115ZM85.187 57.6066V56.0973C83.935 55.826 83.6607 55.3263 82.9456 51.2974C82.2461 47.3554 81.5942 43.429 80.9552 39.487C80.3177 35.5545 79.6651 31.609 78.9894 27.6362C78.6267 27.8297 78.2634 28.017 77.9129 28.2043C77.1991 32.1525 76.486 36.0918 75.7722 40.027C75.0598 43.9533 74.3507 47.8715 73.6315 51.7841C72.9994 55.2183 72.6428 55.7077 71.3656 55.9381V57.4289C72.9306 57.4884 74.5079 57.526 76.0852 57.5506V56.0474C74.5576 55.6134 74.4671 55.111 74.808 52.6632C75.055 50.8887 75.3088 49.3855 75.4966 48.244C76.7983 48.2536 78.1007 48.2597 79.4154 48.2659C79.691 49.7786 79.942 51.6064 80.1666 52.9913C80.5306 55.2326 80.4177 55.7856 79.1908 56.0878V57.597C81.1812 57.6312 83.1837 57.6223 85.187 57.6066ZM79.0268 45.9336C77.9633 45.9302 76.8984 45.9274 75.8341 45.9274C76.1097 44.2835 76.3601 42.6553 76.6099 41.012C76.8603 39.3715 77.1358 37.7152 77.4366 36.0221H77.4992C77.7496 37.6687 78 39.325 78.2504 40.9744C78.5015 42.6238 78.7635 44.2801 79.0268 45.9336ZM103.19 56.9798V55.53C101.65 55.2559 101.53 55.1267 101.487 51.2386C101.456 48.3978 101.412 45.5563 101.387 42.7086C101.363 39.8643 101.327 37.0166 101.3 34.1696C101.265 30.717 101.325 30.4552 103.015 30.2242V28.7737C101.538 28.6957 100.073 28.6178 98.6083 28.546C97.9571 31.6829 97.3168 34.8429 96.6799 38.0112C96.0396 41.1986 95.4027 44.3922 94.7644 47.5953C94.1255 44.3983 93.4865 41.1925 92.8612 37.9804C92.2338 34.7589 91.5962 31.525 90.9702 28.2877C89.4929 28.2405 88.0157 28.2282 86.5513 28.2193V29.7286C88.3287 30.056 88.4518 30.6493 88.2912 35.5921C88.2389 37.2142 88.166 38.839 88.1157 40.4604C88.066 42.0852 88.0252 43.7072 87.9653 45.3286C87.8877 47.4586 87.7897 49.1743 87.7271 50.5339C87.6645 51.8935 87.5842 52.901 87.5264 53.6119C87.3964 55.2114 87.0759 55.8512 85.8743 56.0912V57.6005C87.5393 57.5882 89.2044 57.5724 90.8817 57.5198V56.0167C89.4671 55.8321 89.0581 55.3393 88.9662 53.238C88.9084 51.9126 88.9248 49.7164 88.9908 45.9213C89.0248 43.9725 89.0663 42.0196 89.1037 40.0707C89.1405 38.1219 89.1786 36.169 89.2167 34.2202C89.2541 34.2236 89.2915 34.2236 89.3289 34.2236C90.0046 38.0536 90.681 41.874 91.3567 45.6786C92.0317 49.4771 92.7088 53.2633 93.3851 57.0372C93.6104 57.0311 93.8356 57.0215 94.0738 57.0119C94.7998 53.117 95.5503 49.2276 96.2778 45.3539C97.0031 41.4871 97.755 37.6387 98.4933 33.8121C98.5185 33.8121 98.5559 33.8155 98.5933 33.8155V42.5787C98.5933 45.4941 98.6008 48.4203 98.6063 51.3391C98.6131 55.3153 98.5437 55.4534 96.9909 55.8458V57.3305C99.0567 57.2095 101.123 57.0967 103.188 56.9812L103.19 56.9798ZM117.099 29.9439C115.484 29.7758 113.869 29.6103 112.266 29.4511V30.8298C113.857 31.3008 113.934 31.7594 113.606 33.3494C113.32 34.737 112.903 36.3898 112.517 37.9709C112.128 39.5608 111.728 41.0865 111.44 42.1966C111.027 40.6559 110.613 39.1151 110.238 37.5771C109.862 36.0371 109.485 34.5025 109.124 32.9926C108.733 31.3561 108.711 30.9624 110.038 30.6726V29.2788C108.048 29.123 106.057 28.9664 104.066 28.8297V30.2734C105.155 30.6384 105.507 30.9631 106.231 33.7007C106.896 36.2087 107.408 38.1486 107.822 39.7481C108.234 41.3415 108.576 42.6142 108.848 43.8118C109.013 44.5343 109.074 44.9595 109.074 46.0259V50.9221C109.074 54.5436 108.899 54.8922 107.183 55.2757V56.6948C109.449 56.5143 111.716 56.3236 113.982 56.1117V54.7487C112.153 54.6209 111.992 54.3399 111.992 50.782V45.4619C111.992 43.9957 112.079 43.6621 112.342 42.6142C112.843 40.619 113.242 39.1739 113.594 37.9059C113.943 36.6455 114.281 35.5566 114.683 34.2879C115.47 31.808 115.847 31.3971 117.099 31.272V29.9439ZM131.798 53.8361V52.7076C130.908 52.6577 130.433 52.2366 129.644 50.5776C128.868 48.9467 128.087 47.192 127.378 45.4223C126.659 43.6307 125.988 41.8323 125.4 40.1733C126.176 38.6168 126.99 36.8888 128.179 35.0364C129.381 33.1648 130.158 32.9591 131.51 32.9406V31.8086C129.732 31.5277 127.966 31.2597 126.201 31.0349V32.2482C126.314 32.2851 126.425 32.3247 126.539 32.3603C127.49 32.6556 127.511 33.1976 127.04 34.2749C126.172 36.2599 125.111 38.5977 124.048 40.3626C123.533 41.2171 123.071 41.7878 122.658 42.012V35.5504C122.658 32.3753 122.795 32.0786 124.261 32.0199V30.7785C122.207 30.5167 120.154 30.2611 118.101 30.0458V31.3616C119.654 31.7389 119.816 32.0691 119.816 35.3378V50.3726C119.816 53.6406 119.603 53.9749 118.127 54.3515V55.6681C120.205 55.4466 122.283 55.1779 124.374 54.9038V53.6659C122.846 53.616 122.658 53.3351 122.658 50.1572V43.2335C123.009 43.1556 123.282 43.3771 123.66 44.4004C124.396 46.3936 125.183 48.5687 125.888 50.4067C126.585 52.2202 127.19 53.7309 127.541 54.4889C128.955 54.2832 130.37 54.0583 131.798 53.8341V53.8361Z" fill="#454545"/>
<path fill-rule="evenodd" clip-rule="evenodd" d="M75.5 11.8535C90.4673 11.8535 113.654 15.0286 125.818 24.6565C113.062 20.0343 95.2325 17.162 75.5 17.162C36.7208 17.162 5.28442 28.2492 5.28442 41.9264C5.28442 55.6036 36.7215 66.6916 75.5 66.6916C114.279 66.6916 145.716 55.6036 145.716 41.9264C145.716 30.3142 121.547 20.2359 112.652 15.7422C135.547 20.9072 151 30.6977 151 41.9264C151 58.5354 117.198 71.9993 75.5 71.9993C33.8023 71.9993 0 58.5354 0 41.9264C0 25.3175 33.8023 11.8535 75.5 11.8535Z" fill="#454545"/>
<path fill-rule="evenodd" clip-rule="evenodd" d="M112.201 15.4722C111.332 12.2978 110.463 9.1227 108.973 6.7371C107.484 4.35081 105.373 2.75403 102.741 1.7622C100.109 0.771048 96.9556 0.385524 93.8037 0C94.5434 2.45122 95.2837 4.90244 96.929 7.14655C98.5737 9.39065 101.123 11.429 103.819 12.7818C106.515 14.1352 109.358 14.8037 112.201 15.4722Z" fill="#454545"/>
<path fill-rule="evenodd" clip-rule="evenodd" d="M112.877 15.336C114.582 15.3832 116.287 15.431 117.624 15.0257C118.96 14.621 119.929 13.7631 120.618 12.5348C121.306 11.3064 121.715 9.70694 122.123 8.10742C120.803 8.10742 119.481 8.10742 118.208 8.61667C116.935 9.12592 115.709 10.1444 114.828 11.3495C113.948 12.5539 113.413 13.945 112.878 15.3353L112.877 15.336Z" fill="#454545"/>
</g>
<defs>
<clipPath id="clip0_795_1278">
<rect width="151" height="72" fill="white"/>
</clipPath>
</defs>
</svg>
