<svg width="168" height="68" viewBox="0 0 168 68" fill="none" xmlns="http://www.w3.org/2000/svg">
<g clip-path="url(#clip0_795_1353)">
<path fill-rule="evenodd" clip-rule="evenodd" d="M84 0C37.608 0 0 15.2222 0 33.9996C0 52.777 37.608 68 84 68C130.392 68 168 52.777 168 33.9996C168 15.2222 130.392 0 84 0ZM84 63.1134C43.087 63.1134 9.92108 50.3495 9.92108 34.6063C9.92108 18.8631 43.087 6.10001 84 6.10001C124.913 6.10001 158.079 18.8631 158.079 34.6063C158.079 50.3495 124.913 63.1134 84 63.1134Z" fill="#454545"/>
<path fill-rule="evenodd" clip-rule="evenodd" d="M141.733 35.3664L142.051 35.8506C140.672 36.7324 139.329 37.3519 138.024 37.7075C136.72 38.0624 135.208 38.2398 133.488 38.2398C130.072 38.2398 128.363 37.185 128.363 35.0748C128.363 34.0418 128.649 32.6668 129.287 30.9737C130.791 26.984 134.056 24.661 137.728 24.661C139.807 24.661 140.848 25.4368 140.848 26.987C140.848 28.2147 139.604 29.7423 138.406 30.8933C137.207 32.045 135.546 33.0517 133.424 33.9132C133.318 34.3222 133.265 34.7312 133.265 35.1402C133.265 35.8942 133.487 36.4701 133.935 36.8685C134.379 37.267 134.974 37.4662 135.716 37.4662C137.69 37.4662 139.695 36.7663 141.732 35.3672L141.733 35.3664ZM57.1789 43.1046L60.5853 40.6598L62.951 41.4071C69.9796 44.5277 60.8837 52.5388 44.7899 52.2494V53.3026H45.6661C46.5536 53.3026 47.2916 53.5364 47.8763 54.0063C48.4594 54.4739 48.7547 55.0422 48.7547 55.7204C48.7547 56.5443 48.3504 57.2367 47.5471 57.796C46.743 58.3591 45.7638 58.6373 44.593 58.6373C43.7311 58.6373 42.8533 58.5042 41.9703 58.2328V56.5827C42.8413 56.9977 43.6507 57.2044 44.3999 57.2044C45.0086 57.2044 45.5361 57.0841 46.0081 56.8443C46.471 56.6045 46.7009 56.294 46.7009 55.9113C46.7009 55.5535 46.5176 55.2821 46.1531 55.0956C45.7954 54.9122 45.4046 54.8197 44.9898 54.8197H43.0059V52.184C37.7605 51.8802 33.4869 50.6277 30.2006 48.0108C26.6596 45.1923 24.8899 41.4965 24.8899 36.9242C24.8899 32.954 26.1659 29.1958 28.7172 25.6511C31.2692 22.1057 34.69 19.2436 38.9825 17.0634C43.2734 14.8832 47.7335 13.7931 52.3619 13.7931C55.9224 13.7931 58.6615 14.6351 60.5793 16.3191C61.7381 17.3363 62.5452 18.6174 63.0043 20.1585L67.5042 18.8467C68.9215 18.4926 75.8066 17.1641 77.5275 17.607C79.8564 18.2272 73.9835 20.0864 73.8828 20.0864C71.0896 20.3081 66.982 20.775 63.3087 21.5275C63.4072 22.1568 63.4567 22.8214 63.4567 23.5235C63.4567 25.7218 62.8826 27.9726 61.7359 30.2768C60.5891 32.5811 59.0651 34.6372 57.1668 36.4453C55.2678 38.2533 54.9349 38.7405 52.5227 39.8584C50.1089 40.9748 47.7154 41.5326 45.3423 41.5326C43.444 41.5326 41.9012 41.1251 40.7146 40.3095C39.528 39.4938 38.9351 38.4653 38.9351 37.2256C38.9351 35.7363 39.5581 34.0704 40.804 32.227C42.0493 30.3836 43.6221 28.7703 45.5211 27.3877C50.5846 23.4807 54.3112 22.3838 60.4613 20.5916C60.4801 20.3976 60.4899 20.5149 60.4899 20.3322C60.4899 19.3045 60.2329 18.364 59.7189 17.5137C59.2056 16.6635 58.4925 15.9989 57.5824 15.52C56.6731 15.0419 55.6443 14.802 54.4976 14.802C51.808 14.802 49.1575 15.7951 46.5476 17.7799C43.9355 19.7646 41.5826 22.3522 39.4859 25.5428C36.1426 30.6302 33.1149 36.2506 34.1151 42.1619C36.9362 58.8268 79.1485 41.919 57.1789 43.1031V43.1046ZM45.9359 29.5957C42.2183 32.5563 40.3584 35.2236 40.3584 37.5993C40.3584 38.3074 40.635 38.9104 41.1896 39.4066C41.7426 39.9035 42.3754 40.1516 43.0878 40.1516C45.4617 40.1516 48.1701 38.8668 51.2166 36.2964C54.2624 33.726 55.0507 31.7308 57.2262 28.3635C58.76 25.9894 59.7504 23.9611 60.2036 22.2748C59.2289 22.5515 58.3399 22.8544 57.5824 23.186C52.1139 25.3932 51.0873 25.4955 45.9359 29.5957ZM76.9684 35.3664L77.287 35.8506C75.9073 36.7324 74.5652 37.3519 73.2591 37.7075C71.9553 38.0624 70.4425 38.2398 68.7231 38.2398C65.3069 38.2398 63.598 37.185 63.598 35.0748C63.598 34.0418 63.8828 32.6668 64.5216 30.9737C66.0261 26.984 69.5002 24.3685 73.1719 24.3685C75.252 24.3685 76.2921 25.1444 76.2921 26.6946C76.2921 27.9215 74.8402 29.7423 73.6416 30.8933C72.443 32.045 70.7822 33.0517 68.6593 33.9132C68.5533 34.3222 68.4999 34.7312 68.4999 35.1402C68.4999 35.8942 68.7224 36.4701 69.1695 36.8685C69.6144 37.267 70.2088 37.4662 70.9513 37.4662C72.9254 37.4662 74.9311 36.7655 76.9684 35.3664ZM68.7231 33.202C69.7001 32.4059 70.7604 31.2429 71.9064 29.7145C73.0532 28.1854 73.6258 26.969 73.6258 26.0653C73.6258 25.6135 73.3703 25.388 72.8608 25.388C72.0965 25.388 71.3015 26.3405 70.4733 28.2455C69.646 30.1513 69.0621 31.8037 68.7224 33.2028L68.7231 33.202ZM100.317 40.2824C103.333 41.2274 114.985 47.6394 124.742 48.9062C127.86 49.3114 135.714 48.7235 136.965 46.4425C138.31 43.9902 136.047 40.9988 130.557 41.5364C127.817 41.8048 118.687 42.5265 118.002 42.5881C117.502 42.6325 125.758 39.999 126.245 39.9569C134.268 39.263 140.844 40.1982 140.515 44.1451C140.255 47.277 138.734 49.5038 136.35 51.1142C132.857 53.1598 125.688 54.8543 119.888 52.008L100.826 42.6528C98.8877 41.7003 96.8865 40.3546 94.2037 39.4208C94.0331 43.6587 92.2926 46.7831 88.9816 48.7941C86.023 50.5902 82.5775 52.317 78.7765 52.6658V53.6747H79.6527C80.5402 53.6747 81.2789 53.9086 81.8628 54.3792C82.446 54.8468 82.7413 55.4151 82.7413 56.0933C82.7413 56.918 82.337 57.6096 81.5337 58.1689C80.7296 58.732 79.7504 59.0102 78.5796 59.0102C77.7176 59.0102 76.8399 58.8771 75.9562 58.6057V56.9556C76.8271 57.3705 77.6365 57.5773 78.3857 57.5773C78.9952 57.5773 79.5227 57.457 79.9939 57.2172C80.4568 56.9774 80.6867 56.6669 80.6867 56.2842C80.6867 55.9263 80.5041 55.655 80.1389 55.4685C79.7805 55.2851 79.3897 55.1926 78.9749 55.1926H76.991V52.7275C73.8565 52.6771 71.3826 52.0411 69.5761 50.8187C67.6906 49.5429 66.7482 47.7747 66.7482 45.5118C66.7482 43.5369 67.3682 41.9378 68.6074 40.7169C69.8466 39.496 71.3668 38.6518 73.1674 38.1849C74.9672 37.718 76.785 37.4842 78.6194 37.4842C81.303 37.4842 83.5439 37.6459 85.3452 37.9691C85.2092 37.682 84.6335 35.4514 83.4282 33.1171C82.2213 30.7828 81.3383 28.8251 80.7784 27.2449C80.2178 25.6646 79.9383 24.2467 79.9383 22.989C79.9383 20.5464 81.1008 18.4008 83.4282 16.5522C85.7547 14.7028 88.4969 13.7773 91.6561 13.7773C93.6949 13.7773 95.3076 14.1818 96.4964 14.99C97.3749 15.5869 97.9303 16.3267 98.1595 17.2078L100.994 17.8821C105.097 18.6933 109.911 19.8458 114.252 20.2976C121.038 22.1357 127.981 21.3133 134.532 19.4007C136.031 19.1248 138.005 17.7445 138.399 19.3316C138.873 21.0569 134.461 21.7779 133.19 22.2868C125.142 25.5067 115.514 22.989 107.465 21.6087L98.064 19.9202C97.7574 21.0652 97.1239 22.0515 96.1658 22.8815C94.756 24.1032 93.0832 24.8752 91.1474 25.1978C92.6541 22.9183 93.5859 20.9133 93.9399 19.1797C93.0359 19.0173 86.9729 18.9647 88.1309 17.9513C88.3676 17.7445 88.8411 17.192 89.0778 17.0544L94.0789 17.1386C93.9354 15.6162 93.1275 14.8547 91.6554 14.8547C90.9422 14.8547 90.2629 15.0975 89.6174 15.5816C88.9718 16.0665 88.4548 16.7221 88.064 17.5483C87.674 18.3745 87.4779 19.3263 87.4779 20.4036C87.4779 21.6253 87.6906 22.792 88.1152 23.9054C88.5397 25.0188 89.2957 26.5991 90.3824 28.6462C91.469 30.6933 92.3265 32.4442 92.9555 33.8982C93.5837 35.3529 93.9654 36.8339 94.1022 38.3428C96.1613 38.9645 98.3721 39.4404 100.317 40.2824ZM84.1759 39.3028C83.6318 39.2306 83.1396 39.1675 82.6985 39.1141C80.7145 38.8713 82.4227 38.9262 80.2531 38.9262C78.5555 38.9262 77 39.2855 75.5909 40.0027C74.1827 40.7214 73.0599 41.692 72.2288 42.9121C71.3969 44.1331 70.9806 45.4803 70.9806 46.953C70.9806 48.4972 71.6705 49.2708 72.6714 50.2571C73.6717 51.2442 76.2936 51.8133 77.8559 51.8133C80.0638 51.8133 82.0958 49.9421 83.7596 48.0393C85.4233 46.1358 85.7367 44.845 86.5423 42.4708C87.0217 41.0582 85.2813 40.0005 84.1774 39.3036L84.1759 39.3028ZM107.386 25.0639L103.089 37.0129C103.046 37.1211 103.025 37.2497 103.025 37.4008V37.5624C103.089 37.5624 103.184 37.476 103.312 37.3038C103.928 35.9468 104.516 34.65 105.079 33.4118C105.641 32.1736 106.315 30.8926 107.101 29.5687C107.886 28.2448 108.777 27.1517 109.774 26.2909C110.772 25.4301 111.854 24.9993 113.022 24.9993C113.807 24.9993 114.422 25.182 114.867 25.5481C115.313 25.9142 115.536 26.4307 115.536 27.0983C115.536 27.593 115.441 28.0779 115.25 28.5515L111.971 37.0129C111.949 37.0347 111.928 37.0783 111.906 37.1422C111.885 37.2068 111.854 37.261 111.812 37.3038C111.812 37.4113 111.864 37.4654 111.971 37.4654C112.034 37.4654 112.098 37.4331 112.162 37.3677C112.225 37.3038 112.257 37.2392 112.257 37.1737L113.944 33.5892C116.554 27.7974 119.335 24.9023 122.286 24.9023C123.028 24.9023 123.617 25.0903 124.052 25.4669C124.486 25.8428 124.704 26.3337 124.704 26.9366C124.704 27.281 124.63 27.6358 124.481 28.0019L121.807 35.0748C121.701 35.2687 121.648 35.5491 121.648 35.9145C121.648 36.6896 122.03 37.0775 122.793 37.0775C123.877 37.0775 125.362 36.4633 127.25 35.2364L127.537 35.6236C125.309 37.261 123.122 38.0781 120.979 38.0781C119.812 38.0781 118.868 37.8195 118.146 37.3038C117.424 36.7866 117.065 36.1408 117.065 35.3657C117.065 34.8056 117.192 34.1598 117.446 33.4276L120.376 26.1608L120.439 25.9992C120.439 25.8917 120.386 25.8375 120.28 25.8375L120.058 25.9992C119.951 26.042 119.717 26.2247 119.356 26.548C118.508 27.3449 117.749 28.2545 117.08 29.277C116.411 30.2994 115.728 31.4887 115.027 32.8457C114.326 34.2019 113.69 35.4078 113.117 36.4626C112.736 37.194 112.412 37.6632 112.147 37.8676C111.882 38.0721 111.442 38.1744 110.826 38.1744C109.978 38.1744 109.293 37.921 108.773 37.4151C108.253 36.9091 107.993 36.2581 107.993 35.4612C107.993 34.8154 108.142 34.1914 108.439 33.5885L111.272 26.2247C111.294 26.1818 111.31 26.1443 111.321 26.1119C111.331 26.0796 111.337 26.042 111.337 25.9992L111.273 25.8375C111.147 25.8375 110.999 25.945 110.828 26.1608C109.47 27.4742 108.249 29.0191 107.167 30.7948C106.085 32.5713 105.034 34.5357 104.016 36.6888C103.803 37.2271 103.554 37.6098 103.267 37.8353C102.982 38.0609 102.595 38.1744 102.106 38.1744C100.026 38.1744 98.9869 37.367 98.9869 35.7521C98.9869 35.1492 99.1349 34.4816 99.4317 33.7501L102.106 26.1608L107.391 25.0632L107.386 25.0639ZM133.487 33.202C134.464 32.4059 135.525 31.2429 136.671 29.7145C137.817 28.1854 138.39 26.969 138.39 26.0653C138.39 25.6135 138.135 25.388 137.626 25.388C136.862 25.388 136.066 26.3405 135.238 28.2455C134.411 30.1513 133.826 31.803 133.487 33.202Z" fill="#454545"/>
</g>
<defs>
<clipPath id="clip0_795_1353">
<rect width="168" height="68" fill="white"/>
</clipPath>
</defs>
</svg>
