<svg width="150" height="66" viewBox="0 0 150 66" fill="none" xmlns="http://www.w3.org/2000/svg">
<g clip-path="url(#clip0_795_1246)">
<path fill-rule="evenodd" clip-rule="evenodd" d="M21.2679 35.2591C17.2439 21.9472 13.2172 14.2946 9.18789 12.5772C6.21604 11.3614 5.0835 10.3568 5.79026 9.56327C7.80825 8.82203 12.5337 10.4117 19.966 14.333C27.3943 18.4151 32.6438 25.2292 35.716 34.774C37.1833 37.2386 35.9943 38.7475 32.1496 39.3008C33.1341 43.8998 31.7544 46.2255 28.0107 46.2764C24.1169 45.8045 22.702 44.8111 23.7675 43.2969C24.8396 42.739 25.7257 42.8932 26.4225 43.7589C28.5959 44.7675 29.8367 44.1361 30.1449 41.8654C30.2804 40.7376 29.9676 39.9521 29.2083 39.5093C25.7848 40.3353 23.4413 39.5345 22.1793 37.1069C21.5715 35.8753 21.2679 35.2591 21.2679 35.2591ZM0 64.1919C0.678198 60.5525 2.66098 57.6114 5.95034 55.3685C2.66563 50.3572 1.49057 46.199 2.4265 42.8958C9.37986 47.5491 21.5602 49.1196 38.9675 47.608C53.4196 45.5762 63.1548 44.7906 68.1719 45.2519C73.2441 45.6735 76.7566 45.6735 81.8288 45.2519C86.8459 44.7906 96.5798 45.5762 111.033 47.608C128.44 49.1189 140.62 47.5484 147.574 42.8958C148.509 46.199 147.334 50.3572 144.05 55.3685C147.339 57.6114 149.322 60.5525 150 64.1919C147.841 63.5804 144.2 63.8272 139.081 64.9305C130.073 65.906 119.424 66.2137 107.133 65.8544C87.0033 63.1932 62.9974 63.1932 42.8673 65.8544C30.576 66.2137 19.9268 65.9053 10.9189 64.9305C5.79823 63.8266 2.15947 63.5797 0 64.1919ZM25.723 57.074L24.9512 52.89L22.057 57.074H25.723ZM24.2896 61.7087L24.4424 61.1277C25.0581 61.0833 25.5384 61.0138 25.8818 60.9198C26.2279 60.8259 26.4006 60.72 26.4006 60.6068C26.4006 60.5095 26.3933 60.4241 26.3813 60.3546C26.3694 60.2832 26.3541 60.2024 26.3361 60.1085L25.8884 57.8384H21.525C21.3782 58.0409 21.1968 58.3037 20.9763 58.6333C20.7564 58.9602 20.5731 59.2428 20.4217 59.4751C20.1925 59.8437 20.0616 60.0979 20.0211 60.2335C19.9813 60.3692 19.9633 60.4552 19.9633 60.4936C19.9633 60.6538 20.1035 60.7901 20.3858 60.8954C20.6681 61.0006 21.0959 61.0774 21.6778 61.1283L21.525 61.7094H16.1718L16.3246 61.1283C16.4999 61.1171 16.7171 61.0886 16.9795 61.0476C17.2432 61.0026 17.4638 60.9397 17.6444 60.851C17.8962 60.7312 18.1313 60.577 18.3525 60.3884C18.5757 60.2004 18.781 59.9675 18.9743 59.6988C20.1898 58.0065 21.3051 56.4446 22.3214 55.0138C23.341 53.5822 24.5201 51.9204 25.8612 50.0296H27.6374C28.0971 52.4552 28.4763 54.4631 28.7766 56.0489C29.0768 57.6359 29.3405 58.9648 29.5664 60.031C29.5976 60.1945 29.6561 60.3408 29.7411 60.4738C29.8261 60.6075 29.9676 60.7312 30.1576 60.851C30.3017 60.9397 30.4757 61.0026 30.6843 61.0476C30.8902 61.0886 31.0822 61.1171 31.2629 61.1283L31.1101 61.7094H24.2903L24.2896 61.7087ZM44.1061 58.0204L42.9118 61.7087H31.1792L31.3326 61.1104C31.4794 61.1045 31.7033 61.0853 32.0009 61.0496C32.2971 61.0132 32.515 60.9741 32.6585 60.9331C32.8976 60.8609 33.0783 60.7557 33.1972 60.6154C33.3174 60.4764 33.3998 60.3103 33.4489 60.1224L35.4995 52.0812C35.53 51.9681 35.5519 51.8734 35.5645 51.7993C35.5772 51.7245 35.5825 51.6663 35.5825 51.6272C35.5825 51.4002 35.4549 51.2255 35.1999 51.0984C34.9448 50.9714 34.5323 50.8688 33.9591 50.794L34.1092 50.1957H41.113L40.9602 50.794C40.7703 50.8052 40.5225 50.8297 40.2262 50.8708C39.926 50.9105 39.6988 50.9535 39.5427 50.9965C39.2923 51.068 39.1103 51.1798 38.9941 51.3334C38.8805 51.4863 38.8014 51.6524 38.7523 51.8264L36.802 59.4718C36.7595 59.6266 36.725 59.7782 36.7011 59.9291C36.6792 60.0787 36.6672 60.1912 36.6672 60.2726C36.6672 60.5876 36.7934 60.7875 37.0471 60.8788C37.3016 60.9675 37.819 61.0118 38.6002 61.0118C39.0778 61.0118 39.5527 60.9781 40.0243 60.9152C40.4959 60.849 40.8486 60.7325 41.0811 60.5585C41.4511 60.2898 41.861 59.9013 42.318 59.395C42.7703 58.8914 43.139 58.4314 43.4266 58.0217H44.1055L44.1061 58.0204ZM58.5409 50.195L57.6953 53.485H57.0151C56.9906 53.3023 56.9454 53.0753 56.875 52.8006C56.8072 52.5273 56.7129 52.2553 56.59 51.9873C56.4638 51.71 56.3263 51.4777 56.1788 51.295C56.0327 51.1117 55.854 51.0071 55.6488 50.974C55.4688 50.9515 55.2383 50.935 54.9573 50.9178C54.6783 50.9019 54.4365 50.8933 54.2313 50.8933H53.7776L51.4992 59.8232C51.4746 59.9145 51.456 60.0032 51.4408 60.0866C51.4255 60.1693 51.4162 60.2302 51.4162 60.2693C51.4162 60.3997 51.4467 60.5128 51.5019 60.6134C51.561 60.7127 51.6639 60.7928 51.8207 60.851C51.9642 60.9059 52.1728 60.9589 52.4478 61.0092C52.7234 61.0615 52.9499 61.0946 53.1306 61.1111L52.9772 61.7094H45.8823L46.0318 61.1111C46.2005 61.0999 46.4449 61.0774 46.7691 61.0476C47.0913 61.0138 47.3211 60.9754 47.4586 60.9344C47.6977 60.8451 47.8784 60.7319 47.9973 60.5856C48.1169 60.438 48.1992 60.2666 48.2477 60.0674L50.5905 50.8939H50.2385C50.0106 50.8939 49.7815 50.8999 49.553 50.9138C49.3225 50.927 49.0588 50.9469 48.7645 50.9753C48.5519 51.0025 48.3095 51.1156 48.0425 51.3208C47.7761 51.5253 47.5157 51.7477 47.2653 51.9886C46.965 52.2904 46.7166 52.5611 46.524 52.8053C46.328 53.0515 46.162 53.2765 46.0251 53.4863H45.3449L46.1865 50.1964H58.5383L58.5409 50.195ZM72.7259 50.195L72.5738 50.7933C72.3712 50.8152 72.1813 50.8489 72.0066 50.89C71.8312 50.9343 71.6326 51.0091 71.4028 51.1176C71.1151 51.2473 70.8581 51.4029 70.6256 51.5829C70.3951 51.7649 70.1287 52.0005 69.8318 52.2943C69.0945 53.0171 68.5491 53.5597 68.1998 53.9218C67.847 54.2851 67.1954 54.9714 66.2422 55.9794C65.7168 56.5333 65.3973 56.9211 65.2877 57.1455C65.1774 57.3698 65.0552 57.7563 64.917 58.3136L64.5371 59.8225C64.5132 59.9139 64.4906 60.0026 64.4786 60.086C64.4634 60.1687 64.4547 60.2296 64.4547 60.2686C64.4547 60.3957 64.4853 60.5122 64.5397 60.6128C64.5982 60.712 64.7025 60.7921 64.8579 60.8504C65.0021 60.9053 65.21 60.9582 65.4863 61.0085C65.7613 61.0608 65.9885 61.0939 66.1685 61.1104L66.0164 61.7087H58.9302L59.0796 61.1104C59.2477 61.0992 59.4928 61.0767 59.8176 61.0469C60.1391 61.0132 60.3689 60.9748 60.5071 60.9337C60.7336 60.851 60.9116 60.7339 61.0372 60.585C61.1627 60.4327 61.2491 60.2607 61.2975 60.0668L61.8276 57.9986C61.8642 57.8497 61.8954 57.716 61.9253 57.6002C61.9558 57.4837 61.9704 57.3818 61.9704 57.2957C61.9704 57.1819 61.9366 57.0356 61.8728 56.8583C61.805 56.6776 61.7207 56.4512 61.6131 56.1766C61.2584 55.252 60.9873 54.5511 60.798 54.0779C60.6114 53.6014 60.3536 52.9866 60.0315 52.2368C59.9126 51.9568 59.7718 51.7192 59.6124 51.528C59.4523 51.3367 59.2782 51.1825 59.0849 51.0634C58.9415 50.98 58.7634 50.9191 58.5495 50.8754C58.3377 50.833 58.1397 50.8059 57.9524 50.7953L58.1045 50.197H65.2186L65.0685 50.7953C64.4534 50.8112 63.9937 50.8562 63.6902 50.9277C63.3873 51.0025 63.2378 51.113 63.2378 51.2659C63.2378 51.3347 63.2624 51.473 63.3142 51.6808C63.3667 51.892 63.4736 52.2354 63.6423 52.7166C63.7679 53.0826 63.9479 53.5584 64.1777 54.1455C64.4076 54.7318 64.6646 55.3745 64.9463 56.078C65.7028 55.2825 66.395 54.5525 67.0294 53.8847C67.663 53.2176 68.0941 52.753 68.3306 52.4896C68.7743 51.9919 69.0281 51.6848 69.0932 51.5677C69.1603 51.4538 69.1941 51.3685 69.1941 51.3122C69.1941 51.1474 69.05 51.0223 68.7657 50.9442C68.4834 50.8668 68.1373 50.8172 67.7301 50.7947L67.8836 50.1964H72.7253L72.7259 50.195ZM87.1847 50.195L87.0345 50.7933C86.8665 50.8092 86.622 50.8377 86.3025 50.8787C85.981 50.9171 85.6688 51.0256 85.3659 51.197C85.1089 51.3446 84.8883 51.5961 84.7043 51.9535C84.5243 52.3102 84.3437 52.8304 84.163 53.5174L82.0434 61.7743H80.5428L75.0575 52.5591L73.5974 58.305C73.5204 58.6068 73.4593 58.892 73.4168 59.1561C73.3762 59.4208 73.355 59.6319 73.355 59.7895C73.355 60.0112 73.3789 60.1826 73.4254 60.3044C73.4746 60.4261 73.5416 60.5261 73.634 60.6061C73.7715 60.7306 74.0106 60.8384 74.3527 60.9331C74.6988 61.0238 74.9545 61.0826 75.1219 61.1104L74.9698 61.7087H69.4784L69.6286 61.1104C69.7906 61.0879 70.0484 61.0522 70.3964 60.9966C70.7458 60.9443 71.0467 60.8437 71.2978 60.7054C71.5602 60.5532 71.7854 60.3077 71.9627 59.9642C72.1427 59.6207 72.3201 59.0972 72.4948 58.3937L73.8831 52.9807C73.9136 52.8556 73.9382 52.7397 73.9595 52.6286C73.9807 52.518 73.99 52.4155 73.99 52.3241C73.99 52.164 73.9721 52.0084 73.9296 51.8595C73.8864 51.71 73.81 51.5743 73.6938 51.4499C73.5257 51.2672 73.3198 51.1229 73.072 51.0236C72.8269 50.9244 72.5353 50.8456 72.2052 50.794L72.3672 50.1957H77.0987L81.8972 58.3083L83.0942 53.5995C83.1766 53.2533 83.2383 52.9707 83.2782 52.7523C83.3181 52.5333 83.3367 52.3281 83.3367 52.1401C83.3367 51.9297 83.3121 51.7583 83.2603 51.6252C83.2111 51.4916 83.138 51.3837 83.0424 51.2983C82.9102 51.1798 82.6777 51.0713 82.3469 50.9773C82.0161 50.8833 81.7617 50.8225 81.581 50.7947L81.7345 50.1964H87.186L87.1847 50.195ZM98.6875 58.2117C98.5254 58.8311 98.2623 59.3824 97.9003 59.8616C97.539 60.3401 97.1218 60.7372 96.6515 61.0496C96.1819 61.36 95.6744 61.5975 95.1257 61.769C94.5744 61.9384 94.0171 62.0244 93.4572 62.0244C92.3332 62.0244 91.4365 61.7829 90.7709 61.3017C90.1027 60.8192 89.7699 60.1607 89.7699 59.3275C89.7699 58.8126 89.9353 58.3857 90.2628 58.0449C90.5942 57.706 91.032 57.5386 91.584 57.5386C92.116 57.5386 92.5299 57.6763 92.8201 57.9503C93.1151 58.2249 93.2605 58.5684 93.2605 58.9834C93.2605 59.1991 93.2027 59.4129 93.0905 59.6207C92.9762 59.8245 92.7776 60.0522 92.4893 60.2957L91.932 60.7683V60.8768C91.9872 61.0072 92.1041 61.1071 92.2814 61.1727C92.4621 61.2421 92.6434 61.2759 92.8301 61.2759C93.4505 61.2759 93.9812 61.037 94.419 60.5638C94.8594 60.0906 95.1935 59.3871 95.4293 58.4532L97.0554 52.0852C97.0873 51.9707 97.1045 51.8741 97.1172 51.7993C97.1298 51.7245 97.1351 51.6676 97.1351 51.6272C97.1351 51.4009 97.0076 51.2235 96.7465 51.0958C96.4861 50.9687 96.0696 50.8661 95.4937 50.7914L95.6472 50.1931H102.525L102.372 50.7914C102.185 50.8026 101.968 50.8297 101.713 50.8714C101.458 50.9151 101.257 50.9568 101.106 50.9932C100.856 51.0647 100.675 51.1673 100.567 51.3029C100.46 51.4366 100.377 51.6107 100.316 51.8205L98.6868 58.209L98.6875 58.2117ZM109.119 57.0733L108.347 52.8893L105.453 57.0733H109.119ZM107.685 61.7081L107.838 61.127C108.454 61.0827 108.934 61.0132 109.278 60.9192C109.624 60.8252 109.796 60.7193 109.796 60.6061C109.796 60.5089 109.788 60.4235 109.776 60.354C109.764 60.2825 109.749 60.2018 109.731 60.1078L109.284 57.8377H104.919C104.773 58.0403 104.592 58.303 104.371 58.6326C104.151 58.9595 103.968 59.2421 103.816 59.4744C103.586 59.8431 103.455 60.0972 103.416 60.2329C103.376 60.3685 103.358 60.4546 103.358 60.493C103.358 60.6531 103.498 60.7895 103.78 60.8947C104.062 60.9999 104.49 61.0767 105.073 61.1277L104.919 61.7087H99.5663L99.7197 61.1277C99.8937 61.1164 100.112 61.0879 100.375 61.0469C100.638 61.0019 100.859 60.939 101.04 60.8504C101.291 60.7306 101.526 60.5764 101.748 60.3877C101.971 60.1998 102.176 59.9668 102.369 59.6981C103.584 58.0059 104.7 56.444 105.717 55.0131C106.736 53.5816 107.915 51.9198 109.256 50.0289H111.033C111.492 52.4545 111.871 54.4625 112.172 56.0482C112.471 57.6352 112.736 58.9642 112.961 60.0304C112.993 60.1938 113.051 60.3401 113.137 60.4731C113.222 60.6068 113.363 60.7306 113.553 60.8504C113.697 60.939 113.872 61.0019 114.08 61.0469C114.286 61.0879 114.479 61.1164 114.659 61.1277L114.506 61.7087H107.686L107.685 61.7081ZM135.22 50.1944L135.066 50.7927C134.883 50.8039 134.653 50.8311 134.377 50.8727C134.102 50.9164 133.894 50.9581 133.75 50.9945C133.505 51.066 133.325 51.1779 133.208 51.3261C133.088 51.4783 133.009 51.6411 132.96 51.8218L130.947 59.8689C130.929 59.949 130.912 60.0323 130.896 60.1124C130.878 60.1918 130.868 60.2613 130.868 60.3143C130.868 60.5578 130.979 60.7359 131.2 60.849C131.42 60.9622 131.855 61.0509 132.501 61.1091L132.349 61.7074H125.473L125.625 61.1091C125.864 61.082 126.11 61.0542 126.361 61.0211C126.611 60.9867 126.804 60.949 126.936 60.9079C127.18 60.8272 127.368 60.7167 127.5 60.5783C127.631 60.4394 127.722 60.2627 127.778 60.0383L129.937 51.4049H129.845L122.939 61.5247H121.807C121.794 61.3149 121.751 60.9735 121.68 60.5062C121.61 60.0383 121.543 59.5982 121.484 59.1879L120.262 51.2745H120.171L118.376 58.3215C118.305 58.5902 118.248 58.853 118.208 59.1104C118.165 59.3679 118.143 59.5955 118.143 59.7974C118.143 60.0138 118.171 60.1819 118.22 60.3037C118.272 60.4255 118.342 60.5254 118.432 60.6055C118.557 60.7186 118.792 60.8272 119.136 60.9265C119.478 61.0257 119.736 61.0873 119.902 61.1098L119.751 61.7081H114.257L114.408 61.1098C114.564 61.0932 114.817 61.0575 115.17 60.9993C115.525 60.9443 115.825 60.8431 116.077 60.7054C116.346 60.5532 116.57 60.3044 116.747 59.9556C116.922 59.6061 117.096 59.0886 117.27 58.4023L118.725 52.7232C118.772 52.5266 118.805 52.3797 118.817 52.2771C118.832 52.1752 118.842 52.0733 118.842 51.9753C118.842 51.8092 118.817 51.6616 118.765 51.5379C118.713 51.4135 118.637 51.3049 118.536 51.2136C118.353 51.0528 118.131 50.9449 117.881 50.8946C117.629 50.8423 117.384 50.8086 117.146 50.7927L117.299 50.1944H123.142L124.371 57.798L128.532 51.6239C128.712 51.3413 128.877 51.0534 129.028 50.7543C129.174 50.4585 129.261 50.2698 129.285 50.1944H135.221H135.22ZM82.6996 38.8984C102.207 39.4742 111.962 39.4617 111.962 39.4617C108.969 40.0043 107.372 40.9289 107.171 42.2334C107.579 43.9488 108.777 44.7026 110.764 44.4968C112.839 44.2287 113.646 43.5127 113.185 42.3485C112.05 41.8965 111.217 42.1202 110.686 43.0183C109.474 43.6523 108.779 43.3108 108.603 41.9958C109.991 40.7807 111.681 40.4206 113.676 40.9163C115.533 42.334 115.682 43.5385 114.122 44.5292C111.856 45.4286 108.593 45.4286 104.334 44.5292C89.5115 43.737 82.1012 43.3419 82.1012 43.3419C79.6282 42.9567 79.3286 39.0692 82.6996 38.8984ZM97.8365 22.9612V27.95C94.8096 29.856 94.1407 31.7111 95.8325 33.5165C96.1899 33.8421 96.3114 34.2035 96.1972 34.6026C95.6405 36.9328 89.38 35.8236 94.4788 29.6687C94.6953 29.3351 94.5731 29.2279 94.1141 29.3451C84.4114 29.5423 84.5124 41.1162 96.1972 37.4438C96.3931 38.136 97.434 38.5205 99.3205 38.5986C101.207 38.5212 102.249 38.136 102.444 37.4438C114.129 41.1162 114.23 29.5423 104.527 29.3451C104.069 29.2279 103.948 29.3351 104.163 29.6687C109.262 35.8236 103.002 36.9328 102.444 34.6026C102.33 34.2042 102.451 33.8421 102.808 33.5165C104.499 31.7111 103.831 29.856 100.804 27.95V22.9612H97.8365ZM116.333 19.658C115.535 19.658 114.888 20.2318 114.888 20.94C114.888 21.6481 115.535 22.2219 116.333 22.2219C117.131 22.2219 117.778 21.6481 117.778 20.94C117.778 20.2318 117.131 19.658 116.333 19.658ZM109.916 30.0287C108.495 26.6667 110.144 24.1723 114.862 22.5449C115.836 27.2014 114.186 29.6958 109.916 30.0287ZM107.339 7.39316C107.339 11.3965 104.355 9.50702 103.798 12.374C103.404 14.3959 104.183 13.6077 101.919 15.292C100.49 16.3562 102.599 17.5005 100.504 18.9876C99.6778 19.574 101.713 21.0326 101.663 22.0823C101.593 23.523 103.902 22.4721 103.902 26.6713C103.902 27.173 103.946 27.7554 104.909 27.4331C105.067 27.3795 106.116 25.0902 106.245 24.6693C107.919 24.2219 110.228 22.5641 111.256 21.3006C112.139 20.2166 112.774 21.5905 112.956 18.8605C113.014 18.0002 115.6 17.39 113.001 14.9763C112.03 14.0742 113.606 12.7354 111.925 12.235C111.174 12.0107 110.518 9.78299 109.837 8.82799C109.5 8.35611 108.234 7.25352 107.598 7.16153L107.338 7.3925L107.339 7.39316ZM108.848 11.2966C108.392 16.0551 107.333 19.9274 105.671 22.9142C109.203 20.0571 110.263 16.1848 108.848 11.2966ZM128.732 34.7224C132.757 21.4118 136.783 13.7579 140.812 12.0405C143.784 10.8247 144.917 9.81939 144.209 9.02653C142.191 8.2853 137.467 9.87499 130.034 13.7963C122.606 17.879 117.355 24.6925 114.283 34.2379C112.816 36.7025 114.005 38.2115 117.85 38.7648C116.866 43.3637 118.246 45.6887 121.989 45.7403C125.884 45.2678 127.298 44.2751 126.233 42.7608C125.16 42.2029 124.274 42.3565 123.577 43.2228C121.403 44.2307 120.163 43.5993 119.854 41.3286C119.719 40.2009 120.032 39.4153 120.792 38.9726C124.215 39.7985 126.558 38.9977 127.821 36.5702C128.428 35.3385 128.732 34.7224 128.732 34.7224ZM56.0812 14.2231C57.4582 14.3052 58.2041 14.2073 58.3191 13.9286C56.2878 11.9385 54.1575 12.3045 52.0718 14.8903C53.3412 14.5296 54.2233 14.5944 54.8025 14.9703C55.9151 15.6917 57.3944 16.5375 58.6658 14.7976C57.4894 14.7983 56.6279 14.6077 56.0812 14.2231ZM68.7298 16.6507C68.8952 15.6083 68.876 15.0339 68.672 14.926C67.0001 16.3231 67.1204 17.971 68.9397 19.7513C68.7591 18.7586 68.8746 18.0921 69.2054 17.6792C69.8398 16.8863 70.5957 15.8234 69.3622 14.7261C69.2752 15.6222 69.0639 16.2635 68.7298 16.6507ZM76.8881 5.3991C77.0276 6.72472 77.2389 7.4203 77.5232 7.48582C79.1067 5.2343 78.4192 3.26142 75.6154 1.68166C76.1608 2.83521 76.2392 3.68631 75.9708 4.29783C75.4567 5.47256 74.8808 7.01725 76.7466 7.95372C76.5593 6.8326 76.6065 5.98018 76.8881 5.39844V5.3991ZM61.6635 17.9618C71.6007 5.0351 94.587 11.2595 93.218 27.8692C91.847 11.1179 72.8243 7.27139 61.6635 17.9618ZM76.0219 8.67511C66.1207 10.4349 59.0099 15.3185 54.6903 23.3238C55.1273 19.5309 58.7189 15.0809 62.9641 12.2939C67.6066 9.2456 73.0342 8.05366 76.0219 8.67511ZM69.0254 0.152189C70.7359 -0.388518 72.5619 0.557223 73.1032 2.26538C73.6446 3.97288 72.6967 5.79487 70.9863 6.33557C69.2758 6.87628 67.4498 5.93054 66.9085 4.22238C66.3671 2.51489 67.315 0.692234 69.0254 0.151527V0.152189ZM88.0781 4.68963C90.1439 4.03641 92.3492 5.17937 93.0035 7.24161C93.6578 9.30317 92.5126 11.5051 90.4468 12.1576C88.381 12.8108 86.1757 11.6679 85.5214 9.60629C84.8671 7.5434 86.0116 5.34218 88.0781 4.68963ZM58.7196 7.00931C60.0308 6.59567 61.4291 7.32036 61.8442 8.62878C62.2594 9.93654 61.5327 11.333 60.2221 11.7473C58.9116 12.1616 57.5127 11.4375 57.0975 10.1285C56.6823 8.82005 57.4097 7.42361 58.7196 7.00931ZM76.0213 14.7275L78.1509 20.2457H73.8924L76.0213 14.7275ZM68.6023 28.4013C68.6023 24.6263 71.9249 21.5647 76.0213 21.5647C80.1177 21.5647 83.4409 24.6263 83.4409 28.4013C83.4409 32.1763 80.1184 35.2379 76.0213 35.2379C71.9242 35.2379 68.6023 32.1757 68.6023 28.4013ZM90.8606 28.4013L84.8711 30.3629V26.439L90.8606 28.4013ZM86.5138 18.7334L83.785 24.0207L80.7753 21.249L86.5138 18.7334ZM65.5301 18.7334L71.2686 21.2484L68.2575 24.0201L65.5301 18.7334ZM61.1826 28.4013L67.1722 26.439V30.3629L61.1826 28.4013ZM65.5301 38.0685L68.2575 32.7819L71.2686 35.5529L65.5301 38.0685ZM76.0213 42.0739L73.8924 36.5556H78.1509L76.0213 42.0739ZM86.5138 38.0685L80.7753 35.5529L83.785 32.7819L86.5138 38.0685ZM67.301 39.4358C47.7927 40.011 38.0382 39.9984 38.0382 39.9984C41.0307 40.5417 42.6275 41.4656 42.8288 42.7701C42.4203 44.4855 41.222 45.2393 39.2359 45.0335C37.1607 44.7661 36.3543 44.0501 36.8153 42.8859C37.9499 42.4346 38.7828 42.6576 39.3142 43.5557C40.5265 44.1897 41.2213 43.8482 41.3967 42.5325C40.0097 41.3181 38.3185 40.958 36.3244 41.4537C34.4672 42.8713 34.3191 44.0759 35.8787 45.0673C38.1445 45.9667 41.4073 45.9667 45.6671 45.0673C60.4898 44.2751 67.9008 43.8793 67.9008 43.8793C70.3732 43.4948 70.6708 39.6066 67.301 39.4358ZM52.1635 23.4986V28.4874C55.1904 30.3934 55.8587 32.2485 54.1675 34.0539C53.8101 34.3795 53.6886 34.7416 53.8035 35.1393C54.3601 37.4696 60.6207 36.361 55.5219 30.2054C55.3067 29.8719 55.4282 29.7647 55.8866 29.8818C65.5886 30.079 65.4883 41.6529 53.8035 37.9805C53.6075 38.6728 52.566 39.0573 50.6795 39.1354C48.7937 39.0573 47.7522 38.6728 47.5562 37.9805C35.8714 41.6536 35.7705 30.079 45.4731 29.8818C45.9315 29.764 46.0537 29.8719 45.8378 30.2054C40.7384 36.361 46.9996 37.4696 47.5562 35.1393C47.6705 34.7416 47.5489 34.3795 47.1916 34.0539C45.501 32.2478 46.1693 30.3927 49.1956 28.4874V23.4986H52.1635ZM33.6675 20.1954C34.4652 20.1954 35.1122 20.7699 35.1122 21.478C35.1122 22.1862 34.4652 22.76 33.6675 22.76C32.8697 22.76 32.222 22.1868 32.222 21.478C32.222 20.7692 32.8697 20.1954 33.6675 20.1954ZM40.0848 30.5668C41.5056 27.2041 39.8569 24.7097 35.1381 23.0829C34.1643 27.7395 35.813 30.2339 40.0848 30.5668ZM42.662 7.93122C42.662 11.9346 45.6452 10.0451 46.2032 12.9121C46.5957 14.9353 45.8172 14.1451 48.0817 15.8307C49.5111 16.8943 47.4008 18.0392 49.4965 19.5263C50.3222 20.112 48.2862 21.572 48.3374 22.6216C48.4071 24.0618 46.0982 23.0115 46.0982 27.2107C46.0982 27.7124 46.0544 28.2948 45.0912 27.9718C44.9331 27.9188 43.8836 25.629 43.7554 25.208C42.0802 24.7606 39.7719 23.1021 38.7436 21.8394C37.8602 20.7553 37.2258 22.1292 37.0432 19.3986C36.9847 18.5389 34.3995 17.928 36.998 15.5144C37.9691 14.6123 36.3935 13.2741 38.0754 12.7731C38.8253 12.5501 39.481 10.3217 40.1625 9.36671C40.4999 8.89483 41.766 7.79224 42.4017 7.70025L42.662 7.93122ZM41.1529 11.8346C41.6085 16.5931 42.6674 20.4654 44.3286 23.4529C40.7968 20.5958 39.7387 16.7228 41.1529 11.8346Z" fill="#454545"/>
</g>
<defs>
<clipPath id="clip0_795_1246">
<rect width="150" height="66" fill="white"/>
</clipPath>
</defs>
</svg>
