<svg width="139" height="79" viewBox="0 0 139 79" fill="none" xmlns="http://www.w3.org/2000/svg">
<g clip-path="url(#clip0_795_1242)">
<path fill-rule="evenodd" clip-rule="evenodd" d="M69.4998 8.03857C100.857 8.03857 126.277 22.1244 126.277 39.4999C126.277 56.8754 100.857 70.9612 69.4998 70.9612C38.1426 70.9612 12.7228 56.8754 12.7228 39.4999C12.7228 22.1244 38.1426 8.03857 69.4998 8.03857ZM69.4998 10.0929C99.4577 10.0929 123.743 23.2587 123.743 39.4999C123.743 55.7411 99.4577 68.9069 69.4998 68.9069C39.5418 68.9069 15.2568 55.7411 15.2568 39.4999C15.2568 23.2587 39.5424 10.0929 69.5003 10.0929H69.4998Z" fill="#454545"/>
<path fill-rule="evenodd" clip-rule="evenodd" d="M69.4997 0C107.884 0 139 17.6847 139 39.5C139 61.3153 107.884 79 69.4997 79C31.1158 79 0 61.3153 0 39.5C0 17.6847 31.1163 0 69.4997 0ZM69.4997 2.22781C105.719 2.22781 135.08 18.9155 135.08 39.5C135.08 60.0845 105.719 76.7722 69.4997 76.7722C33.2806 76.7722 3.91932 60.085 3.91932 39.5C3.91932 18.915 33.2811 2.22781 69.4997 2.22781Z" fill="#454545"/>
<path d="M53.9668 27.3081C53.2664 28.4021 52.6138 29.5553 52.0094 30.7682C49.3476 28.8512 46.6919 27.0061 44.0419 25.2334C43.456 28.1516 42.9615 31.429 42.5569 35.0672L40.8214 34.0615C41.3308 31.0968 41.8268 27.7771 42.311 24.1032L40.4532 23.0102C41.1362 21.9381 41.778 20.8508 42.3788 19.7481C46.2164 22.4356 50.0793 24.9558 53.9678 27.3076L53.9668 27.3081ZM64.5288 59.1368L63.6785 59.8252C67.3303 61.0131 64.9252 65.4274 59.6468 63.3986L61.2031 61.5397C63.371 62.6801 64.7383 60.9947 62.0555 60.2538L62.9443 58.7439C61.9086 58.3735 61.0429 57.804 60.3482 57.0361C59.1903 55.7523 58.7112 54.1199 58.9115 52.1391C59.1169 50.1093 59.9569 48.5463 61.4306 47.4508C62.8524 46.3752 64.591 45.9399 66.6459 46.145C67.3144 46.2119 67.9285 46.3226 68.4882 46.4782L69.2784 48.1233C68.3378 47.9054 67.7129 47.7804 67.4033 47.7498C66.0292 47.6125 64.9406 47.8641 64.1381 48.5045C63.3355 49.1449 62.8657 50.1419 62.7286 51.4951C62.5725 53.0331 62.9474 54.2761 63.8521 55.2236C64.7106 56.1299 65.926 56.661 67.4988 56.8182C67.7216 56.8407 68.1889 56.8565 68.901 56.8651L66.4831 59.2516C66.1304 59.2787 65.6569 59.2624 65.0623 59.2027C64.8811 59.1848 64.7034 59.1623 64.5294 59.1358L64.5288 59.1368ZM58.5777 56.8703C57.3377 57.2723 56.0961 57.751 54.854 58.3061C54.0243 55.1451 53.1529 52.0437 52.2405 49.001C49.9227 50.8843 47.4441 53.103 44.8059 55.6568L44.1086 53.7847C46.3977 51.8166 48.9034 49.5668 51.6264 47.0354L50.8906 45.0184C52.1034 44.6219 53.2941 44.1871 54.4633 43.7157C55.7079 48.2141 57.0799 52.5993 58.5782 56.8708L58.5777 56.8703ZM53.0184 54.9823C52.2014 55.3425 51.2089 55.8293 50.0408 56.4426C49.4097 55.4318 48.7787 54.5174 48.1476 53.6985C49.2433 53.0667 50.2939 52.4095 51.2998 51.7283C51.7301 52.6728 52.3026 53.7582 53.0184 54.9828V54.9823ZM82.8407 56.5279C81.8087 57.3208 80.8017 58.1862 79.8195 59.1241C77.9689 56.4243 76.0994 53.7939 74.2103 51.2339C72.6643 53.7821 71.0807 56.6993 69.4597 59.9859L68.1693 58.4551C69.6594 55.837 71.2589 52.881 72.9667 49.5873L71.5911 47.9335C72.5991 47.1548 73.5736 46.3481 74.5153 45.5128C77.2095 49.3337 79.9843 53.0055 82.8407 56.5273V56.5279ZM76.9666 56.607C76.3191 57.2193 75.5489 58.0092 74.6565 58.9766C73.72 58.2357 72.8163 57.5851 71.9449 57.0243C72.7634 56.063 73.5305 55.0935 74.2473 54.1158C74.9718 54.8619 75.8786 55.6926 76.9666 56.607ZM95.1476 53.056C94.343 54.0015 93.6056 55.0695 92.9356 56.2595C90.9854 54.6741 89.0958 53.2132 87.2674 51.8758L86.1362 52.1932C86.7282 54.2756 87.2864 55.9436 87.8106 57.1968C87.426 57.2535 86.8561 57.3877 86.1018 57.5994C85.4312 57.7877 84.929 57.9546 84.5953 58.0995L83.8168 57.8168C83.4266 55.8064 82.9691 53.8791 82.4448 52.0345C82.0187 50.5348 81.6623 49.3954 81.3758 48.6147C81.1725 48.0805 80.8793 47.2763 80.4957 46.2022L81.1129 45.5087C82.298 45.2658 82.9922 45.1158 83.1961 45.0587C83.4713 44.9816 83.8749 44.8423 84.4058 44.6418C84.9372 44.4413 85.3403 44.3025 85.616 44.2249C86.969 43.8453 88.2009 43.7881 89.3105 44.055C90.6701 44.38 91.5276 45.1674 91.8824 46.417C92.3389 48.0233 91.8824 49.2821 90.512 50.1935C91.8865 51.118 93.4316 52.0722 95.1466 53.0555L95.1476 53.056ZM88.5059 47.6355C88.0222 45.9338 86.6687 45.2663 84.4458 45.6337C84.984 47.9366 85.4055 49.6235 85.71 50.6945L85.9031 51.3732C88.1151 50.5593 88.9829 49.3127 88.5059 47.6355ZM48.4675 29.3614C48.067 30.1559 47.6115 31.1581 47.1022 32.3689C45.9684 31.9873 44.8963 31.6791 43.8853 31.4454C44.3274 30.2656 44.7186 29.0946 45.0596 27.9337C45.9956 28.3919 47.132 28.868 48.4675 29.3614ZM64.3615 26.529L63.8197 28.2465C62.5823 28.3889 61.2262 28.5741 59.7515 28.8032C58.6327 28.9772 57.5539 29.1635 56.5146 29.3625L55.8194 28.9073C55.5796 26.7417 55.3192 24.767 55.0384 22.9837C54.7539 21.1758 54.4032 19.2654 53.9858 17.2524L54.5331 16.5293C55.0076 16.5059 55.5282 16.4497 56.0936 16.362C56.6219 16.2798 57.159 16.1716 57.7048 16.0364C57.8943 17.8841 58.1479 19.8159 58.4653 21.8315C58.7821 23.8475 59.1261 25.7146 59.4973 27.4342L60.1243 27.3367C61.5132 27.1209 62.9258 26.852 64.3609 26.5285L64.3615 26.529ZM73.1238 15.0776L72.4804 16.637L69.794 16.7171C69.7015 18.6 69.6795 20.3206 69.7262 21.8779C69.7683 23.2623 69.9064 25.361 70.1411 28.1746C69.7293 28.1373 69.0695 28.1327 68.1616 28.1598C67.5023 28.1797 66.993 28.2195 66.6336 28.2797L66.0549 27.6663C66.0975 25.7845 66.098 24.1639 66.0569 22.8046C65.9927 20.691 65.9085 19.1409 65.8038 18.1545C65.7699 17.8586 65.7191 17.4208 65.6523 16.8416L62.9658 16.9222L62.247 15.3853C64.7373 15.3976 66.5791 15.3853 67.773 15.3496C69.5018 15.2981 71.2856 15.2067 73.1238 15.0776ZM86.3359 17.8713L81.784 22.8602C81.7532 22.9934 81.7224 23.1765 81.6911 23.4087C81.4431 25.2472 81.3476 27.1183 81.4046 29.0221C80.7684 28.8997 80.1235 28.795 79.4698 28.7078C78.8285 28.6226 78.2031 28.5578 77.5936 28.5139L77.2126 28.1261C77.5777 26.8147 77.9001 25.1237 78.1795 23.0525C76.9322 20.8528 75.7898 18.9914 74.7525 17.4687L75.0165 16.9049C76.046 16.4431 77.0745 15.8441 78.1024 15.1083C78.9045 17.0738 79.878 19.0684 81.0236 21.0926L85.3721 16.0767L86.3354 17.8708L86.3359 17.8713ZM98.4857 32.5986C97.2744 32.9818 96.1386 33.4094 95.0783 33.8819C94.3096 31.4352 93.1384 27.7776 91.5641 22.9086L88.5829 30.0335L86.4843 30.1702L90.626 20.2716L90.2594 19.2159C91.5014 18.9526 92.7024 18.6587 93.8624 18.3346C94.9699 22.3545 96.0806 25.8197 97.1938 28.7302L100.031 21.9483L102.078 21.7902L98.0513 31.4147L98.4857 32.5986Z" fill="#454545"/>
</g>
<defs>
<clipPath id="clip0_795_1242">
<rect width="139" height="79" fill="white"/>
</clipPath>
</defs>
</svg>
