<svg width="203" height="84" viewBox="0 0 203 84" fill="none" xmlns="http://www.w3.org/2000/svg">
<g clip-path="url(#clip0_795_1375)">
<path fill-rule="evenodd" clip-rule="evenodd" d="M96.2088 0.392646C85.6208 2.00769 75.6124 9.51581 65.9084 20.3899C47.3768 18.3203 30.4351 20.8802 15.4319 29.0407C0.915993 36.9359 -4.36999 48.0453 3.95338 58.6813C12.682 69.8366 33.0513 76.5508 59.8487 80.7351C90.6062 85.5371 119.951 84.9447 147.684 79.6009C168.068 75.6735 186.204 69.8788 197.163 58.611C204.809 50.7486 204.985 41.9591 197.447 34.2879C187.529 24.1927 169.135 16.6462 141.624 11.951C131.737 10.2638 122.388 9.64891 113.605 9.3274C106.469 11.7654 101.562 16.604 97.8486 22.7295C100.964 16.036 104.784 10.7943 110.467 9.3977C104.278 9.69109 98.2246 10.3004 92.5014 11.5958C89.4037 12.2969 86.7442 14.644 84.5879 18.8995C85.4719 15.9113 86.6726 13.3524 89.0795 12.4469C82.9001 13.9672 76.7216 16.1269 70.5422 18.6868C74.2874 16.2937 78.5848 14.2485 83.3751 12.5172C82.8756 11.7401 82.1169 11.1665 81.1651 10.7447C82.1188 10.5338 83.2299 10.979 84.5154 12.1629C90.7607 9.55236 96.7347 8.41537 102.553 8.12104C102.74 7.61394 100.908 5.98671 98.2039 3.65366C100.452 4.36042 102.253 5.6652 103.409 7.83703C108.88 7.32524 114.168 7.28493 119.307 7.62425C113.775 2.22703 106.657 -1.20271 96.2079 0.391709L96.2088 0.392646ZM89.6986 29.0529C81.5242 26.8782 74.2742 21.9187 65.8151 21.0386C47.5437 19.1376 30.9384 22.6405 17.1735 31.5874C-1.02537 43.4167 2.31076 56.2133 20.8452 66.405C50.1532 82.5217 98.7759 86.8504 148.32 77.1835C165.306 73.8691 181.737 69.0502 192.025 55.7681C199.083 46.6543 195.246 36.9875 184.467 29.6724C168.946 19.1376 147.277 13.2633 119.589 11.5189C119.309 16.1334 117.444 20.5605 113.35 24.6905C107.52 30.5713 99.9125 32.6372 89.6977 29.0519L89.6986 29.0529Z" fill="#454545"/>
<path d="M50.3237 55.5949C50.3237 58.076 49.55 60.2366 48.0035 62.0832C46.3534 64.0385 44.3036 65.0133 41.8477 65.0133C40.2098 65.0133 38.7726 64.5962 37.522 63.7694C37.0188 63.3401 36.5165 62.9165 36.0132 62.5003C35.8785 62.5387 35.787 62.9165 35.7428 63.6345C35.6975 64.3459 35.5948 64.7049 35.4327 64.7049H31.4425C31.2946 64.7049 31.2173 64.6215 31.2173 64.4612C31.2173 64.4743 31.2296 64.3581 31.2559 64.1209C31.4623 62.1207 31.566 58.286 31.566 52.6244C31.566 50.3101 31.4623 46.9057 31.2559 42.4243C31.1268 39.571 31.0627 38.314 31.0627 38.6674C31.0627 38.3403 31.2239 38.1612 31.5528 38.1219C32.0108 38.1087 32.6809 38.0834 33.5771 38.0516C33.7514 38.0384 34.1124 37.9934 34.6533 37.9231C35.1047 37.8528 35.4723 37.8135 35.7494 37.8135C35.9491 37.8135 36.0528 37.955 36.0528 38.2428C36.0528 38.6721 36.0198 39.3198 35.9623 40.1915C35.8983 41.0698 35.8719 41.7241 35.8719 42.1599C35.8719 42.8142 35.8398 43.7881 35.788 45.0966C35.7305 46.4042 35.7051 47.3791 35.7051 48.0333C35.7051 48.5076 35.7955 48.7448 35.9689 48.7448C36.0594 48.7448 36.1489 48.6745 36.2526 48.5395C37.6323 46.8279 39.4634 45.9684 41.7384 45.9684C44.3423 45.9684 46.4504 46.9366 48.062 48.8797C49.5698 50.7132 50.3247 52.9516 50.3247 55.5921L50.3237 55.5949ZM46.0697 55.4215C46.0697 53.9339 45.5994 52.6197 44.6514 51.4846C43.6458 50.2726 42.4075 49.6643 40.9317 49.6643C39.4229 49.6643 38.1666 50.2605 37.1601 51.4462C36.1866 52.5748 35.7041 53.8955 35.7041 55.4215C35.7041 56.9728 36.1876 58.3132 37.1601 59.4417C38.1657 60.6143 39.4361 61.2049 40.9703 61.2049C42.4593 61.2049 43.6967 60.5956 44.69 59.3836C45.6117 58.2551 46.0697 56.9409 46.0697 55.4215ZM69.0117 54.575C69.0117 55.4983 68.6122 56.1207 67.8064 56.4347C67.2589 56.6335 63.3582 57.0056 56.0932 57.5502C56.2543 58.6534 56.8669 59.5889 57.9299 60.365C58.9421 61.1027 60.0249 61.4739 61.185 61.4739C63.1829 61.4739 65.014 60.8393 66.6774 59.5758C66.8838 59.4089 67.0836 59.2486 67.2834 59.0884C67.387 59.0884 67.4511 59.1005 67.4832 59.1268C67.5152 59.153 67.7536 59.5823 68.1928 60.4222C68.6376 61.2686 68.8563 61.7176 68.8563 61.7813C68.8563 61.8582 68.7535 61.9988 68.5537 62.2106C66.7038 64.1528 64.3317 65.1277 61.43 65.1277C58.5105 65.1277 56.1827 64.2616 54.4421 62.5247C52.708 60.7934 51.8382 58.4791 51.8382 55.5874C51.8382 53.0031 52.6694 50.7591 54.3262 48.8423C56.08 46.8485 58.2202 45.854 60.7656 45.854C63.132 45.854 65.1036 46.7201 66.6896 48.4448C68.2371 50.1245 69.0099 52.1698 69.0099 54.5741L69.0117 54.575ZM64.5249 53.4343C64.5249 52.3957 64.1122 51.4724 63.2875 50.671C62.4629 49.8696 61.5347 49.4721 60.4961 49.4721C59.336 49.4721 58.3107 49.9343 57.4078 50.8575C56.505 51.7808 56.0545 52.8194 56.0545 53.9667C56.0545 54.2292 56.2798 54.3576 56.7312 54.3576C58.6009 54.3576 60.8307 54.172 63.4289 53.8064C64.1564 53.7033 64.5249 53.5815 64.5249 53.4343ZM82.4713 47.0229C82.4713 48.4017 82.3742 49.6587 82.1876 50.7863C82.149 51.075 82.0198 51.2156 81.8069 51.2156C81.543 51.2156 81.1425 51.1894 80.6081 51.1322C80.0662 51.0741 79.661 51.0488 79.383 51.0488C77.7912 51.0488 76.7725 51.4912 76.3343 52.3826C76.0704 52.9206 75.9347 54.0436 75.9347 55.742V57.8126C75.9347 58.5119 75.9601 59.5758 76.012 61.0052C76.0638 62.429 76.0893 63.4929 76.0893 64.1987C76.0893 64.5315 75.9469 64.7049 75.6576 64.7049C75.2712 64.7049 74.6841 64.6984 73.8981 64.6862C73.1112 64.673 72.5185 64.6665 72.1321 64.6665C71.8484 64.6665 71.7004 64.5128 71.7004 64.1987C71.7004 63.1855 71.7202 61.6529 71.7523 59.6142C71.7843 57.5755 71.7975 56.0364 71.7975 55.0109C71.7975 51.9205 71.5138 49.4328 70.9465 47.5543C70.9211 47.4512 70.9079 47.3809 70.9079 47.3294C70.9079 47.1757 70.9918 47.0726 71.1529 47.0088C71.61 46.9573 72.2612 46.8804 73.0999 46.7782C74.4476 46.5214 75.0724 46.3939 74.9697 46.3939C75.1695 46.3939 75.3042 46.766 75.3627 47.5094C75.4267 48.2592 75.5436 48.6314 75.7048 48.6314C75.7302 48.6314 75.7632 48.6182 75.8009 48.5929C76.3164 48.2658 76.8319 47.9387 77.3549 47.605C77.9222 47.2656 78.5018 47.0154 79.1021 46.8485C79.5922 46.7014 80.2236 46.6245 80.9973 46.6245C81.984 46.6245 82.4731 46.7585 82.4731 47.0219L82.4713 47.0229ZM100.534 54.576C100.534 55.4993 100.134 56.1217 99.3282 56.4357C98.7806 56.6344 94.88 57.0065 87.6149 57.5511C87.7761 58.6544 88.3887 59.5898 89.4517 60.366C90.4638 61.1036 91.5467 61.4748 92.7068 61.4748C94.7047 61.4748 96.5358 60.8402 98.1992 59.5767C98.4055 59.4099 98.6053 59.2496 98.8051 59.0893C98.9088 59.0893 98.9729 59.1015 99.0049 59.1277C99.037 59.154 99.2754 59.5833 99.7146 60.4231C100.159 61.2695 100.378 61.7185 100.378 61.7823C100.378 61.8591 100.275 61.9997 100.075 62.2116C98.2246 64.1538 95.8535 65.1286 92.9518 65.1286C90.0313 65.1286 87.7045 64.2625 85.9638 62.5256C84.2298 60.7943 83.36 58.48 83.36 55.5883C83.36 53.0041 84.1912 50.7601 85.8479 48.8432C87.6008 46.8495 89.741 45.8549 92.2874 45.8549C94.6538 45.8549 96.6253 46.721 98.2114 48.4458C99.7588 50.1255 100.532 52.1708 100.532 54.575L100.534 54.576ZM96.0467 53.4352C96.0467 52.3967 95.6339 51.4734 94.8093 50.6719C93.9847 49.8705 93.0564 49.4731 92.0179 49.4731C90.8578 49.4731 89.8324 49.9352 88.9305 50.8585C88.0277 51.7818 87.5772 52.8203 87.5772 53.9676C87.5772 54.2301 87.8025 54.3585 88.2539 54.3585C90.1227 54.3585 92.3534 54.1729 94.9516 53.8074C95.6801 53.7043 96.0467 53.5824 96.0467 53.4352ZM121.767 51.7808C121.767 55.0315 120.252 57.2118 117.216 58.3141C117.216 58.9487 117.842 60.1091 119.105 61.7832C120.362 63.4564 120.993 64.2897 120.993 64.2897C120.993 64.4828 120.362 64.6037 119.098 64.6684C118.26 64.7068 117.634 64.7265 117.223 64.7265C116.32 64.7265 115.759 64.5409 115.534 64.1688C114.948 63.162 114.019 61.6998 112.756 59.7764C112.607 59.5523 111.24 59.4558 108.656 59.4942L107.921 59.513V64.1613C107.921 64.5531 107.779 64.7443 107.503 64.7443C107.103 64.7443 106.504 64.7377 105.717 64.7255C104.93 64.7124 104.33 64.7058 103.931 64.7058C103.654 64.7058 103.512 64.4621 103.512 63.9747V52.2861C103.512 50.7601 103.454 48.4776 103.338 45.4322C103.222 42.3868 103.164 40.1043 103.164 38.5784C103.164 38.3478 103.28 38.2259 103.518 38.1997C103.931 38.1865 104.556 38.1612 105.394 38.1228C105.568 38.1097 105.934 38.0647 106.496 37.9888C106.948 37.925 107.308 37.8922 107.579 37.8922C107.753 37.8922 107.843 38.0394 107.843 38.3412C107.843 39.0208 107.816 40.0275 107.766 41.3679C107.715 42.7073 107.688 43.7141 107.688 44.388V49.2284C107.688 49.4909 107.747 49.6259 107.856 49.6259C108.159 49.3765 108.617 49.01 109.216 48.5236C111.336 46.901 113.348 46.0865 115.269 46.0865C117.132 46.0865 118.654 46.5617 119.84 47.5169C121.122 48.5554 121.767 49.9736 121.767 51.7808ZM117.203 52.6591C117.203 50.8707 116.036 49.9727 113.709 49.9727C111.975 49.9727 110.022 51.1266 107.843 53.4352V56.2304C108.862 56.416 110.092 56.5125 111.543 56.5125C112.993 56.5125 114.244 56.237 115.275 55.6858C116.557 54.9997 117.203 53.9873 117.203 52.6591ZM140.325 54.576C140.325 55.4993 139.925 56.1217 139.12 56.4357C138.572 56.6344 134.671 57.0065 127.406 57.5511C127.568 58.6544 128.18 59.5898 129.243 60.366C130.255 61.1036 131.338 61.4748 132.498 61.4748C134.496 61.4748 136.327 60.8402 137.991 59.5767C138.197 59.4099 138.397 59.2496 138.597 59.0893C138.7 59.0893 138.764 59.1015 138.796 59.1277C138.828 59.154 139.067 59.5833 139.506 60.4231C139.951 61.2695 140.169 61.7185 140.169 61.7823C140.169 61.8591 140.067 61.9997 139.867 62.2116C138.017 64.1538 135.645 65.1286 132.744 65.1286C129.824 65.1286 127.497 64.2625 125.756 62.5256C124.022 60.7943 123.151 58.48 123.151 55.5883C123.151 53.0041 123.983 50.7601 125.639 48.8432C127.392 46.8495 129.532 45.8549 132.079 45.8549C134.445 45.8549 136.417 46.721 138.003 48.4458C139.55 50.1255 140.323 52.1708 140.323 54.575L140.325 54.576ZM135.838 53.4352C135.838 52.3967 135.425 51.4734 134.601 50.6719C133.776 49.8705 132.848 49.4731 131.809 49.4731C130.649 49.4731 129.624 49.9352 128.722 50.8585C127.819 51.7818 127.369 52.8203 127.369 53.9676C127.369 54.2301 127.594 54.3585 128.045 54.3585C129.914 54.3585 132.145 54.1729 134.743 53.8074C135.472 53.7043 135.838 53.5824 135.838 53.4352ZM153.514 61.2321C153.514 61.5076 153.489 61.8798 153.437 62.3541C153.378 62.9371 153.34 63.3158 153.326 63.4882C153.313 63.7132 153.294 63.8472 153.268 63.8988C153.216 63.9878 153.1 64.0713 152.914 64.1613C151.883 64.6552 150.265 64.8989 148.053 64.8989C145.133 64.8989 143.663 63.5717 143.65 60.9171C143.65 59.8532 143.67 58.256 143.708 56.1217C143.747 53.9864 143.767 52.3835 143.767 51.3197C143.767 50.8069 143.508 50.5313 142.993 50.492C142.523 50.492 142.065 50.4854 141.613 50.4723C141.349 50.4086 141.214 49.8958 141.214 48.9276C141.214 48.5686 141.24 48.1833 141.291 47.7793C141.33 47.4784 141.529 47.2985 141.897 47.2338C142.206 47.2338 142.516 47.2272 142.819 47.215C143.399 47.1888 143.689 46.9329 143.689 46.4455C143.689 45.9459 143.676 45.1829 143.651 44.1499C143.625 43.1245 143.612 42.3549 143.612 41.8422C143.612 40.9255 143.786 40.4699 144.141 40.4699C144.251 40.4699 145.43 40.6621 147.667 41.0464C147.958 41.0848 148.099 41.2198 148.099 41.4569C148.099 42.0146 148.054 42.8414 147.963 43.9446C147.873 45.0479 147.827 45.8746 147.827 46.4258C147.827 46.7913 148.002 46.9704 148.343 46.9704H152.9C153.113 46.9704 153.223 47.0472 153.223 47.1944C153.223 47.3416 153.196 47.5862 153.152 47.919C153.107 48.2461 153.088 48.4964 153.088 48.6567C153.088 48.8423 153.095 49.131 153.107 49.5228C153.12 49.9071 153.126 50.1958 153.126 50.3814C153.126 50.6185 152.951 50.7404 152.597 50.7404C152.088 50.7404 151.328 50.7085 150.302 50.6438C149.283 50.5801 148.523 50.5473 148.014 50.5473C147.917 50.5473 147.84 50.9063 147.788 51.6177C147.761 52.5091 147.749 53.753 147.749 55.3624V58.1641C147.749 59.2411 147.853 59.992 148.052 60.4147C148.349 61.069 148.968 61.3961 149.908 61.3961C150.295 61.3961 150.862 61.3127 151.616 61.1458C152.363 60.979 152.924 60.8956 153.286 60.8956C153.434 60.8956 153.511 61.0043 153.511 61.2292L153.514 61.2321ZM160.972 38.6187L160.953 38.8624C160.683 43.5172 160.547 47.5178 160.547 50.865C160.547 52.3526 160.574 54.5835 160.624 57.5586C160.676 60.5337 160.695 62.758 160.695 64.239C160.695 64.5278 160.599 64.6684 160.398 64.6684H156.789C156.563 64.6684 156.447 64.5268 156.447 64.239C156.447 62.758 156.46 60.5337 156.485 57.5586C156.511 54.5835 156.524 52.3526 156.524 50.865C156.524 49.5125 156.46 47.4794 156.331 44.7676C156.202 42.055 156.138 40.0359 156.138 38.6955C156.138 38.4452 156.267 38.3168 156.531 38.3168C156.757 38.3168 157.098 38.3365 157.549 38.3749C158.001 38.4134 158.336 38.4331 158.568 38.4331C158.8 38.4331 159.154 38.4134 159.619 38.3749C160.084 38.3365 160.425 38.3168 160.651 38.3168C160.877 38.3168 160.985 38.419 160.973 38.6177L160.972 38.6187ZM169.642 42.2031C169.642 43.7422 168.779 44.5108 167.051 44.5108C165.297 44.5108 164.42 43.7412 164.42 42.2031C164.42 41.5169 164.691 40.9461 165.233 40.498C165.735 40.0687 166.342 39.8569 167.051 39.8569C167.754 39.8569 168.365 40.0744 168.875 40.5112C169.384 40.9536 169.642 41.5179 169.642 42.204V42.2031ZM169.488 47.2938C169.488 48.2555 169.429 49.7102 169.313 51.6599C169.198 53.6086 169.139 55.0709 169.139 56.0457C169.139 56.9625 169.159 58.3282 169.198 60.1494C169.236 61.9707 169.256 63.3364 169.256 64.2334C169.256 64.4959 169.14 64.6309 168.914 64.6309H165.226C164.962 64.6309 164.827 64.374 164.827 63.8613C164.827 62.9952 164.853 61.6942 164.897 59.9629C164.943 58.2251 164.962 56.924 164.962 56.0457C164.962 55.0709 164.892 53.603 164.749 51.6477C164.607 49.699 164.536 48.2302 164.536 47.2553C164.536 47.0435 164.666 46.9348 164.929 46.9348C165.156 46.9348 165.503 46.9666 165.974 47.0304C166.444 47.0885 166.799 47.1204 167.037 47.1204C167.274 47.1204 167.629 47.0875 168.101 47.0304C168.571 46.9666 168.925 46.9348 169.164 46.9348C169.377 46.9348 169.486 47.0566 169.486 47.2938H169.488Z" fill="#454545"/>
<path d="M132.965 30.3672C132.965 31.6597 132.538 32.7658 131.688 33.6807C130.815 34.6283 129.739 35.0998 128.452 35.0998C127.157 35.0998 126.077 34.6311 125.204 33.69C124.354 32.7808 123.927 31.6785 123.927 30.3859C123.927 29.0933 124.354 27.991 125.204 27.0818C126.083 26.1538 127.162 25.6917 128.452 25.6917C129.733 25.6917 130.807 26.1538 131.678 27.0818C132.535 27.9844 132.965 29.0821 132.965 30.3672ZM130.997 30.3859C130.997 29.6323 130.764 28.9893 130.296 28.4568C129.811 27.8926 129.197 27.6104 128.452 27.6104C127.706 27.6104 127.085 27.8888 126.595 28.4465C126.127 28.9855 125.894 29.6313 125.894 30.385C125.894 31.1264 126.129 31.7722 126.604 32.314C127.101 32.8905 127.715 33.1782 128.452 33.1782C129.188 33.1782 129.805 32.8895 130.296 32.314C130.764 31.7722 130.997 31.1273 130.997 30.3859ZM143.536 30.4084C143.536 31.6344 143.153 32.7021 142.389 33.6141C141.574 34.5805 140.561 35.0614 139.348 35.0614C138.539 35.0614 137.829 34.8552 137.21 34.4465C136.961 34.2346 136.714 34.0256 136.465 33.8194C136.398 33.8381 136.354 34.0256 136.331 34.3799C136.308 34.7314 136.258 34.9086 136.178 34.9086H134.207C134.133 34.9086 134.096 34.8673 134.096 34.7886C134.096 34.7952 134.102 34.738 134.114 34.6208C134.216 33.6329 134.267 31.7385 134.267 28.9415C134.267 27.7979 134.216 26.1163 134.114 23.9023C134.051 22.4925 134.019 21.872 134.019 22.0464C134.019 21.8851 134.098 21.7961 134.261 21.7773C134.488 21.7708 134.818 21.7586 135.261 21.7427C135.347 21.7361 135.525 21.7145 135.793 21.6789C136.015 21.6442 136.197 21.6255 136.334 21.6255C136.433 21.6255 136.484 21.6949 136.484 21.8373C136.484 22.0492 136.468 22.3697 136.439 22.8C136.407 23.234 136.394 23.5574 136.394 23.772C136.394 24.0954 136.378 24.5762 136.353 25.223C136.323 25.8688 136.311 26.3506 136.311 26.674C136.311 26.9084 136.356 27.0255 136.441 27.0255C136.486 27.0255 136.531 26.9908 136.582 26.9243C137.263 26.0788 138.168 25.6542 139.292 25.6542C140.578 25.6542 141.62 26.1332 142.416 27.0921C143.162 27.9985 143.535 29.1036 143.535 30.4084H143.536ZM141.433 30.3231C141.433 29.5882 141.2 28.9386 140.732 28.3781C140.235 27.7801 139.624 27.4783 138.894 27.4783C138.149 27.4783 137.528 27.7726 137.031 28.3584C136.551 28.9161 136.311 29.5685 136.311 30.3222C136.311 31.0889 136.55 31.7507 137.031 32.3084C137.528 32.8886 138.156 33.1792 138.913 33.1792C139.649 33.1792 140.261 32.8783 140.751 32.2793C141.207 31.7216 141.432 31.073 141.432 30.3222L141.433 30.3231ZM153.953 26.4903C153.953 26.5156 153.944 26.569 153.924 26.6581C153.675 28.0744 153.552 29.293 153.552 30.3193C153.552 30.3831 153.631 31.7704 153.791 34.4849L153.8 34.6143C153.807 34.7952 153.724 34.8833 153.552 34.8833C153.379 34.8833 153.122 34.902 152.774 34.9433C152.43 34.9845 152.173 35.0032 152.003 35.0032C151.886 35.0032 151.797 34.7877 151.733 34.3574C151.669 33.9262 151.612 33.7116 151.555 33.7116C151.516 33.7116 151.351 33.8316 151.051 34.0734C150.685 34.3677 150.341 34.5927 150.026 34.7474C149.532 34.9948 149.041 35.1176 148.551 35.1176C147.344 35.1176 146.325 34.6396 145.497 33.6797C144.713 32.7639 144.322 31.6963 144.322 30.4768C144.322 29.1055 144.717 27.9685 145.506 27.0715C146.335 26.1369 147.423 25.6711 148.774 25.6711C149.726 25.6711 150.558 26.0001 151.264 26.6562C151.37 26.7799 151.535 26.9599 151.761 27.1942C151.777 27.213 151.796 27.2224 151.816 27.2224C151.854 27.2224 151.908 27.0293 151.975 26.6365C152.045 26.2466 152.131 26.0507 152.24 26.0507C152.409 26.0507 152.724 26.0976 153.185 26.1904C153.698 26.301 153.953 26.4022 153.953 26.4875V26.4903ZM151.564 30.3709C151.564 29.6107 151.338 28.9611 150.883 28.4165C150.405 27.8307 149.793 27.5364 149.045 27.5364C148.297 27.5364 147.679 27.8279 147.178 28.4072C146.7 28.9649 146.461 29.6173 146.461 30.3709C146.461 31.118 146.7 31.7675 147.178 32.3187C147.679 32.8924 148.299 33.1801 149.045 33.1801C149.775 33.1801 150.382 32.8858 150.873 32.3C151.335 31.7488 151.564 31.1095 151.564 30.3709ZM169.644 34.5486C169.644 34.7895 169.571 34.9095 169.428 34.9095C169.335 34.9095 169.192 34.9001 169.003 34.8814C168.813 34.8626 168.669 34.8533 168.567 34.8533C168.463 34.8533 168.303 34.8598 168.093 34.872C167.88 34.8851 167.721 34.8908 167.615 34.8908C167.484 34.8908 167.418 34.7455 167.418 34.453C167.418 34.1681 167.432 33.7435 167.453 33.1764C167.476 32.6093 167.485 32.1847 167.485 31.8997C167.485 30.3343 167.479 29.4607 167.466 29.2798C167.418 28.6434 167.288 28.2028 167.074 27.9619C166.832 27.7023 166.4 27.572 165.779 27.572C165.386 27.572 164.947 27.7595 164.457 28.1297C163.947 28.5196 163.684 28.9021 163.664 29.2798C163.638 29.7644 163.625 30.6446 163.625 31.9278C163.625 32.2315 163.638 32.6852 163.664 33.2926C163.689 33.8972 163.699 34.3537 163.699 34.6583C163.699 34.8223 163.644 34.9086 163.534 34.9086C163.419 34.9086 163.257 34.8992 163.044 34.8805C162.827 34.8617 162.664 34.8523 162.554 34.8523C162.452 34.8523 162.308 34.8589 162.113 34.8711C161.919 34.8842 161.773 34.8898 161.674 34.8898C161.55 34.8898 161.487 34.8008 161.487 34.6208C161.487 34.3227 161.496 33.8766 161.515 33.2776C161.534 32.6814 161.543 32.2353 161.543 31.9372V29.6979C161.543 28.9977 161.46 28.5 161.292 28.2028C161.056 27.781 160.604 27.572 159.938 27.572C159.546 27.572 159.082 27.737 158.54 28.0632C157.944 28.424 157.645 28.7849 157.645 29.1495V31.8613C157.645 32.1715 157.647 32.6336 157.654 33.2457C157.661 33.8606 157.663 34.3162 157.663 34.6208C157.663 34.8008 157.59 34.8898 157.447 34.8898H155.711C155.586 34.8898 155.522 34.8073 155.522 34.6396C155.522 34.139 155.526 33.3882 155.532 32.3843C155.538 31.3804 155.541 30.6296 155.541 30.1291C155.541 28.9977 155.417 27.871 155.169 26.7462C155.15 26.6675 155.14 26.6009 155.14 26.5531C155.14 26.4706 155.169 26.4266 155.225 26.4134C155.454 26.3881 155.793 26.3413 156.238 26.271C156.445 26.2082 156.754 26.1379 157.165 26.0619L157.241 26.0526C157.315 26.0526 157.384 26.271 157.451 26.7078C157.515 27.1483 157.576 27.3667 157.624 27.3667C157.624 27.3667 157.78 27.2271 158.092 26.9552C158.459 26.6384 158.825 26.3853 159.191 26.1978C159.72 25.9223 160.248 25.7864 160.777 25.7864C162.211 25.7864 163.121 26.3694 163.513 27.5382C163.898 27.0405 164.376 26.6318 164.949 26.3094C165.557 25.9607 166.162 25.7864 166.759 25.7864C167.911 25.7864 168.708 26.1191 169.147 26.7874C169.465 27.2852 169.625 28.0669 169.625 29.1383C169.625 29.3408 169.618 29.6576 169.606 30.0822C169.593 30.5096 169.587 30.8264 169.587 31.0299C169.587 31.4188 169.596 32.0056 169.616 32.7874C169.635 33.5701 169.644 34.1596 169.644 34.5486Z" fill="#454545"/>
<path fill-rule="evenodd" clip-rule="evenodd" d="M101.026 64.2941C101.141 66.3356 94.0376 66.9589 90.6016 65.9091C95.0808 66.0103 98.7986 65.2511 100.555 62.2778C100.712 62.9499 100.986 63.6051 101.025 64.2931L101.026 64.2941Z" fill="#454545"/>
<path fill-rule="evenodd" clip-rule="evenodd" d="M139.619 46.9273C139.734 44.8858 132.631 44.2624 129.195 45.3123C133.674 45.2101 137.392 45.9703 139.149 48.9426C139.305 48.2705 139.579 47.6153 139.618 46.9273H139.619Z" fill="#454545"/>
<path fill-rule="evenodd" clip-rule="evenodd" d="M52.7826 63.8302C52.6677 65.8717 59.7706 66.4951 63.2066 65.4452C58.7274 65.5465 55.0095 64.7872 53.2529 61.814C53.0965 62.486 52.8213 63.1412 52.7836 63.8293L52.7826 63.8302Z" fill="#454545"/>
</g>
<defs>
<clipPath id="clip0_795_1375">
<rect width="203" height="84" fill="white"/>
</clipPath>
</defs>
</svg>
