<svg width="145" height="90" viewBox="0 0 145 90" fill="none" xmlns="http://www.w3.org/2000/svg">
<g clip-path="url(#clip0_795_1357)">
<path d="M39.7035 65.9217C40.2548 66.1128 40.7308 66.163 41.1335 66.075C41.6141 65.9706 41.9389 65.6772 42.1058 65.1952C42.2885 64.667 42.2158 64.1942 41.8885 63.7775C41.6049 63.4181 41.1623 63.1338 40.5625 62.9264L38.9708 62.376L37.9513 65.3172L39.7028 65.9224L39.7035 65.9217ZM35.5719 65.1144C35.8207 65.1581 36.0093 65.1098 36.1396 64.9683C36.2286 64.8718 36.3222 64.6768 36.4237 64.3833L38.2957 58.9764C38.4031 58.6679 38.4542 58.4573 38.4463 58.3451C38.4358 58.1644 38.3134 58.0079 38.0783 57.8762L38.2224 57.4575L42.9276 59.0833C43.5359 59.2933 43.9981 59.635 44.3157 60.1072C44.6686 60.6341 44.7433 61.1917 44.5403 61.7806C44.391 62.211 44.1173 62.5286 43.7179 62.7366C43.3198 62.9453 42.8713 63.0353 42.3736 63.0073C42.9498 63.3079 43.3682 63.7175 43.6282 64.2379C43.8881 64.7596 43.9202 65.3022 43.7244 65.8682C43.4684 66.6065 42.9649 67.0747 42.2172 67.2717C41.5486 67.4451 40.793 67.3884 39.9503 67.0969L35.4265 65.533L35.5712 65.115L35.5719 65.1144ZM40.9122 61.9573C41.3987 62.1256 41.7844 62.1791 42.0685 62.1158C42.4306 62.0388 42.6847 61.7891 42.8313 61.3665C42.9616 60.9889 42.925 60.6667 42.7181 60.3967C42.5125 60.1274 42.2021 59.9207 41.7896 59.7779L40.0754 59.1857L39.3074 61.4023L40.9122 61.9573ZM52.5436 63.9431C52.6444 63.632 52.6916 63.4207 52.683 63.3092C52.6699 63.1286 52.5436 62.974 52.3072 62.8469L52.4454 62.4262L55.1843 63.319L55.0461 63.7396C54.7973 63.7005 54.6199 63.7416 54.5131 63.8616C54.4057 63.9816 54.3043 64.1903 54.2074 64.4857L52.431 69.9252C52.3288 70.2363 52.2836 70.4646 52.2948 70.61C52.3052 70.7567 52.4296 70.8937 52.6673 71.0208L52.5292 71.4421L48.6889 70.19C47.3931 69.7674 46.5393 69.0403 46.1275 68.0079C45.806 67.198 45.787 66.3567 46.0711 65.4841C46.2722 64.8692 46.6467 64.2613 47.1954 63.6607C47.7605 63.1227 48.3281 62.5814 48.903 62.0382C48.9332 61.9475 48.9083 61.8641 48.829 61.7878C48.7505 61.7115 48.6536 61.656 48.539 61.6182L48.6765 61.1976L51.3309 62.063L51.1941 62.4843C50.5491 62.5247 49.861 62.9303 49.1309 63.6992C48.4833 64.3859 48.044 65.0824 47.8142 65.7874C47.5411 66.6215 47.5739 67.3564 47.913 67.991C48.2509 68.6255 48.8644 69.0879 49.7536 69.3774L50.6703 69.6768L52.5442 63.9418L52.5436 63.9431ZM63.2164 66.6547L56.7426 71.5915L59.2236 72.2788C59.8096 72.4419 60.2516 72.4856 60.5482 72.4112C60.9109 72.3219 61.2075 72.0395 61.438 71.5641L62.0568 71.7362L61.4197 74.0305L54.3285 72.0643L54.6041 71.0724L61.0445 66.2008L58.6644 65.5415C58.2519 65.4274 57.9278 65.4052 57.6947 65.477C57.4603 65.5487 57.2763 65.7652 57.1414 66.1245L56.5213 65.953L57.0753 63.9581L63.4711 65.7319L63.2164 66.6547ZM63.257 74.0031C63.5077 74.0253 63.6924 73.9601 63.8096 73.8088C63.8888 73.7051 63.9674 73.5029 64.0433 73.2016L65.4419 67.6538C65.5218 67.3362 65.5526 67.1217 65.5375 67.0108C65.512 66.8321 65.3758 66.6873 65.129 66.5752L65.2383 66.1461L68.0316 66.8491L67.9235 67.2795C67.6734 67.2573 67.4979 67.3101 67.399 67.4373C67.3008 67.5638 67.2144 67.7797 67.1371 68.081L65.6456 74.0005L68.0407 74.6031C68.4316 74.7016 68.7394 74.725 68.964 74.6748C69.2638 74.6102 69.4727 74.412 69.5919 74.0801L70.2159 74.2379L69.7477 76.0952L63.1483 74.4335L63.257 74.0044V74.0031ZM71.9864 69.2392C71.8888 68.962 71.8332 68.8101 71.8207 68.784C71.6682 68.4155 71.494 68.2023 71.2963 68.1423L71.3742 67.7066L74.2617 68.2284L74.1831 68.664C73.9468 68.6223 73.8112 68.694 73.7772 68.8825C73.7595 68.9835 73.7752 69.1094 73.8276 69.2568L74.8549 72.3121L76.7093 70.0928C76.7865 70.0022 76.8546 69.907 76.9109 69.8072C76.9672 69.7087 77.0046 69.6161 77.0203 69.5294C77.0373 69.4348 77.0137 69.3474 76.9496 69.2666C76.8861 69.1857 76.7741 69.1322 76.6137 69.1029L76.6916 68.6672L79.3002 69.1381L79.221 69.5737C79.0278 69.5796 78.8805 69.6096 78.779 69.6644C78.6782 69.7185 78.5053 69.89 78.2611 70.1783L75.2819 73.7018L74.9394 75.5982C74.8811 75.9204 74.8674 76.1539 74.8982 76.296C74.9283 76.4402 75.071 76.5589 75.3238 76.6534L75.2445 77.0891L72.4094 76.5765L72.4886 76.1408C72.7407 76.1454 72.9207 76.0684 73.0275 75.9093C73.0995 75.8011 73.163 75.5937 73.2187 75.2872L73.5611 73.3914L71.9864 69.2392ZM87.2557 77.1901L88.0152 77.1934C89.1382 77.1993 90.0096 76.9841 90.6304 76.5471C91.3264 76.0561 91.6774 75.3028 91.6826 74.29C91.6872 73.2368 91.314 72.378 90.5616 71.7121C89.8106 71.0456 88.8769 70.7104 87.7618 70.7059L87.2858 70.7032L87.2557 77.1901ZM84.873 77.766C85.1565 77.7269 85.3405 77.6199 85.4282 77.4451C85.4799 77.3421 85.5061 77.1262 85.5074 76.7995L85.5336 71.0782C85.5349 70.7593 85.5107 70.5441 85.461 70.4326C85.3837 70.2644 85.199 70.1554 84.909 70.1072L84.9103 69.6644L88.0231 69.6781C89.7386 69.6859 91.1129 70.1711 92.1462 71.133C93.0779 71.9991 93.5402 73.0301 93.5349 74.2261C93.531 75.2715 93.1951 76.1434 92.5318 76.8438C91.6525 77.7732 90.3128 78.2336 88.5115 78.2251L84.8703 78.2094L84.873 77.766ZM103.727 75.9204C103.835 76.118 103.917 76.2458 103.975 76.3039C104.08 76.4134 104.229 76.4708 104.419 76.4747L104.464 76.9149L101.468 77.2234L101.424 76.7832C101.768 76.6912 101.93 76.5465 101.91 76.3482C101.897 76.2289 101.828 76.0671 101.704 75.8643L100.739 74.1707L97.6057 74.4942L97.0714 76.3417C97.0138 76.5328 96.9908 76.6867 97.0033 76.8067C97.0229 77.0043 97.2082 77.1308 97.5592 77.1823L97.6044 77.6225L95.0966 77.8808L95.0514 77.4406C95.2485 77.4203 95.4082 77.2997 95.5313 77.0786C95.5824 76.9925 95.6538 76.7975 95.7428 76.491L97.9553 68.9959L99.8109 68.8048L103.728 75.9198L103.727 75.9204ZM100.225 73.1892L98.7312 70.4926L97.8715 73.4318L100.225 73.1892ZM110.911 71.2576C110.793 70.953 110.696 70.7613 110.618 70.6804C110.493 70.5487 110.298 70.5089 110.033 70.5604L109.874 70.1496L112.501 69.1322L112.661 69.5431C112.466 69.6611 112.37 69.7968 112.37 69.9513C112.37 70.1059 112.428 70.3315 112.543 70.6263L113.32 72.6316C113.395 72.8234 113.464 72.9695 113.524 73.0699C113.587 73.1703 113.758 73.1781 114.039 73.096L114.198 73.5075C113.869 73.7031 113.524 73.8864 113.162 74.0553C112.801 74.2261 112.404 74.3944 111.972 74.5613C110.628 75.0811 109.398 75.2794 108.285 75.1574C107.343 75.0511 106.524 74.7218 105.832 74.1707C105.232 73.692 104.806 73.1234 104.55 72.4614C104.121 71.3547 104.167 70.2578 104.688 69.1707C105.21 68.0862 106.07 67.3101 107.269 66.8452C107.958 66.5791 108.664 66.4447 109.39 66.4421C110.116 66.4395 110.767 66.5999 111.343 66.9247L110.56 68.8192L110.008 68.7116C110.091 68.4742 110.1 68.2747 110.036 68.1103C109.906 67.7758 109.594 67.5977 109.098 67.5762C108.703 67.5573 108.3 67.6284 107.882 67.7888C107.059 68.1077 106.501 68.6581 106.205 69.4374C105.93 70.177 105.946 70.9393 106.25 71.7265C106.63 72.7066 107.308 73.3855 108.281 73.7592C109.254 74.1335 110.269 74.1179 111.324 73.709L111.792 73.5277L110.912 71.2582L110.911 71.2576Z" fill="#454545"/>
<path fill-rule="evenodd" clip-rule="evenodd" d="M33.6782 35.878L33.2074 35.8812C29.7201 35.8812 27.3957 35.5728 26.0645 34.9519C28.4413 35.0778 30.8326 34.9676 33.2362 34.6598C32.7798 33.2185 32.5395 31.7277 32.5395 30.1984C32.5395 27.2684 33.4196 24.4752 35.029 21.9077C23.8612 22.6909 8.94482 27.6446 8.94482 37.0694C8.94482 43.6157 20.4243 46.7897 28.0786 46.7897H30.2027L32.5422 46.5719V46.5901C34.3781 46.4897 36.2128 46.3104 38.0462 46.0593H38.0501C39.3322 45.8838 40.6129 45.6739 41.8943 45.4339C38.0128 42.7372 35.1554 39.4824 33.6775 35.878H33.6782ZM34.9583 43.9887V43.9228L30.09 44.3761H28.0786C24.22 44.3761 11.3603 42.4842 11.3603 37.0688C11.3603 29.8098 23.122 26.1408 30.991 24.8326C30.4266 26.549 30.1234 28.345 30.1234 30.1984C30.1234 30.9771 30.1771 31.7519 30.2832 32.5181C28.9213 32.6029 27.5548 32.614 26.1922 32.5416L13.777 31.8816L25.0424 37.1379C27.0048 38.0535 29.8105 38.2616 32.1356 38.2916C33.1956 40.351 34.6106 42.2051 36.2436 43.8537C35.8154 43.9026 35.3871 43.9483 34.9589 43.9881L34.9583 43.9887Z" fill="#454545"/>
<path fill-rule="evenodd" clip-rule="evenodd" d="M144.774 3.82239C143.628 1.26663 140.465 2.78678 138.707 3.43762C135.999 4.44128 133.312 5.54731 130.645 6.65531C129.923 6.95464 129.202 7.25659 128.483 7.55788C128.419 7.21615 128.29 6.88486 128.098 6.58031C124.794 0.833606 118.767 -0.000488281 112.75 -0.000488281C104.263 -0.000488281 95.604 3.4011 88.0256 7.0942C82.4024 5.43254 76.4623 4.66431 70.6093 4.66431C61.2186 4.66431 51.0316 6.69248 42.8666 11.4864C40.9809 12.5931 39.1796 13.8661 37.5433 15.3197C25.8196 16.4903 4.40203 22.4555 4.40203 36.6742C4.40203 40.3341 5.96235 43.1429 8.36733 45.2734C8.21543 45.353 8.06745 45.4384 7.92733 45.5356C7.35964 45.6725 6.79784 45.9693 6.29301 46.3266C5.46735 46.9116 4.63906 47.5761 3.8697 48.2342C3.25029 48.7637 2.68653 49.3037 2.13979 49.9089C1.68276 50.4143 1.16353 51.0077 0.820426 51.5953C0.0654738 52.8866 0.301192 54.2241 1.36782 55.2415C1.67883 55.5382 2.03503 55.8108 2.32378 56.1284C2.37027 56.1805 2.42265 56.2425 2.47176 56.3097C2.23081 56.7101 1.90473 57.1503 1.68669 57.522C1.18841 58.3718 0.817807 59.2567 0.543458 60.2017C0.273691 61.131 0.0661285 62.1685 0.00850855 63.1311C-0.0739928 64.5313 0.386312 65.5043 1.20936 66.3384C0.774592 66.9631 0.640364 67.8129 0.998524 68.7389C1.09019 68.9769 1.16942 69.1863 1.28924 69.4165C1.50335 69.8267 1.77377 70.216 2.06187 70.578C2.61843 71.2771 3.26338 71.8314 3.97708 72.3648C5.21984 73.2922 6.58504 74.1452 7.90572 74.9571C9.56949 75.979 11.2595 76.9651 12.9638 77.9172C14.6283 78.8459 16.3117 79.7406 18.02 80.5877C19.7643 81.4525 21.5276 82.2605 23.3505 82.9459C25.2225 83.6496 27.1947 84.2587 29.155 84.6467C30.7069 84.9532 32.4191 85.1508 34.0023 85.0517C35.1357 84.9813 36.2541 84.7419 37.2231 84.1243C38.1071 83.5609 38.6113 82.8546 39.0323 81.9057C39.3931 81.0938 39.7126 80.1547 39.9156 79.2887C40.0367 78.7774 40.1153 78.2681 40.1231 77.7594C40.4728 77.897 40.8205 78.0379 41.1649 78.1794C43.3197 79.0585 45.4543 79.9643 47.6308 80.7906C50.2322 81.7786 52.8729 82.6616 55.5253 83.5022C58.3802 84.4061 61.2533 85.2617 64.1441 86.0443C66.8333 86.774 69.5558 87.4542 72.2836 88.0274C74.3507 88.4618 76.3923 88.7904 78.4876 89.0578C80.6719 89.3363 82.8732 89.5782 85.068 89.7628C86.8555 89.9121 88.6149 89.9956 90.409 89.9995C92.4506 90.0034 94.4994 89.9389 96.537 89.8137C98.7148 89.68 100.901 89.4791 103.066 89.1941C105.082 88.9287 107.032 88.5739 108.997 88.0372C110.829 87.5357 112.659 86.9207 114.444 86.2712C116.527 85.5134 119.008 84.4113 120.916 83.2974C122.241 82.5233 123.544 81.641 124.772 80.7214C125.951 79.8378 127.114 78.8733 128.158 77.8324C128.989 77.0036 129.764 76.101 130.372 75.0941C130.883 74.2502 131.251 73.3698 131.499 72.417C131.74 71.4988 131.865 70.5447 131.796 69.5958C131.747 68.9039 131.595 68.2237 131.385 67.5644C131.581 67.464 131.774 67.3577 131.965 67.2494C132.368 67.0205 132.766 66.7799 133.158 66.5334C133.598 66.2569 134.028 65.9706 134.44 65.653C134.918 65.2851 135.384 64.8743 135.785 64.4237C136.191 63.9652 136.544 63.4448 136.785 62.88C137.011 62.3498 137.149 61.7518 137.117 61.174C137.076 60.4469 136.778 59.8423 136.281 59.3832C136.254 59.3076 136.222 59.2313 136.187 59.1556C136.443 59.0063 136.702 58.8596 136.959 58.7109C137.375 58.4702 137.795 58.2263 138.191 57.9557C138.684 57.6179 139.102 57.2481 139.453 56.761C139.738 56.3638 139.972 55.9014 140.14 55.4417C140.374 54.798 140.466 54.1472 140.243 53.4761C140.201 53.3515 140.152 53.2335 140.096 53.1233C140.213 52.6172 140.183 52.1033 140.055 51.5725C139.938 51.0788 139.763 50.606 139.487 50.1775C139.152 49.6545 138.699 49.2456 138.163 48.9359C137.766 48.7057 137.351 48.5472 136.912 48.4161C136.305 48.2342 135.694 48.1252 135.066 48.0516C134.245 47.9544 133.416 47.9087 132.601 47.7724C131.974 47.6668 131.334 47.4998 130.74 47.2703C130.607 47.2188 130.274 47.0883 130.165 46.9912C130.136 46.7362 130.142 46.3338 130.147 46.0482C130.158 45.5304 130.206 45.0126 130.215 44.4941C130.224 43.8902 130.162 43.3209 129.896 42.7992C130 42.4561 130.05 42.0949 130.038 41.727C129.985 40.1215 128.817 38.7689 127.321 38.2772C126.164 37.8957 125.099 38.0268 123.928 38.1031C120.413 38.2609 119.005 39.6813 118.685 41.7544C118.561 41.7883 118.437 41.8216 118.313 41.8549C117.54 42.0636 116.764 42.2644 115.992 42.4744C115.342 42.6498 114.688 42.8305 114.05 43.047C113.513 43.2289 112.953 43.4461 112.458 43.7259C111.829 44.0813 111.316 44.5534 111.004 45.2154C110.651 45.9653 110.639 46.8033 110.954 47.5624C110.717 47.6596 110.474 47.7483 110.24 47.8292C109.85 47.9622 109.458 48.0705 109.059 48.1742C108.892 48.2179 108.73 48.2687 108.572 48.3281C108.507 48.1611 108.428 48.0007 108.316 47.8259C107.99 47.3166 107.548 46.9644 107.023 46.6814C106.56 46.4316 106.07 46.251 105.554 46.1512C104.901 46.024 104.214 46.0299 103.56 46.1551C102.848 46.2914 102.194 46.5718 101.574 46.9436C101.013 47.2794 100.485 47.6792 99.9674 48.075C99.4645 48.4598 98.9656 48.8465 98.4869 49.2613C98.2879 49.4335 98.0921 49.6095 97.8989 49.7882C97.8452 49.7876 97.7902 49.7882 97.7346 49.7902C97.381 49.8019 97.0261 49.8254 96.6719 49.845C97.2435 49.5443 97.8086 49.2339 98.3632 48.9085C102.008 46.7655 105.428 43.9469 107.819 40.4214C115.049 41.1968 122.342 38.2968 127.563 33.3274C131.89 29.2104 136.272 20.8525 130.842 15.8845C130.232 15.3256 129.439 14.8795 128.589 14.6187C130.884 13.5413 133.174 12.4529 135.455 11.3501C137.591 10.3191 139.75 9.27367 141.839 8.15003C142.386 7.85526 142.946 7.55071 143.467 7.21224C144.593 6.47988 145.418 5.25581 144.775 3.82369L144.774 3.82239ZM8.44656 47.3538C8.69406 47.0427 9.09806 46.8875 9.53021 46.7525C9.96236 46.6181 10.424 46.506 10.6996 46.4629C10.9759 46.4199 11.0663 46.4473 11.0748 46.5321C11.0827 46.6168 11.0087 46.7597 10.8862 46.9618C10.7645 47.164 10.5942 47.4261 10.4803 47.7816C10.367 48.1383 10.3094 48.5876 10.4521 48.9822C10.5949 49.3767 10.9386 49.7158 11.507 50.0752C12.0753 50.4345 12.8695 50.8153 14.1359 51.3814C15.4022 51.9475 17.1387 52.6994 18.6754 53.3698C20.2115 54.0396 21.5479 54.6258 22.2682 54.9323C22.9891 55.2382 23.0938 55.2617 23.0748 55.3823C23.0545 55.5036 22.9105 55.7227 22.7658 55.9921C22.6204 56.2621 22.4744 56.5829 22.367 56.7303C22.2603 56.8777 22.1929 56.8523 21.3213 56.4805C20.4505 56.1088 18.7756 55.3915 17.3541 54.768C15.9326 54.1446 14.7645 53.6144 13.6559 53.1129C12.5481 52.6107 11.5011 52.1353 10.6695 51.6599C9.8373 51.1838 9.2205 50.7058 8.81454 50.1958C8.40924 49.6845 8.21346 49.1413 8.16173 48.6365C8.1087 48.1318 8.20037 47.6655 8.44787 47.3544L8.44656 47.3538ZM22.6302 53.3372C23.7754 53.8367 23.9162 53.9372 23.9614 54.0311C24.0066 54.1243 23.9542 54.2111 23.7787 54.2059C23.6032 54.2006 23.3033 54.1048 22.6774 53.8511C22.0508 53.5967 21.0961 53.1852 19.7165 52.6303C18.3369 52.0753 16.531 51.3775 14.9923 50.7527C13.4529 50.1267 12.1794 49.5743 11.5535 49.2398C10.9275 48.9065 10.9484 48.7917 10.9858 48.7317C11.0218 48.6717 11.0735 48.6652 11.158 48.6835C11.2418 48.7011 11.3596 48.7428 12.37 49.14C13.3803 49.5365 15.285 50.2884 17.3109 51.114C19.3374 51.939 21.485 52.8377 22.6302 53.3372ZM22.515 50.8056C23.4284 50.9288 24.3248 51.0182 25.1943 51.0808C24.9514 51.2575 24.7137 51.4434 24.4839 51.6449C24.3903 51.6051 24.2979 51.5653 24.2063 51.5249C23.6458 51.2803 23.0801 51.0442 22.515 50.8056ZM112.813 54.7008C113.631 55.3582 114.732 56.3338 115.815 57.2625C116.896 58.1924 117.959 59.0767 119.026 59.8717C120.093 60.6673 121.167 61.3742 121.875 61.8575C122.585 62.3401 122.928 62.5983 123.296 62.9961C123.662 63.3946 124.053 63.9306 124.37 64.4491C124.688 64.9689 124.932 65.471 124.859 66.2223C124.786 66.9729 124.396 67.9739 123.916 68.8674C123.435 69.7615 122.865 70.548 122.169 71.3234C121.475 72.0988 120.656 72.8624 119.491 73.6659C118.327 74.4693 116.818 75.3112 115.373 76.086C113.928 76.8614 112.548 77.5683 110.827 78.1898C109.105 78.812 107.042 79.3487 104.296 79.8528C101.549 80.3569 98.1202 80.8284 95.5103 81.0873C92.9004 81.3462 91.1116 81.3905 89.0706 81.3775C87.0297 81.3644 84.738 81.294 82.0587 81.0769C79.3787 80.861 76.3104 80.4991 72.8303 79.8528C69.3502 79.2065 65.4582 78.2759 62.1936 77.4503C58.9295 76.6247 56.2914 75.9047 53.6645 75.1084C51.0369 74.3128 48.4184 73.4415 44.6771 72.1242C40.9357 70.8062 36.0721 69.0409 32.6411 67.8598C29.21 66.6788 27.213 66.0814 25.2847 65.6269C23.357 65.171 21.4981 64.856 20.1591 64.8058C18.8195 64.7556 17.9997 64.9689 17.0928 65.2486C16.1853 65.5284 15.1901 65.874 14.6001 66.1219C14.0095 66.3697 13.8242 66.519 14.5156 65.7886C15.2077 65.0575 16.7772 63.4454 17.9774 62.1685C19.1783 60.8916 20.0085 59.9506 20.9481 58.9085C21.8877 57.8663 22.936 56.7231 23.928 55.9282C24.9206 55.1339 25.8576 54.6865 27.268 54.5006C28.6784 54.3154 30.5622 54.3911 32.6057 54.635C34.6492 54.8789 36.8539 55.2917 39.2732 55.8806C41.692 56.4694 44.3268 57.2344 47.2372 57.9563C50.1477 58.6783 53.3338 59.3578 56.5101 60.0543C59.6858 60.7508 62.8516 61.4649 65.8033 61.9801C68.755 62.4953 71.4933 62.8122 74.0613 63.0359C76.63 63.2596 79.0291 63.39 81.5224 63.4807C84.0158 63.5713 86.6054 63.6228 89.4046 63.4239C92.205 63.2244 95.2157 62.7744 97.7516 62.3035C100.288 61.8327 102.348 61.339 104.155 60.6732C105.963 60.0073 107.519 59.1667 108.493 58.5811C109.467 57.9942 109.86 57.6596 110.228 57.1281C110.596 56.5973 110.941 55.8695 111.054 55.2095C111.167 54.5495 111.049 53.9561 111.256 53.8296C111.464 53.703 111.996 54.0428 112.813 54.7008ZM111.647 53.0105C111.811 52.8663 112.242 52.7255 112.726 52.5735C113.211 52.4216 113.75 52.2605 114.205 52.087C114.661 51.9142 115.034 51.7297 115.346 51.5405C115.657 51.3508 115.906 51.1551 116.085 50.9784C116.263 50.8017 116.371 50.6432 116.451 50.5095C116.532 50.3764 116.586 50.2682 116.764 50.3093C116.942 50.3491 117.244 50.5388 117.839 50.8956C118.433 51.2523 119.319 51.776 119.961 52.1927C120.602 52.6094 120.998 52.9198 121.447 53.242C121.896 53.5635 122.397 53.898 122.958 54.26C123.519 54.6206 124.142 55.0099 124.857 55.4332C125.572 55.8564 126.379 56.3129 127.227 56.7923C128.075 57.2709 128.963 57.7731 129.49 58.0639C130.017 58.3542 130.183 58.4344 130.22 58.6385C130.258 58.8426 130.167 59.1719 129.892 59.5652C129.619 59.9591 129.162 60.4188 128.599 60.859C128.035 61.2999 127.364 61.7212 126.825 62.0199C126.287 62.3192 125.881 62.4979 125.555 62.6042C125.228 62.7105 124.98 62.747 124.637 62.6655C124.292 62.5853 123.851 62.3877 123.344 62.1535C122.837 61.9194 122.262 61.6488 121.04 60.831C119.818 60.0145 117.951 58.6509 116.667 57.6329C115.382 56.6142 114.681 55.9412 114.057 55.4078C113.433 54.8736 112.885 54.4798 112.502 54.1765C112.12 53.8733 111.903 53.662 111.742 53.482C111.583 53.302 111.482 53.1546 111.646 53.0098L111.647 53.0105ZM1.81175 62.8755C1.85235 62.1868 2.0239 61.2719 2.25503 60.4756C2.48617 59.6793 2.77623 59.0017 3.16255 58.3431C3.54886 57.6844 4.03143 57.044 4.25536 56.5542C4.47995 56.0645 4.44721 55.7247 4.29465 55.3367C4.14274 54.9493 3.87036 54.5117 3.50565 54.11C3.14159 53.7076 2.68391 53.3411 2.42724 53.0959C2.17122 52.8507 2.1136 52.7281 2.2989 52.4111C2.48355 52.0942 2.91111 51.5849 3.32559 51.1251C3.74071 50.666 4.14274 50.2571 4.83222 49.6676C5.52169 49.078 6.49861 48.3098 7.08136 47.8963C7.66411 47.4842 7.85399 47.4274 7.91292 47.5064C7.9725 47.5853 7.9031 47.7992 7.77018 48.0476C7.63792 48.2955 7.44345 48.5785 7.34458 48.9196C7.24571 49.2606 7.24243 49.6604 7.31904 50.0465C7.395 50.4325 7.55083 50.8056 8.0609 51.2529C8.57031 51.7003 9.43396 52.2227 10.4318 52.8083C11.4304 53.3933 12.5638 54.0409 14.2963 54.8593C16.0288 55.6771 18.3618 56.6651 19.5914 57.2122C20.8211 57.7587 20.9488 57.8637 20.9514 57.9974C20.954 58.1305 20.8329 58.2928 20.6299 58.5491C20.4282 58.8041 20.146 59.153 19.6157 59.7843C19.086 60.4149 18.3068 61.3286 17.3462 62.387C16.385 63.4454 15.2398 64.6493 14.0861 65.7801C12.9331 66.9109 11.7695 67.9668 11.1835 68.5328C10.5975 69.0982 10.5877 69.1739 10.4698 69.1426C10.3513 69.1119 10.1241 68.975 8.68621 68.182C7.24833 67.389 4.59912 65.9386 3.22999 64.9819C1.8602 64.0259 1.77116 63.5641 1.81175 62.8755ZM36.9553 78.3385C36.7884 79.0487 36.4793 79.9343 36.2161 80.5291C35.9522 81.1232 35.7322 81.4271 35.3165 81.6905C34.9013 81.9553 34.2891 82.179 33.2434 82.2449C32.1978 82.3107 30.7167 82.2162 29.0156 81.8803C27.3132 81.5431 25.3888 80.964 23.5934 80.2884C21.7987 79.6134 20.1316 78.8433 18.4862 78.0281C16.8421 77.2116 15.2182 76.3508 13.5348 75.4117C11.852 74.4713 10.109 73.4526 8.56311 72.5024C7.01785 71.5529 5.66836 70.6706 4.81519 70.0328C3.96137 69.3956 3.60321 69.0037 3.34326 68.6763C3.08266 68.3489 2.91963 68.0861 2.82272 67.9009C2.72647 67.7157 2.69635 67.6081 2.64266 67.4698C2.58962 67.3309 2.51301 67.1627 3.01195 67.4092C3.5122 67.6563 4.58864 68.3196 5.65526 68.9196C6.72123 69.5182 7.77869 70.0556 8.30382 70.3399C8.82895 70.6243 8.82305 70.6543 8.79293 70.7925C8.76347 70.9308 8.70912 71.1773 8.73793 71.4447C8.76674 71.7127 8.87674 72.0036 9.04568 72.2572C9.21395 72.5103 9.4405 72.7274 9.81896 72.9766C10.1987 73.2263 10.7304 73.5081 11.6098 73.8674C12.4885 74.2261 13.7142 74.661 14.8037 74.9865C15.8933 75.3125 16.8466 75.5284 17.5197 75.6758C18.1922 75.8232 18.5857 75.9027 19.3033 76.2125C20.0216 76.5229 21.064 77.0636 22.1084 77.5422C23.1527 78.0209 24.1997 78.4376 25.4025 78.8315C26.6054 79.2261 27.9653 79.5971 29.1891 79.8769C30.4142 80.156 31.5037 80.3445 32.5455 80.3738C33.5872 80.4038 34.5818 80.2767 35.2209 80.1345C35.8593 79.9943 36.1428 79.8404 36.1762 79.6467C36.2096 79.453 35.9941 79.2189 35.4631 78.915C34.9328 78.6098 34.0868 78.2355 32.6325 77.9035C31.1783 77.5716 29.1138 77.282 26.8444 76.9475C24.5749 76.6129 22.0999 76.2353 20.3896 75.951C18.68 75.6673 17.7339 75.4782 17.0044 75.306C16.275 75.1325 15.7623 74.976 14.9458 74.7321C14.1287 74.4876 13.0064 74.1563 12.2187 73.8537C11.431 73.5511 10.9773 73.2772 10.5706 73.0529C10.1647 72.8292 9.80587 72.6537 9.57473 72.4751C9.3436 72.2964 9.24014 72.1118 9.18056 71.9651C9.12032 71.817 9.10461 71.7049 9.10461 71.6077C9.10461 71.5099 9.11836 71.4258 9.64021 71.026C10.1627 70.6249 11.1914 69.9082 12.1486 69.4263C13.1059 68.945 13.9931 68.7004 15.0257 68.5589C16.0576 68.4174 17.2375 68.3789 18.3945 68.4833C19.5515 68.5883 20.6875 68.8361 22.0311 69.2045C23.3754 69.573 24.9259 70.0615 26.3461 70.5584C27.7663 71.0547 29.0575 71.5601 30.386 72.1216C31.7152 72.6818 33.0811 73.2981 34.0691 73.8322C35.0572 74.365 35.6661 74.8163 36.1205 75.2565C36.5749 75.696 36.8755 76.1258 37.0123 76.6084C37.1492 77.0916 37.123 77.6283 36.9553 78.3385ZM128.555 71.4088C128.378 72.0857 128.121 72.7477 127.697 73.4481C127.274 74.1498 126.683 74.8906 125.845 75.7247C125.008 76.5594 123.924 77.4868 122.715 78.392C121.506 79.2971 120.175 80.1802 119.089 80.8147C117.576 81.6977 114.805 82.9511 113.009 83.6046C111.819 84.0383 109.677 84.783 107.751 85.3099C105.825 85.8369 104.115 86.1434 102.142 86.4029C100.169 86.6625 97.9323 86.8744 95.7807 87.0068C93.6292 87.1392 91.5607 87.1907 89.806 87.1875C88.0518 87.1829 86.6113 87.1229 84.6621 86.9592C82.7121 86.7955 80.2528 86.5294 78.1851 86.266C76.1173 86.0025 74.4398 85.743 72.1729 85.2669C69.9061 84.7902 67.0487 84.0983 64.169 83.317C61.2873 82.537 58.3821 81.6684 55.6478 80.803C52.9141 79.9369 50.3507 79.0741 47.8809 78.1363C45.4104 77.1979 43.0329 76.1845 41.4713 75.5467C39.9103 74.9082 39.1632 74.646 38.7219 74.5006C38.28 74.3539 38.1425 74.3252 38.0717 74.3832C38.0004 74.4413 37.9958 74.588 38.0102 74.7113C38.0252 74.8339 38.0599 74.9343 37.688 74.8202C37.3161 74.706 36.5363 74.3806 35.5397 73.9502C34.5432 73.5211 33.3279 72.9889 32.4486 72.6009C31.5692 72.2129 31.0257 71.9703 30.0914 71.6044C29.157 71.2379 27.8331 70.7488 26.7592 70.3686C25.6848 69.9884 24.8597 69.7165 23.8959 69.4204C22.9321 69.1243 21.8288 68.8022 20.6194 68.5368C19.4101 68.2713 18.0953 68.0626 17.0824 68.0137C16.0694 67.9655 15.3583 68.0783 14.7337 68.2152C14.109 68.3528 13.5702 68.5139 13.0457 68.7122C12.5212 68.9111 12.0105 69.1452 11.562 69.3852C11.1128 69.6258 10.7265 69.8704 10.3932 70.066C10.0612 70.261 9.78295 70.4064 9.90212 70.2486C10.0206 70.0902 10.5379 69.6297 11.2935 69.0598C12.0491 68.4898 13.0424 67.8109 14.2302 67.3238C15.4179 66.8373 16.7982 66.5431 17.9886 66.4545C19.1802 66.3658 20.1814 66.4818 21.5872 66.7466C22.9936 67.012 24.8041 67.4255 26.5078 67.9179C28.2115 68.4102 29.8072 68.9809 31.3865 69.5704C32.9658 70.1606 34.5268 70.769 35.7224 71.2347C36.9187 71.6984 37.7502 72.0199 39.3381 72.6427C40.9259 73.2668 43.2726 74.1935 45.5303 75.0386C47.7892 75.8825 49.9611 76.6442 52.0341 77.312C54.1078 77.9798 56.0839 78.5537 58.0017 79.1243C59.9202 79.695 61.7804 80.2623 63.564 80.7293C65.3476 81.1969 67.0552 81.5653 68.3995 81.8712C69.745 82.1777 70.7285 82.4222 72.4368 82.7496C74.1438 83.0783 76.575 83.4898 79.0972 83.7683C81.6206 84.0474 84.2358 84.1935 87.0539 84.2509C89.8721 84.3082 92.8925 84.2763 95.8266 84.0715C98.7613 83.8667 101.611 83.4872 103.78 83.1298C105.949 82.7718 107.44 82.4346 108.768 82.0786C110.097 81.7212 111.267 81.3449 111.929 81.086C113.83 80.3412 118 78.1761 119.559 77.2077C120.904 76.3723 122.045 75.5095 123.064 74.5919C124.083 73.6744 124.981 72.7007 125.587 71.8073C126.192 70.9138 126.505 70.0999 126.702 69.3604C126.9 68.6196 126.982 67.9531 126.913 67.3479C126.844 66.7414 126.625 66.1969 126.464 65.833C126.303 65.4684 126.2 65.2851 126.147 65.1358C126.095 64.9871 126.093 64.8704 126.139 64.7647C126.186 64.6584 126.279 64.5606 126.381 64.5319C126.482 64.5013 126.591 64.5384 126.746 64.618C126.901 64.6969 127.1 64.8189 127.283 64.931C127.466 65.0432 127.63 65.1456 127.777 65.2382C127.924 65.3302 128.052 65.413 128.092 65.503C128.133 65.5943 128.085 65.694 128.041 65.8656C127.998 66.0358 127.958 66.2784 128.01 66.5477C128.061 66.817 128.204 67.1144 128.371 67.5853C128.539 68.0561 128.733 68.7017 128.781 69.3708C128.829 70.0399 128.733 70.7319 128.556 71.4088H128.555ZM133.955 61.5327C133.841 61.8001 133.649 62.1072 133.369 62.4235C133.089 62.7392 132.72 63.0633 132.358 63.3424C131.995 63.6222 131.64 63.8556 131.265 64.0911C130.89 64.3258 130.497 64.5626 130.162 64.7537C129.827 64.9434 129.549 65.0889 129.32 65.1867C129.092 65.2845 128.912 65.3347 128.786 65.3654C128.66 65.3967 128.587 65.4084 128.314 65.2486C128.041 65.0895 127.568 64.7595 127.311 64.5782C127.055 64.3969 127.015 64.363 127.053 64.3154C127.091 64.2672 127.207 64.2045 127.444 64.0774C127.681 63.9509 128.041 63.7591 128.483 63.5263C128.923 63.2935 129.447 63.0203 129.937 62.702C130.426 62.3844 130.883 62.0225 131.209 61.7062C131.535 61.3892 131.728 61.1173 131.856 60.9014C131.984 60.6849 132.045 60.5238 132.086 60.398C132.126 60.2715 132.147 60.1789 132.16 60.0882C132.173 59.9976 132.178 59.9095 132.181 59.8469C132.183 59.785 132.181 59.7491 132.242 59.7634C132.305 59.7784 132.433 59.843 132.64 59.9539C132.846 60.0647 133.132 60.2225 133.37 60.3569C133.608 60.4912 133.797 60.6014 133.917 60.6732C134.038 60.7456 134.089 60.7795 134.097 60.9093C134.105 61.0397 134.069 61.2666 133.955 61.5334V61.5327ZM137.342 53.84C137.355 53.8791 137.337 54.0069 137.261 54.2163C137.185 54.4269 137.049 54.7197 136.881 54.9532C136.713 55.188 136.511 55.3634 136.216 55.5649C135.922 55.7664 135.533 55.9947 135.14 56.2216C134.747 56.4486 134.347 56.6768 134.021 56.8712C133.695 57.0668 133.441 57.2312 133.24 57.3955C133.039 57.5605 132.891 57.7255 132.789 57.9244C132.688 58.1233 132.63 58.3561 132.644 58.5498C132.658 58.7441 132.742 58.9 132.843 59.0617C132.945 59.2241 133.064 59.3924 133.205 59.5378C133.346 59.6845 133.509 59.8091 133.365 59.7556C133.222 59.7028 132.771 59.4719 132.421 59.2782C132.071 59.0852 131.819 58.9287 131.632 58.8054C131.444 58.6822 131.32 58.5909 131.234 58.4885C131.147 58.3861 131.097 58.272 131.118 58.1037C131.14 57.9342 131.234 57.7111 131.372 57.4953C131.512 57.2794 131.698 57.072 132.077 56.7792C132.456 56.4864 133.03 56.1088 133.577 55.8199C134.124 55.5304 134.644 55.3301 135.119 55.0993C135.595 54.8684 136.027 54.6076 136.343 54.4348C136.658 54.2619 136.858 54.1772 136.99 54.1035C137.12 54.0291 137.183 53.9659 137.235 53.9085C137.287 53.8511 137.33 53.8002 137.342 53.8387V53.84ZM127.114 43.4624C127.161 43.5231 127.196 43.6809 127.19 44.0559C127.184 44.4308 127.135 45.0236 127.123 45.5962C127.111 46.1682 127.135 46.7205 127.247 47.1842C127.36 47.6479 127.562 48.0235 127.882 48.332C128.201 48.6404 128.639 48.8817 129.262 49.1217C129.885 49.3624 130.693 49.6011 131.59 49.7523C132.487 49.9036 133.475 49.965 134.175 50.0484C134.875 50.1306 135.29 50.233 135.608 50.3282C135.925 50.4228 136.146 50.5108 136.345 50.6256C136.544 50.741 136.719 50.8838 136.845 51.0795C136.971 51.2751 137.047 51.5236 137.098 51.7349C137.149 51.9462 137.174 52.1209 137.096 52.2788C137.018 52.4366 136.838 52.5781 136.518 52.792C136.199 53.0059 135.74 53.2922 135.03 53.6176C134.321 53.9437 133.361 54.3089 132.597 54.6389C131.832 54.9682 131.262 55.2617 130.785 55.5493C130.308 55.8369 129.923 56.1179 129.678 56.3958C129.433 56.6729 129.327 56.9475 129.245 57.1027C129.162 57.2585 129.104 57.2951 127.984 56.6664C126.864 56.0364 124.681 54.7413 123.143 53.7891C121.604 52.837 120.709 52.2285 119.703 51.5588C118.696 50.889 117.578 50.1573 116.79 49.6193C116.002 49.0813 115.544 48.7363 115.252 48.4891C114.96 48.242 114.835 48.0933 114.89 47.8944C114.945 47.6955 115.179 47.4457 115.783 47.1477C116.385 46.849 117.357 46.5021 118.323 46.1968C119.287 45.8916 120.244 45.6275 121.063 45.4143C121.883 45.201 122.566 45.0373 123.366 44.7973C124.166 44.5567 125.086 44.2372 125.703 44.0043C126.321 43.7715 126.636 43.6241 126.822 43.5322C127.009 43.4396 127.067 43.4024 127.114 43.4631V43.4624ZM112.58 45.8421C112.644 45.7084 112.771 45.5773 113.037 45.426C113.304 45.2747 113.711 45.1032 114.217 44.9323C114.722 44.7602 115.326 44.5893 116.013 44.4028C116.7 44.2176 117.47 44.0167 118.33 43.7852C119.191 43.5544 120.141 43.2928 121.084 43.0274C121.76 42.8376 122.432 42.6446 122.971 42.4607C123.184 42.3883 123.378 42.3159 123.542 42.2462C123.967 42.0642 124.849 41.6794 124.853 41.1551C124.858 40.6177 124.034 40.2375 123.476 40.111C124.296 40.0562 125.234 39.9304 125.955 40.1678C126.494 40.3458 126.996 40.8336 127.014 41.4068C127.021 41.6084 126.959 41.8112 126.818 42.0055C126.692 42.179 126.438 42.3218 125.873 42.5833C125.308 42.8448 124.403 43.2061 123.47 43.5094C122.537 43.8113 121.574 44.0546 120.639 44.2985C119.702 44.5424 118.792 44.7856 117.981 45.0204C117.17 45.2558 116.456 45.4808 115.848 45.6882C115.241 45.8949 114.74 46.0834 114.416 46.2288C114.093 46.3742 113.947 46.4779 113.835 46.6227C113.724 46.7675 113.647 46.9553 113.595 47.0499C113.543 47.1451 113.518 47.1477 113.412 47.0805C113.306 47.014 113.121 46.8777 112.959 46.7277C112.796 46.5777 112.657 46.4147 112.587 46.264C112.517 46.114 112.517 45.9764 112.58 45.8414L112.58 45.8421ZM109.059 50.1097C109.426 50.0139 109.879 49.8965 110.411 49.7139C110.944 49.5319 111.557 49.2854 112.026 49.0506C112.496 48.8159 112.821 48.5941 113.022 48.3783C113.225 48.1624 113.302 47.9537 113.378 47.8572C113.454 47.7613 113.527 47.779 113.625 47.8442C113.722 47.91 113.844 48.0229 114.036 48.1572C114.229 48.2915 114.492 48.4487 114.704 48.6C114.916 48.7507 115.078 48.898 115.076 49.0969C115.075 49.2978 114.909 49.5508 114.566 49.8247C114.22 50.0993 113.697 50.3954 113.102 50.6699C112.508 50.9432 111.843 51.1968 111.28 51.3684C110.719 51.5399 110.258 51.6312 109.917 51.6142C109.576 51.5979 109.353 51.4747 109.074 51.2464C108.795 51.0175 108.46 50.6843 108.435 50.4808C108.408 50.2773 108.692 50.2036 109.059 50.1084V50.1097ZM108.001 50.9575C108.203 51.0566 108.76 51.5934 109.12 52.0225C109.481 52.4509 109.645 52.7711 109.653 53.1885C109.663 53.6065 109.518 54.123 109.272 54.6291C109.025 55.1365 108.677 55.6327 107.971 56.2295C107.265 56.8262 106.2 57.5246 104.673 58.2185C103.145 58.913 101.155 59.6056 98.9656 60.0947C96.776 60.5845 94.3867 60.8721 91.7126 61.1186C89.0386 61.3645 86.0809 61.5686 83.9464 61.6527C81.8118 61.7368 80.4984 61.7016 77.8171 61.5073C75.1358 61.3136 71.0854 60.9601 66.3396 60.2004C61.5938 59.4413 56.1533 58.2752 52.5802 57.4861C49.0077 56.697 47.3034 56.2855 45.2546 55.7743C43.2052 55.263 40.8106 54.6539 38.7972 54.1622C36.7831 53.6704 35.1508 53.2981 33.4936 53.0835C31.837 52.8696 30.1549 52.8142 28.9161 52.9329C27.6766 53.0522 26.8797 53.347 26.1889 53.6417C25.4988 53.9378 24.9134 54.2352 24.5284 54.4589C24.1441 54.6819 23.9575 54.8326 24.0629 54.6376C24.1683 54.4432 24.5651 53.9052 25.2074 53.2961C25.8498 52.6864 26.7376 52.0062 28.002 51.6481C29.2664 51.2901 30.9072 51.2549 32.7517 51.4349C34.5969 51.6155 36.6443 52.0101 39.2595 52.5703C41.8753 53.1292 45.0582 53.853 49.1662 54.8C53.2749 55.7469 58.3081 56.9168 63.4893 57.745C68.6706 58.5726 73.9991 59.0565 77.8439 59.2965C81.6894 59.5365 84.0505 59.5313 85.9094 59.4895C87.7683 59.4484 89.1256 59.3708 90.8778 59.1902C92.6313 59.0096 94.7789 58.7259 96.6843 58.332C98.5897 57.9381 100.253 57.4327 101.608 56.9644C102.962 56.4962 104.011 56.0632 104.876 55.5773C105.74 55.0908 106.425 54.5508 106.924 54.0004C107.424 53.45 107.739 52.8892 107.905 52.4764C108.071 52.0629 108.089 51.7975 108.021 51.4962C107.953 51.1949 107.799 50.8577 108.001 50.9575ZM85.9212 56.6984C85.9526 56.8718 86.0017 57.0499 86.0705 57.2285C86.1026 57.312 86.1392 57.3968 86.1785 57.4809C83.6439 57.5272 81.1355 57.4457 78.6021 57.2872C73.8937 56.9938 69.1368 56.5053 64.4787 55.7619C59.7113 55.0002 55.0179 53.9313 50.3173 52.8481C47.0081 52.0851 43.6949 51.3201 40.3733 50.6099C39.9457 50.518 39.5142 50.428 39.0827 50.338C40.6967 50.1032 42.3075 49.8287 43.9077 49.5071C51.8868 53.8752 61.6049 55.7345 70.6093 55.7345C75.5103 55.7345 80.6273 55.1762 85.5624 53.9665C85.512 54.1341 85.4694 54.305 85.4426 54.4798C85.3227 55.2715 85.4812 56.0416 85.9205 56.6977L85.9212 56.6984ZM98.0004 52.044C98.5387 51.5236 99.0035 51.0801 99.4586 50.6856C99.9143 50.291 100.361 49.9473 100.825 49.5919C101.289 49.2378 101.773 48.8726 102.207 48.613C102.639 48.3535 103.026 48.1983 103.407 48.1246C103.788 48.0509 104.165 48.0581 104.485 48.12C104.804 48.182 105.067 48.2981 105.265 48.4044C105.463 48.5107 105.596 48.6072 105.672 48.7265C105.749 48.8459 105.769 48.9893 105.814 49.1322C105.858 49.2743 105.929 49.4158 106.065 49.5684C106.201 49.7217 106.407 49.8854 106.575 50.0015C106.743 50.1175 106.875 50.1841 106.99 50.2988C107.106 50.4143 107.203 50.5773 107.309 50.7619C107.415 50.9464 107.529 51.1525 107.595 51.3618C107.663 51.5699 107.683 51.7831 107.666 52.0003C107.648 52.2168 107.592 52.4385 107.506 52.672C107.421 52.9061 107.308 53.1533 107.128 53.3874C106.949 53.6202 106.702 53.8406 106.4 54.1041C106.098 54.3676 105.739 54.6747 105.216 55.0086C104.693 55.3419 104.005 55.7032 103.136 56.0671C102.268 56.4303 101.217 56.7975 100.134 57.1209C99.052 57.4451 97.9356 57.7248 97.0464 57.9394C96.1579 58.1539 95.4946 58.3052 94.3671 58.48C93.2402 58.6561 91.6485 58.8556 90.7573 58.9411C89.8662 59.0259 89.6756 58.9952 89.5172 58.8785C89.3581 58.763 89.2304 58.5602 89.0143 58.2087C88.7976 57.8572 88.4931 57.3564 88.2404 56.9273C87.987 56.4975 87.786 56.1408 87.7153 55.9575C87.6445 55.7743 87.7022 55.7664 87.765 55.8075C87.8272 55.8473 87.8927 55.9353 88.0021 56.0553C88.1107 56.176 88.2626 56.3286 88.4434 56.4831C88.6241 56.6364 88.8336 56.7923 89.0641 56.8738C89.2946 56.9553 89.5473 56.9625 89.7798 56.9755C90.0122 56.9892 90.227 57.0094 90.4476 56.9938C90.6689 56.9781 90.8968 56.9266 91.1581 56.8581C91.4193 56.7896 91.7146 56.7062 92.1022 56.5125C92.4899 56.3195 92.9711 56.0169 93.4615 55.6817C93.952 55.3478 94.4535 54.9819 94.9184 54.6558C95.3833 54.3304 95.8115 54.0448 96.3314 53.6033C96.8513 53.1618 97.4635 52.5638 98.0004 52.0427V52.044ZM90.0476 56.5934C90.0587 56.5001 90.1942 56.356 90.3416 56.2595C90.4895 56.1629 90.6499 56.1134 90.8523 56.0651C91.0546 56.0162 91.2982 55.9666 91.5535 55.904C91.8095 55.8414 92.076 55.7651 92.2679 55.7332C92.4591 55.7012 92.5769 55.7149 92.6064 55.7651C92.6352 55.8147 92.5756 55.9034 92.4552 55.994C92.3347 56.0853 92.152 56.1792 91.9084 56.2921C91.6662 56.4049 91.3604 56.5353 91.0749 56.6181C90.7894 56.7016 90.5229 56.7388 90.335 56.7349C90.1471 56.7316 90.0364 56.6879 90.0482 56.594L90.0476 56.5934ZM97.2036 51.802C97.5866 51.789 97.6272 51.8001 97.5093 51.9364C97.3921 52.0714 97.1152 52.3322 96.8605 52.5964C96.6058 52.8598 96.3727 53.1272 96.1959 53.302C96.0191 53.4768 95.8973 53.5589 95.7022 53.6013C95.5077 53.6431 95.2386 53.6437 94.9498 53.6796C94.6611 53.7148 94.3501 53.7846 93.9467 53.8517C93.5427 53.9183 93.0458 53.9822 92.5566 54.048C92.0675 54.1139 91.5863 54.1811 91.1194 54.2789C90.6519 54.3774 90.1995 54.5058 89.8459 54.6265C89.4936 54.7471 89.2402 54.8606 89.017 55.0412C88.7943 55.2225 88.6025 55.4723 88.4584 55.5767C88.315 55.6804 88.2201 55.6399 88.023 55.5225C87.8259 55.4058 87.5267 55.2115 87.3682 55.021C87.2098 54.83 87.1921 54.6428 87.2222 54.4445C87.253 54.2463 87.3316 54.0369 87.4841 53.8289C87.6367 53.6202 87.8639 53.4128 88.1612 53.2413C88.4578 53.0698 88.8258 52.9342 89.4412 52.7829C90.0561 52.6316 90.9191 52.4653 91.6452 52.3381C92.3713 52.2116 92.96 52.1236 93.5584 52.0544C94.1569 51.9859 94.7639 51.9364 95.4304 51.894C96.0957 51.8516 96.8212 51.8151 97.2036 51.802ZM106.343 22.1529C107.857 24.6526 108.682 27.3616 108.682 30.1997C108.682 31.4981 108.508 32.7692 108.176 34.0063C114.65 34.4628 120.65 33.4572 124.228 30.0517C127.651 26.7955 129.703 21.7277 126.691 21.1923C124.883 20.9301 124.854 18.1239 125.896 17.1314C126.789 16.2829 128.602 17.1072 129.21 17.6635C133.154 21.2738 129.618 28.0385 125.897 31.5797C120.592 36.6266 113.619 38.8615 107.302 37.9224C107.068 37.899 106.827 37.8716 106.583 37.8416C104.616 41.2882 101.352 44.3526 97.1381 46.8281C90.3154 50.8414 80.9325 53.3215 70.612 53.3215C60.4041 53.3215 51.1148 50.8949 44.3084 46.9625C40.5042 47.7627 36.715 48.3228 32.9691 48.5772L30.4181 48.7754H28.0806C19.1508 48.7754 6.82076 45.6014 6.82076 36.6749C6.82076 25.9543 23.2064 18.9378 38.5772 17.6492C40.1565 16.1623 42.0082 14.7915 44.0937 13.5674C50.919 9.55931 60.2993 7.07855 70.6126 7.07855C76.9678 7.07855 82.9695 8.02155 88.2371 9.68257C96.7708 5.45667 105.014 2.41441 112.753 2.41441C116.904 2.41441 123.048 2.57027 126.038 7.83895C126.368 8.30393 125.539 8.45719 125.208 7.99351C124.542 6.2888 120.39 3.80869 117.236 3.80869C108.656 3.80869 100.045 6.73748 91.4625 10.8251C93.4995 11.6312 95.3984 12.5501 97.1315 13.5674C100.467 15.5264 103.207 17.8526 105.18 20.4456C142.502 3.45132 165.697 -4.66854 106.344 22.1529H106.343ZM109.651 23.3065C114.133 21.2797 118.618 19.2443 123.089 17.179C122.244 19.5697 123.148 22.6609 125.722 23.4435C125.479 24.9284 123.431 27.477 122.562 28.3052C119.747 30.9823 115.089 31.6938 111.03 31.6964C111.075 31.2001 111.097 30.7012 111.097 30.2004C111.097 27.792 110.586 25.4782 109.65 23.3072L109.651 23.3065ZM123.477 9.68648C117.576 12.2194 111.703 14.8332 105.86 17.4848C103.717 15.0954 101.11 13.1057 98.354 11.4877C97.9932 11.2751 97.6285 11.069 97.2612 10.8688C103.608 8.21655 110.402 6.22229 117.235 6.22229C118.747 6.22229 122.255 7.62179 122.977 8.91956L123.065 9.15107L123.241 9.39563C123.313 9.49866 123.392 9.59518 123.477 9.68648Z" fill="#454545"/>
<path fill-rule="evenodd" clip-rule="evenodd" d="M76.332 24.3972C73.5505 24.4168 70.8312 22.8888 68.1729 19.8133C71.1907 13.3453 72.6999 10.1113 72.6999 10.1113C75.6274 16.2128 76.8381 20.9748 76.332 24.3972Z" fill="#454545"/>
<path fill-rule="evenodd" clip-rule="evenodd" d="M76.4374 27.8246C76.4021 26.4003 76.385 25.6888 76.385 25.6888C71.378 24.8671 68.0092 23.0281 66.2786 20.1704C54.2072 17.6779 48.1709 16.4316 48.1709 16.4316C58.6983 23.8491 63.962 27.5579 63.962 27.5579C70.587 27.1862 74.7455 27.2755 76.4374 27.8246Z" fill="#454545"/>
<path fill-rule="evenodd" clip-rule="evenodd" d="M81.4379 22.5283C80.808 23.9213 79.615 24.6635 77.8583 24.7535C77.1059 18.9885 75.7375 14.3002 73.7522 10.6899C77.7692 15.4539 80.332 19.4 81.4379 22.5283Z" fill="#454545"/>
<path fill-rule="evenodd" clip-rule="evenodd" d="M77.8058 27.7349V25.5541C79.6392 25.4067 81.0607 24.6503 82.069 23.2847C87.7191 24.3529 90.5438 24.887 90.5438 24.887C86.7186 27.7349 84.806 29.1592 84.806 29.1592C81.4307 28.241 79.0977 27.7662 77.8058 27.7349Z" fill="#454545"/>
<path fill-rule="evenodd" clip-rule="evenodd" d="M77.3318 31.7856C77.5426 29.8865 77.6474 28.937 77.6474 28.937C80.3797 29.07 82.5732 29.3961 84.2272 29.9159C85.4287 33.1923 86.2184 35.6841 86.5962 37.3927C84.1571 33.8796 81.0686 32.0106 77.3318 31.7856Z" fill="#454545"/>
<path fill-rule="evenodd" clip-rule="evenodd" d="M61.857 36.0135C66.0587 32.8062 70.6735 31.2483 75.7008 31.3402C76.2803 30.4487 76.5082 29.6323 76.3851 28.8927C70.6774 28.5673 66.6067 28.701 64.1729 29.2938C62.4705 32.5213 61.4 34.5977 60.9619 35.5244C61.2886 35.7957 61.5872 35.9581 61.857 36.0135Z" fill="#454545"/>
<path fill-rule="evenodd" clip-rule="evenodd" d="M71.3316 37.3041C68.9123 37.4097 66.5786 37.1286 64.3308 36.4582C68.4925 33.817 72.1422 32.5565 75.2799 32.6751C74.8694 34.5129 74.6762 35.4474 74.7011 35.4787C72.4552 36.695 71.3323 37.3034 71.3323 37.3034L71.3316 37.3041Z" fill="#454545"/>
<path fill-rule="evenodd" clip-rule="evenodd" d="M88.2809 44.8698C80.1048 38.9953 76.0164 36.058 76.0164 36.058C76.622 34.8959 76.9553 33.8277 77.0162 32.854C83.797 33.4018 87.5521 37.4073 88.2809 44.8698Z" fill="#454545"/>
<path fill-rule="evenodd" clip-rule="evenodd" d="M78.3063 40.1741C81.8827 42.8772 84.1279 44.5683 85.0439 45.2478C66.1229 52.9059 42.2775 37.4233 47.934 18.7681C46.0542 34.1137 64.1796 44.3961 78.3063 40.1741ZM77.6744 43.6455C77.6744 43.6455 76.8147 42.7109 75.0953 40.8419C75.0953 40.8419 74.5165 40.2184 73.3582 38.9722C57.8512 38.0207 50.4955 32.9535 47.8247 21.901C48.1481 26.1073 49.5559 29.7502 51.5661 32.9646C57.0917 41.3806 65.7943 44.9406 77.6744 43.6455Z" fill="#454545"/>
<path fill-rule="evenodd" clip-rule="evenodd" d="M54.8425 26.8901C53.2986 27.6544 52.5266 28.0359 52.5266 28.0359L53.4609 25.9999C52.2326 24.9911 51.6184 24.487 51.6184 24.487C53.1538 24.665 53.9212 24.7543 53.9212 24.7543C54.4824 23.8792 54.7633 23.4409 54.7633 23.4409C55.2472 24.5215 55.4331 24.9832 55.4606 25.0765C56.7413 25.2545 57.3817 25.3439 57.3817 25.3439C56.3904 26.026 55.8947 26.3677 55.8947 26.3677L56.8291 28.2929C55.5045 27.3584 54.8419 26.8908 54.8419 26.8908L54.8425 26.8901Z" fill="#454545"/>
<path fill-rule="evenodd" clip-rule="evenodd" d="M58.2636 30.9324C57.5531 31.2839 57.1983 31.4593 57.1983 31.4593L57.6284 30.5228C57.0634 30.0592 56.7805 29.8263 56.7805 29.8263C57.487 29.9085 57.8399 29.9496 57.8399 29.9496C58.0979 29.5472 58.2269 29.3457 58.2269 29.3457C58.4495 29.8426 58.5353 30.0552 58.5477 30.0983C59.137 30.1804 59.4317 30.2209 59.4317 30.2209C58.976 30.5352 58.7475 30.6917 58.7475 30.6917C59.0336 31.2819 59.177 31.5767 59.177 31.5767C58.5674 31.1469 58.2636 30.9324 58.2636 30.9324Z" fill="#454545"/>
<path fill-rule="evenodd" clip-rule="evenodd" d="M59.1823 44.3637C57.6561 43.4142 56.8926 42.9395 56.8926 42.9395C55.2609 45.728 54.4451 47.123 54.4451 47.123C57.603 45.2833 59.1823 44.3637 59.1823 44.3637Z" fill="#454545"/>
<path fill-rule="evenodd" clip-rule="evenodd" d="M48.2068 24.682C50.6465 35.6073 63.5835 42.5644 75.1259 40.8754C75.1154 40.8643 75.1056 40.8539 75.0951 40.8428C75.0951 40.8428 74.5163 40.2193 73.358 38.9731C57.851 38.0216 50.4953 32.9544 47.8245 21.9019C47.8978 22.8572 48.0274 23.7833 48.2068 24.682Z" fill="#454545"/>
<path d="M70.6106 51.6986C61.3737 51.6986 52.6548 49.5654 46.0586 45.6904C39.1383 41.6256 35.3269 36.1241 35.3269 30.198C35.3269 24.272 39.1416 18.7737 46.0678 14.7063C52.6659 10.8326 61.3816 8.69873 70.61 8.69873C79.8383 8.69873 88.5547 10.8326 95.1521 14.7063C102.079 18.7737 105.893 24.2752 105.893 30.198C105.893 36.1208 102.081 41.6197 95.1574 45.6871C88.5678 49.5635 79.8495 51.6986 70.6093 51.6986H70.6106ZM70.6106 9.0685C61.4477 9.0685 52.7989 11.1841 46.257 15.0245C39.4487 19.0228 35.6988 24.4115 35.6988 30.198C35.6988 35.9845 39.4448 41.3764 46.2472 45.3721C52.7864 49.2139 61.4386 51.3295 70.61 51.3295C79.7814 51.3295 88.4355 49.2126 94.9695 45.3689C101.775 41.3706 105.522 35.9832 105.522 30.198C105.522 24.4128 101.773 19.0235 94.9642 15.0245C88.4224 11.1834 79.7742 9.0685 70.6106 9.0685Z" fill="#454545"/>
</g>
<defs>
<clipPath id="clip0_795_1357">
<rect width="145" height="90" fill="white"/>
</clipPath>
</defs>
</svg>
