<svg width="150" height="66" fill="none" xmlns="http://www.w3.org/2000/svg"><g clip-path="url(#clip0_795_1246)"><path fill-rule="evenodd" clip-rule="evenodd" d="M21.268 35.26c-4.024-13.313-8.05-20.965-12.08-22.683-2.972-1.216-4.105-2.22-3.398-3.014 2.018-.741 6.744.849 14.176 4.77 7.428 4.082 12.678 10.896 15.75 20.441 1.467 2.465.278 3.974-3.566 4.527.984 4.599-.396 6.924-4.14 6.975-3.893-.472-5.308-1.465-4.243-2.98 1.073-.557 1.959-.403 2.655.463 2.174 1.008 3.415.377 3.723-1.894.135-1.127-.177-1.913-.937-2.356-3.423.826-5.767.026-7.029-2.402l-.911-1.848zM0 64.191c.678-3.64 2.661-6.58 5.95-8.823-3.284-5.012-4.46-9.17-3.524-12.473 6.954 4.653 19.134 6.224 36.542 4.712 14.452-2.032 24.187-2.817 29.204-2.356 5.072.421 8.585.421 13.657 0 5.017-.461 14.75.324 29.204 2.356 17.407 1.51 29.587-.06 36.541-4.712.935 3.303-.24 7.461-3.524 12.472 3.289 2.243 5.272 5.184 5.95 8.824-2.159-.612-5.8-.365-10.919.739-9.008.975-19.657 1.283-31.948.923-20.13-2.66-44.136-2.66-64.266 0-12.291.36-22.94.051-31.948-.924-5.12-1.103-8.76-1.35-10.919-.738zm25.723-7.118l-.772-4.184-2.894 4.184h3.666zm-1.433 4.635l.152-.581c.616-.045 1.096-.114 1.44-.208.346-.094.519-.2.519-.313 0-.097-.008-.183-.02-.252a10.732 10.732 0 00-.045-.246l-.448-2.27h-4.363a26.58 26.58 0 00-.549.794c-.22.327-.403.61-.554.842-.23.369-.36.623-.4.758-.04.136-.059.222-.059.26 0 .16.14.297.423.402.282.106.71.182 1.292.233l-.153.581h-5.353l.153-.58c.175-.012.392-.04.655-.081a2.43 2.43 0 00.664-.197c.252-.12.487-.274.709-.463a3.78 3.78 0 00.621-.69 953.49 953.49 0 003.347-4.684 3287.5 3287.5 0 003.54-4.984h1.776l1.14 6.019c.3 1.587.563 2.916.79 3.982.03.163.09.31.174.443.085.134.227.257.417.377.144.089.318.152.526.197.206.04.398.07.579.08l-.153.581h-6.82zm19.816-3.689l-1.194 3.689H31.179l.154-.599c.146-.005.37-.025.668-.06.296-.037.514-.076.657-.117.24-.072.42-.177.54-.318a1.21 1.21 0 00.25-.493l2.051-8.04c.031-.114.053-.209.066-.283.012-.075.018-.133.018-.172 0-.227-.128-.402-.383-.529s-.668-.23-1.24-.304l.15-.598h7.003l-.153.598c-.19.011-.438.036-.734.077-.3.04-.527.082-.683.125-.25.072-.433.184-.549.337a1.508 1.508 0 00-.242.493l-1.95 7.646a4.223 4.223 0 00-.1.457c-.023.15-.035.262-.035.344 0 .315.126.514.38.606.255.089.772.133 1.553.133.478 0 .953-.034 1.424-.097.472-.066.825-.182 1.057-.356.37-.27.78-.658 1.237-1.164a14.94 14.94 0 001.109-1.373h.678l.001-.002zm14.435-7.825l-.846 3.29h-.68a6.07 6.07 0 00-.14-.684 4.615 4.615 0 00-.285-.814 3.243 3.243 0 00-.411-.692.833.833 0 00-.53-.321c-.18-.022-.41-.039-.692-.056a13.05 13.05 0 00-.726-.025h-.453l-2.279 8.93a3.34 3.34 0 00-.058.264.7.7 0 00.061.527.588.588 0 00.319.237c.143.055.352.108.627.158.275.053.502.086.683.102l-.154.598h-7.095l.15-.598c.169-.011.413-.034.737-.063a4.26 4.26 0 00.69-.114c.239-.089.42-.202.538-.348.12-.148.202-.32.25-.519l2.343-9.173h-.352a11.3 11.3 0 00-.685.02c-.23.013-.494.033-.788.061-.213.027-.456.14-.723.346a9.208 9.208 0 00-.777.668 9.83 9.83 0 00-.741.816 9.055 9.055 0 00-.499.681h-.68l.842-3.29h12.351l.003-.001zm14.185 0l-.152.598a4.673 4.673 0 00-.567.097c-.176.044-.374.12-.604.228-.288.13-.545.285-.777.465-.23.182-.497.418-.794.711a92.512 92.512 0 00-1.632 1.628c-.353.363-1.005 1.05-1.958 2.057-.525.554-.845.942-.954 1.166-.11.225-.233.611-.371 1.169l-.38 1.508a2.457 2.457 0 00-.082.447c0 .127.03.243.085.344a.58.58 0 00.318.237c.144.055.352.108.628.158.275.053.502.086.682.102l-.152.599H58.93l.15-.599c.168-.01.413-.033.738-.063a4.35 4.35 0 00.69-.113c.226-.083.404-.2.53-.349.125-.152.211-.324.26-.518l.53-2.068c.036-.15.067-.283.097-.399.03-.116.045-.218.045-.304 0-.114-.033-.26-.097-.438-.068-.18-.152-.407-.26-.681a195.76 195.76 0 00-.815-2.1 65.26 65.26 0 00-.767-1.84 2.83 2.83 0 00-.419-.709 2.177 2.177 0 00-.527-.465 1.768 1.768 0 00-.535-.188 4.28 4.28 0 00-.598-.08l.153-.598h7.114l-.15.598c-.616.016-1.075.061-1.379.133-.303.075-.452.185-.452.338 0 .069.024.207.076.415.053.211.16.554.328 1.036.126.366.306.841.536 1.428.23.587.487 1.23.768 1.933l2.083-2.193a76.65 76.65 0 001.302-1.395c.443-.498.697-.805.762-.922.067-.114.101-.2.101-.256 0-.165-.144-.29-.428-.368a5.035 5.035 0 00-1.036-.15l.154-.598h4.841v-.001zm14.459 0l-.15.598c-.168.016-.413.045-.733.086a2.497 2.497 0 00-.936.318c-.257.148-.478.4-.662.756-.18.357-.36.877-.541 1.564l-2.12 8.257h-1.5l-5.486-9.215-1.46 5.746a9.725 9.725 0 00-.18.851c-.04.265-.062.476-.062.633 0 .222.024.394.07.515a.78.78 0 00.209.302c.138.125.377.232.719.327.346.09.602.15.769.177l-.152.599h-5.492l.15-.599c.163-.022.42-.058.768-.113.35-.053.65-.153.902-.292.262-.152.487-.397.665-.74.18-.344.357-.868.532-1.571l1.388-5.413c.03-.125.055-.241.077-.352a1.687 1.687 0 00-.03-.77.996.996 0 00-.236-.41 1.685 1.685 0 00-.622-.425 3.954 3.954 0 00-.867-.23l.162-.598H77.1l4.798 8.112 1.197-4.709c.083-.346.144-.628.184-.847a3.43 3.43 0 00.059-.612c0-.21-.025-.382-.077-.515a.799.799 0 00-.218-.327c-.132-.118-.364-.227-.695-.32a6.826 6.826 0 00-.766-.183l.153-.599h5.452l-.001-.001zm11.502 8.017a4.67 4.67 0 01-.787 1.65 5.102 5.102 0 01-1.249 1.188c-.47.31-.977.547-1.525.719a5.66 5.66 0 01-1.669.255c-1.124 0-2.02-.241-2.686-.722-.668-.483-1.001-1.141-1.001-1.974 0-.515.165-.942.493-1.283.331-.339.769-.506 1.321-.506.532 0 .946.137 1.236.411.295.275.44.618.44 1.033 0 .216-.057.43-.17.638-.114.203-.312.431-.6.675l-.558.472v.109c.055.13.172.23.35.296.18.07.361.103.548.103.62 0 1.151-.239 1.589-.712.44-.473.775-1.177 1.01-2.11l1.626-6.369a2.458 2.458 0 00.08-.458c0-.226-.127-.404-.389-.531-.26-.127-.676-.23-1.252-.305l.153-.598h6.878l-.153.598a6.613 6.613 0 00-.659.08 9.456 9.456 0 00-.607.122c-.25.072-.431.174-.539.31a1.49 1.49 0 00-.251.518l-1.63 6.388.001.003zm10.432-1.139l-.772-4.184-2.894 4.184h3.666zm-1.434 4.635l.153-.581c.616-.044 1.096-.114 1.44-.208.346-.094.518-.2.518-.313a1.5 1.5 0 00-.02-.252 11.191 11.191 0 00-.045-.246l-.447-2.27h-4.365c-.146.202-.327.465-.548.795-.22.326-.403.61-.555.841-.23.37-.361.623-.4.759-.04.136-.058.222-.058.26 0 .16.14.296.422.402.282.105.71.182 1.293.233l-.154.58h-5.353l.154-.58c.174-.012.392-.04.655-.081.263-.045.484-.108.665-.197.251-.12.486-.274.708-.462a3.77 3.77 0 00.621-.69c1.215-1.692 2.331-3.254 3.348-4.685 1.019-1.431 2.198-3.093 3.539-4.984h1.777l1.139 6.02c.299 1.586.564 2.915.789 3.981.032.164.09.31.176.443.085.134.226.258.416.377.144.089.319.152.527.197.206.04.399.07.579.08l-.153.582h-6.821zm27.535-11.514l-.154.599a8.152 8.152 0 00-.689.08 7.46 7.46 0 00-.627.122c-.245.071-.425.183-.542.331-.12.152-.199.315-.248.496l-2.013 8.047a10.5 10.5 0 00-.051.243.967.967 0 00-.028.202c0 .244.111.422.332.535.22.113.655.202 1.301.26l-.152.598h-6.876l.152-.598c.239-.027.485-.055.736-.088a3.82 3.82 0 00.575-.113 1.35 1.35 0 00.564-.33c.131-.139.222-.315.278-.54l2.159-8.633h-.092l-6.906 10.12h-1.132a13.17 13.17 0 00-.127-1.019c-.07-.468-.137-.908-.196-1.318l-1.222-7.913h-.091l-1.795 7.047a7.758 7.758 0 00-.168.788 4.214 4.214 0 00-.065.687c0 .217.028.385.077.507a.833.833 0 00.212.301c.125.114.36.222.704.322.342.099.6.16.766.183l-.151.598h-5.494l.151-.598c.156-.017.409-.053.762-.11.355-.056.655-.157.907-.295.269-.152.493-.4.67-.75.175-.349.349-.866.523-1.553l1.455-5.679a4.35 4.35 0 00.092-.446c.015-.102.025-.204.025-.302a1.13 1.13 0 00-.077-.437.9.9 0 00-.229-.324 1.399 1.399 0 00-.655-.32 5.382 5.382 0 00-.735-.101l.153-.599h5.843l1.229 7.604 4.161-6.174c.18-.283.345-.57.496-.87a6.06 6.06 0 00.257-.56h5.936-.001zM82.7 38.898c19.507.576 29.262.564 29.262.564-2.993.542-4.59 1.467-4.791 2.771.408 1.716 1.606 2.47 3.593 2.264 2.075-.268 2.882-.984 2.421-2.148-1.135-.452-1.968-.229-2.499.67-1.212.633-1.907.292-2.083-1.023 1.388-1.215 3.078-1.575 5.073-1.08 1.857 1.418 2.006 2.623.446 3.613-2.266.9-5.529.9-9.788 0l-22.233-1.187c-2.473-.385-2.772-4.273.599-4.444zm15.136-15.937v4.989c-3.026 1.906-3.695 3.761-2.004 5.567.358.325.48.686.365 1.086-.556 2.33-6.817 1.22-1.718-4.934.216-.334.094-.441-.365-.324-9.703.197-9.602 11.771 2.083 8.099.196.692 1.237 1.076 3.123 1.155 1.887-.078 2.929-.463 3.124-1.155 11.685 3.672 11.786-7.902 2.083-8.099-.458-.117-.579-.01-.364.324 5.099 6.155-1.161 7.264-1.719 4.934-.114-.399.007-.76.364-1.087 1.691-1.805 1.023-3.66-2.004-5.566v-4.989h-2.968zm18.497-3.303c-.798 0-1.445.574-1.445 1.282 0 .708.647 1.282 1.445 1.282s1.445-.574 1.445-1.282c0-.708-.647-1.282-1.445-1.282zm-6.417 10.37c-1.421-3.361.228-5.856 4.946-7.483.974 4.656-.676 7.15-4.946 7.484zm-2.577-22.635c0 4.003-2.984 2.114-3.541 4.981-.394 2.022.385 1.234-1.879 2.918-1.429 1.064.68 2.208-1.415 3.696-.826.586 1.209 2.045 1.159 3.094-.07 1.441 2.239.39 2.239 4.59 0 .501.044 1.083 1.007.761.158-.053 1.207-2.343 1.336-2.764 1.674-.447 3.983-2.105 5.011-3.368.883-1.084 1.518.29 1.7-2.44.058-.86 2.644-1.471.045-3.885-.971-.902.605-2.24-1.076-2.741-.751-.224-1.407-2.452-2.088-3.407-.337-.472-1.603-1.574-2.239-1.666l-.26.23.001.001zm1.509 3.904c-.456 4.758-1.515 8.63-3.177 11.617 3.532-2.857 4.592-6.73 3.177-11.617zm19.884 23.425c4.025-13.31 8.051-20.964 12.08-22.681 2.972-1.216 4.105-2.222 3.397-3.014-2.018-.742-6.742.848-14.175 4.77-7.428 4.082-12.679 10.895-15.751 20.44-1.467 2.465-.278 3.974 3.567 4.528-.984 4.599.396 6.924 4.139 6.975 3.895-.472 5.309-1.465 4.244-2.98-1.073-.557-1.959-.404-2.656.463-2.174 1.008-3.414.376-3.723-1.894-.135-1.128.178-1.914.938-2.356 3.423.825 5.766.025 7.029-2.403l.911-1.848zm-72.65-20.499c1.376.082 2.122-.016 2.237-.294-2.031-1.99-4.162-1.624-6.247.961 1.27-.36 2.151-.296 2.73.08 1.113.722 2.592 1.568 3.864-.172-1.177 0-2.038-.19-2.585-.575zm12.648 2.428c.165-1.043.146-1.617-.058-1.725-1.672 1.397-1.552 3.045.268 4.825-.18-.992-.065-1.659.265-2.072.635-.793 1.39-1.856.157-2.953-.087.896-.298 1.537-.632 1.925zm8.158-11.252c.14 1.326.35 2.021.635 2.087 1.584-2.252.896-4.225-1.908-5.804.546 1.153.624 2.004.356 2.616-.514 1.175-1.09 2.72.776 3.656-.188-1.121-.14-1.974.141-2.556V5.4zM61.663 17.962c9.938-12.927 32.924-6.703 31.555 9.907-1.371-16.751-20.394-20.598-31.555-9.907zm14.359-9.287c-9.901 1.76-17.012 6.643-21.332 14.649.437-3.793 4.029-8.243 8.274-11.03 4.643-3.048 10.07-4.24 13.058-3.619zM69.025.152a3.25 3.25 0 014.078 2.113 3.25 3.25 0 01-6.195 1.957 3.243 3.243 0 012.117-4.07zM88.078 4.69a3.925 3.925 0 014.925 2.552 3.915 3.915 0 01-2.556 4.916 3.926 3.926 0 01-4.926-2.552 3.915 3.915 0 012.557-4.916zM58.72 7.01a2.49 2.49 0 013.124 1.619 2.49 2.49 0 01-4.747 1.5 2.485 2.485 0 011.623-3.12zm17.301 7.717l2.13 5.519h-4.259l2.13-5.518zm-7.419 13.674c0-3.775 3.323-6.836 7.42-6.836 4.096 0 7.419 3.061 7.419 6.836 0 3.775-3.323 6.837-7.42 6.837-4.097 0-7.419-3.062-7.419-6.837zm22.259 0l-5.99 1.962v-3.924l5.99 1.962zm-4.347-9.668l-2.729 5.288-3.01-2.772 5.739-2.516zm-20.984 0l5.739 2.515-3.012 2.772-2.727-5.287zm-4.347 9.668l5.99-1.962v3.924l-5.99-1.962zm4.347 9.668l2.727-5.287 3.012 2.77-5.739 2.517zm10.491 4.005l-2.129-5.518h4.259l-2.13 5.518zm10.493-4.005l-5.739-2.516 3.01-2.771 2.729 5.287zM67.3 39.435c-19.508.575-29.263.562-29.263.562 2.993.544 4.59 1.468 4.79 2.772-.408 1.715-1.606 2.47-3.592 2.263-2.075-.267-2.882-.983-2.42-2.147 1.134-.451 1.967-.228 2.498.67 1.212.634 1.907.292 2.083-1.023-1.387-1.215-3.078-1.575-5.073-1.08-1.857 1.418-2.005 2.623-.445 3.614 2.266.9 5.528.9 9.788 0L67.9 43.878c2.472-.384 2.77-4.272-.6-4.443zM52.163 23.499v4.988c3.027 1.906 3.696 3.762 2.005 5.567-.358.325-.48.688-.364 1.085.556 2.33 6.817 1.222 1.718-4.934-.215-.333-.094-.44.365-.323 9.702.197 9.601 11.77-2.084 8.098-.195.693-1.237 1.077-3.123 1.155-1.886-.078-2.928-.462-3.124-1.154-11.685 3.673-11.785-7.902-2.083-8.1.459-.117.58-.01.365.324-5.1 6.156 1.162 7.265 1.718 4.934.114-.397-.007-.76-.364-1.085-1.691-1.806-1.023-3.661 2.004-5.567V23.5h2.968zm-18.495-3.304c.797 0 1.444.575 1.444 1.283s-.647 1.282-1.445 1.282c-.797 0-1.445-.573-1.445-1.282 0-.709.648-1.283 1.445-1.283zm6.417 10.372c1.42-3.363-.228-5.857-4.947-7.484-.974 4.657.675 7.15 4.947 7.484zM42.662 7.93c0 4.004 2.983 2.114 3.541 4.981.393 2.023-.386 1.233 1.879 2.919 1.43 1.063-.681 2.208 1.414 3.695.826.586-1.21 2.046-1.159 3.096.07 1.44-2.239.39-2.239 4.589 0 .501-.044 1.084-1.007.76-.158-.052-1.207-2.342-1.336-2.763-1.675-.447-3.983-2.106-5.011-3.369-.884-1.084-1.518.29-1.7-2.44-.06-.86-2.644-1.471-.046-3.885.971-.902-.604-2.24 1.077-2.74.75-.224 1.406-2.452 2.087-3.407.338-.472 1.604-1.575 2.24-1.667l.26.231zm-1.51 3.904c.456 4.758 1.515 8.63 3.177 11.618-3.532-2.857-4.59-6.73-3.176-11.618z" fill="#454545"/></g><defs><clipPath id="clip0_795_1246"><path fill="#fff" d="M0 0h150v66H0z"/></clipPath></defs></svg>