<svg width="139" height="79" fill="none" xmlns="http://www.w3.org/2000/svg"><g clip-path="url(#clip0_795_1242)" fill="#454545"><path fill-rule="evenodd" clip-rule="evenodd" d="M69.5 8.039c31.357 0 56.777 14.085 56.777 31.46 0 17.376-25.42 31.462-56.777 31.462S12.723 56.875 12.723 39.5c0-17.376 25.42-31.461 56.777-31.461zm0 2.054c29.958 0 54.243 13.166 54.243 29.407S99.458 68.907 69.5 68.907c-29.958 0-54.243-13.166-54.243-29.407S39.542 10.093 69.5 10.093z"/><path fill-rule="evenodd" clip-rule="evenodd" d="M69.5 0C107.884 0 139 17.685 139 39.5S107.884 79 69.5 79 0 61.315 0 39.5 31.116 0 69.5 0zm0 2.228c36.219 0 65.58 16.688 65.58 37.272S105.719 76.772 69.5 76.772c-36.22 0-65.58-16.687-65.58-37.272 0-20.585 29.36-37.272 65.58-37.272z"/><path d="M53.967 27.308a37.094 37.094 0 00-1.958 3.46 280.665 280.665 0 00-7.967-5.535c-.586 2.919-1.08 6.196-1.485 9.834l-1.736-1.005c.51-2.965 1.006-6.285 1.49-9.959l-1.858-1.093a55.412 55.412 0 001.926-3.262 206.03 206.03 0 0011.589 7.56h-.001zm10.562 31.829l-.85.688c3.651 1.188 1.246 5.602-4.032 3.574l1.556-1.86c2.168 1.141 3.535-.544.852-1.285l.89-1.51c-1.036-.37-1.902-.94-2.597-1.708-1.158-1.284-1.637-2.916-1.437-4.897.206-2.03 1.046-3.593 2.52-4.688 1.421-1.076 3.16-1.511 5.215-1.306a10.96 10.96 0 011.842.333l.79 1.645c-.94-.218-1.565-.343-1.875-.373-1.374-.138-2.462.114-3.265.755-.803.64-1.272 1.637-1.41 2.99-.156 1.538.22 2.781 1.124 3.729.859.906 2.074 1.437 3.647 1.594.223.023.69.038 1.402.047l-2.418 2.387c-.353.027-.826.01-1.42-.05a9.736 9.736 0 01-.534-.066zm-5.951-2.267c-1.24.402-2.482.881-3.724 1.436a279.005 279.005 0 00-2.614-9.305c-2.317 1.883-4.796 4.102-7.434 6.656l-.697-1.872a262.463 262.463 0 007.517-6.75l-.735-2.017a56.524 56.524 0 003.572-1.302 204.422 204.422 0 004.115 13.155zm-5.56-1.888c-.817.36-1.81.847-2.977 1.46a33.974 33.974 0 00-1.893-2.743 51.484 51.484 0 003.152-1.97c.43.944 1.003 2.03 1.718 3.254zm29.823 1.546a37.159 37.159 0 00-3.021 2.596c-1.851-2.7-3.72-5.33-5.61-7.89-1.546 2.548-3.13 5.465-4.75 8.752l-1.29-1.53a259.99 259.99 0 004.797-8.869l-1.376-1.654a55.951 55.951 0 002.924-2.42 205.193 205.193 0 008.326 11.014zm-5.874.079a49.882 49.882 0 00-2.31 2.37 34.396 34.396 0 00-2.712-1.953 51.022 51.022 0 002.302-2.908c.725.746 1.632 1.577 2.72 2.491zm18.18-3.551a20.268 20.268 0 00-2.211 3.204 140.605 140.605 0 00-5.669-4.384l-1.13.317c.591 2.083 1.15 3.75 1.674 5.004-.385.056-.955.19-1.71.402-.67.189-1.172.356-1.506.5l-.778-.282a69.773 69.773 0 00-1.372-5.782c-.426-1.5-.783-2.64-1.07-3.42-.203-.535-.496-1.339-.88-2.413l.618-.693c1.185-.243 1.88-.393 2.083-.45a16.16 16.16 0 001.21-.417c.531-.2.934-.34 1.21-.417 1.353-.38 2.585-.437 3.695-.17 1.36.325 2.217 1.112 2.571 2.362.457 1.606 0 2.865-1.37 3.776a76.617 76.617 0 004.635 2.863zm-6.641-5.42c-.484-1.702-1.837-2.37-4.06-2.002.538 2.303.96 3.99 1.264 5.06l.193.68c2.212-.815 3.08-2.061 2.603-3.739zM48.468 29.36a48.938 48.938 0 00-1.366 3.008 34.461 34.461 0 00-3.217-.924c.442-1.18.834-2.35 1.175-3.511.936.458 2.072.934 3.407 1.427zm15.894-2.832l-.542 1.718a104.402 104.402 0 00-7.305 1.116l-.696-.456c-.24-2.165-.5-4.14-.78-5.923a120.757 120.757 0 00-1.053-5.732l.547-.723c.475-.023.995-.08 1.56-.167a18.2 18.2 0 001.612-.326c.19 1.848.443 3.78.76 5.795.317 2.017.661 3.884 1.032 5.603l.627-.097a63.845 63.845 0 004.237-.808zm8.762-11.451l-.644 1.559-2.686.08a65.694 65.694 0 00-.068 5.16c.042 1.385.18 3.484.415 6.298-.412-.038-1.072-.042-1.98-.015-.659.02-1.168.06-1.527.12l-.58-.614c.043-1.881.044-3.502.003-4.861-.064-2.114-.148-3.664-.253-4.65l-.152-1.313-2.686.08-.719-1.537c2.49.013 4.332 0 5.526-.035a133.92 133.92 0 005.35-.272zm13.212 2.793l-4.552 4.99c-.03.132-.062.316-.093.548a34.255 34.255 0 00-.286 5.613 34.114 34.114 0 00-1.935-.314 31.364 31.364 0 00-1.876-.194l-.381-.388c.365-1.311.687-3.002.967-5.074-1.248-2.2-2.39-4.06-3.428-5.583l.264-.564a17.918 17.918 0 003.086-1.797 52.27 52.27 0 002.922 5.985l4.348-5.016.963 1.794zm12.15 14.73c-1.212.383-2.347.81-3.408 1.283a1487.39 1487.39 0 00-3.514-10.973l-2.981 7.125-2.099.136 4.142-9.898-.367-1.056a58.395 58.395 0 003.603-.881c1.108 4.02 2.219 7.485 3.332 10.395l2.837-6.782 2.047-.158-4.027 9.625.435 1.184z"/></g><defs><clipPath id="clip0_795_1242"><path fill="#fff" d="M0 0h139v79H0z"/></clipPath></defs></svg>