<svg width="168" height="68" fill="none" xmlns="http://www.w3.org/2000/svg"><g clip-path="url(#clip0_795_1353)" fill-rule="evenodd" clip-rule="evenodd" fill="#454545"><path d="M84 0C37.608 0 0 15.222 0 34c0 18.777 37.608 34 84 34s84-15.223 84-34c0-18.778-37.608-34-84-34zm0 63.113c-40.913 0-74.079-12.764-74.079-28.507C9.921 18.863 43.087 6.1 84 6.1s74.079 12.763 74.079 28.506S124.913 63.113 84 63.113z"/><path d="M141.733 35.366l.318.485c-1.379.881-2.722 1.5-4.027 1.857-1.304.354-2.816.532-4.536.532-3.416 0-5.125-1.055-5.125-3.165 0-1.033.286-2.408.924-4.101 1.504-3.99 4.769-6.313 8.441-6.313 2.079 0 3.12.776 3.12 2.326 0 1.228-1.244 2.755-2.442 3.906-1.199 1.152-2.86 2.159-4.982 3.02a4.873 4.873 0 00-.159 1.227c0 .754.222 1.33.67 1.728.444.399 1.039.598 1.781.598 1.974 0 3.979-.7 6.016-2.099h.001zm-84.554 7.739l3.406-2.445 2.366.747c7.029 3.12-2.067 11.132-18.161 10.842v1.054h.876c.888 0 1.626.233 2.21.703.583.468.879 1.036.879 1.714 0 .824-.405 1.517-1.208 2.076-.804.563-1.783.841-2.954.841-.862 0-1.74-.133-2.623-.404v-1.65c.871.415 1.68.621 2.43.621.609 0 1.136-.12 1.608-.36.463-.24.693-.55.693-.933 0-.358-.183-.629-.548-.815a2.522 2.522 0 00-1.163-.276h-1.984v-2.636c-5.245-.304-9.52-1.556-12.805-4.173-3.541-2.819-5.311-6.515-5.311-11.087 0-3.97 1.276-7.728 3.827-11.273 2.552-3.545 5.973-6.407 10.266-8.588 4.29-2.18 8.75-3.27 13.379-3.27 3.56 0 6.3.842 8.217 2.526 1.16 1.017 1.966 2.298 2.425 3.84l4.5-1.312c1.417-.354 8.303-1.683 10.023-1.24 2.33.62-3.543 2.48-3.644 2.48-2.793.221-6.901.688-10.574 1.44a12.9 12.9 0 01.148 1.996c0 2.199-.574 4.45-1.721 6.754a22.012 22.012 0 01-4.57 6.168c-1.898 1.808-2.231 2.295-4.643 3.413-2.414 1.117-4.808 1.675-7.18 1.675-1.899 0-3.442-.408-4.628-1.224-1.187-.815-1.78-1.844-1.78-3.083 0-1.49.623-3.156 1.869-4.999 1.245-1.843 2.818-3.457 4.717-4.84 5.064-3.906 8.79-5.003 14.94-6.795.02-.194.029-.077.029-.26a5.347 5.347 0 00-2.908-4.812c-.909-.478-1.938-.718-3.084-.718-2.69 0-5.34.993-7.95 2.978-2.613 1.985-4.965 4.572-7.062 7.763-3.343 5.087-6.371 10.708-5.37 16.619 2.82 16.665 45.032-.243 23.063.941v.002zm-11.243-13.51c-3.718 2.961-5.578 5.629-5.578 8.004 0 .708.277 1.311.832 1.808.553.497 1.185.745 1.898.745 2.374 0 5.082-1.285 8.129-3.856 3.045-2.57 3.834-4.565 6.01-7.933 1.533-2.374 2.523-4.402 2.977-6.088-.975.277-1.864.58-2.622.911-5.468 2.207-6.495 2.31-11.646 6.41zm31.032 5.771l.319.485c-1.38.881-2.722 1.5-4.028 1.857-1.304.354-2.817.532-4.536.532-3.416 0-5.125-1.055-5.125-3.165 0-1.033.285-2.408.924-4.101 1.504-3.99 4.978-6.605 8.65-6.605 2.08 0 3.12.775 3.12 2.326 0 1.227-1.452 3.047-2.65 4.198-1.199 1.152-2.86 2.159-4.983 3.02a4.88 4.88 0 00-.16 1.227c0 .754.223 1.33.67 1.728.445.399 1.04.598 1.782.598 1.974 0 3.98-.7 6.017-2.1zm-8.245-2.164c.977-.796 2.037-1.96 3.183-3.487 1.147-1.53 1.72-2.746 1.72-3.65 0-.452-.256-.677-.765-.677-.764 0-1.56.952-2.388 2.857-.827 1.906-1.41 3.559-1.75 4.958v-.001zm31.594 7.08c3.016.945 14.668 7.357 24.425 8.624 3.118.405 10.972-.182 12.223-2.463 1.345-2.453-.918-5.444-6.408-4.907-2.74.269-11.87.99-12.555 1.052-.5.044 7.756-2.589 8.243-2.631 8.023-.694 14.599.241 14.27 4.188-.26 3.132-1.781 5.359-4.165 6.97-3.493 2.045-10.662 3.74-16.462.893l-19.062-9.355c-1.938-.953-3.94-2.298-6.622-3.232-.17 4.238-1.911 7.362-5.222 9.373-2.959 1.796-6.404 3.523-10.206 3.872v1.009h.877c.887 0 1.626.234 2.21.704.583.468.878 1.036.878 1.714 0 .825-.404 1.517-1.207 2.076-.804.563-1.784.841-2.954.841a8.93 8.93 0 01-2.624-.404v-1.65c.871.414 1.68.621 2.43.621.61 0 1.137-.12 1.608-.36.463-.24.693-.55.693-.933 0-.358-.183-.629-.548-.816a2.527 2.527 0 00-1.164-.275H76.99v-2.465c-3.135-.05-5.608-.687-7.415-1.91-1.885-1.275-2.828-3.043-2.828-5.306 0-1.975.62-3.574 1.86-4.795 1.239-1.221 2.759-2.065 4.56-2.532 1.8-.467 3.617-.7 5.451-.7 2.684 0 4.925.16 6.726.484-.136-.287-.712-2.518-1.917-4.852-1.207-2.334-2.09-4.292-2.65-5.872s-.84-2.998-.84-4.256c0-2.443 1.163-4.588 3.49-6.437 2.327-1.85 5.069-2.775 8.228-2.775 2.039 0 3.652.405 4.84 1.213.879.597 1.434 1.337 1.663 2.218l2.835.674c4.103.811 8.917 1.964 13.258 2.416 6.786 1.838 13.729 1.015 20.28-.897 1.499-.276 3.473-1.657 3.867-.07.474 1.726-3.938 2.447-5.209 2.956-8.048 3.22-17.676.702-25.725-.678l-9.401-1.689c-.307 1.145-.94 2.131-1.898 2.961-1.41 1.222-3.083 1.994-5.019 2.317 1.507-2.28 2.439-4.285 2.793-6.018-.904-.163-6.967-.215-5.81-1.229.238-.207.711-.759.948-.897l5 .085c-.143-1.523-.95-2.284-2.423-2.284-.713 0-1.392.242-2.038.727-.645.485-1.162 1.14-1.553 1.966-.39.827-.586 1.778-.586 2.856 0 1.221.213 2.388.637 3.501.425 1.114 1.18 2.694 2.267 4.741 1.087 2.047 1.944 3.798 2.573 5.252a14.442 14.442 0 011.147 4.445c2.06.621 4.27 1.097 6.215 1.94zm-16.141-.98c-.544-.071-1.036-.135-1.478-.188-1.983-.243-.275-.188-2.445-.188-1.698 0-3.253.36-4.662 1.077-1.408.718-2.531 1.689-3.362 2.91a7.023 7.023 0 00-1.248 4.04c0 1.544.69 2.318 1.69 3.304 1 .987 3.623 1.556 5.185 1.556 2.208 0 4.24-1.87 5.904-3.774 1.663-1.903 1.977-3.194 2.782-5.568.48-1.413-1.26-2.47-2.365-3.167l-.001-.001zm23.21-14.238l-4.297 11.949a1.047 1.047 0 00-.064.388v.161c.064 0 .159-.086.287-.258l1.767-3.892a39.692 39.692 0 012.022-3.843c.785-1.324 1.676-2.417 2.673-3.278.998-.86 2.08-1.292 3.248-1.292.785 0 1.4.183 1.845.55.446.365.669.882.669 1.55 0 .494-.095.979-.286 1.453l-3.279 8.46a.359.359 0 00-.065.13.405.405 0 01-.094.162c0 .107.052.161.159.161.063 0 .127-.032.191-.097.063-.064.095-.129.095-.194l1.687-3.585c2.61-5.792 5.391-8.687 8.342-8.687.742 0 1.331.188 1.766.565.434.376.652.867.652 1.47 0 .344-.074.699-.223 1.065l-2.674 7.073c-.106.194-.159.474-.159.84 0 .775.382 1.163 1.145 1.163 1.084 0 2.569-.615 4.457-1.842l.287.388c-2.228 1.637-4.415 2.454-6.558 2.454-1.167 0-2.111-.259-2.833-.774-.722-.517-1.081-1.163-1.081-1.938 0-.56.127-1.206.381-1.938l2.93-7.267.063-.162c0-.107-.053-.162-.159-.162l-.222.162c-.107.043-.341.226-.702.549a14.979 14.979 0 00-2.276 2.729 40.516 40.516 0 00-2.053 3.569 201.657 201.657 0 01-1.91 3.617c-.381.731-.705 1.2-.97 1.405-.265.204-.705.306-1.321.306-.848 0-1.533-.253-2.053-.759s-.78-1.157-.78-1.954c0-.646.149-1.27.446-1.872l2.833-7.364a.849.849 0 00.049-.113.38.38 0 00.016-.113l-.064-.162c-.126 0-.274.108-.445.324-1.358 1.313-2.579 2.858-3.661 4.634a63.602 63.602 0 00-3.151 5.894c-.213.538-.462.92-.749 1.146-.285.226-.672.34-1.161.34-2.08 0-3.12-.808-3.12-2.423 0-.603.149-1.27.446-2.002l2.674-7.59 5.285-1.097h-.005zm26.101 8.138c.977-.796 2.038-1.96 3.184-3.487 1.146-1.53 1.719-2.746 1.719-3.65 0-.452-.255-.677-.764-.677-.764 0-1.56.952-2.388 2.857-.827 1.906-1.412 3.558-1.751 4.957z"/></g><defs><clipPath id="clip0_795_1353"><path fill="#fff" d="M0 0h168v68H0z"/></clipPath></defs></svg>