<svg width="151" height="72" fill="none" xmlns="http://www.w3.org/2000/svg"><g clip-path="url(#clip0_795_1278)" fill="#454545"><path d="M31.727 43.294c-2.09-.012-4.17-.034-6.247-.056v.998c2.078.344 2.192.575 2.192 2.539v3.515c0 .904-.122 1.43-.364 1.659-.235.223-.577.28-.963.221-1.442-.22-2.534-1.521-3.269-3.312-.717-1.749-1.101-4.01-1.101-6.3 0-2.657.496-4.787 1.265-6.318.783-1.56 1.863-2.524 3.042-2.691 1.639-.232 2.967.923 3.669 4.407.25-.094.514-.188.776-.287-.188-2.333-.301-3.999-.338-5.165-.776-.16-2.17-.494-3.744-.243-2.119.337-4.084 1.57-5.558 3.442-1.43 1.817-2.391 4.27-2.391 7.41 0 2.645.706 4.946 1.965 6.725 1.295 1.83 3.139 3.166 5.509 3.568 1.673.284 3.305-.11 4.531-.399-.087-.955-.112-2-.112-3.207v-2.956c0-2.046.113-2.143 1.139-2.458l-.001-1.092zm14.585 12.37v-1.311c-1.252-.356-1.515-.813-2.228-4.304-.69-3.379-1.36-6.703-2.003-10.002a632.76 632.76 0 00-1.965-9.68c-.364.194-.714.39-1.065.584-.726 3.265-1.433 6.478-2.153 9.649a817.205 817.205 0 01-2.141 9.207c-.629 2.624-.976 2.962-2.254 3.003v1.136c1.565.236 3.143.442 4.72.641v-1.2c-1.528-.496-1.617-.902-1.277-2.805.248-1.381.5-2.553.688-3.449l3.92.188c.274 1.262.528 2.793.75 3.95.366 1.902.25 2.35-.989 2.474v1.24c1.991.25 3.994.466 5.997.678zm-6.147-10.277c-1.063-.031-2.128-.063-3.192-.09.275-1.304.527-2.604.776-3.92.251-1.328.513-2.67.814-4.051l.075-.003c.25 1.328.5 2.66.75 4 .251 1.345.515 2.705.777 4.064zM60.61 56.062c-.413-.323-.846-1.007-1.34-2.108-.42-.935-.885-2.243-1.602-4.547-.633-2.034-1.452-4.905-1.728-6.187 1.478-1.198 2.617-3.313 2.617-6.977 0-2.63-.547-4.465-1.478-5.548-.834-.972-1.853-1.344-3.518-1.204-2.04.172-4.082.353-6.11.562v1.322c1.49.146 1.666.374 1.666 3.624V50.68c0 3.331-.175 3.72-1.752 3.777v1.32c2.103.223 4.206.41 6.309.588v-1.381c-1.54-.325-1.703-.749-1.703-4.148v-6.172c.125 0 .251-.006.388.004.664.043.972.64 1.302 1.94.56 2.202 1.177 4.5 1.727 6.225.89 2.778 1.66 3.975 4.283 4.388.271.043.575.078.8.097.038-.418.088-.833.138-1.255h.001zm-8.638-13.014v-9.945c0-.907.04-1.25.163-1.503.128-.263.388-.44.864-.474 1.164-.086 2.466 1.422 2.466 5.912 0 2.246-.333 3.94-.989 4.959-.483.751-1.027 1.05-1.891 1.05-.213 0-.413.005-.613.001zm9.477-14.14v1.441c1.415.278 1.578.571 1.578 4.179v16.969c0 3.605-.163 3.995-1.69 4.172v1.264c2.153.136 4.307.271 6.46.355v-1.297c-1.766-.331-1.904-.74-1.904-4.389v-6.275c.439.244.877.483 1.327.724.226.003.463-.004.802-.085 1.188-.283 2.319-1.125 3.13-2.622.817-1.508 1.34-3.686 1.34-6.634 0-2.994-.613-5.285-1.64-6.605-.888-1.14-2.03-1.592-3.77-1.516-1.877.083-3.755.206-5.633.318v.001zm4.445 3.203c0-.757.046-1.21.238-1.475a.876.876 0 01.726-.384c1.164-.041 2.504 1.481 2.504 6.693 0 6.07-1.752 7.099-2.416 7.099-.426 0-.751-.184-1.052-.406V32.112zm19.293 25.496v-1.51c-1.252-.271-1.526-.77-2.241-4.8-.7-3.942-1.352-7.868-1.99-11.81-.638-3.933-1.29-7.878-1.967-11.85-.362.193-.726.38-1.076.567l-2.14 11.823c-.713 3.926-1.422 7.844-2.141 11.757-.633 3.434-.99 3.924-2.266 4.154v1.49c1.565.06 3.142.098 4.72.123v-1.504c-1.528-.434-1.619-.936-1.278-3.384.247-1.774.5-3.277.689-4.419 1.301.01 2.604.016 3.918.022.276 1.513.527 3.34.752 4.725.364 2.242.25 2.795-.976 3.097v1.509c1.99.034 3.993.025 5.996.01zm-6.16-11.673a998.896 998.896 0 00-3.193-.007c.276-1.644.526-3.272.776-4.915.25-1.64.526-3.297.827-4.99h.062l.751 4.952c.251 1.65.513 3.306.777 4.96zM103.19 56.98v-1.45c-1.54-.274-1.66-.403-1.703-4.291-.031-2.841-.075-5.683-.1-8.53-.024-2.845-.06-5.692-.087-8.54-.035-3.452.025-3.714 1.715-3.945v-1.45c-1.477-.078-2.942-.156-4.407-.228a1533.62 1533.62 0 00-1.928 9.465c-.64 3.188-1.277 6.381-1.916 9.584-.638-3.197-1.277-6.402-1.903-9.615-.627-3.221-1.265-6.455-1.89-9.692-1.478-.047-2.955-.06-4.42-.069v1.51c1.778.327 1.9.92 1.74 5.863-.052 1.622-.125 3.247-.175 4.868-.05 1.625-.09 3.247-.15 4.869-.078 2.13-.176 3.845-.239 5.205a82.661 82.661 0 01-.2 3.078c-.13 1.6-.451 2.24-1.653 2.48V57.6c1.665-.012 3.33-.028 5.008-.08v-1.503c-1.415-.185-1.824-.678-1.916-2.779-.058-1.325-.041-3.522.025-7.317.034-1.949.075-3.901.113-5.85l.113-5.85c.037.003.075.003.112.003a7918.344 7918.344 0 004.056 22.814c.225-.007.45-.017.689-.026.726-3.895 1.476-7.784 2.204-11.658.725-3.867 1.477-7.715 2.215-11.542.026 0 .063.004.1.004v8.763c0 2.915.008 5.841.013 8.76.007 3.976-.062 4.114-1.615 4.507v1.485c2.066-.122 4.132-.234 6.197-.35l.002-.001zm13.909-27.036c-1.615-.168-3.23-.334-4.833-.493v1.379c1.591.47 1.668.93 1.34 2.52-.286 1.387-.703 3.04-1.089 4.62-.389 1.59-.789 3.117-1.077 4.227-.413-1.541-.827-3.082-1.202-4.62-.376-1.54-.753-3.075-1.114-4.584-.391-1.637-.413-2.03.914-2.32v-1.394c-1.99-.156-3.981-.313-5.972-.45v1.444c1.089.365 1.441.69 2.165 3.428a1110.24 1110.24 0 011.591 6.047c.412 1.594.754 2.866 1.026 4.064.165.722.226 1.148.226 2.214v4.896c0 3.622-.175 3.97-1.891 4.354v1.419c2.266-.18 4.533-.371 6.799-.583v-1.363c-1.829-.128-1.99-.41-1.99-3.967v-5.32c0-1.466.087-1.8.35-2.848.501-1.995.9-3.44 1.252-4.708a98.41 98.41 0 011.089-3.618c.787-2.48 1.164-2.89 2.416-3.016v-1.328zm14.699 23.892v-1.128c-.89-.05-1.365-.471-2.154-2.13a90.208 90.208 0 01-2.266-5.156 138.26 138.26 0 01-1.978-5.249c.776-1.556 1.59-3.284 2.779-5.137 1.202-1.871 1.979-2.077 3.331-2.095v-1.132a175.97 175.97 0 00-5.309-.774v1.213c.113.037.224.077.338.112.951.296.972.838.501 1.915-.868 1.985-1.929 4.323-2.992 6.088-.515.854-.977 1.425-1.39 1.649V35.55c0-3.175.137-3.471 1.603-3.53v-1.242a278.525 278.525 0 00-6.16-.732v1.316c1.553.377 1.715.707 1.715 3.976v15.035c0 3.268-.213 3.602-1.689 3.979v1.316c2.078-.221 4.156-.49 6.247-.764v-1.238c-1.528-.05-1.716-.33-1.716-3.509v-6.923c.351-.078.624.143 1.002 1.166.736 1.994 1.523 4.169 2.228 6.007.697 1.813 1.302 3.324 1.653 4.082 1.414-.206 2.829-.43 4.257-.655v.002z"/><path fill-rule="evenodd" clip-rule="evenodd" d="M75.5 11.854c14.967 0 38.154 3.175 50.318 12.803-12.756-4.623-30.585-7.495-50.318-7.495-38.78 0-70.216 11.087-70.216 24.764 0 13.678 31.438 24.766 70.216 24.766 38.779 0 70.216-11.088 70.216-24.766 0-11.612-24.169-21.69-33.064-26.184C135.547 20.907 151 30.698 151 41.926 151 58.536 117.198 72 75.5 72S0 58.535 0 41.926s33.802-30.073 75.5-30.073zm36.701 3.618c-.869-3.174-1.738-6.35-3.228-8.735-1.489-2.386-3.6-3.983-6.232-4.975C100.109.771 96.956.386 93.804 0c.74 2.451 1.48 4.902 3.125 7.147 1.645 2.244 4.194 4.282 6.89 5.635 2.696 1.353 5.539 2.022 8.382 2.69zm.676-.136c1.705.047 3.41.095 4.747-.31 1.336-.405 2.305-1.263 2.994-2.491.688-1.229 1.097-2.828 1.505-4.428-1.32 0-2.642 0-3.915.51-1.273.509-2.499 1.527-3.38 2.732-.88 1.205-1.415 2.596-1.95 3.986l-.001.001z"/></g><defs><clipPath id="clip0_795_1278"><path fill="#fff" d="M0 0h151v72H0z"/></clipPath></defs></svg>