<svg width="157" height="113" fill="none" xmlns="http://www.w3.org/2000/svg"><g clip-path="url(#clip0_795_1385)" fill-rule="evenodd" clip-rule="evenodd" fill="#454545"><path d="M72.307 26.99c-15.716 0-28.455 13.213-28.455 29.51 0 16.298 12.74 29.51 28.455 29.51 15.715 0 28.455-13.212 28.455-29.51 0-16.297-12.74-29.51-28.455-29.51zm2.891 6.947c6.708-1.645 5.398 18.259-1.002 8.41-2.836-4.716-2.502-7.52 1.002-8.41zM73.084 73.62c-3.059 1.111-2.568-.26 1.47-4.113 1.966-3.792 1.531-4.445-1.306-1.957-3.431 3.582-6.391 6.15-8.88 7.7-1.298.81-2.924 1.893-4.502 1.213-1.717-.74-.023-2.82 5.081-6.237 12.048-11.12 9.283-13.531-3.798-20.912-8.684-4.897-7.717-7.857 1.813-3.292 12.27 5.884 17.76 6.89 21.852-8.277 1.256-2.25 1.873-1.82 1.853 1.29-2.234 11.36-3.31 27.438-13.582 34.586zm18.114 20.752c.528-1.154 1.082-2.424 1.508-3.683l-1.98 1.973a54.08 54.08 0 00-.311 1.404c-.072.296-.179.796-.234 1.319l1.017-1.013z"/><path d="M51.578 90.071L17.584 56.332l54.907-54.16L127.03 56.5 97.07 86.344a6.04 6.04 0 01.095 2.085L129.217 56.5 72.498 0 15.397 56.326 50.352 91.02c.392-.34.802-.661 1.226-.948zm2.02 4.17c.181-.554.338-1.128.473-1.695l-.325-.322c-.214.384-.436.936-.644 1.525l.496.492zm31.305 4.222l-12.412 12.365-9.483-9.411c-.432.367-.902.665-1.384.792l10.873 10.792 13.017-12.967a3.73 3.73 0 01-.611-1.57zm-25.801-.923l-.524-.52a1.54 1.54 0 01-.14.695.485.485 0 01-.082.133c-.174.204-.35.4-.53.59l1.26 1.25c-.123-.684-.106-1.407.017-2.147v-.001zm-1.271-1.261l-.645-.641c-.353.36-.742.702-1.153 1.02l.073.074c.09-.04.181-.083.271-.12.378-.156.967-.383 1.454-.333zM2.937 88.167c-1.431.222-1.358-.417.218-1.92 2.584-2.251 6.377-2.981 11.38-2.191 4.234 1.374 4.234 3.873 0 7.497-.874.813-.688 1.308.557 1.485 3.561 1.38 3.521 3.668-.12 6.863-3.774 3.325-7.522 4.716-11.45 4.144-1.674.106-2.209-.69-1.607-2.388-1.775.122-2.316-.958-1.623-3.241 3.255-7.365 4.137-10.782 2.646-10.25l-.001.001zm9.282 9.474c-.959 3.417-3.512 4.19-7.66 2.318.863-1.455 2.115-3.652 3.76-6.592 2.798.392 4.098 1.817 3.9 4.274zm-.159-8.585c-.45 2.08-1.815 3.034-4.098 2.862.485-1.424.916-3.138 1.293-5.143 2.433-.761 3.368 0 2.805 2.28zm15.065 2.58c-.061 1.438-.506 2.684-1.333 3.74-1.183 1.955-1.064 2.523.358 1.702 2.867-1.266 4.14-3.451 3.82-6.556-1.225-2.009-3.432-1.951-6.625.172-4.062 3.413-5.136 6.558-3.222 9.436 1.6 1.527 4.287 1.237 8.057-.869 2.833-2.538 2.872-3.197.119-1.974-3.672 1.61-5.158.959-4.457-1.956 1.513-4.23 2.607-5.463 3.283-3.695zm18.082 1.414c.33-2.512-.466-3.738-2.387-3.676-4.175-.264-7.658 2.086-10.445 7.05-1.214 4.217-.351 5.772 2.587 4.667 1.62-.903 2.98-1.79 4.078-2.662 1.228-1.44 1.786-.981 1.671 1.375-.716 3.457-1.75 4.755-3.103 3.894.186-1.263.697-2.278 1.532-3.042-.367-.598-1.15-.273-2.348.977-2.862 1.249-3.533 2.963-2.01 5.144 2.647 1.242 5.008.253 7.084-2.971 2.27-2.855 3.384-6.44 3.342-10.757l-.001.001zm-4.242-1.853c1.311.098.29 2.205-3.063 6.32-2.146-.26-1.125-2.366 3.063-6.32z"/><path d="M53.224 98.865c-2.095.085-2.267-.163-.516-.743 4.961-2.586 6.626-5.212 4.993-7.878-2.2-1.678-4.78-1.062-7.74 1.848-3.199 3.501-3.782 6.314-1.75 8.439 3.615 1.362 6.864.354 9.747-3.024.56-1.295-1.017-.843-4.734 1.358zm1.587-7.215c-.974 4.49-1.996 6.082-3.064 4.775 1.174-4.546 2.195-6.137 3.064-4.775zm10.608.154c.509-2.586-.009-3.402-1.551-2.45-4.375 5.9-5.45 9.996-3.223 12.285.894.422 2.087-.363 3.58-2.355.863-.958 1.447-1.749 1.751-2.373 1.074-.883 1.632-.641 1.671.725.214 2.678 1.308 3.921 3.283 3.73 1.234-.254 1.739-1.196 1.513-2.825.511-5.613.093-8.203-1.254-7.77-1.688.11-2.995 1.167-3.92 3.17-1.83.946-2.447.233-1.85-2.137zm15.041 6.701c-2.985-2.006-2.746-3.974.715-5.904-.75 1.908-.439 2.41.935 1.504 2.55-2.504 2.782-4.14.696-4.907-2.498-.97-5.256 1.44-8.275 7.227-.897 2.056-.44 3.735 1.372 5.033.67.29.292.544-1.134.76-.757.499-.59.735.498.706 1.17-.299 1.25.076.238 1.123-2.055 1.329-1.903 1.812.458 1.449 2.715-1.995 3.245-3.172 1.591-3.531.999-.309 1.527-.672 1.588-1.087 1.658.51 3.211-.682 4.659-3.576.086-1.129-1.028-.728-3.342 1.204v-.001zm9.446-4.561c.946-4.56 2.007-7.101 3.185-7.626 1.451.32.933 3.175-1.551 8.567-.41 1.267.166 1.267 1.73 0 3.837-4.578 4.454-8.254 1.85-11.03-1.591-.987-4.21 1.566-7.858 7.661-2.914 5.712-2.497 8.93 1.253 9.655 4.119 0 6.486-1.805 7.103-5.414.148-1.138-.78-.51-2.786 1.883-2.78.97-3.755-.261-2.925-3.695v-.001zm11.28 7.226c2.607-6.894 3.157-10.606 1.651-11.138-1.612-.522-3.01 2.098-4.198 7.86-.028 3.539.821 4.631 2.547 3.278zm-.034-12.857c3.098-1.007 3.739-2.468 1.923-4.383-1.849 1.28-2.49 2.741-1.923 4.383zm26.65 4.353c.331-2.513-.465-3.738-2.387-3.676-4.175-.264-7.657 2.086-10.444 7.05-1.215 4.216-.352 5.772 2.586 4.667 1.62-.903 2.98-1.79 4.079-2.662 1.228-1.44 1.785-.98 1.671 1.376-.716 3.456-1.75 4.754-3.104 3.894.186-1.264.697-2.278 1.532-3.043-.367-.598-1.15-.272-2.348.978-2.862 1.248-3.532 2.963-2.009 5.143 2.646 1.242 5.008.253 7.083-2.97 2.27-2.855 3.384-6.441 3.342-10.758h-.001zm-5.558-1.468c1.311.097.289 2.204-3.063 6.32-2.146-.26-1.125-2.367 3.063-6.32zm6.42 8.585c.58-6.825 2.371-10.429 5.371-10.813 2.32.429 2.373 2.404.159 5.924-.798 2.06-.257 2.57 1.622 1.532 3.27-3.999 5.302-5.426 6.096-4.284 1.119 6.508.668 9.731-1.353 9.67-2.268-.361-3.223-1.65-2.864-3.87-.301-.833-1.137-.438-2.506 1.19-3.896 2.73-6.071 2.947-6.525.65zm21.305-7.353c.429-1.12.528-1.892.298-2.318-1.881-1.023-3.34.28-4.376 3.912-2.315 5.86-2.142 8.455.517 7.788 1.86-1.4 3.147-2.922 3.859-4.564 2.079-1.311 2.782-.762 2.109 1.647.434 2.513 1.892 3.31 4.377 2.391.548-7.267.183-10.666-1.095-10.196-.742-.092-2.094.91-4.059 3.006-1.709.7-2.252.145-1.63-1.666zm-14.784-4.835c2.847-.767 3.71-1.884 2.587-3.35-2.138.028-3 1.145-2.587 3.35zm4.945 0c2.847-.767 3.71-1.884 2.587-3.35-2.138.028-3 1.145-2.587 3.35z"/></g><defs><clipPath id="clip0_795_1385"><path fill="#fff" d="M0 0h157v113H0z"/></clipPath></defs></svg>