<svg width="203" height="84" fill="none" xmlns="http://www.w3.org/2000/svg"><g clip-path="url(#clip0_795_1375)" fill="#454545"><path fill-rule="evenodd" clip-rule="evenodd" d="M96.209.393C85.62 2.008 75.612 9.516 65.909 20.39c-18.532-2.07-35.474.49-50.477 8.65C.916 36.937-4.37 48.046 3.953 58.682c8.729 11.156 29.098 17.87 55.896 22.054 30.757 4.802 60.102 4.21 87.835-1.134 20.384-3.927 38.52-9.722 49.479-20.99 7.646-7.862 7.822-16.652.284-24.323-9.918-10.095-28.312-17.642-55.823-22.337-9.887-1.687-19.236-2.302-28.019-2.624-7.136 2.438-12.043 7.277-15.756 13.403 3.115-6.694 6.935-11.936 12.618-13.332-6.189.293-12.242.902-17.966 2.198-3.097.7-5.757 3.048-7.913 7.303.884-2.988 2.085-5.547 4.492-6.452-6.18 1.52-12.358 3.68-18.538 6.24 3.745-2.393 8.043-4.439 12.833-6.17-.5-.777-1.258-1.35-2.21-1.772.954-.211 2.065.234 3.35 1.418 6.246-2.61 12.22-3.748 18.038-4.042.187-.507-1.645-2.134-4.35-4.467 2.249.706 4.05 2.011 5.206 4.183a99.666 99.666 0 0115.898-.213c-5.532-5.397-12.65-8.827-23.1-7.232h.002zm-6.51 28.66c-8.175-2.175-15.425-7.134-23.884-8.014-18.271-1.901-34.877 1.601-48.641 10.548-18.2 11.83-14.863 24.626 3.671 34.818C50.153 82.522 98.775 86.85 148.32 77.183c16.986-3.314 33.417-8.133 43.705-21.415 7.058-9.114 3.221-18.78-7.558-26.096-15.521-10.534-37.19-16.409-64.878-18.153-.28 4.614-2.145 9.042-6.239 13.171-5.83 5.881-13.438 7.947-23.652 4.362z"/><path d="M50.324 55.595c0 2.481-.774 4.642-2.32 6.488-1.65 1.956-3.7 2.93-6.156 2.93-1.638 0-3.075-.417-4.326-1.244a128.42 128.42 0 00-1.509-1.269c-.134.039-.226.416-.27 1.135-.046.71-.148 1.07-.31 1.07h-3.99c-.148 0-.226-.084-.226-.244 0 .013.013-.103.039-.34.206-2 .31-5.835.31-11.497 0-2.314-.104-5.718-.31-10.2-.13-2.853-.193-4.11-.193-3.757 0-.327.16-.506.49-.545.458-.013 1.128-.039 2.024-.07a30.69 30.69 0 001.076-.129c.452-.07.82-.11 1.096-.11.2 0 .304.142.304.43 0 .43-.033 1.077-.09 1.948a28.82 28.82 0 00-.091 1.969c0 .654-.032 1.628-.084 2.937a71.644 71.644 0 00-.083 2.936c0 .475.09.712.264.712.09 0 .18-.07.284-.206 1.38-1.711 3.21-2.57 5.485-2.57 2.604 0 4.712.968 6.324 2.91 1.508 1.834 2.263 4.073 2.263 6.713l-.001.003zm-4.254-.173c0-1.488-.47-2.802-1.419-3.937-1.005-1.212-2.244-1.82-3.72-1.82-1.508 0-2.764.596-3.77 1.781-.974 1.129-1.457 2.45-1.457 3.976 0 1.55.484 2.891 1.456 4.02 1.006 1.172 2.276 1.763 3.81 1.763 1.49 0 2.727-.61 3.72-1.821.922-1.129 1.38-2.443 1.38-3.962zm22.942-.847c0 .923-.4 1.546-1.206 1.86-.547.198-4.448.57-11.713 1.115.161 1.103.774 2.039 1.837 2.815 1.012.738 2.095 1.109 3.255 1.109 1.998 0 3.829-.635 5.492-1.898l.606-.488c.104 0 .168.012.2.039.032.026.27.455.71 1.295.445.847.663 1.296.663 1.36 0 .076-.102.217-.302.429-1.85 1.942-4.222 2.917-7.124 2.917-2.92 0-5.247-.866-6.988-2.603-1.734-1.732-2.604-4.046-2.604-6.938 0-2.584.831-4.828 2.488-6.745 1.754-1.993 3.894-2.988 6.44-2.988 2.366 0 4.338.866 5.924 2.59 1.547 1.68 2.32 3.726 2.32 6.13l.002.001zm-4.487-1.14c0-1.04-.413-1.963-1.238-2.764-.824-.801-1.752-1.199-2.79-1.199-1.161 0-2.186.462-3.09 1.386-.902.923-1.352 1.961-1.352 3.109 0 .262.225.39.676.39 1.87 0 4.1-.185 6.698-.55.727-.104 1.096-.226 1.096-.373zm17.946-6.412c0 1.379-.097 2.636-.283 3.763-.039.289-.168.43-.381.43-.264 0-.665-.027-1.199-.084a12.226 12.226 0 00-1.225-.083c-1.592 0-2.61.442-3.049 1.334-.264.538-.4 1.66-.4 3.359v2.07c0 .7.026 1.764.078 3.193a96.04 96.04 0 01.077 3.194c0 .332-.142.506-.431.506-.387 0-.974-.007-1.76-.019-.787-.013-1.38-.02-1.766-.02-.284 0-.432-.153-.432-.467 0-1.014.02-2.546.052-4.585.032-2.038.046-3.578.046-4.603 0-3.09-.284-5.578-.852-7.457a1.033 1.033 0 01-.038-.225c0-.153.084-.256.245-.32.457-.052 1.108-.129 1.947-.23 1.348-.258 1.972-.385 1.87-.385.2 0 .334.372.393 1.115.064.75.18 1.122.342 1.122a.188.188 0 00.096-.038l1.554-.988a7.08 7.08 0 011.747-.756c.49-.148 1.122-.224 1.895-.224.987 0 1.476.133 1.476.397h-.002zm18.063 7.553c0 .923-.4 1.546-1.206 1.86-.547.198-4.448.57-11.713 1.115.161 1.103.774 2.039 1.837 2.815 1.012.738 2.095 1.109 3.255 1.109 1.998 0 3.829-.635 5.492-1.898l.606-.488c.104 0 .168.013.2.039.032.026.27.455.71 1.295.444.846.663 1.295.663 1.36 0 .076-.103.217-.303.429-1.85 1.942-4.222 2.917-7.123 2.917-2.92 0-5.248-.867-6.988-2.603-1.734-1.732-2.604-4.046-2.604-6.938 0-2.584.831-4.828 2.488-6.745 1.753-1.994 3.893-2.988 6.44-2.988 2.366 0 4.337.866 5.923 2.59 1.548 1.68 2.321 3.726 2.321 6.13l.002.001zm-4.487-1.14c0-1.04-.413-1.963-1.238-2.764-.824-.801-1.753-1.199-2.791-1.199-1.16 0-2.186.462-3.088 1.386-.902.923-1.353 1.961-1.353 3.109 0 .262.225.39.677.39 1.869 0 4.1-.185 6.698-.55.728-.104 1.095-.226 1.095-.373zm25.72-1.655c0 3.25-1.515 5.43-4.551 6.533 0 .635.626 1.795 1.889 3.47 1.257 1.672 1.888 2.506 1.888 2.506 0 .193-.631.314-1.895.378-.838.039-1.464.058-1.875.058-.903 0-1.464-.185-1.689-.557-.586-1.007-1.515-2.47-2.778-4.393-.149-.224-1.516-.32-4.1-.282l-.735.019v4.648c0 .392-.142.583-.418.583-.4 0-.999-.006-1.786-.019a117.37 117.37 0 00-1.786-.02c-.277 0-.419-.243-.419-.73V52.286c0-1.526-.058-3.808-.174-6.854-.116-3.045-.174-5.328-.174-6.854 0-.23.116-.352.354-.378.413-.014 1.038-.039 1.876-.077.174-.013.54-.058 1.102-.134a8.175 8.175 0 011.083-.097c.174 0 .264.147.264.45 0 .679-.027 1.686-.077 3.026a87.55 87.55 0 00-.078 3.02v4.84c0 .263.059.398.168.398.303-.25.761-.616 1.36-1.102 2.12-1.623 4.132-2.438 6.053-2.438 1.863 0 3.385.476 4.571 1.43 1.282 1.04 1.927 2.458 1.927 4.265zm-4.564.878c0-1.788-1.167-2.686-3.494-2.686-1.734 0-3.687 1.154-5.866 3.462v2.795c1.019.186 2.249.283 3.7.283 1.45 0 2.701-.276 3.732-.827 1.282-.686 1.928-1.699 1.928-3.027zm23.122 1.917c0 .923-.4 1.546-1.205 1.86-.548.198-4.449.57-11.714 1.115.162 1.103.774 2.039 1.837 2.815 1.012.738 2.095 1.109 3.255 1.109 1.998 0 3.829-.635 5.493-1.898l.606-.488c.103 0 .167.013.199.039.032.026.271.455.71 1.295.445.846.663 1.295.663 1.36 0 .076-.102.217-.302.429-1.85 1.942-4.222 2.917-7.123 2.917-2.92 0-5.247-.867-6.988-2.603-1.734-1.732-2.605-4.046-2.605-6.938 0-2.584.832-4.828 2.488-6.745 1.753-1.994 3.893-2.988 6.44-2.988 2.366 0 4.338.866 5.924 2.59 1.547 1.68 2.32 3.726 2.32 6.13l.002.001zm-4.487-1.14c0-1.04-.413-1.963-1.237-2.764-.825-.801-1.753-1.199-2.792-1.199-1.16 0-2.185.462-3.087 1.386-.903.923-1.353 1.961-1.353 3.109 0 .262.225.39.676.39 1.869 0 4.1-.185 6.698-.55.729-.104 1.095-.226 1.095-.373zm17.676 7.796c0 .276-.025.648-.077 1.122-.059.583-.097.962-.111 1.134-.013.225-.032.36-.058.41-.052.09-.168.173-.354.263-1.031.494-2.649.738-4.861.738-2.92 0-4.39-1.327-4.403-3.982 0-1.064.02-2.661.058-4.795.039-2.136.059-3.739.059-4.802 0-.513-.259-.789-.774-.828-.47 0-.928-.007-1.38-.02-.264-.063-.399-.576-.399-1.544 0-.36.026-.745.077-1.149.039-.3.238-.48.606-.545.309 0 .619-.007.922-.019.58-.026.87-.282.87-.77 0-.5-.013-1.262-.038-2.295a99.6 99.6 0 01-.039-2.308c0-.916.174-1.372.529-1.372.11 0 1.289.192 3.526.576.291.039.432.174.432.41 0 .559-.045 1.385-.136 2.489-.09 1.103-.136 1.93-.136 2.48 0 .366.175.545.516.545h4.557c.213 0 .323.077.323.224 0 .148-.027.392-.071.725a5.837 5.837 0 00-.064.738c0 .185.007.474.019.866.013.384.019.673.019.858 0 .237-.175.36-.529.36-.509 0-1.269-.032-2.295-.097a40.312 40.312 0 00-2.288-.097c-.097 0-.174.36-.226 1.07a132.8 132.8 0 00-.039 3.745v2.802c0 1.077.104 1.828.303 2.25.297.655.916.982 1.856.982.387 0 .954-.083 1.708-.25.747-.167 1.308-.25 1.67-.25.148 0 .225.108.225.333l.003.003zm7.458-22.613l-.019.243c-.27 4.655-.406 8.656-.406 12.003 0 1.488.027 3.718.077 6.694.052 2.975.071 5.199.071 6.68 0 .289-.096.43-.297.43h-3.609c-.226 0-.342-.142-.342-.43 0-1.481.013-3.705.038-6.68.026-2.975.039-5.206.039-6.694 0-1.352-.064-3.386-.193-6.097-.129-2.713-.193-4.732-.193-6.072 0-.25.129-.38.393-.38.226 0 .567.02 1.018.059.452.038.787.058 1.019.058.232 0 .586-.02 1.051-.058a14.08 14.08 0 011.032-.058c.226 0 .334.102.322.3l-.001.002zm8.67 3.584c0 1.54-.863 2.308-2.591 2.308-1.754 0-2.631-.77-2.631-2.308 0-.686.271-1.257.813-1.705.502-.43 1.109-.641 1.818-.641.703 0 1.314.217 1.824.654.509.443.767 1.007.767 1.693zm-.154 5.09c0 .962-.059 2.417-.175 4.367-.115 1.949-.174 3.41-.174 4.386 0 .916.02 2.282.059 4.103.038 1.822.058 3.187.058 4.084 0 .263-.116.398-.342.398h-3.688c-.264 0-.399-.257-.399-.77 0-.866.026-2.167.07-3.898.046-1.738.065-3.039.065-3.917 0-.975-.07-2.443-.213-4.398-.142-1.949-.213-3.418-.213-4.393 0-.212.13-.32.393-.32.227 0 .574.032 1.045.095.47.059.825.09 1.063.09a9.73 9.73 0 001.064-.09 8.76 8.76 0 011.063-.095c.213 0 .322.122.322.359h.002zm-36.523-16.926c0 1.293-.427 2.399-1.277 3.314-.873.947-1.949 1.419-3.236 1.419-1.295 0-2.375-.469-3.248-1.41-.85-.91-1.277-2.011-1.277-3.304 0-1.293.427-2.395 1.277-3.304.879-.928 1.958-1.39 3.248-1.39 1.281 0 2.355.462 3.226 1.39.857.902 1.287 2 1.287 3.285zm-1.968.019c0-.754-.233-1.397-.701-1.93a2.325 2.325 0 00-1.844-.846c-.746 0-1.367.279-1.857.837-.468.538-.701 1.184-.701 1.938 0 .741.235 1.387.71 1.929.497.577 1.111.864 1.848.864.736 0 1.353-.288 1.844-.864.468-.542.701-1.187.701-1.928zm12.539.022c0 1.226-.383 2.294-1.147 3.206-.815.967-1.828 1.447-3.041 1.447-.809 0-1.519-.206-2.138-.614a82.782 82.782 0 00-.745-.628c-.067.02-.111.207-.134.56-.023.352-.073.53-.153.53h-1.971c-.074 0-.111-.042-.111-.12l.018-.168c.102-.988.153-2.883.153-5.68 0-1.143-.051-2.825-.153-5.039-.063-1.41-.095-2.03-.095-1.856 0-.16.079-.25.242-.269.227-.006.557-.018 1-.034.086-.007.264-.028.532-.064a3.66 3.66 0 01.541-.053c.099 0 .15.069.15.211 0 .212-.016.533-.045.963a14.05 14.05 0 00-.045.972c0 .323-.016.804-.041 1.451a33.08 33.08 0 00-.042 1.451c0 .234.045.352.13.352.045 0 .09-.035.141-.102.681-.845 1.586-1.27 2.71-1.27 1.286 0 2.328.48 3.124 1.438.746.907 1.119 2.012 1.119 3.316h.001zm-2.103-.085c0-.735-.233-1.384-.701-1.945-.497-.598-1.108-.9-1.838-.9-.745 0-1.366.295-1.863.88-.48.558-.72 1.21-.72 1.964 0 .767.239 1.429.72 1.986.497.58 1.125.871 1.882.871.736 0 1.348-.3 1.838-.9.456-.557.681-1.206.681-1.957l.001.001zm12.52-3.833a.99.99 0 01-.029.168c-.249 1.416-.372 2.635-.372 3.661 0 .064.079 1.451.239 4.166l.009.13c.007.18-.076.268-.248.268-.173 0-.43.019-.778.06-.344.041-.601.06-.771.06-.117 0-.206-.215-.27-.646-.064-.43-.121-.645-.178-.645-.039 0-.204.12-.504.361-.366.295-.71.52-1.025.674a3.26 3.26 0 01-1.475.37c-1.207 0-2.226-.477-3.054-1.437-.784-.916-1.175-1.984-1.175-3.203 0-1.372.395-2.509 1.184-3.405.829-.935 1.917-1.4 3.268-1.4.952 0 1.784.328 2.49.984.106.124.271.304.497.538a.072.072 0 00.055.028c.038 0 .092-.193.159-.585.07-.39.156-.586.265-.586.169 0 .484.047.945.14.513.11.768.211.768.297v.002zm-2.389 3.88c0-.76-.226-1.409-.681-1.954-.478-.585-1.09-.88-1.838-.88s-1.366.292-1.867.871a2.919 2.919 0 00-.717 1.964c0 .747.239 1.396.717 1.948.501.573 1.121.861 1.867.861.73 0 1.337-.294 1.828-.88.462-.551.691-1.19.691-1.93zm18.08 4.179c0 .24-.073.36-.216.36-.093 0-.236-.009-.425-.028a4.746 4.746 0 00-.436-.028c-.104 0-.264.007-.474.019a8.344 8.344 0 01-.478.019c-.131 0-.197-.145-.197-.438 0-.285.014-.71.035-1.277.023-.567.032-.991.032-1.276 0-1.566-.006-2.44-.019-2.62-.048-.637-.178-1.077-.392-1.318-.242-.26-.674-.39-1.295-.39-.393 0-.832.188-1.322.558-.51.39-.773.772-.793 1.15-.026.484-.039 1.365-.039 2.648 0 .303.013.757.039 1.365a34.9 34.9 0 01.035 1.365c0 .164-.055.25-.165.25-.115 0-.277-.009-.49-.028a6.192 6.192 0 00-.49-.028 7.22 7.22 0 00-.441.02c-.194.012-.34.018-.439.018-.124 0-.187-.09-.187-.27 0-.297.009-.743.028-1.342.019-.597.028-1.043.028-1.34v-2.24c0-.7-.083-1.198-.251-1.495-.236-.422-.688-.631-1.354-.631-.392 0-.856.165-1.398.491-.596.361-.895.722-.895 1.087v2.711c0 .31.002.773.009 1.385.007.615.009 1.07.009 1.375 0 .18-.073.269-.216.269h-1.736c-.125 0-.189-.083-.189-.25 0-.501.004-1.252.01-2.256.006-1.004.009-1.754.009-2.255 0-1.131-.124-2.258-.372-3.383a.883.883 0 01-.029-.193c0-.082.029-.126.085-.14.229-.025.568-.072 1.013-.142.207-.063.516-.133.927-.21l.076-.008c.074 0 .143.218.21.655.064.44.125.659.173.659 0 0 .156-.14.468-.412.367-.317.733-.57 1.099-.757.529-.276 1.057-.412 1.586-.412 1.434 0 2.344.583 2.736 1.752a4.709 4.709 0 011.436-1.229c.608-.348 1.213-.523 1.81-.523 1.152 0 1.949.333 2.388 1.001.318.498.478 1.28.478 2.351 0 .203-.007.52-.019.944-.013.428-.019.744-.019.948 0 .389.009.976.029 1.757a78.9 78.9 0 01.028 1.762z"/><path fill-rule="evenodd" clip-rule="evenodd" d="M101.026 64.294c.115 2.042-6.988 2.665-10.424 1.615 4.479.101 8.197-.658 9.953-3.631.157.672.431 1.327.47 2.015l.001.001zm38.593-17.367c.115-2.041-6.988-2.665-10.424-1.615 4.479-.102 8.197.658 9.954 3.63.156-.672.43-1.327.469-2.015h.001zM52.783 63.83c-.115 2.042 6.988 2.665 10.424 1.615-4.48.102-8.197-.658-9.954-3.631-.157.672-.432 1.327-.47 2.015v.001z"/></g><defs><clipPath id="clip0_795_1375"><path fill="#fff" d="M0 0h203v84H0z"/></clipPath></defs></svg>