<svg width="128" height="92" fill="none" xmlns="http://www.w3.org/2000/svg"><g clip-path="url(#clip0_795_1324)" fill="#454545"><path fill-rule="evenodd" clip-rule="evenodd" d="M54.968 0c15.71 0 29.585 7.828 37.918 19.784a99.49 99.49 0 00-1.257.386C83.499 8.722 70.109 1.25 54.968 1.25c-14.167 0-26.8 6.543-35.027 16.762-.174.216-1.863 2.42-2.034 2.639-.342-.24-.687-.476-1.033-.71.193-.25 1.906-2.483 2.104-2.729C27.435 6.72 40.413 0 54.968 0zm45.195 55.324C95.84 76.26 77.248 92.001 54.968 92.001c-16.861 0-31.608-9.017-39.659-22.476l.943-.865c7.802 13.218 22.218 22.09 38.716 22.09 21.73 0 39.853-15.392 44-35.836.4.14.799.276 1.195.41z"/><path fill-rule="evenodd" clip-rule="evenodd" d="M54.968 13.88c3.064 0 6.028.426 8.835 1.222.015.547.041 1.121.079 1.72a30.666 30.666 0 00-8.914-1.318c-10.005 0-18.886 4.79-24.467 12.19-.093.123-1.437 1.853-1.527 1.976a68.495 68.495 0 00-1.144-1.194c.077-.104 1.408-1.814 1.486-1.917 5.886-7.705 15.186-12.68 25.652-12.68zM86.81 50.936C84.428 66.333 71.079 78.12 54.968 78.12c-10.099 0-19.11-4.632-25.018-11.88a18.508 18.508 0 001.558-.67c5.612 6.677 14.038 10.925 23.46 10.925 15.07 0 27.593-10.861 30.124-25.16a7.47 7.47 0 011.72-.398l-.001-.001z"/><path fill-rule="evenodd" clip-rule="evenodd" d="M31.256 54.167c-.323.167-2.772 4.552-3.526 5.416-1.514 1.733.363 3.387 1.492 4.04.532.306.984-.144 1.346-.47 7.58-6.808 24.438-13.242 31.205-14.476 1.348-.246 2.077-.267 3.481-.057 3.143.471 2.897.96 5.21 2.092 6.317 3.086 8.368-5.167 15.428-5.487 6.112-.278 15.513 6.163 15.706 6.054-3.54-3.673-13.548-7.637-16.72-7.419-3.173.218-6.761 2.76-10.415 4.844-1.1.627-2.675 1.157-3.855.892-1.747-.391-3.315-2.146-6.574-3.094-.42-.063-.95-.08-1.31-.124-.462-.056-23.439 4.21-27.167 9.798-.1-.55 2.773-4.926 3.332-5.532a98.31 98.31 0 00-7.634 3.523h.001z"/><path d="M6.203 65.438a17.8 17.8 0 01-1.174.814 5.141 5.141 0 01-1.4.639 2.54 2.54 0 01-1.362.022c-.436-.117-.787-.457-1.062-1.046-.236-.506-.404-1.188-.532-2.06A30.235 30.235 0 01.413 61a51.002 51.002 0 01-.079-3.012c.008-.99.025-1.883.044-2.673l.019-.746c.005-.205.022-.5.044-.879.017-.32.048-.515.079-.55.025-.027.057.124.078.415.06.863.2 1.598.406 2.21.202.594.438 1.105.72 1.513.28.406.6.676.957.856.349.176.708.273 1.07.306.36.034.722 0 1.078-.117.342-.112.678-.26.979-.462a9.216 9.216 0 002.238-2.129c1.71-2.284 2.985-5.564 3.826-9.87.165-.848.312-1.716.426-2.568.115-.868.202-1.715.283-2.56.08-.846.146-1.666.191-2.423.303-5.03.156-10.75-3.106-13.59-.951-.83-2.905-.949-3.734-.068-.27.286-.508.867-.702 1.727-.102.458-.238.961-.235 1.508l.141 26.95c.001.243.049.496-.08.543-1.936.694-3.18-1.477-3.314-3.251-.015-.188-.049-.42-.048-.748l.124-33.681c.001-.386.056-.614.093-.646.042-.035.102.073.2.324.425 1.074 3.44 2.96 5.026 2.522.31-.085.63-.152.928-.206.65-.12 1.275-.04 1.905.23.63.27 1.221.755 1.777 1.429.554.67 1.082 1.536 1.55 2.615.467 1.074.882 2.346 1.213 3.836 1.553 6.99 1.388 10.178.5 17.303a53.578 53.578 0 01-1.398 7.242c-.468 1.746-.975 3.309-1.521 4.658a28.235 28.235 0 01-1.771 3.652c-.635 1.084-1.295 2.013-1.98 2.781a15.052 15.052 0 01-2.136 1.998l-.001-.001zm20.26-23.342c.03.759.08 1.356.177 1.775.092.399.224.751.392 1.006.151.228.343.372.582.467.228.09.536.099.9.049.363-.05.805-.16 1.337-.332a20.894 20.894 0 001.873-.722c.2-.087.424-.199.701-.338.279-.14.566-.31.869-.48.299-.166.613-.36.915-.573.301-.214.581-.415.828-.623.392-.331.693-.684.915-1.05.224-.368.359-.731.39-1.103.015-.18-.008-.31-.066-.414-.057-.1-.129-.166-.237-.19a.894.894 0 00-.395-.002c-.144.03-.31.07-.475.109-.156.037-.308.094-.465.104-4.635.284-2.397-9.439 3.485-10.309.067-.01.132-.029.22-.042a1.69 1.69 0 01.264-.022c.077 0 .166-.002.253.004a.88.88 0 01.218.047c.089.03.141.077.15.141.01.065-.029.21-.132.452-.398.94-.791 1.898-1.19 2.858a.849.849 0 01-.161.276c-.047.047-.123.077-.244.068-.45-.036-.868.113-1.22.478a3.94 3.94 0 00-.637.894c-.184.352-.294.792-.328 1.292-.017.256-.007.46.03.593a.387.387 0 00.224.253c.099.048.25.065.438.05.198-.015.429-.05.716-.1.232-.04.441-.055.661-.07a.905.905 0 01.557.145c.162.103.302.288.393.537.094.26.145.63.137 1.098a10.97 10.97 0 01-.516 3.098c-.322 1.029-.704 1.954-1.166 2.743-.215.367-.464.76-.754 1.186a11.999 11.999 0 01-2.414 2.572c-.514.406-1.114.748-1.774 1.098-.398.212-.737.409-1.002.552a25.97 25.97 0 01-.756.394c-.235.116-.446.213-.634.295-.2.088-.397.193-.622.297-.475.22-.897.32-1.238.297-.35-.024-.632-.137-.859-.343a1.982 1.982 0 01-.54-.825 3.966 3.966 0 01-.226-1.096c-.316 1.254-.722 2.294-1.21 3.186-.478.875-1.08 1.545-1.838 1.97-.557.313-1.105.614-1.65.938-.436.26-.87.495-1.29.675-.434.185-.843.306-1.227.342a1.963 1.963 0 01-1.072-.203c-.333-.166-.622-.455-.856-.896-.353-.664-.614-1.573-.767-2.751-.152-1.169-.198-2.426-.16-3.788.035-1.194.132-2.398.298-3.588.168-1.201.378-2.318.644-3.37.404-1.596.893-2.898 1.503-3.92.593-.993 1.191-1.602 1.835-1.841a1.58 1.58 0 011.045-.042c.338.107.64.352.893.737.256.388.461.931.597 1.624.137.7.192 1.57.166 2.618-.02.79-.095 1.603-.236 2.42-.14.818-.33 1.591-.595 2.31-.206.56-.44 1.033-.705 1.412-.27.39-.554.66-.855.814-.6.31-1.112.204-1.507-.35-.402-.564-.686-1.538-.817-2.926-.026-.265-.085-.236-.156.078a11.403 11.403 0 00-.244 1.43c-.036.384-.049.75-.06 1.078-.035 1.098.056 1.883.282 2.39.222.501.519.804.878.91.371.11.78.075 1.244-.098.456-.17.91-.388 1.367-.64l1.325-.73c.38-.21.756-.504 1.13-.842.389-.35.793-.964 1.199-1.836a9.913 9.913 0 00.59-1.68 18.59 18.59 0 00.41-1.945c.052-.332.112-.513.167-.514.056 0 .088.151.1.435l-.001-.001zm-7.359-1.332a1.09 1.09 0 00-.038.204c-.007.071.001.153.016.258.05.367.106.715.182 1.075.072.34.177.635.297.893.12.26.252.436.415.537.172.106.372.11.604-.002.301-.144.524-.463.704-.936.184-.483.281-1.127.3-1.93.02-.81-.077-1.409-.306-1.806-.234-.406-.524-.527-.88-.383-.177.072-.39.263-.63.567-.225.288-.444.807-.663 1.523h-.001zm11.237-5.27a.53.53 0 01.061.208.577.577 0 01-.06.248c-.408.968-.808 1.941-1.193 2.91-.048.12-.081.17-.103.17-.033-.001-.066-.034-.107-.114a62.528 62.528 0 01-1.035-2.15c-.038-.082-.067-.137-.072-.196-.004-.058.027-.147.073-.261.387-.967.784-1.936 1.192-2.91.047-.113.082-.18.115-.175.022.003.059.055.095.132.34.722.68 1.441 1.034 2.138zm13.814-17.21c.103-.176.17-.2.19-.09.018.11.021.232.013.342-.071.896-.122 1.853-.192 2.873-.069 1.02-.14 1.974-.191 2.866a540.468 540.468 0 00-.175 3.092c-.007.121.027.185.094.177.452-.054.802-.047 1.054.017.261.066.498.192.716.376.32.27.539.813.629 1.645.044.401.056.857.043 1.359-.011.462-.04.912-.1 1.352a12.44 12.44 0 01-.227 1.187c-.028.12-.047.178-.07.177-.022 0-.035-.071-.039-.2-.002-.071-.012-.186-.024-.349a2.109 2.109 0 00-.108-.55 2.123 2.123 0 00-.315-.56 1.307 1.307 0 00-.572-.428c-.118-.047-.273-.06-.482-.065a3.218 3.218 0 00-.716.087c-.066.014-.098.086-.104.214-.062 1.277-.12 2.4-.15 3.396-.03.989-.047 1.908-.058 2.762-.01.836-.018 1.64-.015 2.41.003.76 0 1.55.007 2.373a7.33 7.33 0 01-.015.592 4.23 4.23 0 01-.092.6 1.898 1.898 0 01-.177.488.559.559 0 01-.292.265c-.144.053-.295.003-.457-.153a2.698 2.698 0 01-.479-.643c-.157-.283-.324-.6-.492-.971-.165-.363-.317-.744-.478-1.131a32.175 32.175 0 01-.618-1.646c-.205-.58-.356-1.22-.514-1.885a17.344 17.344 0 01-.387-2.105c-.08-.734-.11-1.523-.085-2.35.032-1.054.14-1.927.34-2.63.197-.695.422-1.26.667-1.683.249-.43.492-.724.715-.916.226-.194.389-.33.47-.373.075-.04.121-.13.128-.278.083-1.707.16-3.408.259-5.12.015-.27.05-.46.08-.588.03-.126.108-.284.232-.5.668-1.154 1.32-2.306 1.985-3.436h.002zm-2.78 14.259a.469.469 0 00-.017-.188c-.014-.037-.03-.035-.087-.01-.132.057-.253.15-.38.261a1.81 1.81 0 00-.34.398 2.484 2.484 0 00-.267.593 2.982 2.982 0 00-.118.8 6.85 6.85 0 00.053.96c.04.337.088.687.161 1.042a8.1 8.1 0 00.283 1.027 9.1 9.1 0 00.362.89c.05.104.077.139.096.106a.604.604 0 00.04-.242c.023-.983.063-1.933.103-2.877.04-.924.07-1.849.112-2.76zm12.177-1.106a8.825 8.825 0 01-.22 1.766 6.915 6.915 0 01-.578 1.629 3.238 3.238 0 01-.693.93c-.26.237-.538.395-.846.46-.596.13-1.107-.015-1.516-.465-.414-.457-.687-1.193-.835-2.206-.03-.21-.085-.193-.154.032-.123.398-.205.731-.234 1.013-.03.275-.052.525-.063.769-.034.698.066 1.257.288 1.683.22.421.53.716.935.854.215.074.459.086.723.074a4.88 4.88 0 00.893-.131c.453-.106.93-.254 1.428-.477.491-.219.955-.48 1.393-.767.266-.173.538-.375.806-.617a8.141 8.141 0 001.494-1.798c.223-.358.421-.743.6-1.172.078-.185.137-.263.18-.198.042.06.043.141.027.252-.077.535-.16 1.105-.306 1.71a20.64 20.64 0 01-.517 1.8c-.202.595-.43 1.168-.69 1.727a7.793 7.793 0 01-.848 1.413c-.315.416-.61.762-.938 1.036a6.04 6.04 0 01-.972.681 5.365 5.365 0 01-.988.417c-.32.1-.654.193-.974.276-.388.1-.75.14-1.09.11a3.043 3.043 0 01-.95-.23c-.291-.126-.557-.26-.78-.443a2.492 2.492 0 01-.491-.573c-.357-.545-.635-1.238-.794-2.083a12.98 12.98 0 01-.207-2.741c.02-.855.118-1.716.272-2.568.15-.833.348-1.606.607-2.342.39-1.109.871-1.979 1.472-2.654.586-.66 1.2-1.045 1.84-1.148a2.1 2.1 0 011.042.1c.338.12.642.337.895.66.248.315.451.747.595 1.265.148.535.212 1.185.193 1.956zm-3.829-.205a.742.742 0 00-.037.152.655.655 0 00.018.181 9 9 0 00.2.806c.075.258.178.48.301.687.12.2.246.358.417.454.175.098.36.135.591.088.299-.06.527-.267.696-.589.177-.339.272-.786.286-1.384.015-.59-.09-1.05-.317-1.375-.23-.33-.526-.447-.891-.396-.175.024-.376.128-.612.329-.234.198-.46.544-.653 1.048l.001-.001zm10.61-4.872c.035-.049.081-.104.137-.174.058-.073.123-.115.157-.116.044-.002.059.047.062.144.003.103.008.264 0 .463a6.9 6.9 0 00.056 1.262c.06.435.187.817.334 1.17.144.347.34.624.594.841.24.207.542.33.904.307a2.29 2.29 0 00.618-.136c.21-.075.424-.165.633-.264.202-.096.397-.224.58-.343a13.2 13.2 0 00.492-.34c.12-.089.21-.113.255-.106.055.01.025.18-.046.513a9.756 9.756 0 01-.278 1.037c-.124.377-.278.75-.467 1.119-.192.375-.41.7-.662.996-.258.302-.56.51-.906.645-.963.378-1.742.077-2.384-.848-.08-.114-.127-.07-.135.104-.047 1.149-.1 2.304-.152 3.466a65.948 65.948 0 00-.075 3.495c.001.148-.008.256-.041.326-.036.075-.102.119-.201.133a1.066 1.066 0 01-.776-.179c-.226-.153-.426-.394-.597-.693a3.656 3.656 0 01-.39-1.096 5.588 5.588 0 01-.11-1.393c.05-1.117.094-2.234.139-3.37.044-1.13.093-2.285.15-3.46.008-.153.018-.27.031-.352.013-.077.023-.149.038-.198.02-.065.046-.102.07-.139.02-.032.056-.082.102-.15.615-.902 1.243-1.788 1.867-2.664h.001zm7.418 5.23c-.005.173.005.282.046.336.034.045.084-.012.159-.192.065-.155.175-.398.314-.727.14-.329.309-.713.523-1.124.225-.432.48-.903.77-1.415a18.72 18.72 0 011.018-1.58c.299-.422.534-.676.7-.794a.912.912 0 01.499-.174c.121-.003.263.04.436.14.163.094.303.235.408.396.128.196.192.466.222.78.031.324.035.715.004 1.19-.021.327-.05.642-.067.943l-.056.917c-.019.308-.044.64-.069.994-.025.352-.035.738-.061 1.168a7.42 7.42 0 00.003 1.209c.035.336.138.598.31.764.183.176.433.307.749.397.316.09.656.152 1.006.182.362.03.702.037 1.032.029.33-.01.604-.041.814-.064.738-.08 1.39-.157 1.94-.282a4.29 4.29 0 001.421-.599c.409-.272.721-.564.966-.842.241-.274.43-.556.558-.807.148-.29.277-.613.364-.957.083-.331.155-.715.225-1.129.045-.263.088-.413.133-.477.035-.049.077.049.113.314.048.348.098.729.136 1.162.04.445.055.87.045 1.314a7.362 7.362 0 01-.154 1.331 11.93 11.93 0 01-.243.961c-.104.35-.25.702-.433 1.076a6.566 6.566 0 01-.71 1.141c-.293.376-.63.79-1.1 1.004-1.19.539-2.411.67-3.601.794-.319.033-.65.065-.97.09-.33.025-.649.04-.967.038a12.273 12.273 0 01-.9-.03 4.62 4.62 0 01-.81-.148 2.27 2.27 0 01-.781-.36c-.25-.18-.454-.49-.636-.92a4.16 4.16 0 01-.263-.936 9.26 9.26 0 01-.128-1.027c-.019-.349-.044-.684-.041-.998.002-.315.014-.591.02-.835.007-.27.018-.52.041-.744.021-.217.033-.442.039-.674.005-.225.017-.482.04-.764.023-.276.043-.634.06-1.04.01-.25-.004-.383-.067-.426-.066-.046-.156.017-.269.201a34.851 34.851 0 00-1.89 3.602c-.633 1.379-1.239 2.959-1.841 4.722-.085.247-.184.497-.294.754-.111.261-.262.391-.46.4-.209.007-.364-.122-.452-.392a3.392 3.392 0 01-.14-.982 93.55 93.55 0 01.013-2.72c.017-.925.053-1.933.086-3.038.032-1.092.084-2.311.134-3.66.05-1.348.114-2.889.192-4.621.096-2.182.234-4.176.377-5.971.143-1.788.293-3.344.424-4.683.031-.326.067-.55.093-.678a1.02 1.02 0 01.186-.378c.709-.977 1.408-1.959 2.127-2.937.065-.09.11-.104.132-.04.019.054.02.14.005.258-.052.389-.108 1.01-.19 1.877-.081.864-.173 1.914-.286 3.164a316.216 316.216 0 00-.347 4.263c-.121 1.576-.224 3.29-.346 5.123-.035.513-.066 1.11-.1 1.784-.032.667-.076 1.34-.104 2.014-.028.675-.048 1.297-.069 1.894-.02.597-.026 1.08-.036 1.44h-.002zm19.432-.067c.04-.043.043-.108.004-.167a5.448 5.448 0 00-.982-1.139c-.291-.249-.573-.39-.826-.4a1.033 1.033 0 00-.777.323 1.315 1.315 0 00-.263.414 1.644 1.644 0 00-.113.587c-.006.25.05.426.15.565.102.139.238.24.4.306.154.062.315.118.49.148s.317.045.45.044c.263-.002.515-.062.761-.168.243-.105.484-.27.705-.512h.001zm19.665-4.566a.425.425 0 01.062.164c.005.038-.014.082-.059.14-.386.497-.778.982-1.156 1.477-.042.055-.08.083-.101.073-.022-.011-.053-.049-.096-.12-.358-.6-.705-1.194-1.054-1.784a.446.446 0 01-.073-.158c-.005-.038.013-.088.058-.145.387-.492.77-.986 1.158-1.49.044-.058.079-.09.1-.08.023.01.061.057.096.12.344.602.707 1.198 1.065 1.804zm-10.607-4.162c.04-.044.078-.057.144-.071.055-.013.07.04.062.176-.106 1.802-.189 3.6-.276 5.396l-.004.135c0 .052.02.086.064.1.054.016.109-.043.18-.18.287-.555.58-1.086.885-1.59.301-.5.637-1.007 1.014-1.496.123-.16.258-.322.397-.486.144-.172.304-.33.462-.47.167-.15.334-.263.513-.34a1.17 1.17 0 01.552-.094c.12.01.24.062.38.144.13.076.246.205.354.355.136.188.215.422.247.692.032.278.03.612.008 1.01-.016.281-.03.544-.042.801-.012.264-.035.532-.053.802-.018.27-.03.558-.054.853-.024.288-.038.616-.068.98-.033.398-.018.74.018 1.03.037.29.14.535.312.713.17.176.431.346.746.48a8.67 8.67 0 001.001.368c.35.101.677.19 1.005.26.339.072.601.128.808.167.743.14 1.389.259 1.936.349.547.089 1.018.15 1.402.172.384.021.703.013.935-.027.243-.043.431-.13.555-.248.146-.14.265-.334.355-.596.088-.258.148-.588.21-.943.04-.226.094-.355.13-.374.042-.023.07.132.11.448.052.415.094.879.13 1.375.038.51.064.992.052 1.455a5.67 5.67 0 01-.152 1.241c-.062.247-.15.485-.248.717a1.56 1.56 0 01-.41.588 1.356 1.356 0 01-.689.294c-.287.044-.649.019-1.074-.095a121.79 121.79 0 00-3.569-.909c-.163-.038-.371-.078-.623-.127-.24-.047-.514-.095-.798-.155-.285-.06-.578-.137-.885-.215a10.08 10.08 0 01-.861-.254 5.852 5.852 0 01-.761-.32 1.94 1.94 0 01-.55-.407 3.046 3.046 0 01-.612-1.009 5.632 5.632 0 01-.29-1.13 7.74 7.74 0 01-.083-1.084c-.003-.34 0-.63.01-.855.012-.23.017-.437.027-.622.01-.187.02-.373.036-.578l.049-.654c.016-.237.029-.533.054-.878.007-.084.01-.166.007-.25-.004-.09-.042-.136-.095-.152a.145.145 0 00-.144.033c-.044.038-.09.085-.135.142-.42.541-.797 1.073-1.137 1.568a17.05 17.05 0 00-.95 1.55 34.2 34.2 0 00-1.74 3.73c-.067.166-.16.27-.26.317a.582.582 0 01-.754-.19c-.118-.165-.177-.393-.17-.69.019-.751.049-1.502.078-2.253l-.033-.002a7.288 7.288 0 01-.487 1.473c-.186.39-.404.7-.638.932-.24.237-.492.41-.77.502a2.789 2.789 0 01-.959.129c-.46-.011-.928-.148-1.407-.391a3.81 3.81 0 01-1.293-1.049c-.034-.043-.063-.04-.099.003-.338.411-.71.755-1.145 1.02a2.902 2.902 0 01-1.46.418c-.32.009-.657-.042-1.02-.093a1.79 1.79 0 01-.988-.451 1.865 1.865 0 01-.467-.662c-.122-.283-.17-.669-.158-1.15a8.24 8.24 0 01.205-1.645c.129-.562.31-1.096.544-1.572.228-.463.512-.86.841-1.15.322-.283.703-.42 1.12-.43.385-.01.757.11 1.123.36.368.25.766.688 1.187 1.295.056.081.108.059.134-.085.037-.202.048-.377.057-.544a3.08 3.08 0 00-.01-.496 8.493 8.493 0 00-.045-.38 2.992 2.992 0 00-.443-1.189 2.47 2.47 0 00-.491-.554c-.119-.1-.27-.173-.478-.244a2.01 2.01 0 00-.668-.097c-.494.005-.93.149-1.296.45-.374.305-.742.757-1.11 1.33-.067.105-.094.1-.086-.035.01-.187.031-.391.048-.629.017-.243.067-.505.118-.753.05-.25.11-.497.193-.738s.182-.456.312-.618c.369-.46.784-.768 1.253-.914a4.551 4.551 0 011.356-.202 2.954 2.954 0 011.668.504c.5.331.912.886 1.223 1.631.114.275.204.6.272.976a6 6 0 01.08 1.218 10.47 10.47 0 01-.135 1.435c-.076.473-.2.955-.354 1.451-.025.082-.014.133.029.162.27.183.52.325.76.397.229.07.468.12.688.125.363.007.706-.072 1.017-.248.313-.178.59-.443.821-.784.236-.348.43-.752.57-1.244a6.608 6.608 0 00.226-1.63c.005-.18.015-.367.003-.56a9.769 9.769 0 01-.019-.58c0-.27.037-.511.128-.715.096-.213.247-.431.478-.675.626-.661 1.237-1.339 1.862-2.002l.002.001z"/><path fill-rule="evenodd" clip-rule="evenodd" d="M127.971 56c.583-1.483-7.942-10.744-8.916-6.598.37 3.773 7.266 6.232 8.916 6.599zM90.614 40.802c-1.245 2.96 7.516 6.916 7.755 5.445-1.536-2.26-5.255-6.463-7.755-5.445zm5.742.063c1.243.219 6.975-2.08 6.615-3.02-2.057-.542-7.237-.926-8.822 1.026-1.211 1.492 1.42 1.855 2.207 1.994zm10.173 8.17c-.826-1.11-2.154-2.749-3.228-4.133-.396-.511-3.209-4.095-4.18-3.316-1.366 1.096-.23 3.213 1.808 4.725 2.253 1.671 5.513 2.693 5.599 2.724h.001zM86.876 38.22c-.334 2.85 6.386-.39 7.458-2.197-.108-.468-7.163-.313-7.458 2.198zm26.765 14.572c-.029-.948-5.273-10.32-7.124-8.495-1.624 1.599 6.068 8.66 7.124 8.495zm-2.084-12.312c-2.101-.766-4.863-1.136-7.1-.878-1.328.153-2.577 1.61-1.42 2.324 2.039 1.258 8.371.107 8.52-1.447v.001zm-.02 3.855c.618 2.16 8.825 2.11 9.187 1.595-.226-.638-10.141-4.927-9.187-1.595zm4.2 3.988c-1.745-.84-1.921.79-1.151 2.207.65 1.053 2.084 2.811 6.724 5.575-.266-1.168-4.404-7.219-5.573-7.782zM.108 76.337c24.747-23.57 54.57-35.425 89.468-35.564-34.39-1.993-64.19 8.978-89.4 32.914a6.341 6.341 0 00-.068 2.65z"/><path d="M41.616 58.1c.076-.089.115-.11.122-.065a.37.37 0 01-.01.15c-.1.398-.2.82-.3 1.269l-.284 1.262c-.098.458-.195.913-.287 1.356-.015.057 0 .082.046.07.265-.055.473-.08.623-.072a.855.855 0 01.4.11c.182.093.273.324.28.683.002.175-.016.376-.055.602a4.976 4.976 0 01-.354 1.15c-.025.057-.045.083-.055.083-.012 0-.017-.028-.012-.087.005-.03.009-.08.011-.153a.621.621 0 00-.181-.471c-.07-.075-.177-.122-.32-.15a1.557 1.557 0 00-.278 0 2.49 2.49 0 00-.428.08c-.042.01-.069.046-.078.102a63.863 63.863 0 00-.648 3.736c-.045.33-.094.675-.14 1.031a2.226 2.226 0 01-.048.26 1.612 1.612 0 01-.091.263.86.86 0 01-.133.213.366.366 0 01-.186.116c-.087.023-.17.002-.255-.066a1.144 1.144 0 01-.237-.278 3.942 3.942 0 01-.23-.412 6.217 6.217 0 01-.21-.48c-.09-.215-.176-.444-.26-.687a5.275 5.275 0 01-.197-.782 6.072 6.072 0 01-.091-.871c-.01-.306.015-.63.074-.975.077-.44.195-.81.353-1.116.16-.302.323-.552.49-.746.17-.194.329-.34.476-.435.146-.099.247-.161.302-.19.046-.019.076-.063.088-.127l.456-2.198a1.44 1.44 0 01.076-.26c.025-.056.078-.13.166-.232l1.405-1.686v.002zm-2.502 6.35a.181.181 0 00.002-.08c-.005-.016-.023-.015-.056 0a1.368 1.368 0 00-.238.13 1.203 1.203 0 00-.41.45 1.125 1.125 0 00-.116.342c-.021.124-.03.258-.025.4.003.142.018.285.04.433a2.567 2.567 0 00.26.792c.02.044.038.058.05.044.012-.01.024-.05.034-.106l.23-1.226c.074-.395.15-.79.228-1.18h.002zm9.123-.39c.022-.066.044-.104.064-.105.02-.002.03.031.027.093.004.203-.007.438-.034.706-.029.27-.067.544-.115.821a5.41 5.41 0 01-.087.405 2.947 2.947 0 01-.126.394 2.14 2.14 0 01-.34.618 2.116 2.116 0 01-.906.661 3.96 3.96 0 01-.47.155c-.313.081-.596.09-.85.028a1.343 1.343 0 01-.677-.43c-.016-.02-.035-.015-.06.017a4.94 4.94 0 01-.793.81c-.29.233-.596.392-.92.476-.195.05-.396.067-.604.046-.208-.017-.381-.134-.522-.344a1.409 1.409 0 01-.192-.5 2.03 2.03 0 01.016-.724 5.01 5.01 0 01.708-1.824c.174-.263.373-.493.592-.683.219-.19.458-.32.715-.386a.895.895 0 01.643.058c.2.098.4.304.602.613.025.043.055.018.086-.072.038-.132.065-.242.085-.344a2.607 2.607 0 00.053-.536 1.306 1.306 0 00-.156-.661.77.77 0 00-.255-.264.622.622 0 00-.268-.076 1.2 1.2 0 00-.397.042 1.991 1.991 0 00-.82.439 6.502 6.502 0 00-.76.81c-.045.062-.06.05-.047-.028.024-.113.054-.24.087-.384a3.937 3.937 0 01.305-.881c.068-.143.15-.272.242-.377a2.9 2.9 0 01.827-.667c.293-.151.574-.263.843-.333.36-.094.679-.077.964.046.281.127.48.394.601.8.044.149.067.337.073.557a3.87 3.87 0 01-.064.739 8.16 8.16 0 01-.565 1.857c-.025.057-.023.089.003.096.146.074.314.119.504.134.19.019.371.004.54-.04.081-.022.172-.049.265-.084a1.418 1.418 0 00.54-.362 1.49 1.49 0 00.235-.319c.084-.147.16-.31.23-.492a13 13 0 00.178-.505zm-4.105 2.578c.023-.034.029-.068.017-.102-.165-.26-.33-.443-.485-.557a.622.622 0 00-.462-.126.978.978 0 00-.493.26 1.183 1.183 0 00-.197.262 1.154 1.154 0 00-.12.353c-.026.15-.013.265.034.353a.404.404 0 00.205.179c.087.031.182.05.283.048.1 0 .188-.013.267-.033.157-.041.316-.11.474-.213.159-.102.317-.243.477-.424zm6.143-.477c-.232.06-.433.063-.605.01a1.037 1.037 0 01-.443-.267 1.389 1.389 0 01-.29-.44 2.134 2.134 0 01-.143-.517c-.05-.335-.034-.725.043-1.171.045-.255.11-.519.192-.783a5.33 5.33 0 01.306-.76c.346-.68.73-1.227 1.16-1.643a3.335 3.335 0 011.512-.848 1.8 1.8 0 01.69-.058.99.99 0 01.52.205c.341.29.562.652.656 1.089.027.132.045.274.055.422.012.147.014.297.006.453-.015.143-.034.223-.051.239-.02.016-.052-.005-.097-.064a3.031 3.031 0 00-.462-.478 1.572 1.572 0 00-.476-.266 1.328 1.328 0 00-.535-.076 2.99 2.99 0 00-.637.102c-.27.077-.496.203-.68.384a3.21 3.21 0 00-.434.51 2.922 2.922 0 00-.435 1.094c-.034.195-.04.368-.017.512a.846.846 0 00.14.368c.068.097.157.16.27.195a.7.7 0 00.374-.004c.142-.037.3-.125.475-.26.172-.134.33-.322.475-.563.116-.192.2-.37.253-.542a3.97 3.97 0 00.126-.573c.022-.127.06-.17.114-.137l.976.63c.037.03.055.072.056.122 0 .046-.01.124-.026.225-.05.285-.106.604-.17.953-.063.35-.13.707-.196 1.068-.069.365-.138.73-.21 1.095-.07.366-.14.706-.208 1.024-.199.936-.456 1.761-.772 2.48a8.158 8.158 0 01-1.136 1.88c-.326.4-.655.733-.99.999a6.271 6.271 0 01-2.034 1.097c-.173.055-.351.109-.539.161-.184.052-.38.102-.585.156-.176.046-.357.09-.545.131a2.441 2.441 0 01-.55.064 1.1 1.1 0 01-.482-.1.729.729 0 01-.35-.356c-.247-.522-.178-1.467.207-2.83a9.168 9.168 0 01.542-1.451 13.8 13.8 0 01.58-1.085c.054-.082.1-.108.146-.082l.935.588a.11.11 0 01.054.068c.01.034-.013.086-.064.153-.148.2-.294.402-.443.605a10.714 10.714 0 00-.827 1.314 4.694 4.694 0 00-.294.72c-.035.11-.021.178.035.213.165.075.396.094.698.048a9.39 9.39 0 001.04-.217c.061-.016.14-.04.236-.068l.292-.087c.098-.028.19-.056.276-.082.085-.025.151-.046.2-.066.375-.147.705-.294.99-.447.288-.154.541-.334.759-.544a3.3 3.3 0 00.573-.75c.163-.29.31-.64.445-1.054.133-.414.256-.9.369-1.463.11-.562.23-1.226.347-1.983.013-.104.01-.157-.009-.166-.016-.01-.05.013-.1.066-.193.218-.411.4-.65.548-.24.144-.45.242-.637.29h-.001zm7.69-3.623c.27.127.547.151.836.076a1.75 1.75 0 00.644-.335c.207-.165.4-.372.578-.63a4.27 4.27 0 00.46-.867 5.3 5.3 0 00.344-1.388c.013-.118.025-.232.04-.35.024-.164.074-.316.146-.457a3.11 3.11 0 01.351-.503l1.321-1.578a.355.355 0 01.09-.07c.036-.02.044.01.024.095l-.512 2.54c-.018.102-.014.155.011.155.04.004.086-.047.145-.152.181-.304.38-.624.598-.964.22-.34.445-.663.683-.975.208-.27.379-.442.51-.516a.935.935 0 01.293-.13.297.297 0 01.19.023.604.604 0 01.157.138c.11.153.11.472.004.954l-.174.779c-.006.037-.012.068-.015.097-.002.03.005.042.021.037a.077.077 0 00.046-.033l.047-.084a7.17 7.17 0 01.205-.354l.273-.453c.098-.158.198-.313.303-.473.109-.157.207-.293.3-.407a9.69 9.69 0 01.22-.264 2.52 2.52 0 01.24-.252c.081-.079.164-.146.245-.2a.637.637 0 01.248-.107.68.68 0 01.22.004.32.32 0 01.191.13c.064.079.099.2.1.353.002.156-.022.356-.076.599-.034.17-.067.333-.1.487l-.1.488a142.488 142.488 0 00-.227 1.126 3.35 3.35 0 00-.082.61c0 .162.042.28.129.347.096.064.236.1.416.106.18.004.373-.007.575-.031.203-.024.402-.058.599-.102.198-.044.36-.084.487-.116.453-.118.85-.228 1.186-.33.337-.102.625-.202.869-.3.243-.1.44-.194.595-.284.152-.093.275-.193.37-.304.103-.116.194-.261.268-.431.078-.17.15-.365.218-.587.047-.137.086-.215.11-.236.026-.021.036.048.034.21a12.56 12.56 0 01-.032.727 7.005 7.005 0 01-.092.786 4.141 4.141 0 01-.195.737 6.477 6.477 0 01-.216.48 2.11 2.11 0 01-.777.839 2.372 2.372 0 01-.669.273l-2.175.534c-.15.039-.351.094-.6.163-.25.068-.506.124-.77.172a4.492 4.492 0 01-.737.073c-.228-.002-.392-.052-.499-.15a.87.87 0 01-.23-.413 2.185 2.185 0 01-.064-.537c.002-.198.017-.402.051-.622.034-.22.072-.437.115-.66.039-.192.087-.441.15-.75.059-.31.14-.688.24-1.133a.53.53 0 00.016-.183c-.005-.052-.04-.072-.108-.054a.445.445 0 00-.186.141 1.838 1.838 0 00-.16.2 6.896 6.896 0 00-.57.913c-.174.331-.332.68-.48 1.041-.147.364-.282.735-.404 1.118-.125.383-.24.757-.348 1.128a2.994 2.994 0 01-.243.61c-.1.18-.224.288-.38.328-.15.039-.255.013-.318-.075-.063-.087-.08-.233-.05-.438.048-.298.1-.59.154-.877a67.911 67.911 0 01.402-1.94c.083-.372.176-.79.283-1.257a.546.546 0 00.015-.176c-.003-.067-.028-.093-.081-.079-.044.004-.089.034-.137.093a4.015 4.015 0 00-.09.113c-.248.358-.477.729-.686 1.115-.21.388-.405.782-.586 1.187-.18.401-.35.814-.51 1.238-.16.421-.31.85-.456 1.285-.06.184-.143.317-.248.398a.847.847 0 01-.296.155c-.147.039-.259.014-.328-.079-.07-.093-.086-.256-.05-.491.033-.212.07-.43.112-.652.04-.218.078-.436.116-.649l-.016.004a7.414 7.414 0 01-.44 1.013c-.151.275-.31.514-.478.704a2.154 2.154 0 01-1.117.702 1.576 1.576 0 01-.82.002 1.397 1.397 0 01-.695-.435c-.016-.025-.035-.02-.06.016a4.87 4.87 0 01-.794.803 2.448 2.448 0 01-.919.468c-.195.05-.396.067-.603.046-.208-.017-.381-.133-.523-.343a1.412 1.412 0 01-.191-.501 2.027 2.027 0 01.015-.724c.056-.319.144-.635.267-.95a4.82 4.82 0 01.44-.873c.175-.263.374-.493.593-.683.219-.19.457-.32.715-.386a.9.9 0 01.646.057c.199.099.399.304.599.613.027.043.057.018.088-.072.038-.132.065-.242.085-.345a2.716 2.716 0 00.053-.535 1.497 1.497 0 00-.03-.326 1.227 1.227 0 00-.128-.335.709.709 0 00-.255-.263.59.59 0 00-.265-.078 1.223 1.223 0 00-.4.043 1.992 1.992 0 00-.82.439 6.548 6.548 0 00-.76.81c-.045.062-.061.051-.048-.027l.088-.384a4.31 4.31 0 01.125-.444c.051-.15.11-.293.18-.437.07-.144.15-.272.242-.378a2.93 2.93 0 01.827-.666 4.14 4.14 0 01.845-.334c.358-.093.68-.076.964.046.282.124.482.39.605.795.041.15.065.334.07.558.008.22-.015.466-.062.736a7.563 7.563 0 01-.216.904c-.094.307-.21.624-.35.95-.024.056-.022.088.005.091l.002-.004zm-1.619.925c.024-.035.03-.068.018-.101-.165-.262-.33-.445-.485-.557-.157-.11-.313-.152-.462-.127a.994.994 0 00-.493.26 1.156 1.156 0 00-.197.263 1.17 1.17 0 00-.12.353c-.026.15-.014.265.034.353a.408.408 0 00.205.179c.087.031.182.05.283.048.1-.001.188-.013.267-.034.158-.04.316-.11.474-.212.159-.102.317-.243.477-.425zm14.28-7.269a.161.161 0 01.027.08c-.002.021-.02.051-.052.095l-.846 1.144c-.033.044-.056.064-.072.065-.014 0-.03-.014-.05-.045l-.504-.781c-.02-.031-.028-.054-.027-.075.001-.022.017-.055.05-.1l.847-1.14c.033-.043.055-.067.07-.067.015 0 .032.016.053.043l.504.782zm6.264 4.907a12.721 12.721 0 01-.772 2.476 8.082 8.082 0 01-1.13 1.875c-.327.397-.66.73-.995.996a6.461 6.461 0 01-1.01.664 7.073 7.073 0 01-1.022.43c-.174.055-.351.108-.539.161-.184.052-.38.102-.585.156-.176.046-.357.09-.545.132a2.502 2.502 0 01-.549.063 1.09 1.09 0 01-.482-.1.743.743 0 01-.35-.357c-.248-.522-.178-1.467.206-2.83a9.157 9.157 0 01.542-1.45c.198-.41.391-.771.58-1.085.054-.082.101-.108.147-.082l.935.587a.11.11 0 01.053.07c.01.033-.013.085-.064.152l-.443.605c-.148.2-.293.413-.435.636-.142.223-.272.45-.392.678a4.694 4.694 0 00-.295.72c-.034.11-.02.178.036.213.165.075.395.094.7.047a9.5 9.5 0 001.038-.216c.06-.016.14-.04.235-.068l.292-.087c.098-.028.19-.056.276-.082.085-.025.151-.046.2-.066a9.53 9.53 0 00.99-.447c.287-.15.54-.33.758-.541.217-.21.41-.461.573-.747.163-.29.31-.638.444-1.049.132-.414.256-.9.368-1.459.112-.559.228-1.219.345-1.976.022-.128.033-.216.033-.277a.3.3 0 00-.014-.117c-.012-.018-.03-.018-.053 0a.486.486 0 00-.079.077c-.262.29-.518.531-.764.717-.248.186-.51.315-.788.387-.2.052-.36.047-.485-.013a.755.755 0 01-.295-.27 1.357 1.357 0 01-.16-.396 4.51 4.51 0 01-.071-.378c-.154-.915-.25-1.653-.283-2.206-.032-.553-.004-.944.084-1.17.084-.226.195-.43.337-.621.141-.19.296-.36.467-.504a3.09 3.09 0 01.52-.368 2.22 2.22 0 01.496-.207 1.089 1.089 0 01.196-.03c.079-.006.116.013.105.059-.01.041-.044.079-.096.107a2.024 2.024 0 00-.116.087 1.252 1.252 0 00-.204.233 2.183 2.183 0 00-.23.42 2.983 2.983 0 00-.177.644 3.956 3.956 0 00-.051.883c.003.225.02.45.042.676a15.696 15.696 0 00.157 1.119c.027.132.044.217.05.258.024.091.065.159.123.197.06.041.13.052.211.031.097-.025.225-.105.377-.24.154-.134.329-.348.527-.646.33-.476.592-1.202.792-2.174l.098-.476c.03-.144.06-.288.089-.435l.097-.511c.037-.196.081-.437.136-.723a.463.463 0 01.045-.15c.017-.03.046-.023.088.023l.918.989c.036.037.046.11.028.211l-.474 2.67A99.815 99.815 0 0177.31 59c-.068.36-.137.722-.207 1.08-.07.362-.143.703-.213 1.022h-.001zm-4.893-43.086c.05-.084.08-.122.123-.092 3.875 2.786 8.104 5.903 9.8 11.423.025.081-3.826-6.726-10.552-9.534-.14-.058-.095-.236-.036-.336.377-.641.28-.823.665-1.46v-.001z"/><path fill-rule="evenodd" clip-rule="evenodd" d="M22.284 18.729l2.872 1.466 2.277-2.279-.511 3.176 2.878 1.454-3.187.498-.5 3.177-1.459-2.868-3.186.51 2.286-2.271-1.47-2.863zM48.412 3.777l1.341 2.925 3.204-.38-2.376 2.176 1.352 2.92-2.81-1.58-2.369 2.184.64-3.153-2.815-1.57 3.205-.368.628-3.154zm15.825.642l.354 3.197 3.161.641-2.941 1.323.365 3.196-2.17-2.38-2.937 1.334 1.6-2.793-2.18-2.372 3.16.654 1.588-2.8zm11.818 7.626l2.546 1.976 2.665-1.814-1.098 3.025 2.554 1.966-3.225-.107-1.087 3.028-.895-3.09-3.225-.094 2.672-1.803-.907-3.087zM33.586 8.786l2.38 2.171 2.802-1.596-1.336 2.928 2.388 2.162-3.206-.363-1.324 2.934-.646-3.152-3.207-.35 2.807-1.585-.658-3.149z"/></g><defs><clipPath id="clip0_795_1324"><path fill="#fff" d="M0 0h128v92H0z"/></clipPath></defs></svg>