<svg width="134" height="64" fill="none" xmlns="http://www.w3.org/2000/svg"><g clip-path="url(#clip0_795_1256)"><path fill-rule="evenodd" clip-rule="evenodd" d="M127.602.73c-2.212.282-4.341.522-6.411.787-4.366.559-8.466 1.08-12.814 1.635-4.169.531-8.763.98-12.796 1.567-10.971 1.598-26.112 2.185-34.954 8.29-5.361 3.702-10.229 10.085-8.105 17.046.369 1.209 1.861 3.313 2.935 4.057 6.849 4.744 22.474-.254 21.707 6.727-.23 2.096-2.254 3.413-4.088 4.162-4.425 1.803-8.434 2.248-13.087 3.006-2.288.272-5.037.822-7.247.9L51.596 31.3c-.111-2.93-.765-17.268-1.112-20.247-.95-.162-3.754.42-5.272.539-1.94.151-3.606.418-5.577.683-1.913.255-3.612.468-5.466.7-2.765.347-2.23.762-4.632 4.452-.618.96-5.973 9.532-7.971 12.493-2.021 2.992-3.864 6.058-5.764 9.134-1.14 1.464-2.243 3.46-3.282 4.947l-3.651 5.88c-1.787 3.106-3.91 6.344-5.936 9.3-.483.707-2.901 4.543-2.936 4.73 1.03.39 8.946-.598 10.084-.86 1.171-.27 1.652-1.352 2.261-2.202.548-.763 1.27-1.865 1.766-2.6 1.865-3.183 4.65-5.688 8.05-7.035 3.7-1.465 8.432-1.667 12.662-2.331l1.48-5.188c.566.71.744 9.597.823 11.134.109 1.666-.018 2.966.383 4.643 7.145-.268 28.515-2.786 40.869-6.639 2.361-.737 5.096-2.038 7.63-3.752 5.276-3.57 9.686-8.93 8.06-14.707-2.799-9.947-19.422-6.019-24.567-9.453-2.303-1.537-.697-5.936 2.66-7.95 4.602-2.76 23.233-5.872 26.66-3.775 3.524 2.156.211 11.993-.625 15.624-.645 2.801-1.216 5.645-1.898 8.428l-1.974 8.274c-.37 1.96-1.37 4.616-1.596 6.917 6.368-.96 15.459-.84 17.119-3.502 2.34-6.825 4.081-17.041 5.806-24.401 1.116-4.216 1.622-9.003 4.193-12.203 2.627-3.267 6.045-5.354 9.895-2.414l.961.723c1.079.963 3.043-9.603 3.297-10.639l-6.399.73.004-.004zm-26.957 12.01c-.874-1.017-2.211-1.573-4.087-1.698-4.573-.305-18.555 1.717-22.681 3.28-2.577.975-5.895 3.248-6.76 6.442-.503 1.85-.425 3.256.235 4.298 1.03 1.624 3.39 2.166 5.718 2.58 1.695.303 3.552.486 5.348.664 5.875.583 11.951 1.185 13.637 5.988 2.745 7.825-6.495 13.022-9.973 14.978-6.906 3.886-17.5 5.197-26.848 6.354a420.49 420.49 0 00-5.011.639c-.627.085-1.279.176-1.946.27-3.062.427-6.526.912-9.429 1.089-.207-3.43-.373-6.88-.535-10.219-.12-2.48-.244-5.045-.383-7.578-.029-.515-.07-1.7-.12-3.197-.241-7.117-.514-14.116-.94-14.714-.278-.389-.594-.577-.954-.556-1.073.06-2.147 1.993-3.01 3.547-.205.368-.398.716-.559.975-.994 1.6-1.936 3.156-2.934 4.805l-.692 1.143c-.384.634-.755 1.25-1.123 1.856-.835 1.384-1.64 2.719-2.492 4.1a43.39 43.39 0 01-.463.717c-1.57 2.401-3.18 5.038-2.393 5.924.428.48 3.61.083 8.418-.582 1.707-.235 3.199-.44 4.069-.508l-1.142 4.19c-.446.058-.903.116-1.368.172-4.23.53-9.022 1.128-12.588 2.953-1.214.623-2.824 1.766-3.444 2.446-1.951 2.138-3.047 3.767-4.567 6.022l-.363.54c-.136.201-.254.382-.36.547-.733 1.134-.93 1.438-2.935 1.64-.539.053-1.093.118-1.652.185-1.131.132-2.298.27-3.4.32l23.2-36.615c.305-.472.927-1.467 1.716-2.728 1.842-2.948 4.908-7.851 5.304-8.228l15.831-2.008 2.25 37.777.006.117.117.015c2.153.273 16.867-2.379 19.318-3.048 1.356-.37 5.91-1.815 7.587-4.84.662-1.192.79-2.483.383-3.839-1.073-3.569-6.053-3.781-11.323-4.005-4.913-.21-9.994-.424-12.315-3.342-1.256-1.579-1.594-3.796-1.035-6.78.402-2.153 1.58-5.073 3.301-6.744.195-.19.386-.395.58-.602.33-.355.672-.723 1.032-1 .128-.1.281-.212.461-.344.188-.138.405-.297.659-.489 7.451-5.63 17.314-6.89 26.852-8.107 1.462-.186 2.974-.379 4.423-.583 3.19-.45 6.434-.841 9.57-1.221 3.556-.43 7.233-.875 10.813-1.4l20.186-2.488-1.599 6.54c-.272-.128-.54-.274-.821-.425-1.312-.71-2.802-1.518-5.392-.774-4.052 1.165-6.787 5.415-7.897 8.7-1.043 3.08-7.079 29.09-7.951 32.905l-13.43 1.837 4.867-20.81c.17-.708.353-1.423.535-2.143.709-2.806 1.444-5.707 1.697-8.638.265-3.085-.104-5.028-1.198-6.303v.002zM35.873 41.578c-2.854.419-9.417 1.449-12.012 1.384.138-.596 6.981-11.507 8.041-13.484l.92-1.488c.792-1.198 1.938-3.294 2.764-4.34.727 5.457.49 11.119.796 17.082.03.597.129.752-.51.845v.001z" fill="#454545"/></g><defs><clipPath id="clip0_795_1256"><path fill="#fff" d="M0 0h134v64H0z"/></clipPath></defs></svg>