<svg width="145" height="90" fill="none" xmlns="http://www.w3.org/2000/svg"><g clip-path="url(#clip0_795_1357)" fill="#454545"><path d="M39.703 65.922c.552.19 1.028.241 1.43.153.481-.104.806-.398.973-.88.182-.528.11-1-.218-1.417-.283-.36-.726-.644-1.325-.852l-1.592-.55-1.02 2.941 1.752.605zm-4.131-.808c.249.044.437-.004.568-.146.089-.096.182-.291.284-.585l1.872-5.407c.107-.308.158-.519.15-.63-.01-.182-.133-.338-.368-.47l.144-.418 4.706 1.625c.608.21 1.07.552 1.388 1.024.353.527.427 1.085.224 1.674-.149.43-.423.748-.822.956a2.536 2.536 0 01-1.344.27c.576.3.994.71 1.254 1.23a2.03 2.03 0 01.096 1.631c-.256.739-.76 1.207-1.507 1.404-.668.173-1.424.116-2.267-.175l-4.524-1.564.145-.418zm5.34-3.157c.487.169.872.222 1.157.159.362-.077.616-.327.762-.75.13-.377.094-.7-.113-.97-.206-.269-.516-.475-.928-.618l-1.715-.592-.768 2.216 1.605.555zm11.632 1.986c.1-.311.148-.522.139-.634-.013-.18-.14-.335-.376-.462l.138-.42 2.74.892-.139.42c-.249-.038-.426.003-.533.123-.107.12-.209.328-.306.624l-1.776 5.44c-.102.31-.147.539-.136.684.01.147.135.284.372.41l-.138.422-3.84-1.252c-1.296-.423-2.15-1.15-2.562-2.182-.321-.81-.34-1.651-.056-2.524.201-.615.576-1.223 1.124-1.823.566-.538 1.133-1.08 1.708-1.623.03-.09.005-.174-.074-.25a.74.74 0 00-.29-.17l.137-.42 2.655.865-.137.421c-.645.04-1.333.446-2.063 1.215-.648.687-1.087 1.383-1.317 2.088-.273.834-.24 1.57.099 2.204.338.635.951 1.097 1.84 1.386l.917.3 1.874-5.735v.001zm10.672 2.712l-6.473 4.936 2.48.688c.587.163 1.029.207 1.325.132.363-.09.66-.371.89-.847l.619.172-.637 2.294-7.092-1.966.276-.992 6.44-4.871-2.38-.66c-.412-.114-.736-.136-.97-.064-.234.072-.418.288-.553.647l-.62-.171.554-1.995 6.396 1.774-.255.923zm.041 7.348c.25.022.435-.043.553-.194.079-.104.157-.306.233-.607l1.399-5.548c.08-.318.11-.532.096-.643-.026-.179-.162-.324-.409-.436l.11-.429 2.793.703-.108.43c-.25-.022-.426.031-.525.158-.098.127-.185.343-.262.644l-1.491 5.92 2.395.602c.39.099.698.122.923.072.3-.065.509-.263.628-.595l.624.158-.468 1.857-6.6-1.662.109-.429zm8.73-4.764a12.415 12.415 0 00-.166-.455c-.153-.369-.327-.582-.525-.642l.078-.435 2.888.521-.079.436c-.236-.042-.372.03-.406.218a.754.754 0 00.05.375l1.028 3.055 1.854-2.22c.078-.09.146-.185.202-.285a.89.89 0 00.11-.278.317.317 0 00-.071-.262c-.064-.081-.176-.135-.336-.164l.078-.436 2.608.471-.079.436c-.193.006-.34.036-.442.09-.1.055-.274.226-.518.514l-2.98 3.524-.342 1.896c-.058.322-.072.556-.04.698.03.144.172.263.425.357l-.08.436-2.835-.513.08-.435c.252.004.432-.073.538-.232.073-.108.136-.315.192-.622l.342-1.896-1.575-4.152zm15.269 7.951l.76.003c1.122.006 1.994-.209 2.614-.646.696-.49 1.047-1.244 1.053-2.257.004-1.053-.369-1.912-1.121-2.578-.751-.666-1.685-1.002-2.8-1.006l-.476-.003-.03 6.487zm-2.383.576c.283-.04.468-.146.555-.32.052-.104.078-.32.08-.647l.026-5.72c0-.32-.023-.535-.073-.646-.077-.169-.262-.278-.552-.326l.001-.443 3.113.014c1.716.008 3.09.493 4.123 1.455.932.866 1.394 1.897 1.389 3.093-.004 1.046-.34 1.917-1.003 2.618-.88.93-2.22 1.39-4.02 1.381l-3.642-.016.003-.443zm18.854-1.846c.108.198.19.326.248.384.105.11.254.167.444.17l.045.44-2.996.31-.044-.44c.344-.093.506-.238.486-.436-.013-.12-.082-.28-.206-.484l-.965-1.693-3.133.323-.535 1.848c-.057.19-.08.345-.068.465.02.197.205.324.556.375l.045.44-2.507.259-.046-.44c.198-.02.357-.141.48-.362.051-.086.123-.281.212-.588l2.212-7.495 1.856-.191 3.917 7.115h-.001zm-3.502-2.73l-1.494-2.697-.86 2.939 2.354-.243zm10.686-1.932c-.118-.305-.215-.497-.293-.578-.125-.131-.32-.171-.585-.12l-.159-.41 2.627-1.018.16.411c-.195.118-.291.254-.291.408 0 .155.058.38.173.675l.777 2.006c.075.191.144.337.204.438.063.1.234.108.515.026l.159.411c-.329.196-.674.38-1.036.548-.361.171-.758.34-1.19.506-1.344.52-2.574.718-3.687.596-.942-.106-1.761-.435-2.453-.986-.6-.479-1.026-1.048-1.282-1.71-.429-1.106-.383-2.203.138-3.29.522-1.085 1.382-1.86 2.581-2.326a5.896 5.896 0 012.121-.403c.726-.002 1.377.158 1.953.483l-.783 1.894-.552-.107c.083-.238.092-.437.028-.602-.13-.334-.442-.512-.938-.534a2.971 2.971 0 00-1.216.213c-.823.319-1.381.87-1.677 1.648-.275.74-.259 1.502.045 2.29.38.98 1.058 1.658 2.031 2.032.973.374 1.988.359 3.043-.05l.468-.181-.88-2.27h-.001z"/><path fill-rule="evenodd" clip-rule="evenodd" d="M33.678 35.878l-.47.003c-3.488 0-5.812-.308-7.143-.93a39.81 39.81 0 007.171-.291 14.718 14.718 0 01-.697-4.462c0-2.93.88-5.723 2.49-8.29-11.168.783-26.084 5.737-26.084 15.161 0 6.547 11.48 9.72 19.134 9.72h2.124l2.34-.217v.018c1.835-.1 3.67-.28 5.503-.53h.004a79.295 79.295 0 003.844-.626c-3.881-2.697-6.739-5.952-8.216-9.556zm1.28 8.11v-.065l-4.868.453h-2.011c-3.859 0-16.719-1.892-16.719-7.307 0-7.26 11.762-10.928 19.631-12.236a17.116 17.116 0 00-.868 5.365c0 .78.054 1.554.16 2.32a35.519 35.519 0 01-4.09.024l-12.416-.66 11.265 5.256c1.963.916 4.768 1.124 7.094 1.154 1.06 2.059 2.475 3.913 4.108 5.562-.429.049-.857.094-1.285.134z"/><path fill-rule="evenodd" clip-rule="evenodd" d="M144.774 3.822c-1.146-2.555-4.309-1.035-6.067-.384-2.708 1.003-5.395 2.11-8.062 3.217-.722.3-1.443.602-2.162.903a2.797 2.797 0 00-.385-.978C124.794.834 118.767 0 112.75 0c-8.487 0-17.146 3.4-24.724 7.094-5.624-1.661-11.564-2.43-17.417-2.43-9.39 0-19.577 2.028-27.742 6.822-1.886 1.107-3.687 2.38-5.324 3.834C25.82 16.49 4.402 22.456 4.402 36.674c0 3.66 1.56 6.469 3.965 8.6-.152.079-.3.164-.44.262-.567.136-1.13.433-1.634.79a34.38 34.38 0 00-2.423 1.908c-.62.53-1.183 1.07-1.73 1.675-.457.505-.976 1.099-1.32 1.686-.755 1.292-.519 2.63.548 3.647.31.296.667.569.956.886.046.053.099.114.148.182-.241.4-.567.84-.785 1.212-.499.85-.87 1.735-1.144 2.68-.27.929-.477 1.967-.534 2.93-.083 1.4.377 2.372 1.2 3.206-.434.625-.569 1.475-.21 2.4.091.239.17.448.29.678.214.41.485.8.773 1.162.556.7 1.201 1.253 1.915 1.787 1.243.927 2.608 1.78 3.929 2.592a141.86 141.86 0 005.058 2.96 116.02 116.02 0 005.056 2.67c1.744.865 3.508 1.673 5.33 2.359 1.872.704 3.845 1.313 5.805 1.7 1.552.307 3.264.505 4.847.406 1.134-.07 2.252-.31 3.221-.928.884-.563 1.388-1.27 1.81-2.218.36-.812.68-1.751.883-2.617.12-.512.2-1.02.207-1.53.35.138.698.279 1.042.42 2.155.88 4.29 1.785 6.466 2.612 2.601.988 5.242 1.87 7.894 2.711 2.855.904 5.728 1.76 8.62 2.542 2.688.73 5.41 1.41 8.139 1.983 2.067.435 4.108.763 6.204 1.03 2.184.28 4.385.521 6.58.706 1.788.15 3.547.233 5.341.236a97.1 97.1 0 006.128-.185 94.456 94.456 0 006.529-.62c2.016-.265 3.966-.62 5.931-1.157 1.832-.501 3.662-1.116 5.447-1.766 2.083-.758 4.564-1.86 6.472-2.974a41.024 41.024 0 003.856-2.576c1.179-.883 2.342-1.848 3.386-2.889.831-.828 1.606-1.731 2.214-2.738a9.933 9.933 0 001.127-2.677c.241-.918.366-1.872.297-2.821a8.747 8.747 0 00-.411-2.032c.196-.1.389-.206.58-.315a31.1 31.1 0 001.193-.716c.44-.276.87-.562 1.282-.88a9.816 9.816 0 001.345-1.23 5.782 5.782 0 001-1.543c.226-.53.364-1.128.332-1.706a2.57 2.57 0 00-.836-1.79 2.749 2.749 0 00-.094-.228c.256-.15.515-.296.772-.445.416-.24.836-.485 1.232-.755.493-.338.911-.708 1.262-1.195a5.58 5.58 0 00.687-1.32c.234-.643.326-1.294.103-1.965a2.64 2.64 0 00-.147-.353c.117-.506.087-1.02-.041-1.55a4.433 4.433 0 00-.568-1.395 3.802 3.802 0 00-1.324-1.242 5.704 5.704 0 00-1.251-.52 10.719 10.719 0 00-1.846-.364c-.821-.098-1.65-.143-2.465-.28a9.683 9.683 0 01-1.861-.502c-.133-.051-.466-.182-.575-.279-.029-.255-.023-.657-.018-.943.011-.518.059-1.035.068-1.554.009-.604-.053-1.173-.319-1.695a3.32 3.32 0 00.142-1.072c-.053-1.605-1.221-2.958-2.717-3.45-1.157-.381-2.222-.25-3.393-.174-3.515.158-4.923 1.578-5.243 3.651-.124.034-.248.068-.372.1-.773.21-1.549.41-2.321.62-.65.176-1.304.357-1.942.573-.537.182-1.097.4-1.592.679-.629.355-1.142.827-1.454 1.49a2.875 2.875 0 00-.05 2.346c-.237.098-.48.186-.714.267-.39.133-.782.242-1.181.345a4.92 4.92 0 00-.487.154 2.766 2.766 0 00-.256-.502c-.326-.51-.768-.862-1.293-1.145a5.14 5.14 0 00-1.469-.53 5.298 5.298 0 00-1.994.004c-.712.136-1.366.417-1.986.789-.561.335-1.089.735-1.607 1.131-.502.385-1.001.771-1.48 1.186-.2.172-.395.348-.588.527-.054 0-.109 0-.164.002-.354.012-.709.035-1.063.055.572-.3 1.137-.611 1.691-.937 3.645-2.142 7.065-4.961 9.456-8.487 7.23.776 14.523-2.124 19.744-7.094 4.327-4.117 8.709-12.474 3.279-17.442a5.967 5.967 0 00-2.253-1.266 665.781 665.781 0 006.866-3.269c2.136-1.03 4.295-2.076 6.384-3.2a23.15 23.15 0 001.628-.938c1.126-.732 1.951-1.956 1.308-3.388l-.001-.002zM8.447 47.354c.247-.311.651-.466 1.083-.602a9.386 9.386 0 011.17-.29c.276-.042.366-.015.375.07.008.085-.066.228-.189.43-.121.202-.292.464-.406.82-.113.356-.17.806-.028 1.2.143.395.487.734 1.055 1.093.568.36 1.363.74 2.629 1.306 1.266.566 3.003 1.318 4.54 1.989 1.536.67 2.872 1.256 3.592 1.562.721.306.826.33.807.45-.02.122-.165.34-.31.61-.145.27-.29.59-.398.738-.107.148-.174.122-1.046-.25-.87-.371-2.545-1.088-3.967-1.712-1.421-.623-2.59-1.154-3.698-1.655-1.108-.502-2.155-.978-2.987-1.453-.832-.476-1.449-.954-1.854-1.464a2.993 2.993 0 01-.653-1.56c-.053-.504.038-.97.286-1.282h-.001zm14.183 5.983c1.145.5 1.286.6 1.331.694.046.093-.007.18-.182.175-.176-.005-.476-.101-1.102-.355-.626-.254-1.58-.666-2.96-1.22-1.38-.556-3.186-1.254-4.725-1.878-1.54-.626-2.813-1.179-3.439-1.513-.626-.334-.605-.448-.567-.508.036-.06.087-.067.172-.048.084.017.202.059 1.212.456 1.01.396 2.915 1.148 4.94 1.974 2.027.825 4.175 1.724 5.32 2.223zm-.115-2.531c.913.123 1.81.212 2.68.275a9.45 9.45 0 00-.711.564l-.278-.12c-.56-.245-1.126-.48-1.691-.72zm90.298 3.895c.818.657 1.919 1.633 3.002 2.562 1.081.93 2.144 1.814 3.211 2.609 1.067.795 2.141 1.502 2.849 1.986.71.482 1.053.74 1.421 1.138a9.84 9.84 0 011.074 1.453c.318.52.562 1.022.489 1.773-.073.75-.463 1.752-.943 2.645a12.455 12.455 0 01-1.747 2.456 14.568 14.568 0 01-2.678 2.343c-1.164.803-2.673 1.645-4.118 2.42-1.445.775-2.825 1.482-4.546 2.104-1.722.622-3.785 1.159-6.531 1.663-2.747.504-6.176.975-8.786 1.234-2.61.26-4.398.303-6.44.29a92.63 92.63 0 01-7.011-.3 89.504 89.504 0 01-9.229-1.224c-3.48-.646-7.372-1.577-10.636-2.403-3.265-.825-5.903-1.545-8.53-2.342-2.627-.795-5.246-1.666-8.987-2.984-3.741-1.318-8.605-3.083-12.036-4.264-3.431-1.181-5.428-1.779-7.356-2.233-1.928-.456-3.787-.771-5.126-.821-1.34-.05-2.16.163-3.066.443-.908.28-1.903.625-2.493.873-.59.248-.776.397-.084-.333.692-.731 2.261-2.344 3.461-3.62 1.201-1.277 2.032-2.218 2.971-3.26.94-1.043 1.988-2.186 2.98-2.98.993-.795 1.93-1.242 3.34-1.428 1.41-.186 3.294-.11 5.338.134 2.043.244 4.248.657 6.667 1.246 2.419.588 5.054 1.353 7.964 2.075 2.91.722 6.097 1.402 9.273 2.098 3.176.697 6.342 1.41 9.293 1.926 2.952.515 5.69.832 8.258 1.056 2.569.224 4.968.354 7.461.445 2.494.09 5.083.142 7.883-.057 2.8-.2 5.81-.65 8.347-1.12 2.536-.471 4.596-.965 6.403-1.63a26.321 26.321 0 004.338-2.093c.974-.587 1.367-.921 1.735-1.453.368-.53.713-1.258.826-1.919.113-.66-.005-1.253.202-1.38.208-.126.74.214 1.557.872zm-1.166-1.69c.164-.145.595-.286 1.079-.438.485-.151 1.024-.313 1.479-.486a6.907 6.907 0 001.141-.547c.311-.19.56-.385.739-.562.178-.176.286-.335.366-.468.081-.134.135-.242.313-.2.178.04.48.229 1.075.586.594.356 1.48.88 2.122 1.297.641.416 1.037.727 1.486 1.049.449.322.95.656 1.511 1.018.561.36 1.184.75 1.899 1.173.715.423 1.522.88 2.37 1.36.848.478 1.736.98 2.263 1.27.527.291.693.371.73.575.038.205-.053.534-.328.927-.273.394-.73.854-1.293 1.294-.564.44-1.235.862-1.774 1.16-.538.3-.944.479-1.27.585-.327.107-.575.143-.918.062-.345-.08-.786-.278-1.293-.512-.507-.235-1.082-.505-2.304-1.323a77.6 77.6 0 01-4.373-3.198c-1.285-1.019-1.986-1.692-2.61-2.225-.624-.534-1.172-.928-1.555-1.232a5.893 5.893 0 01-.76-.694c-.159-.18-.26-.327-.096-.472h.001zM1.812 62.874c.04-.688.212-1.603.443-2.4a9.134 9.134 0 01.908-2.132c.386-.659.868-1.299 1.092-1.789.225-.49.192-.83.04-1.217a4.156 4.156 0 00-.79-1.227c-.363-.402-.821-.769-1.078-1.014-.256-.245-.313-.368-.128-.685.185-.317.612-.826 1.027-1.286.415-.459.817-.868 1.506-1.457.69-.59 1.667-1.358 2.25-1.772.582-.412.772-.469.83-.39.06.08-.009.293-.142.542-.132.247-.327.53-.425.872-.1.34-.103.74-.026 1.127.076.386.232.759.742 1.206.51.447 1.373.97 2.37 1.555a45.519 45.519 0 003.865 2.051c1.733.818 4.066 1.806 5.295 2.353 1.23.547 1.358.652 1.36.785.003.133-.118.296-.321.552a89.568 89.568 0 01-3.284 3.838 83.197 83.197 0 01-3.26 3.393c-1.153 1.13-2.316 2.187-2.902 2.753-.586.565-.596.64-.714.61-.119-.031-.346-.168-1.784-.961-1.438-.793-4.087-2.243-5.456-3.2-1.37-.956-1.459-1.418-1.418-2.106zm35.143 15.463a13.92 13.92 0 01-.739 2.191c-.264.594-.484.898-.9 1.162-.415.264-1.027.488-2.073.554-1.045.066-2.526-.029-4.227-.365-1.703-.337-3.627-.916-5.423-1.592-1.794-.675-3.461-1.445-5.107-2.26a116.108 116.108 0 01-4.951-2.616c-1.683-.94-3.426-1.96-4.972-2.91-1.545-.95-2.895-1.831-3.748-2.47-.854-.636-1.212-1.028-1.472-1.356a4.999 4.999 0 01-.52-.775c-.097-.185-.127-.293-.18-.431-.053-.14-.13-.307.369-.06.5.246 1.577.91 2.643 1.51 1.066.598 2.124 1.136 2.649 1.42.525.284.519.314.489.453-.03.138-.084.384-.055.652.029.268.139.559.308.812.168.253.395.47.773.72.38.25.911.531 1.79.89.88.36 2.105.794 3.195 1.12 1.09.326 2.043.541 2.716.689.672.147 1.066.227 1.783.537.719.31 1.761.85 2.805 1.33 1.045.478 2.092.895 3.294 1.288a44.28 44.28 0 003.787 1.046c1.225.279 2.315.468 3.356.497 1.042.03 2.037-.097 2.676-.24.638-.14.922-.294.955-.487.034-.194-.182-.428-.713-.732-.53-.305-1.376-.68-2.83-1.012-1.455-.331-3.52-.621-5.789-.956-2.27-.334-4.744-.712-6.454-.996-1.71-.284-2.656-.473-3.386-.645-.729-.174-1.242-.33-2.058-.574-.817-.244-1.94-.576-2.727-.878-.788-.303-1.242-.577-1.648-.801-.406-.224-.765-.4-.996-.578a1.188 1.188 0 01-.394-.51.915.915 0 01-.076-.357c0-.098.013-.182.535-.582.523-.401 1.551-1.118 2.509-1.6.957-.481 1.844-.726 2.877-.867a15.258 15.258 0 013.369-.076c1.157.105 2.293.353 3.636.721a68.314 68.314 0 018.355 2.918c1.33.56 2.695 1.176 3.683 1.71.988.533 1.597.984 2.051 1.425.455.439.756.869.892 1.351.137.484.111 1.02-.057 1.73zm91.6-6.93a7.495 7.495 0 01-.858 2.04c-.423.702-1.014 1.443-1.852 2.277-.837.834-1.921 1.762-3.13 2.667a40.416 40.416 0 01-3.626 2.423c-1.513.883-4.284 2.136-6.08 2.79-1.19.433-3.332 1.178-5.258 1.705-1.926.527-3.636.833-5.609 1.093a96.183 96.183 0 01-12.336.785 58.776 58.776 0 01-5.144-.229c-1.95-.163-4.41-.43-6.477-.693a69.895 69.895 0 01-6.012-1 149.412 149.412 0 01-8.004-1.949 212.836 212.836 0 01-8.521-2.514c-2.734-.866-5.297-1.729-7.767-2.667-2.47-.938-4.848-1.951-6.41-2.59-1.56-.638-2.308-.9-2.75-1.045-.441-.147-.578-.176-.65-.118-.07.058-.075.205-.06.328.014.123.049.223-.323.11-.372-.115-1.152-.44-2.148-.87-.997-.43-2.212-.962-3.091-1.35-.88-.388-1.423-.63-2.358-.997a117.97 117.97 0 00-3.332-1.235 67.61 67.61 0 00-2.863-.949 40.93 40.93 0 00-3.277-.883c-1.209-.266-2.524-.474-3.537-.523a8.435 8.435 0 00-2.348.201 11.93 11.93 0 00-1.688.497c-.525.2-1.035.433-1.484.673-.45.24-.835.485-1.169.681-.332.195-.61.34-.49.183.118-.159.635-.62 1.39-1.19.756-.57 1.75-1.248 2.937-1.735 1.188-.487 2.568-.78 3.759-.87 1.191-.088 2.192.028 3.598.293a55.84 55.84 0 014.92 1.17c1.704.493 3.3 1.064 4.88 1.653 1.579.59 3.14 1.199 4.335 1.665 1.197.463 2.028.785 3.616 1.408 1.588.624 3.935 1.55 6.192 2.396 2.26.843 4.431 1.605 6.504 2.273 2.074.668 4.05 1.242 5.968 1.812 1.918.571 3.778 1.138 5.562 1.605 1.784.468 3.491.836 4.836 1.142 1.345.307 2.328.551 4.037.879a86.88 86.88 0 006.66 1.018c2.524.28 5.139.425 7.957.483 2.818.057 5.838.025 8.773-.18a88.126 88.126 0 007.953-.941c2.169-.358 3.66-.695 4.988-1.051 1.329-.358 2.499-.734 3.161-.993 1.901-.745 6.071-2.91 7.63-3.878a24.458 24.458 0 003.505-2.616c1.019-.918 1.917-1.891 2.523-2.785a7.84 7.84 0 001.115-2.447c.198-.74.28-1.407.211-2.012-.069-.607-.288-1.151-.449-1.515-.161-.365-.264-.548-.317-.697-.052-.149-.054-.266-.008-.371a.417.417 0 01.242-.233c.101-.03.21.006.365.086.155.079.354.2.537.313.183.112.347.215.494.307.147.092.275.175.315.265.041.091-.007.191-.051.363-.043.17-.083.412-.031.682.051.269.194.566.361 1.037.168.471.362 1.117.41 1.786.048.669-.048 1.36-.225 2.038h-.001zm5.4-9.875a3.382 3.382 0 01-.586.89c-.28.316-.649.64-1.011.92-.363.28-.718.513-1.093.748s-.768.472-1.103.663c-.335.19-.613.335-.842.433a3.304 3.304 0 01-.534.178c-.126.032-.199.043-.472-.116a19.01 19.01 0 01-1.003-.67c-.256-.182-.296-.216-.258-.264.038-.048.154-.11.391-.238.237-.126.597-.318 1.039-.55.44-.233.964-.507 1.454-.825.489-.318.946-.68 1.272-.996a3.84 3.84 0 00.647-.805c.128-.216.189-.377.23-.503a1.87 1.87 0 00.095-.551c.002-.062 0-.098.061-.084.063.015.191.08.398.19a44.557 44.557 0 011.277.72c.121.073.172.106.18.236.008.13-.028.358-.142.624zm3.387-7.693c.013.04-.005.167-.081.376a3.22 3.22 0 01-.38.737c-.168.235-.37.41-.665.612-.294.201-.683.43-1.076.657-.393.227-.793.455-1.119.65-.326.195-.58.36-.781.523a1.67 1.67 0 00-.451.53 1.259 1.259 0 00-.145.625c.014.194.098.35.199.512.102.162.221.33.362.476.141.147.304.271.16.218-.143-.053-.594-.284-.944-.478-.35-.193-.602-.35-.789-.473-.188-.123-.312-.214-.398-.316a.461.461 0 01-.116-.385c.022-.17.116-.393.254-.609.14-.216.326-.423.705-.716.379-.293.953-.67 1.5-.96.547-.289 1.067-.489 1.542-.72.476-.23.908-.491 1.224-.664.315-.173.515-.258.647-.332a.906.906 0 00.245-.195c.052-.057.095-.108.107-.07v.002zm-10.228-10.378c.047.061.082.219.076.594-.006.375-.055.968-.067 1.54-.012.572.012 1.125.124 1.588.113.464.315.84.635 1.148.319.308.757.55 1.38.79.623.24 1.431.48 2.328.63.897.152 1.885.213 2.585.296.7.083 1.115.185 1.433.28.317.095.538.183.737.298.199.115.374.258.5.454.126.195.202.444.253.655.051.211.076.386-.002.544-.078.158-.258.3-.578.513-.319.214-.778.5-1.488.826-.709.326-1.669.69-2.433 1.02-.765.33-1.335.624-1.812.911-.477.288-.862.569-1.107.847-.245.277-.351.551-.433.707-.083.155-.141.192-1.261-.437-1.12-.63-3.303-1.925-4.841-2.877-1.539-.952-2.434-1.56-3.44-2.23-1.007-.67-2.125-1.402-2.913-1.94-.788-.538-1.246-.883-1.538-1.13-.292-.247-.417-.396-.362-.595.055-.198.289-.448.893-.746.602-.299 1.574-.646 2.54-.951.964-.305 1.921-.57 2.74-.783.82-.213 1.503-.377 2.303-.617s1.72-.56 2.337-.793c.618-.232.933-.38 1.119-.472.187-.092.245-.13.292-.069zm-14.534 2.38c.064-.134.191-.265.457-.416.267-.151.674-.323 1.18-.494a30.884 30.884 0 011.796-.53c.687-.184 1.457-.385 2.317-.617.861-.23 1.811-.492 2.754-.758.676-.19 1.348-.382 1.887-.566a8.41 8.41 0 00.571-.215c.425-.182 1.307-.567 1.311-1.09.005-.538-.819-.919-1.377-1.045.82-.055 1.758-.18 2.479.057.539.178 1.041.666 1.059 1.239a.95.95 0 01-.196.599c-.126.173-.38.316-.945.577-.565.262-1.47.623-2.403.926-.933.302-1.896.546-2.831.79-.937.243-1.847.487-2.658.721-.811.236-1.525.46-2.133.668a18.3 18.3 0 00-1.432.54c-.323.146-.469.25-.581.395-.111.145-.188.332-.24.427-.052.095-.077.098-.183.03a3.444 3.444 0 01-.453-.352c-.163-.15-.302-.313-.372-.464a.473.473 0 01-.007-.423v.001zm-3.521 4.268c.367-.096.82-.213 1.352-.396a13.899 13.899 0 001.615-.663c.47-.235.795-.457.996-.673.203-.216.28-.424.356-.52.076-.097.149-.079.247-.014.097.066.219.179.411.313.193.135.456.292.668.443.212.15.374.298.372.497-.001.2-.167.454-.51.728-.346.274-.869.57-1.464.845a15.14 15.14 0 01-1.822.698c-.561.172-1.022.263-1.363.246-.341-.016-.564-.14-.843-.368-.279-.229-.614-.562-.639-.765-.027-.204.257-.277.624-.373v.002zm-1.058.848c.202.099.759.635 1.119 1.065.361.428.525.748.533 1.165.01.418-.135.935-.381 1.441-.247.508-.595 1.004-1.301 1.6-.706.597-1.771 1.296-3.298 1.99-1.528.694-3.518 1.387-5.707 1.876-2.19.49-4.58.777-7.253 1.024-2.674.245-5.632.45-7.767.534-2.134.084-3.448.049-6.129-.146A132.794 132.794 0 0166.34 60.2c-4.746-.759-10.187-1.925-13.76-2.714a242.02 242.02 0 01-7.325-1.712c-2.05-.511-4.444-1.12-6.458-1.612-2.014-.492-3.646-.864-5.303-1.078-1.657-.214-3.34-.27-4.578-.151a8.514 8.514 0 00-2.727.709c-.69.296-1.276.593-1.66.817-.385.223-.572.374-.466.179.105-.195.502-.733 1.144-1.342.643-.61 1.53-1.29 2.795-1.648 1.264-.358 2.905-.393 4.75-.213 1.845.18 3.892.575 6.508 1.135 2.615.56 5.798 1.283 9.906 2.23 4.109.947 9.142 2.117 14.323 2.945 5.182.828 10.51 1.312 14.355 1.552 3.845.24 6.207.234 8.065.193a56.709 56.709 0 004.969-.3c1.753-.18 3.9-.464 5.806-.858 1.906-.394 3.569-.9 4.924-1.368 1.354-.468 2.403-.9 3.268-1.387.864-.486 1.549-1.026 2.048-1.577.5-.55.815-1.11.981-1.524.166-.413.184-.678.116-.98-.068-.301-.222-.638-.02-.538zm-22.08 5.74c.032.174.08.352.15.53.032.084.068.169.108.253a93.458 93.458 0 01-7.577-.194c-4.708-.293-9.465-.782-14.123-1.525-4.768-.762-9.461-1.83-14.162-2.914-3.309-.763-6.622-1.528-9.944-2.238-.427-.092-.859-.182-1.29-.272a90.937 90.937 0 004.825-.83c7.979 4.367 17.697 6.226 26.701 6.226 4.901 0 10.018-.558 14.953-1.767-.05.167-.093.338-.12.513a3.09 3.09 0 00.479 2.218zm12.08-4.654a37.28 37.28 0 011.458-1.358c.455-.395.902-.739 1.366-1.094.464-.354.948-.72 1.382-.979.432-.26.819-.415 1.2-.488a2.882 2.882 0 011.078-.005c.319.062.582.178.78.284.198.107.331.203.407.322.077.12.097.263.142.406.044.142.115.284.251.436.136.154.342.317.51.434.168.115.3.182.415.297.116.115.213.278.319.463.106.184.22.39.286.6.068.208.088.421.071.638a2.563 2.563 0 01-.16.672 2.61 2.61 0 01-.378.715c-.179.233-.426.454-.728.717-.302.264-.661.57-1.184.905-.523.333-1.211.694-2.08 1.058a30.98 30.98 0 01-3.002 1.054 60.014 60.014 0 01-3.088.818 28.8 28.8 0 01-2.679.541 73.39 73.39 0 01-3.61.461c-.89.085-1.081.054-1.24-.063-.159-.115-.287-.318-.503-.67a80.161 80.161 0 01-.774-1.28c-.253-.43-.454-.787-.525-.97-.07-.184-.013-.192.05-.15.062.04.128.127.237.247.109.121.26.274.441.428.181.153.39.31.621.39.23.082.483.09.716.102.232.014.447.034.668.019a3.93 3.93 0 00.71-.136 4.49 4.49 0 00.944-.345c.388-.194.87-.496 1.36-.831.49-.334.992-.7 1.456-1.026.465-.326.893-.611 1.413-1.053.52-.441 1.132-1.04 1.67-1.56v.001zm-7.953 4.55c.01-.094.146-.238.294-.334.148-.097.308-.147.51-.195.203-.049.446-.098.701-.161.257-.063.523-.139.715-.17.191-.033.309-.02.338.031.03.05-.03.138-.15.229a3.23 3.23 0 01-.548.298 6.113 6.113 0 01-.833.326 2.63 2.63 0 01-.74.117c-.188-.003-.299-.047-.287-.141zm7.156-4.792c.383-.013.423-.002.305.134-.117.135-.394.396-.648.66-.255.264-.488.531-.665.706-.177.175-.299.257-.494.3-.194.041-.463.042-.752.078-.289.035-.6.105-1.003.172-.404.066-.901.13-1.39.196-.49.066-.97.133-1.438.23-.467.1-.92.228-1.273.349-.352.12-.606.234-.829.414-.223.181-.414.431-.559.536-.143.103-.238.063-.435-.054-.197-.117-.496-.312-.655-.502-.158-.191-.176-.378-.146-.577.031-.198.11-.407.262-.615.153-.209.38-.416.677-.588.297-.171.665-.307 1.28-.458a36.901 36.901 0 012.204-.445 32.776 32.776 0 011.913-.284 36.972 36.972 0 011.872-.16 72.478 72.478 0 011.774-.092zm9.139-29.65c1.514 2.5 2.339 5.21 2.339 8.048 0 1.298-.174 2.57-.506 3.806 6.474.457 12.474-.549 16.052-3.954 3.423-3.256 5.475-8.324 2.463-8.86-1.808-.262-1.837-3.068-.795-4.06.893-.85 2.706-.025 3.314.531 3.944 3.61.408 10.375-3.313 13.917-5.305 5.047-12.278 7.282-18.595 6.342-.234-.023-.475-.05-.719-.08-1.967 3.446-5.231 6.51-9.445 8.986-6.823 4.013-16.206 6.493-26.526 6.493-10.208 0-19.497-2.426-26.304-6.358-3.804.8-7.593 1.36-11.339 1.614l-2.55.198H28.08c-8.93 0-21.26-3.174-21.26-12.1 0-10.72 16.385-17.737 31.756-19.026 1.58-1.487 3.431-2.858 5.517-4.082C50.919 9.56 60.299 7.08 70.613 7.08c6.355 0 12.356.943 17.624 2.604 8.534-4.226 16.777-7.269 24.516-7.269 4.151 0 10.295.156 13.285 5.425.33.465-.499.618-.83.155-.666-1.705-4.818-4.185-7.972-4.185-8.58 0-17.191 2.928-25.773 7.016a41.036 41.036 0 015.669 2.742c3.335 1.96 6.075 4.286 8.048 6.879 37.322-16.995 60.517-25.115 1.164 1.707h-.001zm3.308 1.154a1836.37 1836.37 0 0013.438-6.127c-.845 2.39.059 5.482 2.633 6.265-.243 1.484-2.291 4.033-3.16 4.861-2.815 2.677-7.473 3.389-11.532 3.391.045-.496.067-.995.067-1.496 0-2.408-.511-4.722-1.447-6.893h.001zm13.826-13.62a937.33 937.33 0 00-17.617 7.799c-2.143-2.39-4.75-4.38-7.506-5.997-.36-.213-.725-.419-1.093-.62 6.347-2.651 13.141-4.646 19.974-4.646 1.512 0 5.02 1.4 5.742 2.698l.088.231.176.245c.072.103.151.2.236.29z"/><path fill-rule="evenodd" clip-rule="evenodd" d="M76.332 24.397c-2.781.02-5.5-1.508-8.16-4.584l4.528-9.702c2.927 6.102 4.138 10.864 3.632 14.286z"/><path fill-rule="evenodd" clip-rule="evenodd" d="M76.437 27.825l-.052-2.136c-5.007-.822-8.376-2.66-10.106-5.519L48.17 16.432l15.791 11.126c6.625-.372 10.784-.282 12.475.267zm5.001-5.297c-.63 1.393-1.823 2.136-3.58 2.226-.752-5.766-2.12-10.454-4.106-14.064 4.017 4.764 6.58 8.71 7.686 11.838z"/><path fill-rule="evenodd" clip-rule="evenodd" d="M77.806 27.735v-2.18c1.833-.148 3.255-.905 4.263-2.27l8.475 1.602-5.738 4.272c-3.375-.918-5.708-1.393-7-1.424zm-.474 4.051l.315-2.849c2.733.133 4.926.46 6.58.979 1.202 3.276 1.991 5.768 2.37 7.477-2.44-3.513-5.528-5.382-9.265-5.607zm-15.475 4.228c4.202-3.208 8.817-4.766 13.844-4.674.58-.891.807-1.708.684-2.447-5.708-.326-9.778-.192-12.212.4-1.703 3.228-2.773 5.305-3.211 6.231.327.272.625.434.895.49zm9.475 1.29a21.103 21.103 0 01-7.001-.846c4.162-2.641 7.811-3.901 10.949-3.783-.41 1.838-.604 2.772-.579 2.804l-3.369 1.824v.001z"/><path fill-rule="evenodd" clip-rule="evenodd" d="M88.28 44.87l-12.264-8.812c.606-1.162.94-2.23 1-3.204 6.781.548 10.536 4.553 11.265 12.016zm-9.974-4.696c3.577 2.703 5.822 4.394 6.738 5.074-18.921 7.658-42.766-7.825-37.11-26.48-1.88 15.346 16.246 25.628 30.372 21.406zm-.632 3.471l-2.579-2.803-1.737-1.87c-15.507-.951-22.863-6.019-25.533-17.071.323 4.206 1.73 7.85 3.741 11.064 5.526 8.416 14.228 11.976 26.108 10.68z"/><path fill-rule="evenodd" clip-rule="evenodd" d="M54.843 26.89l-2.316 1.146L53.46 26l-1.843-1.513 2.303.267.842-1.313c.484 1.08.67 1.542.698 1.636l1.92.267-1.486 1.024.934 1.925-1.987-1.402zm3.421 4.042l-1.066.527.43-.936-.847-.697 1.059.124.387-.604c.223.497.308.71.32.752l.885.123-.684.47.429.886-.913-.645zm.918 13.432l-2.29-1.424a20883.13 20883.13 0 00-2.447 4.183l4.737-2.76z"/><path fill-rule="evenodd" clip-rule="evenodd" d="M48.207 24.682c2.44 10.925 15.377 17.882 26.919 16.193l-.03-.032-1.738-1.87c-15.507-.951-22.863-6.019-25.534-17.071.074.955.203 1.881.383 2.78z"/><path d="M70.61 51.699c-9.236 0-17.955-2.134-24.551-6.009-6.92-4.064-10.732-9.566-10.732-15.492s3.815-11.424 10.74-15.492C52.667 10.833 61.383 8.7 70.61 8.7s17.945 2.134 24.542 6.007c6.927 4.068 10.741 9.57 10.741 15.492 0 5.923-3.812 11.422-10.736 15.49-6.59 3.875-15.307 6.01-24.548 6.01h.002zm0-42.63c-9.162 0-17.811 2.115-24.353 5.955-6.808 3.999-10.558 9.388-10.558 15.174s3.746 11.178 10.548 15.174c6.54 3.842 15.192 5.958 24.363 5.958s17.826-2.117 24.36-5.961c6.805-3.998 10.552-9.386 10.552-15.171s-3.749-11.175-10.558-15.174c-6.542-3.84-15.19-5.955-24.353-5.955z"/></g><defs><clipPath id="clip0_795_1357"><path fill="#fff" d="M0 0h145v90H0z"/></clipPath></defs></svg>