<svg width="178" height="59" fill="none" xmlns="http://www.w3.org/2000/svg"><g clip-path="url(#clip0_795_1253)"><path fill-rule="evenodd" clip-rule="evenodd" d="M20.949 34.402l-10.061 2.246-2.36 12.02-.58 3.063c-.022.113-.055.285-.086.482l.034.328-.082.03-.016.15c-.092 0-.2-.006-.299-.035L.026 55.444l.01-.403a13.743 13.743 0 002.066-3.413c.458-1.105.898-2.36 1.247-3.763.402-1.612.745-3.235 1.119-4.843 1.31-5.834 2.606-11.595 3.863-17.266 1.24-5.597 2.492-11.118 3.642-16.571.318-1.507.417-2.582.415-3.213-.003-1.5-.4-2.456-1.2-2.883V2.93c2.153-.02 4.302-.042 6.456-.064 1.605 6.45 3.213 12.784 4.937 18.966 1.694 6.069 3.428 12.031 5.31 17.816.702 2.159 1.384 3.597 1.836 4.373.125.214.273.416.442.61-.637-1.207-1.146-2.618-1.55-3.88-1.896-5.925-3.604-11.91-5.248-17.908-1.666-6.08-3.192-12.198-4.69-18.321l.333-.002.116.475c1.556 6.374 3.139 12.742 4.873 19.071 1.643 6 3.35 11.983 5.249 17.91.283.889.62 1.852 1.018 2.765.44.466 1.014.871 1.721 1.222.003.084.006.169.013.247l-8.64 2.117c-.006-.085-.006-.174-.01-.264 1.037-.958 1.542-1.868 1.52-2.755-.019-.738-.303-1.613-.621-2.695l-3.367-11.46L9.604 33.65 7.218 45.98l-.57 3.046c-.243 1.3-.35 2.463.498 2.812.008-.493.118-1.072.167-1.329l.582-3.065 2.358-12.018 10.324-2.305.37 1.282.002-.002zm136.343 6.103c.039-4.884.081-9.769.12-14.641l.12-14.642c.02-2.565-.075-4.509-.277-5.842-.202-1.327-.713-2.291-1.514-2.877.003-.048.003-.095.003-.147 1.312.057 2.63.116 3.946.169 1.315.051 2.633.11 3.95.163v.148c-.749.469-1.232 1.28-1.442 2.445a27.29 27.29 0 00-.304 2.165 25.32 25.32 0 00-.109 2.556v1.611l-.32 33.288c.292.1.649.263 1.028.448l.434-32.796.006-1.627c.002-.835.028-1.68.115-2.513.074-.714.177-1.426.307-2.134.144-.782.454-1.6 1.173-2.05l.104-.065.216.008.606.023-.002.592v.483l-.292.183c-.717.45-1.028 1.268-1.173 2.05-.129.708-.232 1.42-.306 2.134a24.795 24.795 0 00-.115 2.513l-.006 1.629-.422 31.892c.599.301 1.198.602 1.646.757 2.222.803 4.392 1.731 6.831 1.417 2.074-.267 3.18-1.255 4.552-2.75.037.062.075.127.113.184-.677 3.25-1.629 5.894-2.326 9.076-3.132-.917-6.269-1.848-9.398-2.77-3.129-.922-6.259-1.84-9.387-2.762.003-.09.003-.179.005-.268 1.371-.349 2.07-2.53 2.105-6.555l.014-1.495h-.001zm-12.141-3.146l.491-27.412c.048-2.658-.055-4.533-.233-5.637-.169-1.04-.696-1.8-1.492-2.294v-.121h7.626v.121a2.598 2.598 0 00-.923.967c-.244.426-.404.924-.502 1.479a15.19 15.19 0 00-.186 1.267c-.024.293-.027.586-.034.887l-.081 3.331-.674 28.86c-.067 2.887.109 4.853.314 5.87.208 1.026.683 1.832 1.413 2.425v.23l-7.442-1.447v-.232c.755-.414 1.237-1.248 1.431-2.495.194-1.248.294-3.182.294-5.799h-.002zm-24.646-1.694l-.223-14.248-.224-14.244c-.052-3.268-.724-5.458-2.017-6.578 3.496.112 6.992.227 10.487.346 5.14.17 8.652 4.143 8.862 8.974.158 3.727-.803 6.714-3.912 9.192 2.96 1.428 5.276 4.513 6.235 7.916.719 2.555.635 5.358.038 7.93-.522 2.247-1.477 4.039-2.907 5.377a9.35 9.35 0 01-3.666 2.132c-1.376.426-2.915.572-4.608.443l-4.941-.377-4.94-.376c.743-.796 1.234-1.555 1.487-2.242.252-.684.365-2.108.331-4.245h-.002zm3.965 2c.312.126.637.25.972.368l.088-14.594c1.045-.035 2.092-.094 3.135-.04 2.887.152 4.945 2.173 6 4.634-1.155-1.877-2.977-3.285-5.368-3.41-1.041-.054-2.089.005-3.134.04l-.082 13.586c1.229.396 2.544.703 3.756.803 1.708.139 3.118-.431 4.202-1.676 1.258-1.445 1.72-4.254 1.681-6.699-.066-4.089-2.774-8.69-7.418-8.939-1.255-.065-2.536.028-3.793.053l-.039 15.875zm-.095-20c.341 0 .693.006 1.051.015l.114-11.356 2.611-.044c2.251.062 3.552 1.351 4.194 3.061-.742-1.068-1.89-1.79-3.561-1.837l-2.611.044-.103 10.143c2.323.035 4.796-.095 6.106-2.217.759-1.228.887-2.735.866-4.128-.051-3.304-1.539-6.503-5.354-6.613l-3.231.05-.082 12.881zm-51.374 27.69c.436-.018.874-.042 1.277-.044l.602-1.895c1.956-.326 3.878-.902 5.721-1.61l.277-.106 2.375-6.925h1.054l-2.797 8.149-.276.106c-1.844.709-3.766 1.285-5.72 1.61l-.246.77c3.936 2.364 2.288 7.619-2.477 7.619-1.626 0-3.097-.68-4.04-1.73.432-.652.856-1.281 1.248-1.956.355.796 1.337 1.376 2.466 1.376.682 0 1.29-.212 1.73-.556a2.655 2.655 0 00-1.085-.248l-.298.001-1.654-1.944.11-.352.912 1.072h.298c.768 0 1.823.429 1.96 1.25.307-.328.478-.74.459-1.184-.049-1.085-1.216-1.964-2.606-1.964l-1.252-1.458 1.099-3.512c-4.182.178-8.181-1.103-11.247-4.998-5.322-6.76-5.514-17.977-2.594-25.805C61.945.861 71.04-2.2 80.65 1.531l-.086 6.064c-8.908-6.673-16.085-1.63-18.44 6.712-1.702 6.034-1.353 16.79 4.217 20.709 5.377 3.782 11.49 1.568 16.057-2.025h.135l-2.394 7.014c-1.947.744-3.96 1.324-5.96 1.619L73 45.354h.002zM88.51 31.903a916.6 916.6 0 003.917-13.086c1.263-4.364 2.517-8.737 3.677-13.127.324-1.224.417-2.103.417-2.63-.002-1.23-.407-2.027-1.216-2.396V.538c2.174.02 4.346.04 6.521.062a988.433 988.433 0 005.022 16.787c1.741 5.607 3.514 11.243 5.427 16.842.733 2.143 1.416 3.6 1.873 4.423.465.84 1.238 1.635 2.309 2.413l.009.231a1483.3 1483.3 0 00-4.669-.113c-1.556-.037-3.112-.078-4.667-.114a4.358 4.358 0 01-.006-.234c1.051-.553 1.561-1.214 1.535-2.007-.02-.654-.286-1.482-.635-2.529-.578-1.73-1.056-3.496-1.572-5.245a1027.56 1027.56 0 01-1.533-5.246c-1.847-.04-3.695-.078-5.538-.11-1.844-.033-3.686-.069-5.53-.102-.887 3.286-1.798 6.567-2.702 9.842-.114.415-.199.823-.284 1.218-.087.393-.185.78-.177 1.132.026 1.133.438 1.943 1.168 2.439-.185-.366-.264-.793-.273-1.255-.005-.312.099-.69.166-.997.09-.4.174-.8.284-1.197.876-3.147 1.756-6.294 2.617-9.445 1.681.028 3.362.06 5.044.088 1.692.028 3.384.06 5.077.094l.347 1.22a1392.46 1392.46 0 00-4.792-.091c-1.681-.027-3.362-.06-5.044-.087-.861 3.151-1.741 6.297-2.618 9.446-.11.393-.193.794-.282 1.195-.068.306-.173.686-.167.998.001.083.005.162.012.243l.098.044c0 .078-.004.156 0 .23l-.066-.003.01.062-.065-.062-4.04-.097c-1.386-.031-2.77-.068-4.156-.101-.003-.073 0-.152.003-.23.858-.596 1.568-1.307 2.096-2.152.47-.754.912-1.64 1.266-2.655.412-1.18.761-2.378 1.137-3.572zm6.432-10.819l1.292.023a698.703 698.703 0 003.318-11.968l.482 1.784a696.223 696.223 0 01-2.823 10.2l2.014.035 4.287.073a894.903 894.903 0 01-2.221-7.758c-.724-2.58-1.432-5.165-2.136-7.747a1157.66 1157.66 0 01-2.066 7.685 744.3 744.3 0 01-2.148 7.672v.001zm-59.324 13.66V10.006c0-1.408-.022-2.567-.064-3.476a20.69 20.69 0 00-.222-2.321c-.19-1.163-.71-1.95-1.596-2.37l.084-.256 10.126-.1c5.263-.052 8.885 2.908 8.917 7.958.03 5.373-1.733 10.565-6.79 13.471 2.237 3.935 4.455 7.88 6.71 11.804 1.241 2.161 2.763 4.59 5.61 6.904l-3.814.414c-1.899.206-3.33-1.002-4.644-3.374l-4.881-8.798-3.705-7.65c3.375-1.527 6.19-3.804 7.195-7.045.34-1.1.395-2.192.395-3.325 0-1.149-.147-2.146-.432-2.966-.558-1.606-1.904-3.049-3.612-3.504-1.807-.482-3.9-.103-5.104.509l.139 28.576v1.482c0 1.186-.018 2.487-.002 3.563.026 1.815.199 2.729 1.088 3.613-.262-.6-.296-1.307-.307-2.352-.012-1.19.01-2.386.015-3.578l.006-1.491-.032-28.382c1.28-.533 3.017-.659 4.311-.313 1.492.398 2.663 1.68 3.159 3.076-.608-.871-1.49-1.576-2.526-1.85-1.295-.348-3.03-.223-4.312.31l.017 14.249-.048.022-.576.261.626 1.308.014 12.542-.005 1.494c-.004 1.192-.027 2.385-.015 3.576.006.592.02 1.074.077 1.49.193.158.41.319.656.487v.29l-7.896 1.228v-.248c.801-.604 1.3-1.74 1.497-3.069.198-1.329-.057-4.672-.057-7.422h-.002zm-24.867-6.51l1.084-.214 3.252-15.167.513 1.779-2.83 13.203 7.09-1.404-5.07-17.269-4.039 19.072zm-2.186 25.71l.51-.01.161 1.637L0 59l.047-1.477 8.558-3.177-.039-.403zm24.204-6.112c.084.046.169.09.253.131l.33.164.011.361c.003.074.005.148.011.221l.043.519-9.917 2.45-.054-.73c-.007-.098-.007-.192-.01-.29l-.01-.276.097-.089 9.262-2.287-.016-.174zm144.572-1.41l.426.74c.029.05.059.103.09.15l.142.212-.053.248c-.65 3.087-1.684 6.07-2.366 9.148l-.145.656-.66-.194c-3.139-.92-6.272-1.852-9.408-2.78l-9.397-2.767-.459-.135.012-.469.007-.272.009-.288c3.064.904 6.131 1.805 9.195 2.709 3.137.926 6.271 1.859 9.409 2.779l.659.194.146-.656c.682-3.077 1.715-6.06 2.367-9.148l.025-.125.001-.001zm-26.271.536c.027.136.06.27.098.4-.379-.464-.61-1.016-.73-1.623-.348-1.75-.33-4.002-.283-5.776l.783-29.057.092-3.354c.008-.286.012-.574.037-.86.033-.401.113-.824.185-1.222.079-.445.21-.897.436-1.294.173-.3.403-.567.706-.747l.063-.038h.875l-.004 1.08-.302.182a2.01 2.01 0 00-.705.746c-.227.398-.358.851-.438 1.296-.071.396-.152.819-.185 1.221-.024.285-.027.573-.036.859l-.092 3.354-.783 29.057c-.047 1.774-.065 4.025.282 5.775h.001zm.784 1.688c.121.142.257.275.41.4l.225.185-.005 1.272-8.72-1.696.005-1.097.004-.002 8.079 1.57.002-.632zm-11.919-22.882a14.61 14.61 0 011.425 3.389c.739 2.672.646 5.592.014 8.28-.506 2.159-1.451 4.17-3.111 5.726a10.087 10.087 0 01-3.93 2.298c-1.567.489-3.232.6-4.863.477-1.649-.125-3.3-.248-4.949-.374-1.651-.124-3.299-.248-4.951-.374l-1.283-.097.867-.93.154-.169 4.58.346 4.949.372c1.631.123 3.296.011 4.864-.476a10.079 10.079 0 003.929-2.297c1.659-1.556 2.605-3.568 3.112-5.726.631-2.689.724-5.61-.015-8.281a14.502 14.502 0 00-.792-2.166v.002zM119.213 3.757a3.373 3.373 0 00-.508-.563l-1.296-1.13.791.025c.445.435.773 1.018 1.013 1.668zm18.415 3.272c.891 1.468 1.417 3.193 1.49 5.04.135 3.465-.677 6.32-3.022 8.71a10.674 10.674 0 00-1.107-.765c2.71-2.481 3.64-5.48 3.497-9.17a10.64 10.64 0 00-.858-3.816zm-66.52 37.864c-3.973-.266-7.347-1.984-9.89-5.241a18.623 18.623 0 01-2.144-3.508c.45.803.953 1.567 1.512 2.285 2.755 3.53 6.484 5.25 10.897 5.277l-.375 1.187zm10.54-41.838c.083.03.164.062.247.093l.403.158-.138 7.763-1-.755c-7.907-5.956-14.99-2.383-17.505 6.455-1.205 4.239-1.43 11.274.774 16.154-2.868-4.854-2.717-12.77-1.406-17.378 2.515-8.838 9.598-12.412 17.504-6.454l1.001.754.12-6.79zm-3.567 45.8c2.168 2.99.034 7.33-4.493 7.337-1.711.002-3.394-.686-4.518-1.95l-.31-.347.226-.341c1.087.92 2.518 1.416 3.97 1.415 3.938-.005 6.065-3.29 5.125-6.114zm15.143-6.623c.079.045.162.09.25.127l.373.165-.002.397c0 .067-.004.138 0 .204l.025.658-.676-.016-4.171-.093c-1.388-.032-2.777-.067-4.165-.098l-.593-.014-.022-.576a3.3 3.3 0 01.004-.28l.013-.3.073-.05c1.352.03 2.704.064 4.056.094l4.171.094.678.015-.014-.327zm9.857-40.09l.281.002.128.444a993.519 993.519 0 004.968 16.886c1.731 5.662 3.481 11.318 5.371 16.932.366 1.086.789 2.235 1.291 3.31a3.406 3.406 0 01-.105-.18c-.74-1.348-1.331-2.906-1.818-4.353-1.889-5.615-3.64-11.272-5.37-16.933a969.015 969.015 0 01-4.746-16.109zm14.332 40.568c.12.093.241.185.361.273l.24.174.011.292.001.016-.371.398.39.03.018.45-.681-.017c-1.559-.038-3.118-.075-4.678-.108-1.559-.036-3.116-.075-4.676-.11l-.593-.015-.022-.576c-.003-.086-.007-.174-.007-.26l.002-.368.013-.006c1.551.034 3.101.075 4.651.11 1.56.034 3.119.069 4.678.109l.682.017-.019-.41v.001zm-58.061.707l.262.218 1.127.921-5.292.585c-2.582.286-4.178-1.722-5.27-3.711l-4.867-8.867-.269-.563 4.504 8.206c1.091 1.99 2.687 3.997 5.268 3.71l4.536-.498v-.001zm-16.51 2.3c.113.088.236.175.368.266l.267.184-.004 1.135-9.185 1.444.005-1.272.086-.065 8.462-1.33v-.363zM34.911 5.02a2.006 2.006 0 00-.548-.382l-.49-.233.247-.749c.43.34.664.824.79 1.364zm18.215 1.936c.823 1.292 1.286 2.887 1.29 4.755.01 5.471-1.777 10.678-6.603 13.761l-.672-1.198c4.856-3.08 6.654-8.302 6.643-13.788-.003-1.316-.234-2.496-.658-3.53z" fill="#454545"/></g><defs><clipPath id="clip0_795_1253"><path fill="#fff" d="M0 0h178v59H0z"/></clipPath></defs></svg>