<svg width="118" height="140" fill="none" xmlns="http://www.w3.org/2000/svg"><g clip-path="url(#clip0_794_1162)"><path fill-rule="evenodd" clip-rule="evenodd" d="M115.235 96.47c-9.316 25.822-32.933 40.332-70.851 43.525 69.064-28.146 68.105-93.377 1.045-110.912 0 0-3.053 24.904-12.027 74.71V0c51.692 2.56 96.319 42.083 81.833 96.47zm-35.698 10.08c6.75-9.024 10.924-20.141 9.37-31.553a37.248 37.248 0 00-.76-3.971c-8.187 29.224-26.91 43.921-60.13 43.134V21.15H0l16.966 117.272c24.658-3.13 46.951-10.99 62.571-31.872z" fill="#454545"/></g><defs><clipPath id="clip0_794_1162"><path fill="#fff" d="M0 0h118v140H0z"/></clipPath></defs></svg>