<svg width="69" height="65" fill="none" xmlns="http://www.w3.org/2000/svg"><g clip-path="url(#clip0_796_1519)" fill="#454545"><path d="M66.025 44.25c-6.825-.002-13.65 0-20.474-.006-.34 0-.71.092-1.131-.173.446-.332.814-.613 1.189-.884 5.175-3.746 10.352-7.49 15.528-11.236 1.187-.859 1.271-1.286.415-2.467a6756.59 6756.59 0 00-9.976-13.715c-.896-1.228-1.298-1.28-2.549-.371-1.461 1.061-2.913 2.136-4.373 3.2-.578.422-1.165.832-1.818 1.297-.019-.479.206-.701.347-.954 1.49-2.654 2.99-5.302 4.48-7.956.649-1.157.522-1.615-.641-2.27A8884.35 8884.35 0 0032.244.396c-1.164-.654-1.615-.537-2.281.621-1.067 1.856-2.104 3.729-3.155 5.593l-4.42 7.841-.195-.085c0-3.611.005-7.223-.002-10.834-.002-1.488-.355-1.843-1.83-1.844-6.19-.004-12.378-.005-18.567 0C.272 1.69 0 1.973 0 3.525v59.517c0 1.618.315 1.954 1.92 1.955 21.377.004 42.754.004 64.132 0 1.617 0 1.947-.341 1.947-1.932.003-5.62.002-11.24 0-16.861 0-1.726-.229-1.954-1.975-1.954zM18.648 62.73c-5.017-.04-10.034-.017-15.05-.019-1.303 0-1.308-.004-1.308-1.359V5.563c0-1.045.537-1.568 1.611-1.569 4.917 0 9.834.022 14.75-.019.953-.008 1.26.261 1.258 1.24-.026 18.763-.027 37.527 0 56.29.002.989-.316 1.234-1.261 1.226zm25.357-40.859c1.82-1.306 3.637-2.62 5.429-3.966.478-.359.709-.248 1.029.196 2.819 3.905 5.658 7.796 8.497 11.687.257.353.457.618-.047.974-1.886 1.33-3.744 2.7-5.614 4.051-.108.078-.227.14-.31.192-.338.056-.441-.19-.573-.368-2.869-3.87-5.73-7.745-8.604-11.61-.367-.492-.287-.811.193-1.156zM28.001 9.113a220.907 220.907 0 003.192-5.678c.304-.555.627-.688 1.199-.363 4.125 2.341 8.26 4.664 12.39 6.998.191.107.457.173.431.546-.064.126-.148.307-.245.48-1.077 1.924-2.172 3.838-3.225 5.775-.35.642-.702.75-1.347.372-4.009-2.343-8.03-4.663-12.062-6.967-.55-.315-.677-.578-.333-1.164zM22.394 19.16c1.21-2.27 2.503-4.496 3.766-6.738.112-.199.203-.435.55-.429.195.1.438.21.668.344 3.965 2.29 7.92 4.595 11.9 6.86.661.378.806.663.386 1.374a222.574 222.574 0 00-4.032 7.163c-.355.654-.649.754-1.303.366-3.765-2.233-7.538-4.456-11.352-6.604-.918-.517-.99-1.574-.583-2.336zm-.208 20.035c-.003-.751.26-.778.821-.451 1.385.807 2.777 1.6 4.175 2.384.404.226.636.461.362.947-1.72 3.041-3.431 6.087-5.146 9.132l-.203-.095c0-3.972.01-7.944-.009-11.917zm.77-3.055c-.58-.316-.781-.734-.77-1.373.028-1.705.01-3.41.01-5.116-.002-1.672.014-3.344-.01-5.015-.008-.679.099-.96.824-.532 3.424 2.024 6.858 4.032 10.305 6.018.582.336.611.639.293 1.192a397.363 397.363 0 00-4.176 7.43c-.333.608-.62.726-1.24.358a158.53 158.53 0 00-5.236-2.962zm7.392 25.923c0 .465-.249.647-.695.645-2.268-.005-4.536-.003-6.804-.004-.204 0-.403-.03-.54-.204-.298-.38-.109-2.342.298-2.639 2.5-1.83 5.013-3.643 7.741-5.62v7.822zm-.166-10.5c-2.445 1.744-4.87 3.518-7.306 5.274-.153.11-.37.251-.522.217-.242-.054-.126-.33-.146-.477-.012-.393.167-.677.33-.969 1.524-2.703 3.062-5.399 4.558-8.117.386-.702.627-.706 1.07-.053a51.023 51.023 0 002.138 2.9c.38.485.438.825-.122 1.225zm2.014-2.458a151.027 151.027 0 00-2.973-4.036c-.302-.398-.356-.732-.101-1.179a1352.83 1352.83 0 004.723-8.386c.266-.476.494-.572.858-.07 1.884 2.596 3.788 5.18 5.681 7.771.116.159.2.34.27.46-.01.347-.23.457-.418.592-2.298 1.67-4.603 3.332-6.891 5.015-.476.35-.788.343-1.148-.166zm10.602 5.543c0 2.342-.023 4.684.012 7.026.012.77-.225 1.063-1.03 1.051-2.709-.04-5.42-.033-8.129-.003-.72.008-1.015-.197-1.006-.963.035-2.81.023-5.62.006-8.43-.003-.52.173-.876.596-1.18 2.418-1.736 4.825-3.488 7.232-5.24.34-.246.71-.322 1.121-.364.91-.096 1.24.238 1.217 1.179-.057 2.307-.019 4.616-.019 6.924zm.084-12.34c-.35.019-.469-.202-.604-.386-2.155-2.94-4.302-5.884-6.466-8.816-.292-.396-.22-.71 0-1.096 1.209-2.12 2.399-4.25 3.598-6.376a4.17 4.17 0 01.382-.588c1.149-1.406 1.667-1.384 2.723.046 2.542 3.443 5.099 6.875 7.646 10.313.8 1.08.8 1.092-.246 1.854-2.161 1.575-4.329 3.141-6.496 4.708-.187.135-.39.248-.537.341zM55.25 61.66c.004.746-.175 1.083-1.01 1.07a244.82 244.82 0 00-8.13-.001c-.818.013-1.03-.291-1.02-1.056.036-2.375.014-4.75.014-7.126 0-2.309.02-4.618-.012-6.926-.011-.747.18-1.092 1.005-1.08 2.71.038 5.42.037 8.13 0 .808-.01 1.028.304 1.024 1.067-.024 4.684-.022 9.368 0 14.052zm10.47.105c.001.666-.206.968-.923.958a181.394 181.394 0 00-6.315.003c-.788.015-.954-.329-.946-1.024.027-2.372.01-4.745.01-7.118 0-2.306.024-4.612-.013-6.917-.013-.792.196-1.148 1.062-1.127 2.037.048 4.077.035 6.115.005.723-.01 1.014.24 1.011.985a1969.5 1969.5 0 00-.002 14.236z"/><path d="M11.077 47.655c-2.614-.006-4.65 2.022-4.642 4.62.009 2.56 2.104 4.638 4.676 4.635 2.458-.004 4.599-2.139 4.63-4.618.03-2.53-2.084-4.632-4.664-4.637zm.037 6.975a2.35 2.35 0 01-2.373-2.327c-.009-1.397.917-2.35 2.287-2.356 1.36-.006 2.394.968 2.417 2.275.022 1.258-1.071 2.387-2.331 2.408z"/></g><defs><clipPath id="clip0_796_1519"><path fill="#fff" d="M0 0h68.002v65H0z"/></clipPath></defs></svg>