<svg width="73" height="65" fill="none" xmlns="http://www.w3.org/2000/svg"><g clip-path="url(#clip0_796_1516)" fill="#454545"><path d="M72.244 51.715c-.01-1.289-.414-1.709-1.734-1.734-1.528-.03-3.056-.009-4.585-.01-1.094-.002-1.642-.551-1.643-1.647L64.28 10.26c0-3.127-.053-3.182-3.122-3.182H35.571c-6.149 0-12.297-.015-18.445.017-.917.005-1.278-.256-1.233-1.21.066-1.418.033-2.842.009-4.263-.021-1.2-.425-1.597-1.615-1.611A252.211 252.211 0 009.809.008c-1.416.008-1.806.393-1.83 1.855a102.131 102.131 0 000 4.158c.018.773-.272 1.084-1.06 1.068a168.362 168.362 0 00-5.117-.005C.413 7.097.018 7.494.008 8.857a310.45 310.45 0 000 4.371c.009 1.354.408 1.77 1.786 1.793 1.563.025 3.127.005 4.69.009 1.48.004 1.486.006 1.486 1.484.002 6.539.001 13.078.001 19.617 0 6.433-.002 12.866.002 19.298 0 2.219.282 2.49 2.532 2.49 1.35.002 2.7 0 4.051 0 13.47 0 26.939.012 40.408-.02 1.055-.002 1.473.263 1.402 1.37-.088 1.38-.04 2.772-.01 4.157.022 1.135.435 1.544 1.556 1.56 1.528.021 3.056.014 4.585.004 1.314-.008 1.737-.394 1.77-1.696.038-1.42.044-2.844.004-4.264-.022-.825.282-1.142 1.118-1.122 1.705.043 3.412.026 5.118.006 1.321-.015 1.726-.423 1.737-1.721.013-1.493.012-2.985 0-4.478zM5.96 12.591H3.939c-1.002-.002-1.502-.516-1.502-1.542 0-1.012.509-1.52 1.525-1.521 1.029-.001 2.058.018 3.087-.004.613-.014.883.212.929.856.155 2.166.133 2.21-2.017 2.211zM56.2 55.239c-.112.327-.562.229-.874.23-1.777.006-3.554.003-5.33.003h-38.06c-1.03 0-1.544-.53-1.544-1.589V28.936c0-8.387-.004-16.773.009-25.16 0-.429-.232-1.074.335-1.222.812-.211 1.707-.291 2.5.071.379.174.216.713.216 1.091.008 4.051.006 8.103.006 12.154v34.329c0 1.982.227 2.21 2.196 2.21 13.078 0 26.156-.002 39.233.01.463.001 1.156-.268 1.34.31.253.8.25 1.693-.027 2.51zm.028-5.624c-.105.554-.782.346-1.214.347-6.04.012-12.079.009-18.119.009h-.852c-6.253 0-12.506-.023-18.758.021-1.064.007-1.488-.284-1.394-1.381.085-.988.119-2-.004-2.98-.235-1.88.438-3.31 1.682-4.693 1.898-2.11 3.625-4.375 5.421-6.577.847-1.038.854-1.051 1.727-.108 3.982 4.302 7.955 8.61 11.933 12.914.168.183.333.371.521.532.523.445 1.098.55 1.635.068.576-.517.55-1.163.086-1.714a38.258 38.258 0 00-2.446-2.67c-.533-.525-.604-.893-.093-1.503a489.595 489.595 0 006.482-7.914c.44-.547.724-.5 1.161-.022 3.962 4.32 7.941 8.622 11.908 12.937.753.819.497 1.825.324 2.734zM15.893 16.228c-.004-.946.316-1.216 1.234-1.214 12.687.023 25.375.022 38.062.002.877-.002 1.173.282 1.17 1.167-.024 8.885-.015 17.77-.017 26.654 0 .204-.03.407-.066.844L45.33 31.848c-.12-.13-.232-.27-.352-.401-1.433-1.58-1.917-1.562-3.252.076-2.313 2.836-4.653 5.651-6.941 8.507-.514.642-.827.675-1.388.058a999.159 999.159 0 00-8.174-8.848c-1.238-1.327-1.738-1.291-2.882.107-2.044 2.498-4.09 4.994-6.153 7.51-.423-.25-.269-.605-.27-.88-.01-7.25.007-14.5-.025-21.75zM61.504 62.45c-.813.196-1.708.295-2.496-.085-.374-.181-.209-.716-.21-1.095-.007-5.508-.004-11.016-.004-16.524V14.79c0-1.968-.234-2.198-2.209-2.199-13.077 0-26.155.002-39.232-.011-.46 0-1.156.27-1.332-.32-.238-.802-.264-1.7.044-2.506.137-.358.637-.221.98-.222 2.702-.008 5.402-.005 8.103-.005h35.288c.947 0 1.42.464 1.423 1.39v25.16c0 8.386.004 16.773-.008 25.16-.001.427.23 1.075-.347 1.214zm6.315-6.979h-.745c-.461 0-.922.002-1.383 0-.937-.004-1.406-.48-1.41-1.43-.004-1.088.54-1.632 1.63-1.633.959 0 1.918.028 2.874-.009.704-.027 1.019.197 1.044.957.068 2.116.097 2.115-2.01 2.115z"/><path d="M33.442 29.372c2.56-.01 4.627-2.08 4.614-4.62-.013-2.453-2.26-4.656-4.693-4.599-2.581.06-4.566 2.098-4.556 4.676.01 2.578 2.027 4.555 4.635 4.543zm-.04-6.809c1.188.01 2.242 1.099 2.212 2.285-.03 1.161-1.04 2.091-2.258 2.08-1.27-.011-2.119-.887-2.103-2.17.015-1.201.996-2.205 2.148-2.195z"/></g><defs><clipPath id="clip0_796_1516"><path fill="#fff" d="M0 0h72.253v65H0z"/></clipPath></defs></svg>