<svg width="64" height="65" fill="none" xmlns="http://www.w3.org/2000/svg"><g clip-path="url(#clip0_796_1513)" fill="#454545"><path d="M63.011 45.495a433.561 433.561 0 00-5.358-5.356c-.55-.54-1.155-.471-1.703.048-.418.395-.853.78-1.222 1.218-.448.533-.767.562-1.293.03A1186.801 1186.801 0 0043.2 31.19c-.474-.469-.504-.814-.174-1.397 1.6-2.823 1.172-6.06-1.033-8.297-2.237-2.27-5.396-2.747-8.274-1.163-.7.386-1.09.299-1.63-.25-3.071-3.122-6.181-6.206-9.279-9.303-.955-.955-.968-1.901-.038-2.838.157-.158.316-.317.467-.481.551-.6.547-1.21-.019-1.782A584.788 584.788 0 0017.926.394c-.54-.532-1.153-.522-1.7.02A899.976 899.976 0 0010.934 5.7c-.574.578-.558 1.2.01 1.773 1.733 1.749 3.478 3.485 5.216 5.227.622.623 1.241.567 1.85-.01.394-.373.803-.737 1.152-1.15.47-.557.828-.626 1.365-.027.896.998 1.883 1.913 2.834 2.861 1.237 1.232 2.476 2.462 3.799 3.776-.535.077-.839-.127-1.163-.224-5.732-1.725-11.292-1.511-16.583 1.512-.574.327-.965.203-1.48-.089-3.464-1.957-7.752.299-7.927 4.179-.1 2.245.833 4.007 2.858 5.024 2.004 1.007 3.993.813 5.746-.616 1.76-1.434 2.273-3.33 1.72-5.512-.12-.478-.318-.874.29-1.208 2.812-1.537 5.82-2.35 9.01-2.243 3.869.131 7.448 1.379 10.85 3.185.558.296.698.558.405 1.183-1.29 2.744-.749 5.804 1.32 7.87 2.042 2.039 5.12 2.614 7.79 1.339.757-.362.98-.12 1.262.5 3.262 7.133 3.082 14.164-.549 21.12-.34.65-.709.72-1.377.535-2.496-.695-5.018.447-6.134 2.705-1.095 2.216-.508 4.903 1.398 6.406 2.048 1.614 4.837 1.574 6.8-.098 1.86-1.584 2.369-4.339 1.12-6.535-.384-.674-.384-1.158-.007-1.833 2.583-4.621 3.649-9.566 3.097-14.856-.162-1.559-.546-3.072-.904-4.79 2.091 2.097 4.035 4.04 5.97 5.99.584.588 1.507 1.139 1.617 1.814.122.743-.973 1.21-1.509 1.824-.68.778-.719 1.254.002 1.986a457.56 457.56 0 005.088 5.084c.69.678 1.224.686 1.91.013 1.735-1.701 3.444-3.429 5.163-5.146.572-.571.636-1.196.068-1.775zM20.593 7.013c-1.068 1.056-2.125 2.123-3.19 3.183-.087.087-.198.151-.264.2-.276.025-.391-.147-.523-.278-1.019-1.015-2.022-2.046-3.058-3.043-.409-.393-.335-.663.035-1.021a127.43 127.43 0 002.982-2.983c.346-.358.598-.366.946-.007 1.002 1.031 2.025 2.042 3.047 3.054.304.302.352.572.025.895zM5.26 26.925c-1.73-.006-3.054-1.297-3.064-2.989-.01-1.822 1.31-3.135 3.134-3.114a3.059 3.059 0 013.039 3.045c.003 1.738-1.345 3.064-3.109 3.058zm31.767 4.031c-2.642-.018-4.694-2.063-4.685-4.67.009-2.561 2.154-4.679 4.732-4.671 2.593.008 4.724 2.113 4.732 4.674.009 2.645-2.08 4.685-4.78 4.667zm.886 31.821c-1.779-.006-3.102-1.328-3.086-3.081.016-1.73 1.378-3.03 3.156-3.015a3.066 3.066 0 013.055 3.038c.012 1.73-1.352 3.064-3.125 3.058zM60.35 46.834a131.008 131.008 0 00-3.05 3.048c-.354.366-.61.327-.948-.02-1.002-1.029-2.026-2.038-3.047-3.05-.253-.25-.423-.476-.097-.799 1.09-1.078 2.171-2.165 3.26-3.243.087-.086.211-.134.284-.18.3-.007.453.168.61.324.995.992 1.978 1.996 2.986 2.975.353.344.365.594.002.945z"/><path d="M26.15 35.66l-.36.13c-7.184 2.676-14.367 5.353-21.551 8.026-.616.23-1.26.454-1.245 1.254.016.807.674.996 1.303 1.187 2.842.86 5.668 1.779 8.532 2.564 1.044.286 1.484.843 1.765 1.836.815 2.888 1.736 5.746 2.61 8.618.177.584.42 1.082 1.133 1.106.828.005 1.043-.626 1.268-1.23 1.894-5.089 3.784-10.18 5.676-15.269.823-2.215 1.644-4.432 2.47-6.646.19-.508.268-1.004-.167-1.423-.429-.413-.93-.341-1.434-.154zm-7.548 19.917c-.44-.246-.444-.62-.539-.929-.58-1.894-1.19-3.78-1.708-5.692-.28-1.033-.824-1.617-1.882-1.904a62.298 62.298 0 01-6.706-2.224l17.226-6.414-6.391 17.163z"/></g><defs><clipPath id="clip0_796_1513"><path fill="#fff" d="M0 0h63.406v65H0z"/></clipPath></defs></svg>