<svg xmlns="http://www.w3.org/2000/svg" width="261" height="65.5"><path fill-rule="evenodd" clip-rule="evenodd" fill="#2B2A29" d="M15.8 0v48.6c4.2-23.3 5.7-35 5.7-35 31.7 8.2 32.1 38.7-.5 51.9 17.9-1.5 29-8.3 33.5-20.3C61.3 19.7 40.2 1.2 15.8 0z"/><linearGradient id="a" gradientUnits="userSpaceOnUse" x1="21.09" y1="64.769" x2="21.09" y2="9.9"><stop offset="0" stop-color="#8c231d"/><stop offset="1" stop-color="#e21e24"/></linearGradient><path fill="url(#a)" d="M8 64.8L0 9.9h13.2v43.5c15.7.4 24.6-6.5 28.4-20.2.1.6.3 1.2.4 1.9.7 5.3-1.3 10.5-4.4 14.8C30.2 59.6 19.7 63.3 8 64.8z"/><linearGradient id="b" gradientUnits="userSpaceOnUse" x1="166.421" y1="31.406" x2="166.421" y2="15.666"><stop offset="0" stop-color="#8c231d"/><stop offset="1" stop-color="#e21e24"/></linearGradient><path fill="url(#b)" d="M78.6 19.1c1.3 0 2.3.3 2.9 1 .7.7 1 1.6 1 2.9v4.2c0 1.3-.3 2.3-1 2.9-.7.7-1.6 1-2.9 1h-6.7v-12h6.7zm.8 4c0-1-.5-1.6-1.5-1.6H75v7.3h2.9c1 0 1.5-.5 1.5-1.5v-4.2zm12.6-.7c0-.7-.4-1-1.1-1H88c-.7 0-1 .3-1 1V28c0 .7.3 1 1 1h3c.7 0 1.1-.3 1.1-1v-5.6zm3.2 5.6c0 1.2-.3 2.1-.8 2.6s-1.4.8-2.6.8h-4.3c-1.2 0-2.1-.3-2.6-.8s-.8-1.4-.8-2.6v-5.5c0-1.2.3-2.1.8-2.6s1.4-.8 2.6-.8h4.3c1.2 0 2.1.3 2.6.8s.8 1.4.8 2.6V28zM90 15.7h3v2.4h-3v-2.4zm-3.9 0H89v2.4h-2.9v-2.4zm19.5 3.4l2.1 7.8 1.8-7.8h3.4l-3.3 12.1h-3.3l-2.1-7.5-2.1 7.5h-3.3l-3.3-12.1H99l1.8 7.8 2.1-7.8h2.7zm8.2 0h7.3c1.2 0 2.1.3 2.6.8.5.6.8 1.5.8 2.6v1.6c0 .9-.2 1.7-.5 2.2-.3.5-.8.9-1.5 1.1l2.2 3.8h-3.4l-2-3.6h-2.4v3.6h-3.1V19.1zm7.5 3.5c0-.7-.3-1.1-1-1.1h-3.5v3.6h3.5c.7 0 1-.3 1-1v-1.5zm7 8.6H125l4.6-12.1h3.4l4.6 12.1h-3.4l-.8-2.1h-4.3l-.8 2.1zm1.6-4.4h2.8l-1.4-4.1-1.4 4.1zm19.1 4.4h-3.3l-4.1-7.3v7.3h-3.1V19.1h3.3l4.1 7.3v-7.3h3.1v12.1zm5.2-2.4h6.3v2.4H151V19.1h3.1v9.7zm4-9.7h3.3l2.8 5.9 2.9-5.9h3.3l-4.6 8.9v3.2h-3.1V28l-4.6-8.9zm21.9 0h3.3l2.9 5.9 2.8-5.9h3.3l-4.6 8.9v3.2h-3.1V28l-4.6-8.9zm4.8-.3l1-2.9h3.1l-1.9 2.9h-2.2zm15.6 3.6c0-.7-.3-1-1-1h-2.9c-.7 0-1.1.3-1.1 1V28c0 .7.4 1 1.1 1h2.9c.7 0 1-.3 1-1v-5.6zm3.1 5.6c0 1.2-.3 2.1-.8 2.6-.6.5-1.5.8-2.6.8h-4.3c-1.2 0-2.1-.3-2.6-.8s-.8-1.4-.8-2.6v-5.5c0-1.2.3-2.1.8-2.6s1.5-.8 2.6-.8h4.3c1.2 0 2.1.3 2.6.8s.8 1.4.8 2.6V28zm-5.1-12.3h2.9v2.4h-2.9v-2.4zm-4 0h2.9v2.4h-2.9v-2.4zm10.8 3.4h7.3c1.2 0 2.1.3 2.6.8.5.6.8 1.5.8 2.6v1.6c0 .9-.2 1.7-.5 2.2-.3.5-.8.9-1.5 1.1l2.2 3.8h-3.4l-2-3.6h-2.4v3.6h-3.1V19.1zm7.6 3.5c0-.7-.3-1.1-1-1.1h-3.5v3.6h3.5c.7 0 1-.3 1-1v-1.5zm14.4 8.6h-9.6V19.1h9.6v2.4h-6.5v2.4h5.1v2.4h-5.1v2.5h6.5v2.4zm4.5-2.4h6.3v2.4h-9.4V19.1h3.1v9.7zm17.9 2.2c-2.7.3-5.1.4-7.4.4-1.1 0-2-.3-2.5-.8s-.8-1.4-.8-2.5v-5.5c0-1.2.3-2.1.8-2.6s1.4-.8 2.6-.8h6.2v2.4h-5.5c-.7 0-1 .4-1 1.1v5.5c0 .3.1.5.2.7.1.1.4.2.6.2 1.3 0 2.5 0 3.6-.1v-2.5h-2.2v-2.1h5.4V31zm11.3.2h-9.6V19.1h9.6v2.4h-6.5v2.4h5.1v2.4h-5.1v2.5h6.5v2.4z"/><path fill="#2B2A29" d="M77.5 47.9h-.9v-3.4h-3.8v3.4h-.9v-7.4h.9v3.2h3.8v-3.2h.9v7.4zm12.4-3.7c0 1.2-.3 2.1-.9 2.8-.6.7-1.5 1-2.5 1-1.1 0-1.9-.3-2.5-1-.6-.7-.9-1.6-.9-2.8 0-1.2.3-2.1.9-2.8.6-.7 1.5-1 2.5-1 1.1 0 1.9.4 2.5 1 .6.7.9 1.6.9 2.8zm-5.8 0c0 1 .2 1.7.6 2.2.4.5 1 .8 1.8.8s1.4-.3 1.8-.8c.4-.5.6-1.3.6-2.2 0-1-.2-1.7-.6-2.2-.4-.5-1-.8-1.8-.8s-1.4.3-1.8.8c-.4.5-.6 1.2-.6 2.2zm10.4 5.6c-.3 0-.5 0-.8-.1v-.8c.3.1.5.1.8.1.3 0 .6-.1.8-.3.1-.2.3-.5.3-.9v-7.4h.9v7.3c0 .7-.1 1.2-.5 1.5-.4.4-.9.6-1.5.6zm12.4-1.9l-.9-2.3h-2.9l-.9 2.3h-.9l2.9-7.4h.9l2.9 7.4h-1.1zm-1.1-3.1l-.8-2.2-.3-1.1c-.1.4-.2.8-.3 1.1l-.8 2.2h2.2zm7.1 3.1v-7.4h.9V47h3.2v.8h-4.1zm11.2-3.8l1.9-3.7h1l-2.5 4.5v2.9h-.9V45l-2.5-4.6h1l2 3.7zm13.3 3.8h-1.1l-2.6-3.5-.8.7V48h-.9v-7.4h.9v3.7l.7-.7 2.6-2.9h1.1l-2.9 3.2 3 4zm11.6 1.9c-.3 0-.6 0-.8-.1v-.8c.2.1.5.1.7.1.3 0 .6-.1.8-.3.2-.2.3-.5.3-.9v-7.4h.9v7.3c0 .7-.2 1.2-.5 1.5-.3.4-.8.6-1.4.6zm12-1.9h-4.1v-7.4h4.1v.8h-3.2v2.3h3v.8h-3V47h3.2v.9zm8.8 0l-2.4-6.5c0 .5.1 1.2.1 2v4.5h-.9v-7.4h1.4l2.3 6.1 2.3-6.1h1.3v7.4h-.9v-4.5c0-.5 0-1.2.1-1.9l-2.5 6.5h-.8zm13.3-3.9h2.5v3.6l-1.2.3c-.4.1-.9.1-1.4.1-1.1 0-2-.3-2.6-1-.6-.7-.9-1.6-.9-2.8 0-.8.1-1.5.5-2 .3-.6.8-1 1.3-1.3.6-.3 1.3-.4 2.1-.4s1.5.1 2.2.4l-.3.8c-.7-.3-1.3-.4-1.9-.4-.9 0-1.6.3-2.1.8s-.7 1.3-.7 2.2c0 1 .3 1.7.7 2.2.5.5 1.2.8 2.1.8.5 0 1-.1 1.5-.2v-2.2h-1.6V44zm10.3.1l1.9-3.7h1l-2.4 4.5v2.9h-.9V45l-2.5-4.6h1l1.9 3.7zm9.8 0l1.9-3.7h1l-2.4 4.5v2.9h-.9V45l-2.5-4.6h1l1.9 3.7zm-.7-4.3c.1-.2.3-.4.5-.7.2-.3.4-.6.5-.8h1.1v.1c-.1.2-.4.5-.7.8-.3.3-.6.6-.8.7h-.6v-.1zm12.7 8.1h-4.1v-7.4h4.1v.8H212v2.3h3v.8h-3V47h3.2v.9zm7.9 0h-.9v-6.6h-2.3v-.8h5.5v.8h-2.3v6.6zm9.5 0H230v-.5l.9-.2v-5.9l-.9-.3v-.5h2.6v.5l-.8.2v5.9l.8.2v.6z"/></svg>