<svg width="176" height="34" fill="none" xmlns="http://www.w3.org/2000/svg"><g clip-path="url(#clip0_794_1213)"><path d="M17.6 0l5.439 10.977 12.161 1.76-8.8 8.545 2.077 12.065L17.6 27.651 6.723 33.347 8.8 21.282 0 12.737l12.161-1.76L17.6 0z" fill="#E21E24"/></g><g clip-path="url(#clip1_794_1213)"><path d="M88 0l5.439 10.977 12.161 1.76-8.8 8.545 2.077 12.065L88 27.651l-10.877 5.696 2.078-12.065-8.801-8.545 12.161-1.76L88 0z" fill="#E21E24"/></g><g clip-path="url(#clip2_794_1213)"><path d="M52.8 0l5.439 10.977 12.161 1.76-8.8 8.545 2.077 12.065L52.8 27.651l-10.877 5.696L44 21.282l-8.8-8.545 12.161-1.76L52.8 0z" fill="#E21E24"/></g><g clip-path="url(#clip3_794_1213)"><path d="M123.2 0l5.439 10.977 12.161 1.76-8.8 8.545 2.077 12.065-10.877-5.696-10.877 5.696 2.077-12.065-8.8-8.545 12.161-1.76L123.2 0z" fill="#E21E24"/></g><g clip-path="url(#clip4_794_1213)"><path d="M158.4 0l5.439 10.977L176 12.737l-8.799 8.545 2.076 12.065-10.877-5.696-10.877 5.696 2.078-12.065-8.801-8.545 12.161-1.76L158.4 0z" fill="#E21E24"/></g><defs><clipPath id="clip0_794_1213"><path fill="#fff" d="M0 0h35.2v33.347H0z"/></clipPath><clipPath id="clip1_794_1213"><path fill="#fff" transform="translate(70.4)" d="M0 0h35.2v33.347H0z"/></clipPath><clipPath id="clip2_794_1213"><path fill="#fff" transform="translate(35.2)" d="M0 0h35.2v33.347H0z"/></clipPath><clipPath id="clip3_794_1213"><path fill="#fff" transform="translate(105.6)" d="M0 0h35.2v33.347H0z"/></clipPath><clipPath id="clip4_794_1213"><path fill="#fff" transform="translate(140.8)" d="M0 0h35.2v33.347H0z"/></clipPath></defs></svg>