<svg width="80" height="80" fill="none" xmlns="http://www.w3.org/2000/svg"><g clip-path="url(#clip0_795_1222)" stroke="#E21E24" stroke-width="3" stroke-miterlimit="10"><path d="M40 78.648c21.344 0 38.648-17.303 38.648-38.648C78.648 18.656 61.345 1.353 40 1.353 18.655 1.353 1.352 18.656 1.352 40c0 21.345 17.303 38.648 38.648 38.648z"/><path d="M31.34 57.505c-6.145-6.09-9.053-13.427-9.217-21.777-.045-2.293.032-4.589-.04-6.882 6.141-3.66 12.274-7.336 18.398-11.024 6.12 3.684 12.25 7.357 18.384 11.02-.041 2.085-.018 4.171-.023 6.259-.007 2.753-.295 5.508-.99 8.169-1.448 5.53-4.148 10.309-8.275 14.225-1.254 1.19-9.101 6.458-9.101 6.458s-7.974-5.297-9.136-6.448z"/></g><defs><clipPath id="clip0_795_1222"><path fill="#fff" d="M0 0h80v80H0z"/></clipPath></defs></svg>