<svg width="81" height="81" fill="none" xmlns="http://www.w3.org/2000/svg"><path fill-rule="evenodd" clip-rule="evenodd" d="M40.922 15.749L15.2 40.019h15.198v24.998h20.687V39.835h15.59L40.922 15.748zM22.216 37.232L40.93 19.574l18.684 17.473H48.297V62.23H33.186V37.231h-10.97z" fill="#E21E24"/><path fill-rule="evenodd" clip-rule="evenodd" d="M40.954.954c-22.091 0-40 17.909-40 40s17.909 40 40 40 40-17.908 40-40c0-22.091-17.909-40-40-40zm-37.212 40c0-20.552 16.66-37.212 37.212-37.212 20.552 0 37.212 16.66 37.212 37.212 0 20.552-16.66 37.212-37.212 37.212-20.552 0-37.212-16.66-37.212-37.212z" fill="#E21E24"/></svg>